%TF.GenerationSoftware,KiCad,Pcbnew,7.0.6*%
%TF.CreationDate,2024-05-07T01:09:36+03:00*%
%TF.ProjectId,board-photodiode,626f6172-642d-4706-986f-746f64696f64,rev?*%
%TF.SameCoordinates,Original*%
%TF.FileFunction,Drillmap*%
%TF.FilePolarity,Positive*%
%FSLAX45Y45*%
G04 Gerber Fmt 4.5, Leading zero omitted, Abs format (unit mm)*
G04 Created by KiCad (PCBNEW 7.0.6) date 2024-05-07 01:09:36*
%MOMM*%
%LPD*%
G01*
G04 APERTURE LIST*
%ADD10C,0.100000*%
%ADD11C,0.200000*%
%ADD12C,0.090000*%
G04 APERTURE END LIST*
D10*
X12725400Y-7696200D02*
X15100300Y-7696200D01*
X15100300Y-8559800D01*
X12725400Y-8559800D01*
X12725400Y-7696200D01*
D11*
D12*
X14712400Y-7956000D02*
X14802400Y-8046000D01*
X14802400Y-7956000D02*
X14712400Y-8046000D01*
X14712400Y-8210000D02*
X14802400Y-8300000D01*
X14802400Y-8210000D02*
X14712400Y-8300000D01*
D10*
X14045400Y-7874000D02*
G75*
G03*
X14045400Y-7874000I-50000J0D01*
G01*
X14045400Y-8128000D02*
G75*
G03*
X14045400Y-8128000I-50000J0D01*
G01*
X14045400Y-8382000D02*
G75*
G03*
X14045400Y-8382000I-50000J0D01*
G01*
X14299400Y-7874000D02*
G75*
G03*
X14299400Y-7874000I-50000J0D01*
G01*
X14299400Y-8128000D02*
G75*
G03*
X14299400Y-8128000I-50000J0D01*
G01*
X14299400Y-8382000D02*
G75*
G03*
X14299400Y-8382000I-50000J0D01*
G01*
D11*
X12981177Y-8876284D02*
X12981177Y-8676284D01*
X12981177Y-8676284D02*
X13028796Y-8676284D01*
X13028796Y-8676284D02*
X13057367Y-8685808D01*
X13057367Y-8685808D02*
X13076415Y-8704855D01*
X13076415Y-8704855D02*
X13085939Y-8723903D01*
X13085939Y-8723903D02*
X13095462Y-8761998D01*
X13095462Y-8761998D02*
X13095462Y-8790570D01*
X13095462Y-8790570D02*
X13085939Y-8828665D01*
X13085939Y-8828665D02*
X13076415Y-8847712D01*
X13076415Y-8847712D02*
X13057367Y-8866760D01*
X13057367Y-8866760D02*
X13028796Y-8876284D01*
X13028796Y-8876284D02*
X12981177Y-8876284D01*
X13181177Y-8876284D02*
X13181177Y-8742950D01*
X13181177Y-8781046D02*
X13190701Y-8761998D01*
X13190701Y-8761998D02*
X13200224Y-8752474D01*
X13200224Y-8752474D02*
X13219272Y-8742950D01*
X13219272Y-8742950D02*
X13238320Y-8742950D01*
X13304986Y-8876284D02*
X13304986Y-8742950D01*
X13304986Y-8676284D02*
X13295462Y-8685808D01*
X13295462Y-8685808D02*
X13304986Y-8695331D01*
X13304986Y-8695331D02*
X13314510Y-8685808D01*
X13314510Y-8685808D02*
X13304986Y-8676284D01*
X13304986Y-8676284D02*
X13304986Y-8695331D01*
X13428796Y-8876284D02*
X13409748Y-8866760D01*
X13409748Y-8866760D02*
X13400224Y-8847712D01*
X13400224Y-8847712D02*
X13400224Y-8676284D01*
X13533558Y-8876284D02*
X13514510Y-8866760D01*
X13514510Y-8866760D02*
X13504986Y-8847712D01*
X13504986Y-8847712D02*
X13504986Y-8676284D01*
X13762129Y-8876284D02*
X13762129Y-8676284D01*
X13762129Y-8676284D02*
X13828796Y-8819141D01*
X13828796Y-8819141D02*
X13895462Y-8676284D01*
X13895462Y-8676284D02*
X13895462Y-8876284D01*
X14076415Y-8876284D02*
X14076415Y-8771522D01*
X14076415Y-8771522D02*
X14066891Y-8752474D01*
X14066891Y-8752474D02*
X14047843Y-8742950D01*
X14047843Y-8742950D02*
X14009748Y-8742950D01*
X14009748Y-8742950D02*
X13990701Y-8752474D01*
X14076415Y-8866760D02*
X14057367Y-8876284D01*
X14057367Y-8876284D02*
X14009748Y-8876284D01*
X14009748Y-8876284D02*
X13990701Y-8866760D01*
X13990701Y-8866760D02*
X13981177Y-8847712D01*
X13981177Y-8847712D02*
X13981177Y-8828665D01*
X13981177Y-8828665D02*
X13990701Y-8809617D01*
X13990701Y-8809617D02*
X14009748Y-8800093D01*
X14009748Y-8800093D02*
X14057367Y-8800093D01*
X14057367Y-8800093D02*
X14076415Y-8790570D01*
X14171653Y-8742950D02*
X14171653Y-8942950D01*
X14171653Y-8752474D02*
X14190701Y-8742950D01*
X14190701Y-8742950D02*
X14228796Y-8742950D01*
X14228796Y-8742950D02*
X14247843Y-8752474D01*
X14247843Y-8752474D02*
X14257367Y-8761998D01*
X14257367Y-8761998D02*
X14266891Y-8781046D01*
X14266891Y-8781046D02*
X14266891Y-8838189D01*
X14266891Y-8838189D02*
X14257367Y-8857236D01*
X14257367Y-8857236D02*
X14247843Y-8866760D01*
X14247843Y-8866760D02*
X14228796Y-8876284D01*
X14228796Y-8876284D02*
X14190701Y-8876284D01*
X14190701Y-8876284D02*
X14171653Y-8866760D01*
X14352605Y-8857236D02*
X14362129Y-8866760D01*
X14362129Y-8866760D02*
X14352605Y-8876284D01*
X14352605Y-8876284D02*
X14343082Y-8866760D01*
X14343082Y-8866760D02*
X14352605Y-8857236D01*
X14352605Y-8857236D02*
X14352605Y-8876284D01*
X14352605Y-8752474D02*
X14362129Y-8761998D01*
X14362129Y-8761998D02*
X14352605Y-8771522D01*
X14352605Y-8771522D02*
X14343082Y-8761998D01*
X14343082Y-8761998D02*
X14352605Y-8752474D01*
X14352605Y-8752474D02*
X14352605Y-8771522D01*
D12*
X12630400Y-9159800D02*
X12720400Y-9249800D01*
X12720400Y-9159800D02*
X12630400Y-9249800D01*
D11*
X13019272Y-9096284D02*
X13038320Y-9096284D01*
X13038320Y-9096284D02*
X13057367Y-9105808D01*
X13057367Y-9105808D02*
X13066891Y-9115331D01*
X13066891Y-9115331D02*
X13076415Y-9134379D01*
X13076415Y-9134379D02*
X13085939Y-9172474D01*
X13085939Y-9172474D02*
X13085939Y-9220093D01*
X13085939Y-9220093D02*
X13076415Y-9258189D01*
X13076415Y-9258189D02*
X13066891Y-9277236D01*
X13066891Y-9277236D02*
X13057367Y-9286760D01*
X13057367Y-9286760D02*
X13038320Y-9296284D01*
X13038320Y-9296284D02*
X13019272Y-9296284D01*
X13019272Y-9296284D02*
X13000224Y-9286760D01*
X13000224Y-9286760D02*
X12990701Y-9277236D01*
X12990701Y-9277236D02*
X12981177Y-9258189D01*
X12981177Y-9258189D02*
X12971653Y-9220093D01*
X12971653Y-9220093D02*
X12971653Y-9172474D01*
X12971653Y-9172474D02*
X12981177Y-9134379D01*
X12981177Y-9134379D02*
X12990701Y-9115331D01*
X12990701Y-9115331D02*
X13000224Y-9105808D01*
X13000224Y-9105808D02*
X13019272Y-9096284D01*
X13171653Y-9277236D02*
X13181177Y-9286760D01*
X13181177Y-9286760D02*
X13171653Y-9296284D01*
X13171653Y-9296284D02*
X13162129Y-9286760D01*
X13162129Y-9286760D02*
X13171653Y-9277236D01*
X13171653Y-9277236D02*
X13171653Y-9296284D01*
X13276415Y-9296284D02*
X13314510Y-9296284D01*
X13314510Y-9296284D02*
X13333558Y-9286760D01*
X13333558Y-9286760D02*
X13343082Y-9277236D01*
X13343082Y-9277236D02*
X13362129Y-9248665D01*
X13362129Y-9248665D02*
X13371653Y-9210570D01*
X13371653Y-9210570D02*
X13371653Y-9134379D01*
X13371653Y-9134379D02*
X13362129Y-9115331D01*
X13362129Y-9115331D02*
X13352605Y-9105808D01*
X13352605Y-9105808D02*
X13333558Y-9096284D01*
X13333558Y-9096284D02*
X13295462Y-9096284D01*
X13295462Y-9096284D02*
X13276415Y-9105808D01*
X13276415Y-9105808D02*
X13266891Y-9115331D01*
X13266891Y-9115331D02*
X13257367Y-9134379D01*
X13257367Y-9134379D02*
X13257367Y-9181998D01*
X13257367Y-9181998D02*
X13266891Y-9201046D01*
X13266891Y-9201046D02*
X13276415Y-9210570D01*
X13276415Y-9210570D02*
X13295462Y-9220093D01*
X13295462Y-9220093D02*
X13333558Y-9220093D01*
X13333558Y-9220093D02*
X13352605Y-9210570D01*
X13352605Y-9210570D02*
X13362129Y-9201046D01*
X13362129Y-9201046D02*
X13371653Y-9181998D01*
X13495462Y-9096284D02*
X13514510Y-9096284D01*
X13514510Y-9096284D02*
X13533558Y-9105808D01*
X13533558Y-9105808D02*
X13543082Y-9115331D01*
X13543082Y-9115331D02*
X13552605Y-9134379D01*
X13552605Y-9134379D02*
X13562129Y-9172474D01*
X13562129Y-9172474D02*
X13562129Y-9220093D01*
X13562129Y-9220093D02*
X13552605Y-9258189D01*
X13552605Y-9258189D02*
X13543082Y-9277236D01*
X13543082Y-9277236D02*
X13533558Y-9286760D01*
X13533558Y-9286760D02*
X13514510Y-9296284D01*
X13514510Y-9296284D02*
X13495462Y-9296284D01*
X13495462Y-9296284D02*
X13476415Y-9286760D01*
X13476415Y-9286760D02*
X13466891Y-9277236D01*
X13466891Y-9277236D02*
X13457367Y-9258189D01*
X13457367Y-9258189D02*
X13447843Y-9220093D01*
X13447843Y-9220093D02*
X13447843Y-9172474D01*
X13447843Y-9172474D02*
X13457367Y-9134379D01*
X13457367Y-9134379D02*
X13466891Y-9115331D01*
X13466891Y-9115331D02*
X13476415Y-9105808D01*
X13476415Y-9105808D02*
X13495462Y-9096284D01*
X13685939Y-9096284D02*
X13704986Y-9096284D01*
X13704986Y-9096284D02*
X13724034Y-9105808D01*
X13724034Y-9105808D02*
X13733558Y-9115331D01*
X13733558Y-9115331D02*
X13743082Y-9134379D01*
X13743082Y-9134379D02*
X13752605Y-9172474D01*
X13752605Y-9172474D02*
X13752605Y-9220093D01*
X13752605Y-9220093D02*
X13743082Y-9258189D01*
X13743082Y-9258189D02*
X13733558Y-9277236D01*
X13733558Y-9277236D02*
X13724034Y-9286760D01*
X13724034Y-9286760D02*
X13704986Y-9296284D01*
X13704986Y-9296284D02*
X13685939Y-9296284D01*
X13685939Y-9296284D02*
X13666891Y-9286760D01*
X13666891Y-9286760D02*
X13657367Y-9277236D01*
X13657367Y-9277236D02*
X13647843Y-9258189D01*
X13647843Y-9258189D02*
X13638320Y-9220093D01*
X13638320Y-9220093D02*
X13638320Y-9172474D01*
X13638320Y-9172474D02*
X13647843Y-9134379D01*
X13647843Y-9134379D02*
X13657367Y-9115331D01*
X13657367Y-9115331D02*
X13666891Y-9105808D01*
X13666891Y-9105808D02*
X13685939Y-9096284D01*
X13838320Y-9296284D02*
X13838320Y-9162950D01*
X13838320Y-9181998D02*
X13847843Y-9172474D01*
X13847843Y-9172474D02*
X13866891Y-9162950D01*
X13866891Y-9162950D02*
X13895463Y-9162950D01*
X13895463Y-9162950D02*
X13914510Y-9172474D01*
X13914510Y-9172474D02*
X13924034Y-9191522D01*
X13924034Y-9191522D02*
X13924034Y-9296284D01*
X13924034Y-9191522D02*
X13933558Y-9172474D01*
X13933558Y-9172474D02*
X13952605Y-9162950D01*
X13952605Y-9162950D02*
X13981177Y-9162950D01*
X13981177Y-9162950D02*
X14000224Y-9172474D01*
X14000224Y-9172474D02*
X14009748Y-9191522D01*
X14009748Y-9191522D02*
X14009748Y-9296284D01*
X14104986Y-9296284D02*
X14104986Y-9162950D01*
X14104986Y-9181998D02*
X14114510Y-9172474D01*
X14114510Y-9172474D02*
X14133558Y-9162950D01*
X14133558Y-9162950D02*
X14162129Y-9162950D01*
X14162129Y-9162950D02*
X14181177Y-9172474D01*
X14181177Y-9172474D02*
X14190701Y-9191522D01*
X14190701Y-9191522D02*
X14190701Y-9296284D01*
X14190701Y-9191522D02*
X14200224Y-9172474D01*
X14200224Y-9172474D02*
X14219272Y-9162950D01*
X14219272Y-9162950D02*
X14247843Y-9162950D01*
X14247843Y-9162950D02*
X14266891Y-9172474D01*
X14266891Y-9172474D02*
X14276415Y-9191522D01*
X14276415Y-9191522D02*
X14276415Y-9296284D01*
X14666891Y-9086760D02*
X14495463Y-9343903D01*
X14924034Y-9096284D02*
X14943082Y-9096284D01*
X14943082Y-9096284D02*
X14962129Y-9105808D01*
X14962129Y-9105808D02*
X14971653Y-9115331D01*
X14971653Y-9115331D02*
X14981177Y-9134379D01*
X14981177Y-9134379D02*
X14990701Y-9172474D01*
X14990701Y-9172474D02*
X14990701Y-9220093D01*
X14990701Y-9220093D02*
X14981177Y-9258189D01*
X14981177Y-9258189D02*
X14971653Y-9277236D01*
X14971653Y-9277236D02*
X14962129Y-9286760D01*
X14962129Y-9286760D02*
X14943082Y-9296284D01*
X14943082Y-9296284D02*
X14924034Y-9296284D01*
X14924034Y-9296284D02*
X14904986Y-9286760D01*
X14904986Y-9286760D02*
X14895463Y-9277236D01*
X14895463Y-9277236D02*
X14885939Y-9258189D01*
X14885939Y-9258189D02*
X14876415Y-9220093D01*
X14876415Y-9220093D02*
X14876415Y-9172474D01*
X14876415Y-9172474D02*
X14885939Y-9134379D01*
X14885939Y-9134379D02*
X14895463Y-9115331D01*
X14895463Y-9115331D02*
X14904986Y-9105808D01*
X14904986Y-9105808D02*
X14924034Y-9096284D01*
X15076415Y-9277236D02*
X15085939Y-9286760D01*
X15085939Y-9286760D02*
X15076415Y-9296284D01*
X15076415Y-9296284D02*
X15066891Y-9286760D01*
X15066891Y-9286760D02*
X15076415Y-9277236D01*
X15076415Y-9277236D02*
X15076415Y-9296284D01*
X15209748Y-9096284D02*
X15228796Y-9096284D01*
X15228796Y-9096284D02*
X15247844Y-9105808D01*
X15247844Y-9105808D02*
X15257367Y-9115331D01*
X15257367Y-9115331D02*
X15266891Y-9134379D01*
X15266891Y-9134379D02*
X15276415Y-9172474D01*
X15276415Y-9172474D02*
X15276415Y-9220093D01*
X15276415Y-9220093D02*
X15266891Y-9258189D01*
X15266891Y-9258189D02*
X15257367Y-9277236D01*
X15257367Y-9277236D02*
X15247844Y-9286760D01*
X15247844Y-9286760D02*
X15228796Y-9296284D01*
X15228796Y-9296284D02*
X15209748Y-9296284D01*
X15209748Y-9296284D02*
X15190701Y-9286760D01*
X15190701Y-9286760D02*
X15181177Y-9277236D01*
X15181177Y-9277236D02*
X15171653Y-9258189D01*
X15171653Y-9258189D02*
X15162129Y-9220093D01*
X15162129Y-9220093D02*
X15162129Y-9172474D01*
X15162129Y-9172474D02*
X15171653Y-9134379D01*
X15171653Y-9134379D02*
X15181177Y-9115331D01*
X15181177Y-9115331D02*
X15190701Y-9105808D01*
X15190701Y-9105808D02*
X15209748Y-9096284D01*
X15343082Y-9096284D02*
X15466891Y-9096284D01*
X15466891Y-9096284D02*
X15400225Y-9172474D01*
X15400225Y-9172474D02*
X15428796Y-9172474D01*
X15428796Y-9172474D02*
X15447844Y-9181998D01*
X15447844Y-9181998D02*
X15457367Y-9191522D01*
X15457367Y-9191522D02*
X15466891Y-9210570D01*
X15466891Y-9210570D02*
X15466891Y-9258189D01*
X15466891Y-9258189D02*
X15457367Y-9277236D01*
X15457367Y-9277236D02*
X15447844Y-9286760D01*
X15447844Y-9286760D02*
X15428796Y-9296284D01*
X15428796Y-9296284D02*
X15371653Y-9296284D01*
X15371653Y-9296284D02*
X15352606Y-9286760D01*
X15352606Y-9286760D02*
X15343082Y-9277236D01*
X15647844Y-9096284D02*
X15552606Y-9096284D01*
X15552606Y-9096284D02*
X15543082Y-9191522D01*
X15543082Y-9191522D02*
X15552606Y-9181998D01*
X15552606Y-9181998D02*
X15571653Y-9172474D01*
X15571653Y-9172474D02*
X15619272Y-9172474D01*
X15619272Y-9172474D02*
X15638320Y-9181998D01*
X15638320Y-9181998D02*
X15647844Y-9191522D01*
X15647844Y-9191522D02*
X15657367Y-9210570D01*
X15657367Y-9210570D02*
X15657367Y-9258189D01*
X15657367Y-9258189D02*
X15647844Y-9277236D01*
X15647844Y-9277236D02*
X15638320Y-9286760D01*
X15638320Y-9286760D02*
X15619272Y-9296284D01*
X15619272Y-9296284D02*
X15571653Y-9296284D01*
X15571653Y-9296284D02*
X15552606Y-9286760D01*
X15552606Y-9286760D02*
X15543082Y-9277236D01*
X15828796Y-9162950D02*
X15828796Y-9296284D01*
X15781177Y-9086760D02*
X15733558Y-9229617D01*
X15733558Y-9229617D02*
X15857367Y-9229617D01*
X15924034Y-9096284D02*
X15924034Y-9134379D01*
X16000225Y-9096284D02*
X16000225Y-9134379D01*
X16295463Y-9372474D02*
X16285939Y-9362950D01*
X16285939Y-9362950D02*
X16266891Y-9334379D01*
X16266891Y-9334379D02*
X16257368Y-9315331D01*
X16257368Y-9315331D02*
X16247844Y-9286760D01*
X16247844Y-9286760D02*
X16238320Y-9239141D01*
X16238320Y-9239141D02*
X16238320Y-9201046D01*
X16238320Y-9201046D02*
X16247844Y-9153427D01*
X16247844Y-9153427D02*
X16257368Y-9124855D01*
X16257368Y-9124855D02*
X16266891Y-9105808D01*
X16266891Y-9105808D02*
X16285939Y-9077236D01*
X16285939Y-9077236D02*
X16295463Y-9067712D01*
X16362129Y-9115331D02*
X16371653Y-9105808D01*
X16371653Y-9105808D02*
X16390701Y-9096284D01*
X16390701Y-9096284D02*
X16438320Y-9096284D01*
X16438320Y-9096284D02*
X16457368Y-9105808D01*
X16457368Y-9105808D02*
X16466891Y-9115331D01*
X16466891Y-9115331D02*
X16476415Y-9134379D01*
X16476415Y-9134379D02*
X16476415Y-9153427D01*
X16476415Y-9153427D02*
X16466891Y-9181998D01*
X16466891Y-9181998D02*
X16352606Y-9296284D01*
X16352606Y-9296284D02*
X16476415Y-9296284D01*
X16714510Y-9296284D02*
X16714510Y-9096284D01*
X16800225Y-9296284D02*
X16800225Y-9191522D01*
X16800225Y-9191522D02*
X16790701Y-9172474D01*
X16790701Y-9172474D02*
X16771653Y-9162950D01*
X16771653Y-9162950D02*
X16743082Y-9162950D01*
X16743082Y-9162950D02*
X16724034Y-9172474D01*
X16724034Y-9172474D02*
X16714510Y-9181998D01*
X16924034Y-9296284D02*
X16904987Y-9286760D01*
X16904987Y-9286760D02*
X16895463Y-9277236D01*
X16895463Y-9277236D02*
X16885939Y-9258189D01*
X16885939Y-9258189D02*
X16885939Y-9201046D01*
X16885939Y-9201046D02*
X16895463Y-9181998D01*
X16895463Y-9181998D02*
X16904987Y-9172474D01*
X16904987Y-9172474D02*
X16924034Y-9162950D01*
X16924034Y-9162950D02*
X16952606Y-9162950D01*
X16952606Y-9162950D02*
X16971653Y-9172474D01*
X16971653Y-9172474D02*
X16981177Y-9181998D01*
X16981177Y-9181998D02*
X16990701Y-9201046D01*
X16990701Y-9201046D02*
X16990701Y-9258189D01*
X16990701Y-9258189D02*
X16981177Y-9277236D01*
X16981177Y-9277236D02*
X16971653Y-9286760D01*
X16971653Y-9286760D02*
X16952606Y-9296284D01*
X16952606Y-9296284D02*
X16924034Y-9296284D01*
X17104987Y-9296284D02*
X17085939Y-9286760D01*
X17085939Y-9286760D02*
X17076415Y-9267712D01*
X17076415Y-9267712D02*
X17076415Y-9096284D01*
X17257368Y-9286760D02*
X17238320Y-9296284D01*
X17238320Y-9296284D02*
X17200225Y-9296284D01*
X17200225Y-9296284D02*
X17181177Y-9286760D01*
X17181177Y-9286760D02*
X17171653Y-9267712D01*
X17171653Y-9267712D02*
X17171653Y-9191522D01*
X17171653Y-9191522D02*
X17181177Y-9172474D01*
X17181177Y-9172474D02*
X17200225Y-9162950D01*
X17200225Y-9162950D02*
X17238320Y-9162950D01*
X17238320Y-9162950D02*
X17257368Y-9172474D01*
X17257368Y-9172474D02*
X17266892Y-9191522D01*
X17266892Y-9191522D02*
X17266892Y-9210570D01*
X17266892Y-9210570D02*
X17171653Y-9229617D01*
X17343082Y-9286760D02*
X17362130Y-9296284D01*
X17362130Y-9296284D02*
X17400225Y-9296284D01*
X17400225Y-9296284D02*
X17419273Y-9286760D01*
X17419273Y-9286760D02*
X17428796Y-9267712D01*
X17428796Y-9267712D02*
X17428796Y-9258189D01*
X17428796Y-9258189D02*
X17419273Y-9239141D01*
X17419273Y-9239141D02*
X17400225Y-9229617D01*
X17400225Y-9229617D02*
X17371653Y-9229617D01*
X17371653Y-9229617D02*
X17352606Y-9220093D01*
X17352606Y-9220093D02*
X17343082Y-9201046D01*
X17343082Y-9201046D02*
X17343082Y-9191522D01*
X17343082Y-9191522D02*
X17352606Y-9172474D01*
X17352606Y-9172474D02*
X17371653Y-9162950D01*
X17371653Y-9162950D02*
X17400225Y-9162950D01*
X17400225Y-9162950D02*
X17419273Y-9172474D01*
X17495463Y-9372474D02*
X17504987Y-9362950D01*
X17504987Y-9362950D02*
X17524034Y-9334379D01*
X17524034Y-9334379D02*
X17533558Y-9315331D01*
X17533558Y-9315331D02*
X17543082Y-9286760D01*
X17543082Y-9286760D02*
X17552606Y-9239141D01*
X17552606Y-9239141D02*
X17552606Y-9201046D01*
X17552606Y-9201046D02*
X17543082Y-9153427D01*
X17543082Y-9153427D02*
X17533558Y-9124855D01*
X17533558Y-9124855D02*
X17524034Y-9105808D01*
X17524034Y-9105808D02*
X17504987Y-9077236D01*
X17504987Y-9077236D02*
X17495463Y-9067712D01*
D10*
X12720400Y-9468800D02*
G75*
G03*
X12720400Y-9468800I-50000J0D01*
G01*
D11*
X13085939Y-9560284D02*
X12971653Y-9560284D01*
X13028796Y-9560284D02*
X13028796Y-9360284D01*
X13028796Y-9360284D02*
X13009748Y-9388855D01*
X13009748Y-9388855D02*
X12990701Y-9407903D01*
X12990701Y-9407903D02*
X12971653Y-9417427D01*
X13171653Y-9541236D02*
X13181177Y-9550760D01*
X13181177Y-9550760D02*
X13171653Y-9560284D01*
X13171653Y-9560284D02*
X13162129Y-9550760D01*
X13162129Y-9550760D02*
X13171653Y-9541236D01*
X13171653Y-9541236D02*
X13171653Y-9560284D01*
X13304986Y-9360284D02*
X13324034Y-9360284D01*
X13324034Y-9360284D02*
X13343082Y-9369808D01*
X13343082Y-9369808D02*
X13352605Y-9379331D01*
X13352605Y-9379331D02*
X13362129Y-9398379D01*
X13362129Y-9398379D02*
X13371653Y-9436474D01*
X13371653Y-9436474D02*
X13371653Y-9484093D01*
X13371653Y-9484093D02*
X13362129Y-9522189D01*
X13362129Y-9522189D02*
X13352605Y-9541236D01*
X13352605Y-9541236D02*
X13343082Y-9550760D01*
X13343082Y-9550760D02*
X13324034Y-9560284D01*
X13324034Y-9560284D02*
X13304986Y-9560284D01*
X13304986Y-9560284D02*
X13285939Y-9550760D01*
X13285939Y-9550760D02*
X13276415Y-9541236D01*
X13276415Y-9541236D02*
X13266891Y-9522189D01*
X13266891Y-9522189D02*
X13257367Y-9484093D01*
X13257367Y-9484093D02*
X13257367Y-9436474D01*
X13257367Y-9436474D02*
X13266891Y-9398379D01*
X13266891Y-9398379D02*
X13276415Y-9379331D01*
X13276415Y-9379331D02*
X13285939Y-9369808D01*
X13285939Y-9369808D02*
X13304986Y-9360284D01*
X13495462Y-9360284D02*
X13514510Y-9360284D01*
X13514510Y-9360284D02*
X13533558Y-9369808D01*
X13533558Y-9369808D02*
X13543082Y-9379331D01*
X13543082Y-9379331D02*
X13552605Y-9398379D01*
X13552605Y-9398379D02*
X13562129Y-9436474D01*
X13562129Y-9436474D02*
X13562129Y-9484093D01*
X13562129Y-9484093D02*
X13552605Y-9522189D01*
X13552605Y-9522189D02*
X13543082Y-9541236D01*
X13543082Y-9541236D02*
X13533558Y-9550760D01*
X13533558Y-9550760D02*
X13514510Y-9560284D01*
X13514510Y-9560284D02*
X13495462Y-9560284D01*
X13495462Y-9560284D02*
X13476415Y-9550760D01*
X13476415Y-9550760D02*
X13466891Y-9541236D01*
X13466891Y-9541236D02*
X13457367Y-9522189D01*
X13457367Y-9522189D02*
X13447843Y-9484093D01*
X13447843Y-9484093D02*
X13447843Y-9436474D01*
X13447843Y-9436474D02*
X13457367Y-9398379D01*
X13457367Y-9398379D02*
X13466891Y-9379331D01*
X13466891Y-9379331D02*
X13476415Y-9369808D01*
X13476415Y-9369808D02*
X13495462Y-9360284D01*
X13685939Y-9360284D02*
X13704986Y-9360284D01*
X13704986Y-9360284D02*
X13724034Y-9369808D01*
X13724034Y-9369808D02*
X13733558Y-9379331D01*
X13733558Y-9379331D02*
X13743082Y-9398379D01*
X13743082Y-9398379D02*
X13752605Y-9436474D01*
X13752605Y-9436474D02*
X13752605Y-9484093D01*
X13752605Y-9484093D02*
X13743082Y-9522189D01*
X13743082Y-9522189D02*
X13733558Y-9541236D01*
X13733558Y-9541236D02*
X13724034Y-9550760D01*
X13724034Y-9550760D02*
X13704986Y-9560284D01*
X13704986Y-9560284D02*
X13685939Y-9560284D01*
X13685939Y-9560284D02*
X13666891Y-9550760D01*
X13666891Y-9550760D02*
X13657367Y-9541236D01*
X13657367Y-9541236D02*
X13647843Y-9522189D01*
X13647843Y-9522189D02*
X13638320Y-9484093D01*
X13638320Y-9484093D02*
X13638320Y-9436474D01*
X13638320Y-9436474D02*
X13647843Y-9398379D01*
X13647843Y-9398379D02*
X13657367Y-9379331D01*
X13657367Y-9379331D02*
X13666891Y-9369808D01*
X13666891Y-9369808D02*
X13685939Y-9360284D01*
X13838320Y-9560284D02*
X13838320Y-9426950D01*
X13838320Y-9445998D02*
X13847843Y-9436474D01*
X13847843Y-9436474D02*
X13866891Y-9426950D01*
X13866891Y-9426950D02*
X13895463Y-9426950D01*
X13895463Y-9426950D02*
X13914510Y-9436474D01*
X13914510Y-9436474D02*
X13924034Y-9455522D01*
X13924034Y-9455522D02*
X13924034Y-9560284D01*
X13924034Y-9455522D02*
X13933558Y-9436474D01*
X13933558Y-9436474D02*
X13952605Y-9426950D01*
X13952605Y-9426950D02*
X13981177Y-9426950D01*
X13981177Y-9426950D02*
X14000224Y-9436474D01*
X14000224Y-9436474D02*
X14009748Y-9455522D01*
X14009748Y-9455522D02*
X14009748Y-9560284D01*
X14104986Y-9560284D02*
X14104986Y-9426950D01*
X14104986Y-9445998D02*
X14114510Y-9436474D01*
X14114510Y-9436474D02*
X14133558Y-9426950D01*
X14133558Y-9426950D02*
X14162129Y-9426950D01*
X14162129Y-9426950D02*
X14181177Y-9436474D01*
X14181177Y-9436474D02*
X14190701Y-9455522D01*
X14190701Y-9455522D02*
X14190701Y-9560284D01*
X14190701Y-9455522D02*
X14200224Y-9436474D01*
X14200224Y-9436474D02*
X14219272Y-9426950D01*
X14219272Y-9426950D02*
X14247843Y-9426950D01*
X14247843Y-9426950D02*
X14266891Y-9436474D01*
X14266891Y-9436474D02*
X14276415Y-9455522D01*
X14276415Y-9455522D02*
X14276415Y-9560284D01*
X14666891Y-9350760D02*
X14495463Y-9607903D01*
X14924034Y-9360284D02*
X14943082Y-9360284D01*
X14943082Y-9360284D02*
X14962129Y-9369808D01*
X14962129Y-9369808D02*
X14971653Y-9379331D01*
X14971653Y-9379331D02*
X14981177Y-9398379D01*
X14981177Y-9398379D02*
X14990701Y-9436474D01*
X14990701Y-9436474D02*
X14990701Y-9484093D01*
X14990701Y-9484093D02*
X14981177Y-9522189D01*
X14981177Y-9522189D02*
X14971653Y-9541236D01*
X14971653Y-9541236D02*
X14962129Y-9550760D01*
X14962129Y-9550760D02*
X14943082Y-9560284D01*
X14943082Y-9560284D02*
X14924034Y-9560284D01*
X14924034Y-9560284D02*
X14904986Y-9550760D01*
X14904986Y-9550760D02*
X14895463Y-9541236D01*
X14895463Y-9541236D02*
X14885939Y-9522189D01*
X14885939Y-9522189D02*
X14876415Y-9484093D01*
X14876415Y-9484093D02*
X14876415Y-9436474D01*
X14876415Y-9436474D02*
X14885939Y-9398379D01*
X14885939Y-9398379D02*
X14895463Y-9379331D01*
X14895463Y-9379331D02*
X14904986Y-9369808D01*
X14904986Y-9369808D02*
X14924034Y-9360284D01*
X15076415Y-9541236D02*
X15085939Y-9550760D01*
X15085939Y-9550760D02*
X15076415Y-9560284D01*
X15076415Y-9560284D02*
X15066891Y-9550760D01*
X15066891Y-9550760D02*
X15076415Y-9541236D01*
X15076415Y-9541236D02*
X15076415Y-9560284D01*
X15209748Y-9360284D02*
X15228796Y-9360284D01*
X15228796Y-9360284D02*
X15247844Y-9369808D01*
X15247844Y-9369808D02*
X15257367Y-9379331D01*
X15257367Y-9379331D02*
X15266891Y-9398379D01*
X15266891Y-9398379D02*
X15276415Y-9436474D01*
X15276415Y-9436474D02*
X15276415Y-9484093D01*
X15276415Y-9484093D02*
X15266891Y-9522189D01*
X15266891Y-9522189D02*
X15257367Y-9541236D01*
X15257367Y-9541236D02*
X15247844Y-9550760D01*
X15247844Y-9550760D02*
X15228796Y-9560284D01*
X15228796Y-9560284D02*
X15209748Y-9560284D01*
X15209748Y-9560284D02*
X15190701Y-9550760D01*
X15190701Y-9550760D02*
X15181177Y-9541236D01*
X15181177Y-9541236D02*
X15171653Y-9522189D01*
X15171653Y-9522189D02*
X15162129Y-9484093D01*
X15162129Y-9484093D02*
X15162129Y-9436474D01*
X15162129Y-9436474D02*
X15171653Y-9398379D01*
X15171653Y-9398379D02*
X15181177Y-9379331D01*
X15181177Y-9379331D02*
X15190701Y-9369808D01*
X15190701Y-9369808D02*
X15209748Y-9360284D01*
X15343082Y-9360284D02*
X15466891Y-9360284D01*
X15466891Y-9360284D02*
X15400225Y-9436474D01*
X15400225Y-9436474D02*
X15428796Y-9436474D01*
X15428796Y-9436474D02*
X15447844Y-9445998D01*
X15447844Y-9445998D02*
X15457367Y-9455522D01*
X15457367Y-9455522D02*
X15466891Y-9474570D01*
X15466891Y-9474570D02*
X15466891Y-9522189D01*
X15466891Y-9522189D02*
X15457367Y-9541236D01*
X15457367Y-9541236D02*
X15447844Y-9550760D01*
X15447844Y-9550760D02*
X15428796Y-9560284D01*
X15428796Y-9560284D02*
X15371653Y-9560284D01*
X15371653Y-9560284D02*
X15352606Y-9550760D01*
X15352606Y-9550760D02*
X15343082Y-9541236D01*
X15562129Y-9560284D02*
X15600225Y-9560284D01*
X15600225Y-9560284D02*
X15619272Y-9550760D01*
X15619272Y-9550760D02*
X15628796Y-9541236D01*
X15628796Y-9541236D02*
X15647844Y-9512665D01*
X15647844Y-9512665D02*
X15657367Y-9474570D01*
X15657367Y-9474570D02*
X15657367Y-9398379D01*
X15657367Y-9398379D02*
X15647844Y-9379331D01*
X15647844Y-9379331D02*
X15638320Y-9369808D01*
X15638320Y-9369808D02*
X15619272Y-9360284D01*
X15619272Y-9360284D02*
X15581177Y-9360284D01*
X15581177Y-9360284D02*
X15562129Y-9369808D01*
X15562129Y-9369808D02*
X15552606Y-9379331D01*
X15552606Y-9379331D02*
X15543082Y-9398379D01*
X15543082Y-9398379D02*
X15543082Y-9445998D01*
X15543082Y-9445998D02*
X15552606Y-9465046D01*
X15552606Y-9465046D02*
X15562129Y-9474570D01*
X15562129Y-9474570D02*
X15581177Y-9484093D01*
X15581177Y-9484093D02*
X15619272Y-9484093D01*
X15619272Y-9484093D02*
X15638320Y-9474570D01*
X15638320Y-9474570D02*
X15647844Y-9465046D01*
X15647844Y-9465046D02*
X15657367Y-9445998D01*
X15828796Y-9426950D02*
X15828796Y-9560284D01*
X15781177Y-9350760D02*
X15733558Y-9493617D01*
X15733558Y-9493617D02*
X15857367Y-9493617D01*
X15924034Y-9360284D02*
X15924034Y-9398379D01*
X16000225Y-9360284D02*
X16000225Y-9398379D01*
X16295463Y-9636474D02*
X16285939Y-9626950D01*
X16285939Y-9626950D02*
X16266891Y-9598379D01*
X16266891Y-9598379D02*
X16257368Y-9579331D01*
X16257368Y-9579331D02*
X16247844Y-9550760D01*
X16247844Y-9550760D02*
X16238320Y-9503141D01*
X16238320Y-9503141D02*
X16238320Y-9465046D01*
X16238320Y-9465046D02*
X16247844Y-9417427D01*
X16247844Y-9417427D02*
X16257368Y-9388855D01*
X16257368Y-9388855D02*
X16266891Y-9369808D01*
X16266891Y-9369808D02*
X16285939Y-9341236D01*
X16285939Y-9341236D02*
X16295463Y-9331712D01*
X16457368Y-9360284D02*
X16419272Y-9360284D01*
X16419272Y-9360284D02*
X16400225Y-9369808D01*
X16400225Y-9369808D02*
X16390701Y-9379331D01*
X16390701Y-9379331D02*
X16371653Y-9407903D01*
X16371653Y-9407903D02*
X16362129Y-9445998D01*
X16362129Y-9445998D02*
X16362129Y-9522189D01*
X16362129Y-9522189D02*
X16371653Y-9541236D01*
X16371653Y-9541236D02*
X16381177Y-9550760D01*
X16381177Y-9550760D02*
X16400225Y-9560284D01*
X16400225Y-9560284D02*
X16438320Y-9560284D01*
X16438320Y-9560284D02*
X16457368Y-9550760D01*
X16457368Y-9550760D02*
X16466891Y-9541236D01*
X16466891Y-9541236D02*
X16476415Y-9522189D01*
X16476415Y-9522189D02*
X16476415Y-9474570D01*
X16476415Y-9474570D02*
X16466891Y-9455522D01*
X16466891Y-9455522D02*
X16457368Y-9445998D01*
X16457368Y-9445998D02*
X16438320Y-9436474D01*
X16438320Y-9436474D02*
X16400225Y-9436474D01*
X16400225Y-9436474D02*
X16381177Y-9445998D01*
X16381177Y-9445998D02*
X16371653Y-9455522D01*
X16371653Y-9455522D02*
X16362129Y-9474570D01*
X16714510Y-9560284D02*
X16714510Y-9360284D01*
X16800225Y-9560284D02*
X16800225Y-9455522D01*
X16800225Y-9455522D02*
X16790701Y-9436474D01*
X16790701Y-9436474D02*
X16771653Y-9426950D01*
X16771653Y-9426950D02*
X16743082Y-9426950D01*
X16743082Y-9426950D02*
X16724034Y-9436474D01*
X16724034Y-9436474D02*
X16714510Y-9445998D01*
X16924034Y-9560284D02*
X16904987Y-9550760D01*
X16904987Y-9550760D02*
X16895463Y-9541236D01*
X16895463Y-9541236D02*
X16885939Y-9522189D01*
X16885939Y-9522189D02*
X16885939Y-9465046D01*
X16885939Y-9465046D02*
X16895463Y-9445998D01*
X16895463Y-9445998D02*
X16904987Y-9436474D01*
X16904987Y-9436474D02*
X16924034Y-9426950D01*
X16924034Y-9426950D02*
X16952606Y-9426950D01*
X16952606Y-9426950D02*
X16971653Y-9436474D01*
X16971653Y-9436474D02*
X16981177Y-9445998D01*
X16981177Y-9445998D02*
X16990701Y-9465046D01*
X16990701Y-9465046D02*
X16990701Y-9522189D01*
X16990701Y-9522189D02*
X16981177Y-9541236D01*
X16981177Y-9541236D02*
X16971653Y-9550760D01*
X16971653Y-9550760D02*
X16952606Y-9560284D01*
X16952606Y-9560284D02*
X16924034Y-9560284D01*
X17104987Y-9560284D02*
X17085939Y-9550760D01*
X17085939Y-9550760D02*
X17076415Y-9531712D01*
X17076415Y-9531712D02*
X17076415Y-9360284D01*
X17257368Y-9550760D02*
X17238320Y-9560284D01*
X17238320Y-9560284D02*
X17200225Y-9560284D01*
X17200225Y-9560284D02*
X17181177Y-9550760D01*
X17181177Y-9550760D02*
X17171653Y-9531712D01*
X17171653Y-9531712D02*
X17171653Y-9455522D01*
X17171653Y-9455522D02*
X17181177Y-9436474D01*
X17181177Y-9436474D02*
X17200225Y-9426950D01*
X17200225Y-9426950D02*
X17238320Y-9426950D01*
X17238320Y-9426950D02*
X17257368Y-9436474D01*
X17257368Y-9436474D02*
X17266892Y-9455522D01*
X17266892Y-9455522D02*
X17266892Y-9474570D01*
X17266892Y-9474570D02*
X17171653Y-9493617D01*
X17343082Y-9550760D02*
X17362130Y-9560284D01*
X17362130Y-9560284D02*
X17400225Y-9560284D01*
X17400225Y-9560284D02*
X17419273Y-9550760D01*
X17419273Y-9550760D02*
X17428796Y-9531712D01*
X17428796Y-9531712D02*
X17428796Y-9522189D01*
X17428796Y-9522189D02*
X17419273Y-9503141D01*
X17419273Y-9503141D02*
X17400225Y-9493617D01*
X17400225Y-9493617D02*
X17371653Y-9493617D01*
X17371653Y-9493617D02*
X17352606Y-9484093D01*
X17352606Y-9484093D02*
X17343082Y-9465046D01*
X17343082Y-9465046D02*
X17343082Y-9455522D01*
X17343082Y-9455522D02*
X17352606Y-9436474D01*
X17352606Y-9436474D02*
X17371653Y-9426950D01*
X17371653Y-9426950D02*
X17400225Y-9426950D01*
X17400225Y-9426950D02*
X17419273Y-9436474D01*
X17495463Y-9636474D02*
X17504987Y-9626950D01*
X17504987Y-9626950D02*
X17524034Y-9598379D01*
X17524034Y-9598379D02*
X17533558Y-9579331D01*
X17533558Y-9579331D02*
X17543082Y-9550760D01*
X17543082Y-9550760D02*
X17552606Y-9503141D01*
X17552606Y-9503141D02*
X17552606Y-9465046D01*
X17552606Y-9465046D02*
X17543082Y-9417427D01*
X17543082Y-9417427D02*
X17533558Y-9388855D01*
X17533558Y-9388855D02*
X17524034Y-9369808D01*
X17524034Y-9369808D02*
X17504987Y-9341236D01*
X17504987Y-9341236D02*
X17495463Y-9331712D01*
M02*
