%TF.GenerationSoftware,KiCad,Pcbnew,7.0.6*%
%TF.CreationDate,2024-05-07T01:09:36+03:00*%
%TF.ProjectId,board-photodiode,626f6172-642d-4706-986f-746f64696f64,rev?*%
%TF.SameCoordinates,Original*%
%TF.FileFunction,Drillmap*%
%TF.FilePolarity,Positive*%
%FSLAX45Y45*%
G04 Gerber Fmt 4.5, Leading zero omitted, Abs format (unit mm)*
G04 Created by KiCad (PCBNEW 7.0.6) date 2024-05-07 01:09:36*
%MOMM*%
%LPD*%
G01*
G04 APERTURE LIST*
%ADD10C,0.100000*%
%ADD11C,0.200000*%
G04 APERTURE END LIST*
D10*
X12725400Y-7696200D02*
X15100300Y-7696200D01*
X15100300Y-8559800D01*
X12725400Y-8559800D01*
X12725400Y-7696200D01*
D11*
X12981177Y-8876284D02*
X12981177Y-8676284D01*
X12981177Y-8676284D02*
X13028796Y-8676284D01*
X13028796Y-8676284D02*
X13057367Y-8685808D01*
X13057367Y-8685808D02*
X13076415Y-8704855D01*
X13076415Y-8704855D02*
X13085939Y-8723903D01*
X13085939Y-8723903D02*
X13095462Y-8761998D01*
X13095462Y-8761998D02*
X13095462Y-8790570D01*
X13095462Y-8790570D02*
X13085939Y-8828665D01*
X13085939Y-8828665D02*
X13076415Y-8847712D01*
X13076415Y-8847712D02*
X13057367Y-8866760D01*
X13057367Y-8866760D02*
X13028796Y-8876284D01*
X13028796Y-8876284D02*
X12981177Y-8876284D01*
X13181177Y-8876284D02*
X13181177Y-8742950D01*
X13181177Y-8781046D02*
X13190701Y-8761998D01*
X13190701Y-8761998D02*
X13200224Y-8752474D01*
X13200224Y-8752474D02*
X13219272Y-8742950D01*
X13219272Y-8742950D02*
X13238320Y-8742950D01*
X13304986Y-8876284D02*
X13304986Y-8742950D01*
X13304986Y-8676284D02*
X13295462Y-8685808D01*
X13295462Y-8685808D02*
X13304986Y-8695331D01*
X13304986Y-8695331D02*
X13314510Y-8685808D01*
X13314510Y-8685808D02*
X13304986Y-8676284D01*
X13304986Y-8676284D02*
X13304986Y-8695331D01*
X13428796Y-8876284D02*
X13409748Y-8866760D01*
X13409748Y-8866760D02*
X13400224Y-8847712D01*
X13400224Y-8847712D02*
X13400224Y-8676284D01*
X13533558Y-8876284D02*
X13514510Y-8866760D01*
X13514510Y-8866760D02*
X13504986Y-8847712D01*
X13504986Y-8847712D02*
X13504986Y-8676284D01*
X13762129Y-8876284D02*
X13762129Y-8676284D01*
X13762129Y-8676284D02*
X13828796Y-8819141D01*
X13828796Y-8819141D02*
X13895462Y-8676284D01*
X13895462Y-8676284D02*
X13895462Y-8876284D01*
X14076415Y-8876284D02*
X14076415Y-8771522D01*
X14076415Y-8771522D02*
X14066891Y-8752474D01*
X14066891Y-8752474D02*
X14047843Y-8742950D01*
X14047843Y-8742950D02*
X14009748Y-8742950D01*
X14009748Y-8742950D02*
X13990701Y-8752474D01*
X14076415Y-8866760D02*
X14057367Y-8876284D01*
X14057367Y-8876284D02*
X14009748Y-8876284D01*
X14009748Y-8876284D02*
X13990701Y-8866760D01*
X13990701Y-8866760D02*
X13981177Y-8847712D01*
X13981177Y-8847712D02*
X13981177Y-8828665D01*
X13981177Y-8828665D02*
X13990701Y-8809617D01*
X13990701Y-8809617D02*
X14009748Y-8800093D01*
X14009748Y-8800093D02*
X14057367Y-8800093D01*
X14057367Y-8800093D02*
X14076415Y-8790570D01*
X14171653Y-8742950D02*
X14171653Y-8942950D01*
X14171653Y-8752474D02*
X14190701Y-8742950D01*
X14190701Y-8742950D02*
X14228796Y-8742950D01*
X14228796Y-8742950D02*
X14247843Y-8752474D01*
X14247843Y-8752474D02*
X14257367Y-8761998D01*
X14257367Y-8761998D02*
X14266891Y-8781046D01*
X14266891Y-8781046D02*
X14266891Y-8838189D01*
X14266891Y-8838189D02*
X14257367Y-8857236D01*
X14257367Y-8857236D02*
X14247843Y-8866760D01*
X14247843Y-8866760D02*
X14228796Y-8876284D01*
X14228796Y-8876284D02*
X14190701Y-8876284D01*
X14190701Y-8876284D02*
X14171653Y-8866760D01*
X14352605Y-8857236D02*
X14362129Y-8866760D01*
X14362129Y-8866760D02*
X14352605Y-8876284D01*
X14352605Y-8876284D02*
X14343082Y-8866760D01*
X14343082Y-8866760D02*
X14352605Y-8857236D01*
X14352605Y-8857236D02*
X14352605Y-8876284D01*
X14352605Y-8752474D02*
X14362129Y-8761998D01*
X14362129Y-8761998D02*
X14352605Y-8771522D01*
X14352605Y-8771522D02*
X14343082Y-8761998D01*
X14343082Y-8761998D02*
X14352605Y-8752474D01*
X14352605Y-8752474D02*
X14352605Y-8771522D01*
M02*
