G04 #@! TF.GenerationSoftware,KiCad,Pcbnew,7.0.6*
G04 #@! TF.CreationDate,2024-05-07T01:09:31+03:00*
G04 #@! TF.ProjectId,board-photodiode,626f6172-642d-4706-986f-746f64696f64,rev?*
G04 #@! TF.SameCoordinates,Original*
G04 #@! TF.FileFunction,Legend,Top*
G04 #@! TF.FilePolarity,Positive*
%FSLAX46Y46*%
G04 Gerber Fmt 4.6, Leading zero omitted, Abs format (unit mm)*
G04 Created by KiCad (PCBNEW 7.0.6) date 2024-05-07 01:09:31*
%MOMM*%
%LPD*%
G01*
G04 APERTURE LIST*
%ADD10C,0.150000*%
%ADD11C,0.120000*%
%ADD12R,1.700000X1.700000*%
%ADD13O,1.700000X1.700000*%
%ADD14R,1.800000X1.800000*%
%ADD15C,1.800000*%
G04 APERTURE END LIST*
D10*
X133905666Y-80734819D02*
X133905666Y-81449104D01*
X133905666Y-81449104D02*
X133858047Y-81591961D01*
X133858047Y-81591961D02*
X133762809Y-81687200D01*
X133762809Y-81687200D02*
X133619952Y-81734819D01*
X133619952Y-81734819D02*
X133524714Y-81734819D01*
X134905666Y-81734819D02*
X134334238Y-81734819D01*
X134619952Y-81734819D02*
X134619952Y-80734819D01*
X134619952Y-80734819D02*
X134524714Y-80877676D01*
X134524714Y-80877676D02*
X134429476Y-80972914D01*
X134429476Y-80972914D02*
X134334238Y-81020533D01*
X146835905Y-84909819D02*
X146835905Y-83909819D01*
X146835905Y-83909819D02*
X147074000Y-83909819D01*
X147074000Y-83909819D02*
X147216857Y-83957438D01*
X147216857Y-83957438D02*
X147312095Y-84052676D01*
X147312095Y-84052676D02*
X147359714Y-84147914D01*
X147359714Y-84147914D02*
X147407333Y-84338390D01*
X147407333Y-84338390D02*
X147407333Y-84481247D01*
X147407333Y-84481247D02*
X147359714Y-84671723D01*
X147359714Y-84671723D02*
X147312095Y-84766961D01*
X147312095Y-84766961D02*
X147216857Y-84862200D01*
X147216857Y-84862200D02*
X147074000Y-84909819D01*
X147074000Y-84909819D02*
X146835905Y-84909819D01*
X148359714Y-84909819D02*
X147788286Y-84909819D01*
X148074000Y-84909819D02*
X148074000Y-83909819D01*
X148074000Y-83909819D02*
X147978762Y-84052676D01*
X147978762Y-84052676D02*
X147883524Y-84147914D01*
X147883524Y-84147914D02*
X147788286Y-84195533D01*
D11*
X141004000Y-79100000D02*
X141384000Y-79100000D01*
X138494000Y-81640000D02*
X138904000Y-81640000D01*
X129864000Y-78592855D02*
X138494000Y-78592855D01*
X129864000Y-78710950D02*
X138494000Y-78710950D01*
X129864000Y-85150000D02*
X138494000Y-85150000D01*
X129864000Y-79419520D02*
X138494000Y-79419520D01*
X129864000Y-79183330D02*
X138494000Y-79183330D01*
X129864000Y-77410000D02*
X138494000Y-77410000D01*
X129864000Y-79891900D02*
X138494000Y-79891900D01*
X138494000Y-78380000D02*
X138904000Y-78380000D01*
X129864000Y-77530000D02*
X138494000Y-77530000D01*
X138494000Y-84180000D02*
X138904000Y-84180000D01*
X129864000Y-79301425D02*
X138494000Y-79301425D01*
X138494000Y-79100000D02*
X138904000Y-79100000D01*
X129864000Y-77766190D02*
X138494000Y-77766190D01*
X138494000Y-80920000D02*
X138904000Y-80920000D01*
X138494000Y-77410000D02*
X138494000Y-85150000D01*
X143604000Y-77410000D02*
X143604000Y-78740000D01*
X129864000Y-82550000D02*
X138494000Y-82550000D01*
X129864000Y-78356665D02*
X138494000Y-78356665D01*
X129864000Y-77410000D02*
X129864000Y-85150000D01*
X141004000Y-78380000D02*
X141384000Y-78380000D01*
X129864000Y-78829045D02*
X138494000Y-78829045D01*
X129864000Y-79655710D02*
X138494000Y-79655710D01*
X129864000Y-77648095D02*
X138494000Y-77648095D01*
X138494000Y-83460000D02*
X138904000Y-83460000D01*
X141004000Y-84180000D02*
X141444000Y-84180000D01*
X129864000Y-79065235D02*
X138494000Y-79065235D01*
X129864000Y-78238570D02*
X138494000Y-78238570D01*
X129864000Y-78474760D02*
X138494000Y-78474760D01*
X142494000Y-77410000D02*
X143604000Y-77410000D01*
X141004000Y-80920000D02*
X141444000Y-80920000D01*
X129864000Y-80010000D02*
X138494000Y-80010000D01*
X129864000Y-78120475D02*
X138494000Y-78120475D01*
X141004000Y-83460000D02*
X141444000Y-83460000D01*
X129864000Y-78002380D02*
X138494000Y-78002380D01*
X129864000Y-78947140D02*
X138494000Y-78947140D01*
X129864000Y-77884285D02*
X138494000Y-77884285D01*
X141004000Y-81640000D02*
X141444000Y-81640000D01*
X129864000Y-79537615D02*
X138494000Y-79537615D01*
X129864000Y-79773805D02*
X138494000Y-79773805D01*
X148654000Y-82840000D02*
X148810000Y-82840000D01*
X146338000Y-82840000D02*
X146494000Y-82840000D01*
X148653999Y-82320960D02*
G75*
G03*
X148653836Y-80238871I-1079999J1040960D01*
G01*
X146495392Y-79607666D02*
G75*
G03*
X146338485Y-82839999I1078608J-1672334D01*
G01*
X148809515Y-82839999D02*
G75*
G03*
X148652608Y-79607666I-1235515J1559999D01*
G01*
X146494164Y-80238871D02*
G75*
G03*
X146494001Y-82320960I1079836J-1041129D01*
G01*
%LPC*%
D12*
X142494000Y-78740000D03*
D13*
X139954000Y-78740000D03*
X142494000Y-81280000D03*
X139954000Y-81280000D03*
X142494000Y-83820000D03*
X139954000Y-83820000D03*
D14*
X147574000Y-82550000D03*
D15*
X147574000Y-80010000D03*
%LPD*%
M02*
