G04 #@! TF.GenerationSoftware,KiCad,Pcbnew,7.0.6*
G04 #@! TF.CreationDate,2024-05-07T01:09:31+03:00*
G04 #@! TF.ProjectId,board-photodiode,626f6172-642d-4706-986f-746f64696f64,rev?*
G04 #@! TF.SameCoordinates,Original*
G04 #@! TF.FileFunction,Legend,Bot*
G04 #@! TF.FilePolarity,Positive*
%FSLAX46Y46*%
G04 Gerber Fmt 4.6, Leading zero omitted, Abs format (unit mm)*
G04 Created by KiCad (PCBNEW 7.0.6) date 2024-05-07 01:09:31*
%MOMM*%
%LPD*%
G01*
G04 APERTURE LIST*
%ADD10C,0.100000*%
%ADD11R,1.700000X1.700000*%
%ADD12O,1.700000X1.700000*%
%ADD13R,1.800000X1.800000*%
%ADD14C,1.800000*%
G04 APERTURE END LIST*
D10*
X137317104Y-84579734D02*
X138117104Y-84579734D01*
X138117104Y-84579734D02*
X137545676Y-84313068D01*
X137545676Y-84313068D02*
X138117104Y-84046401D01*
X138117104Y-84046401D02*
X137317104Y-84046401D01*
X138040914Y-83703544D02*
X138079009Y-83665448D01*
X138079009Y-83665448D02*
X138117104Y-83589258D01*
X138117104Y-83589258D02*
X138117104Y-83398782D01*
X138117104Y-83398782D02*
X138079009Y-83322591D01*
X138079009Y-83322591D02*
X138040914Y-83284496D01*
X138040914Y-83284496D02*
X137964723Y-83246401D01*
X137964723Y-83246401D02*
X137888533Y-83246401D01*
X137888533Y-83246401D02*
X137774247Y-83284496D01*
X137774247Y-83284496D02*
X137317104Y-83741639D01*
X137317104Y-83741639D02*
X137317104Y-83246401D01*
X137317104Y-82903543D02*
X138117104Y-82903543D01*
X137621866Y-82827353D02*
X137317104Y-82598781D01*
X137850438Y-82598781D02*
X137545676Y-82903543D01*
X136105295Y-84122591D02*
X136067200Y-84160687D01*
X136067200Y-84160687D02*
X136029104Y-84274972D01*
X136029104Y-84274972D02*
X136029104Y-84351163D01*
X136029104Y-84351163D02*
X136067200Y-84465449D01*
X136067200Y-84465449D02*
X136143390Y-84541639D01*
X136143390Y-84541639D02*
X136219580Y-84579734D01*
X136219580Y-84579734D02*
X136371961Y-84617830D01*
X136371961Y-84617830D02*
X136486247Y-84617830D01*
X136486247Y-84617830D02*
X136638628Y-84579734D01*
X136638628Y-84579734D02*
X136714819Y-84541639D01*
X136714819Y-84541639D02*
X136791009Y-84465449D01*
X136791009Y-84465449D02*
X136829104Y-84351163D01*
X136829104Y-84351163D02*
X136829104Y-84274972D01*
X136829104Y-84274972D02*
X136791009Y-84160687D01*
X136791009Y-84160687D02*
X136752914Y-84122591D01*
X136029104Y-83665449D02*
X136067200Y-83741639D01*
X136067200Y-83741639D02*
X136105295Y-83779734D01*
X136105295Y-83779734D02*
X136181485Y-83817830D01*
X136181485Y-83817830D02*
X136410057Y-83817830D01*
X136410057Y-83817830D02*
X136486247Y-83779734D01*
X136486247Y-83779734D02*
X136524342Y-83741639D01*
X136524342Y-83741639D02*
X136562438Y-83665449D01*
X136562438Y-83665449D02*
X136562438Y-83551163D01*
X136562438Y-83551163D02*
X136524342Y-83474972D01*
X136524342Y-83474972D02*
X136486247Y-83436877D01*
X136486247Y-83436877D02*
X136410057Y-83398782D01*
X136410057Y-83398782D02*
X136181485Y-83398782D01*
X136181485Y-83398782D02*
X136105295Y-83436877D01*
X136105295Y-83436877D02*
X136067200Y-83474972D01*
X136067200Y-83474972D02*
X136029104Y-83551163D01*
X136029104Y-83551163D02*
X136029104Y-83665449D01*
X136029104Y-82941639D02*
X136067200Y-83017829D01*
X136067200Y-83017829D02*
X136143390Y-83055924D01*
X136143390Y-83055924D02*
X136829104Y-83055924D01*
X136029104Y-82522591D02*
X136067200Y-82598781D01*
X136067200Y-82598781D02*
X136105295Y-82636876D01*
X136105295Y-82636876D02*
X136181485Y-82674972D01*
X136181485Y-82674972D02*
X136410057Y-82674972D01*
X136410057Y-82674972D02*
X136486247Y-82636876D01*
X136486247Y-82636876D02*
X136524342Y-82598781D01*
X136524342Y-82598781D02*
X136562438Y-82522591D01*
X136562438Y-82522591D02*
X136562438Y-82408305D01*
X136562438Y-82408305D02*
X136524342Y-82332114D01*
X136524342Y-82332114D02*
X136486247Y-82294019D01*
X136486247Y-82294019D02*
X136410057Y-82255924D01*
X136410057Y-82255924D02*
X136181485Y-82255924D01*
X136181485Y-82255924D02*
X136105295Y-82294019D01*
X136105295Y-82294019D02*
X136067200Y-82332114D01*
X136067200Y-82332114D02*
X136029104Y-82408305D01*
X136029104Y-82408305D02*
X136029104Y-82522591D01*
X136029104Y-81913066D02*
X136562438Y-81913066D01*
X136410057Y-81913066D02*
X136486247Y-81874971D01*
X136486247Y-81874971D02*
X136524342Y-81836876D01*
X136524342Y-81836876D02*
X136562438Y-81760685D01*
X136562438Y-81760685D02*
X136562438Y-81684495D01*
X136029104Y-81417828D02*
X136562438Y-81417828D01*
X136829104Y-81417828D02*
X136791009Y-81455924D01*
X136791009Y-81455924D02*
X136752914Y-81417828D01*
X136752914Y-81417828D02*
X136791009Y-81379733D01*
X136791009Y-81379733D02*
X136829104Y-81417828D01*
X136829104Y-81417828D02*
X136752914Y-81417828D01*
X136029104Y-81036876D02*
X136562438Y-81036876D01*
X136486247Y-81036876D02*
X136524342Y-80998781D01*
X136524342Y-80998781D02*
X136562438Y-80922591D01*
X136562438Y-80922591D02*
X136562438Y-80808305D01*
X136562438Y-80808305D02*
X136524342Y-80732114D01*
X136524342Y-80732114D02*
X136448152Y-80694019D01*
X136448152Y-80694019D02*
X136029104Y-80694019D01*
X136448152Y-80694019D02*
X136524342Y-80655924D01*
X136524342Y-80655924D02*
X136562438Y-80579733D01*
X136562438Y-80579733D02*
X136562438Y-80465448D01*
X136562438Y-80465448D02*
X136524342Y-80389257D01*
X136524342Y-80389257D02*
X136448152Y-80351162D01*
X136448152Y-80351162D02*
X136029104Y-80351162D01*
X136067200Y-79665447D02*
X136029104Y-79741638D01*
X136029104Y-79741638D02*
X136029104Y-79894019D01*
X136029104Y-79894019D02*
X136067200Y-79970209D01*
X136067200Y-79970209D02*
X136143390Y-80008305D01*
X136143390Y-80008305D02*
X136448152Y-80008305D01*
X136448152Y-80008305D02*
X136524342Y-79970209D01*
X136524342Y-79970209D02*
X136562438Y-79894019D01*
X136562438Y-79894019D02*
X136562438Y-79741638D01*
X136562438Y-79741638D02*
X136524342Y-79665447D01*
X136524342Y-79665447D02*
X136448152Y-79627352D01*
X136448152Y-79627352D02*
X136371961Y-79627352D01*
X136371961Y-79627352D02*
X136295771Y-80008305D01*
X136562438Y-79398781D02*
X136562438Y-79094019D01*
X136829104Y-79284495D02*
X136143390Y-79284495D01*
X136143390Y-79284495D02*
X136067200Y-79246400D01*
X136067200Y-79246400D02*
X136029104Y-79170210D01*
X136029104Y-79170210D02*
X136029104Y-79094019D01*
X136067200Y-78522590D02*
X136029104Y-78598781D01*
X136029104Y-78598781D02*
X136029104Y-78751162D01*
X136029104Y-78751162D02*
X136067200Y-78827352D01*
X136067200Y-78827352D02*
X136143390Y-78865448D01*
X136143390Y-78865448D02*
X136448152Y-78865448D01*
X136448152Y-78865448D02*
X136524342Y-78827352D01*
X136524342Y-78827352D02*
X136562438Y-78751162D01*
X136562438Y-78751162D02*
X136562438Y-78598781D01*
X136562438Y-78598781D02*
X136524342Y-78522590D01*
X136524342Y-78522590D02*
X136448152Y-78484495D01*
X136448152Y-78484495D02*
X136371961Y-78484495D01*
X136371961Y-78484495D02*
X136295771Y-78865448D01*
X136029104Y-78141638D02*
X136562438Y-78141638D01*
X136410057Y-78141638D02*
X136486247Y-78103543D01*
X136486247Y-78103543D02*
X136524342Y-78065448D01*
X136524342Y-78065448D02*
X136562438Y-77989257D01*
X136562438Y-77989257D02*
X136562438Y-77913067D01*
X134741104Y-84579734D02*
X135541104Y-84579734D01*
X135541104Y-84579734D02*
X135541104Y-84274972D01*
X135541104Y-84274972D02*
X135503009Y-84198782D01*
X135503009Y-84198782D02*
X135464914Y-84160687D01*
X135464914Y-84160687D02*
X135388723Y-84122591D01*
X135388723Y-84122591D02*
X135274438Y-84122591D01*
X135274438Y-84122591D02*
X135198247Y-84160687D01*
X135198247Y-84160687D02*
X135160152Y-84198782D01*
X135160152Y-84198782D02*
X135122057Y-84274972D01*
X135122057Y-84274972D02*
X135122057Y-84579734D01*
X134741104Y-83779734D02*
X135541104Y-83779734D01*
X134741104Y-83436877D02*
X135160152Y-83436877D01*
X135160152Y-83436877D02*
X135236342Y-83474972D01*
X135236342Y-83474972D02*
X135274438Y-83551163D01*
X135274438Y-83551163D02*
X135274438Y-83665449D01*
X135274438Y-83665449D02*
X135236342Y-83741639D01*
X135236342Y-83741639D02*
X135198247Y-83779734D01*
X134741104Y-82941639D02*
X134779200Y-83017829D01*
X134779200Y-83017829D02*
X134817295Y-83055924D01*
X134817295Y-83055924D02*
X134893485Y-83094020D01*
X134893485Y-83094020D02*
X135122057Y-83094020D01*
X135122057Y-83094020D02*
X135198247Y-83055924D01*
X135198247Y-83055924D02*
X135236342Y-83017829D01*
X135236342Y-83017829D02*
X135274438Y-82941639D01*
X135274438Y-82941639D02*
X135274438Y-82827353D01*
X135274438Y-82827353D02*
X135236342Y-82751162D01*
X135236342Y-82751162D02*
X135198247Y-82713067D01*
X135198247Y-82713067D02*
X135122057Y-82674972D01*
X135122057Y-82674972D02*
X134893485Y-82674972D01*
X134893485Y-82674972D02*
X134817295Y-82713067D01*
X134817295Y-82713067D02*
X134779200Y-82751162D01*
X134779200Y-82751162D02*
X134741104Y-82827353D01*
X134741104Y-82827353D02*
X134741104Y-82941639D01*
X135274438Y-82446400D02*
X135274438Y-82141638D01*
X135541104Y-82332114D02*
X134855390Y-82332114D01*
X134855390Y-82332114D02*
X134779200Y-82294019D01*
X134779200Y-82294019D02*
X134741104Y-82217829D01*
X134741104Y-82217829D02*
X134741104Y-82141638D01*
X134741104Y-81760686D02*
X134779200Y-81836876D01*
X134779200Y-81836876D02*
X134817295Y-81874971D01*
X134817295Y-81874971D02*
X134893485Y-81913067D01*
X134893485Y-81913067D02*
X135122057Y-81913067D01*
X135122057Y-81913067D02*
X135198247Y-81874971D01*
X135198247Y-81874971D02*
X135236342Y-81836876D01*
X135236342Y-81836876D02*
X135274438Y-81760686D01*
X135274438Y-81760686D02*
X135274438Y-81646400D01*
X135274438Y-81646400D02*
X135236342Y-81570209D01*
X135236342Y-81570209D02*
X135198247Y-81532114D01*
X135198247Y-81532114D02*
X135122057Y-81494019D01*
X135122057Y-81494019D02*
X134893485Y-81494019D01*
X134893485Y-81494019D02*
X134817295Y-81532114D01*
X134817295Y-81532114D02*
X134779200Y-81570209D01*
X134779200Y-81570209D02*
X134741104Y-81646400D01*
X134741104Y-81646400D02*
X134741104Y-81760686D01*
X134741104Y-80808304D02*
X135541104Y-80808304D01*
X134779200Y-80808304D02*
X134741104Y-80884495D01*
X134741104Y-80884495D02*
X134741104Y-81036876D01*
X134741104Y-81036876D02*
X134779200Y-81113066D01*
X134779200Y-81113066D02*
X134817295Y-81151161D01*
X134817295Y-81151161D02*
X134893485Y-81189257D01*
X134893485Y-81189257D02*
X135122057Y-81189257D01*
X135122057Y-81189257D02*
X135198247Y-81151161D01*
X135198247Y-81151161D02*
X135236342Y-81113066D01*
X135236342Y-81113066D02*
X135274438Y-81036876D01*
X135274438Y-81036876D02*
X135274438Y-80884495D01*
X135274438Y-80884495D02*
X135236342Y-80808304D01*
X134741104Y-80427351D02*
X135274438Y-80427351D01*
X135541104Y-80427351D02*
X135503009Y-80465447D01*
X135503009Y-80465447D02*
X135464914Y-80427351D01*
X135464914Y-80427351D02*
X135503009Y-80389256D01*
X135503009Y-80389256D02*
X135541104Y-80427351D01*
X135541104Y-80427351D02*
X135464914Y-80427351D01*
X134741104Y-79932114D02*
X134779200Y-80008304D01*
X134779200Y-80008304D02*
X134817295Y-80046399D01*
X134817295Y-80046399D02*
X134893485Y-80084495D01*
X134893485Y-80084495D02*
X135122057Y-80084495D01*
X135122057Y-80084495D02*
X135198247Y-80046399D01*
X135198247Y-80046399D02*
X135236342Y-80008304D01*
X135236342Y-80008304D02*
X135274438Y-79932114D01*
X135274438Y-79932114D02*
X135274438Y-79817828D01*
X135274438Y-79817828D02*
X135236342Y-79741637D01*
X135236342Y-79741637D02*
X135198247Y-79703542D01*
X135198247Y-79703542D02*
X135122057Y-79665447D01*
X135122057Y-79665447D02*
X134893485Y-79665447D01*
X134893485Y-79665447D02*
X134817295Y-79703542D01*
X134817295Y-79703542D02*
X134779200Y-79741637D01*
X134779200Y-79741637D02*
X134741104Y-79817828D01*
X134741104Y-79817828D02*
X134741104Y-79932114D01*
X134741104Y-78979732D02*
X135541104Y-78979732D01*
X134779200Y-78979732D02*
X134741104Y-79055923D01*
X134741104Y-79055923D02*
X134741104Y-79208304D01*
X134741104Y-79208304D02*
X134779200Y-79284494D01*
X134779200Y-79284494D02*
X134817295Y-79322589D01*
X134817295Y-79322589D02*
X134893485Y-79360685D01*
X134893485Y-79360685D02*
X135122057Y-79360685D01*
X135122057Y-79360685D02*
X135198247Y-79322589D01*
X135198247Y-79322589D02*
X135236342Y-79284494D01*
X135236342Y-79284494D02*
X135274438Y-79208304D01*
X135274438Y-79208304D02*
X135274438Y-79055923D01*
X135274438Y-79055923D02*
X135236342Y-78979732D01*
X134779200Y-78294017D02*
X134741104Y-78370208D01*
X134741104Y-78370208D02*
X134741104Y-78522589D01*
X134741104Y-78522589D02*
X134779200Y-78598779D01*
X134779200Y-78598779D02*
X134855390Y-78636875D01*
X134855390Y-78636875D02*
X135160152Y-78636875D01*
X135160152Y-78636875D02*
X135236342Y-78598779D01*
X135236342Y-78598779D02*
X135274438Y-78522589D01*
X135274438Y-78522589D02*
X135274438Y-78370208D01*
X135274438Y-78370208D02*
X135236342Y-78294017D01*
X135236342Y-78294017D02*
X135160152Y-78255922D01*
X135160152Y-78255922D02*
X135083961Y-78255922D01*
X135083961Y-78255922D02*
X135007771Y-78636875D01*
X133453104Y-84122591D02*
X133834057Y-84389258D01*
X133453104Y-84579734D02*
X134253104Y-84579734D01*
X134253104Y-84579734D02*
X134253104Y-84274972D01*
X134253104Y-84274972D02*
X134215009Y-84198782D01*
X134215009Y-84198782D02*
X134176914Y-84160687D01*
X134176914Y-84160687D02*
X134100723Y-84122591D01*
X134100723Y-84122591D02*
X133986438Y-84122591D01*
X133986438Y-84122591D02*
X133910247Y-84160687D01*
X133910247Y-84160687D02*
X133872152Y-84198782D01*
X133872152Y-84198782D02*
X133834057Y-84274972D01*
X133834057Y-84274972D02*
X133834057Y-84579734D01*
X133453104Y-83779734D02*
X133986438Y-83779734D01*
X134253104Y-83779734D02*
X134215009Y-83817830D01*
X134215009Y-83817830D02*
X134176914Y-83779734D01*
X134176914Y-83779734D02*
X134215009Y-83741639D01*
X134215009Y-83741639D02*
X134253104Y-83779734D01*
X134253104Y-83779734D02*
X134176914Y-83779734D01*
X133491200Y-83436878D02*
X133453104Y-83360687D01*
X133453104Y-83360687D02*
X133453104Y-83208306D01*
X133453104Y-83208306D02*
X133491200Y-83132116D01*
X133491200Y-83132116D02*
X133567390Y-83094020D01*
X133567390Y-83094020D02*
X133605485Y-83094020D01*
X133605485Y-83094020D02*
X133681676Y-83132116D01*
X133681676Y-83132116D02*
X133719771Y-83208306D01*
X133719771Y-83208306D02*
X133719771Y-83322592D01*
X133719771Y-83322592D02*
X133757866Y-83398782D01*
X133757866Y-83398782D02*
X133834057Y-83436878D01*
X133834057Y-83436878D02*
X133872152Y-83436878D01*
X133872152Y-83436878D02*
X133948342Y-83398782D01*
X133948342Y-83398782D02*
X133986438Y-83322592D01*
X133986438Y-83322592D02*
X133986438Y-83208306D01*
X133986438Y-83208306D02*
X133948342Y-83132116D01*
X133491200Y-82446401D02*
X133453104Y-82522592D01*
X133453104Y-82522592D02*
X133453104Y-82674973D01*
X133453104Y-82674973D02*
X133491200Y-82751163D01*
X133491200Y-82751163D02*
X133567390Y-82789259D01*
X133567390Y-82789259D02*
X133872152Y-82789259D01*
X133872152Y-82789259D02*
X133948342Y-82751163D01*
X133948342Y-82751163D02*
X133986438Y-82674973D01*
X133986438Y-82674973D02*
X133986438Y-82522592D01*
X133986438Y-82522592D02*
X133948342Y-82446401D01*
X133948342Y-82446401D02*
X133872152Y-82408306D01*
X133872152Y-82408306D02*
X133795961Y-82408306D01*
X133795961Y-82408306D02*
X133719771Y-82789259D01*
X133453104Y-82065449D02*
X133986438Y-82065449D01*
X133834057Y-82065449D02*
X133910247Y-82027354D01*
X133910247Y-82027354D02*
X133948342Y-81989259D01*
X133948342Y-81989259D02*
X133986438Y-81913068D01*
X133986438Y-81913068D02*
X133986438Y-81836878D01*
X133453104Y-80503544D02*
X133834057Y-80770211D01*
X133453104Y-80960687D02*
X134253104Y-80960687D01*
X134253104Y-80960687D02*
X134253104Y-80655925D01*
X134253104Y-80655925D02*
X134215009Y-80579735D01*
X134215009Y-80579735D02*
X134176914Y-80541640D01*
X134176914Y-80541640D02*
X134100723Y-80503544D01*
X134100723Y-80503544D02*
X133986438Y-80503544D01*
X133986438Y-80503544D02*
X133910247Y-80541640D01*
X133910247Y-80541640D02*
X133872152Y-80579735D01*
X133872152Y-80579735D02*
X133834057Y-80655925D01*
X133834057Y-80655925D02*
X133834057Y-80960687D01*
X133491200Y-79855925D02*
X133453104Y-79932116D01*
X133453104Y-79932116D02*
X133453104Y-80084497D01*
X133453104Y-80084497D02*
X133491200Y-80160687D01*
X133491200Y-80160687D02*
X133567390Y-80198783D01*
X133567390Y-80198783D02*
X133872152Y-80198783D01*
X133872152Y-80198783D02*
X133948342Y-80160687D01*
X133948342Y-80160687D02*
X133986438Y-80084497D01*
X133986438Y-80084497D02*
X133986438Y-79932116D01*
X133986438Y-79932116D02*
X133948342Y-79855925D01*
X133948342Y-79855925D02*
X133872152Y-79817830D01*
X133872152Y-79817830D02*
X133795961Y-79817830D01*
X133795961Y-79817830D02*
X133719771Y-80198783D01*
X133986438Y-79551164D02*
X133453104Y-79360688D01*
X133453104Y-79360688D02*
X133986438Y-79170211D01*
X133872152Y-78598783D02*
X133834057Y-78484497D01*
X133834057Y-78484497D02*
X133795961Y-78446402D01*
X133795961Y-78446402D02*
X133719771Y-78408306D01*
X133719771Y-78408306D02*
X133605485Y-78408306D01*
X133605485Y-78408306D02*
X133529295Y-78446402D01*
X133529295Y-78446402D02*
X133491200Y-78484497D01*
X133491200Y-78484497D02*
X133453104Y-78560687D01*
X133453104Y-78560687D02*
X133453104Y-78865449D01*
X133453104Y-78865449D02*
X134253104Y-78865449D01*
X134253104Y-78865449D02*
X134253104Y-78598783D01*
X134253104Y-78598783D02*
X134215009Y-78522592D01*
X134215009Y-78522592D02*
X134176914Y-78484497D01*
X134176914Y-78484497D02*
X134100723Y-78446402D01*
X134100723Y-78446402D02*
X134024533Y-78446402D01*
X134024533Y-78446402D02*
X133948342Y-78484497D01*
X133948342Y-78484497D02*
X133910247Y-78522592D01*
X133910247Y-78522592D02*
X133872152Y-78598783D01*
X133872152Y-78598783D02*
X133872152Y-78865449D01*
%LPC*%
D11*
X142494000Y-78740000D03*
D12*
X139954000Y-78740000D03*
X142494000Y-81280000D03*
X139954000Y-81280000D03*
X142494000Y-83820000D03*
X139954000Y-83820000D03*
D13*
X147574000Y-82550000D03*
D14*
X147574000Y-80010000D03*
%LPD*%
M02*
