%TF.GenerationSoftware,KiCad,Pcbnew,7.0.6*%
%TF.CreationDate,2024-05-06T23:55:01+03:00*%
%TF.ProjectId,board-holder,626f6172-642d-4686-9f6c-6465722e6b69,rev?*%
%TF.SameCoordinates,Original*%
%TF.FileFunction,Drillmap*%
%TF.FilePolarity,Positive*%
%FSLAX45Y45*%
G04 Gerber Fmt 4.5, Leading zero omitted, Abs format (unit mm)*
G04 Created by KiCad (PCBNEW 7.0.6) date 2024-05-06 23:55:01*
%MOMM*%
%LPD*%
G01*
G04 APERTURE LIST*
%ADD10C,0.200000*%
G04 APERTURE END LIST*
D10*
X9780873Y-13765773D02*
X9780873Y-13565773D01*
X9780873Y-13565773D02*
X9828492Y-13565773D01*
X9828492Y-13565773D02*
X9857064Y-13575297D01*
X9857064Y-13575297D02*
X9876111Y-13594344D01*
X9876111Y-13594344D02*
X9885635Y-13613392D01*
X9885635Y-13613392D02*
X9895159Y-13651487D01*
X9895159Y-13651487D02*
X9895159Y-13680059D01*
X9895159Y-13680059D02*
X9885635Y-13718154D01*
X9885635Y-13718154D02*
X9876111Y-13737202D01*
X9876111Y-13737202D02*
X9857064Y-13756249D01*
X9857064Y-13756249D02*
X9828492Y-13765773D01*
X9828492Y-13765773D02*
X9780873Y-13765773D01*
X9980873Y-13765773D02*
X9980873Y-13632440D01*
X9980873Y-13670535D02*
X9990397Y-13651487D01*
X9990397Y-13651487D02*
X9999921Y-13641963D01*
X9999921Y-13641963D02*
X10018969Y-13632440D01*
X10018969Y-13632440D02*
X10038016Y-13632440D01*
X10104683Y-13765773D02*
X10104683Y-13632440D01*
X10104683Y-13565773D02*
X10095159Y-13575297D01*
X10095159Y-13575297D02*
X10104683Y-13584821D01*
X10104683Y-13584821D02*
X10114207Y-13575297D01*
X10114207Y-13575297D02*
X10104683Y-13565773D01*
X10104683Y-13565773D02*
X10104683Y-13584821D01*
X10228492Y-13765773D02*
X10209445Y-13756249D01*
X10209445Y-13756249D02*
X10199921Y-13737202D01*
X10199921Y-13737202D02*
X10199921Y-13565773D01*
X10333254Y-13765773D02*
X10314207Y-13756249D01*
X10314207Y-13756249D02*
X10304683Y-13737202D01*
X10304683Y-13737202D02*
X10304683Y-13565773D01*
X10561826Y-13765773D02*
X10561826Y-13565773D01*
X10561826Y-13565773D02*
X10628492Y-13708630D01*
X10628492Y-13708630D02*
X10695159Y-13565773D01*
X10695159Y-13565773D02*
X10695159Y-13765773D01*
X10876111Y-13765773D02*
X10876111Y-13661011D01*
X10876111Y-13661011D02*
X10866588Y-13641963D01*
X10866588Y-13641963D02*
X10847540Y-13632440D01*
X10847540Y-13632440D02*
X10809445Y-13632440D01*
X10809445Y-13632440D02*
X10790397Y-13641963D01*
X10876111Y-13756249D02*
X10857064Y-13765773D01*
X10857064Y-13765773D02*
X10809445Y-13765773D01*
X10809445Y-13765773D02*
X10790397Y-13756249D01*
X10790397Y-13756249D02*
X10780873Y-13737202D01*
X10780873Y-13737202D02*
X10780873Y-13718154D01*
X10780873Y-13718154D02*
X10790397Y-13699106D01*
X10790397Y-13699106D02*
X10809445Y-13689583D01*
X10809445Y-13689583D02*
X10857064Y-13689583D01*
X10857064Y-13689583D02*
X10876111Y-13680059D01*
X10971350Y-13632440D02*
X10971350Y-13832440D01*
X10971350Y-13641963D02*
X10990397Y-13632440D01*
X10990397Y-13632440D02*
X11028492Y-13632440D01*
X11028492Y-13632440D02*
X11047540Y-13641963D01*
X11047540Y-13641963D02*
X11057064Y-13651487D01*
X11057064Y-13651487D02*
X11066588Y-13670535D01*
X11066588Y-13670535D02*
X11066588Y-13727678D01*
X11066588Y-13727678D02*
X11057064Y-13746725D01*
X11057064Y-13746725D02*
X11047540Y-13756249D01*
X11047540Y-13756249D02*
X11028492Y-13765773D01*
X11028492Y-13765773D02*
X10990397Y-13765773D01*
X10990397Y-13765773D02*
X10971350Y-13756249D01*
X11152302Y-13746725D02*
X11161826Y-13756249D01*
X11161826Y-13756249D02*
X11152302Y-13765773D01*
X11152302Y-13765773D02*
X11142778Y-13756249D01*
X11142778Y-13756249D02*
X11152302Y-13746725D01*
X11152302Y-13746725D02*
X11152302Y-13765773D01*
X11152302Y-13641963D02*
X11161826Y-13651487D01*
X11161826Y-13651487D02*
X11152302Y-13661011D01*
X11152302Y-13661011D02*
X11142778Y-13651487D01*
X11142778Y-13651487D02*
X11152302Y-13641963D01*
X11152302Y-13641963D02*
X11152302Y-13661011D01*
M02*
