G04 #@! TF.GenerationSoftware,KiCad,Pcbnew,7.0.6*
G04 #@! TF.CreationDate,2024-05-06T23:54:56+03:00*
G04 #@! TF.ProjectId,board-holder,626f6172-642d-4686-9f6c-6465722e6b69,rev?*
G04 #@! TF.SameCoordinates,Original*
G04 #@! TF.FileFunction,Profile,NP*
%FSLAX46Y46*%
G04 Gerber Fmt 4.6, Leading zero omitted, Abs format (unit mm)*
G04 Created by KiCad (PCBNEW 7.0.6) date 2024-05-06 23:54:56*
%MOMM*%
%LPD*%
G01*
G04 APERTURE LIST*
G04 #@! TA.AperFunction,Profile*
%ADD10C,0.100000*%
G04 #@! TD*
G04 APERTURE END LIST*
D10*
X135250965Y-98892893D02*
X135250965Y-130092893D01*
X130850965Y-134492893D02*
X99650965Y-134492893D01*
X130850965Y-94492893D02*
X99650965Y-94492893D01*
X128150965Y-125992893D02*
X114350965Y-112192893D01*
X126750965Y-127392893D02*
X112950965Y-113592893D01*
X95250965Y-130092893D02*
X95250965Y-98892893D01*
X127450965Y-111492893D02*
X114250965Y-111492893D01*
X114250965Y-111492893D02*
X114250965Y-98292893D01*
X114250965Y-98292893D02*
X127450965Y-98292893D01*
X127450965Y-98292893D02*
X127450965Y-111492893D01*
X112250965Y-126692893D02*
X99050965Y-126692893D01*
X99050965Y-126692893D02*
X99050965Y-113492893D01*
X99050965Y-113492893D02*
X112250965Y-113492893D01*
X112250965Y-113492893D02*
X112250965Y-126692893D01*
X130850965Y-134492893D02*
G75*
G03*
X135250965Y-130092893I-3J4400003D01*
G01*
X135250965Y-98892893D02*
G75*
G03*
X130850965Y-94492893I-4400003J-3D01*
G01*
X126750965Y-127392893D02*
G75*
G03*
X128150965Y-125992893I700000J700000D01*
G01*
X114350965Y-112192893D02*
G75*
G03*
X112950965Y-113592893I-700000J-700000D01*
G01*
X95250965Y-130092893D02*
G75*
G03*
X99650965Y-134492893I4400000J0D01*
G01*
X99650965Y-94492893D02*
G75*
G03*
X95250965Y-98892893I0J-4400000D01*
G01*
M02*
