G04 #@! TF.GenerationSoftware,KiCad,Pcbnew,7.0.6*
G04 #@! TF.CreationDate,2024-05-07T00:55:17+03:00*
G04 #@! TF.ProjectId,board-led,626f6172-642d-46c6-9564-2e6b69636164,rev?*
G04 #@! TF.SameCoordinates,Original*
G04 #@! TF.FileFunction,Legend,Bot*
G04 #@! TF.FilePolarity,Positive*
%FSLAX46Y46*%
G04 Gerber Fmt 4.6, Leading zero omitted, Abs format (unit mm)*
G04 Created by KiCad (PCBNEW 7.0.6) date 2024-05-07 00:55:17*
%MOMM*%
%LPD*%
G01*
G04 APERTURE LIST*
%ADD10C,0.100000*%
%ADD11R,1.800000X1.070000*%
%ADD12O,1.800000X1.070000*%
%ADD13R,1.700000X1.700000*%
%ADD14O,1.700000X1.700000*%
G04 APERTURE END LIST*
D10*
X96423104Y-82039734D02*
X97223104Y-82039734D01*
X97223104Y-82039734D02*
X96651676Y-81773068D01*
X96651676Y-81773068D02*
X97223104Y-81506401D01*
X97223104Y-81506401D02*
X96423104Y-81506401D01*
X97146914Y-81163544D02*
X97185009Y-81125448D01*
X97185009Y-81125448D02*
X97223104Y-81049258D01*
X97223104Y-81049258D02*
X97223104Y-80858782D01*
X97223104Y-80858782D02*
X97185009Y-80782591D01*
X97185009Y-80782591D02*
X97146914Y-80744496D01*
X97146914Y-80744496D02*
X97070723Y-80706401D01*
X97070723Y-80706401D02*
X96994533Y-80706401D01*
X96994533Y-80706401D02*
X96880247Y-80744496D01*
X96880247Y-80744496D02*
X96423104Y-81201639D01*
X96423104Y-81201639D02*
X96423104Y-80706401D01*
X96423104Y-80363543D02*
X97223104Y-80363543D01*
X96727866Y-80287353D02*
X96423104Y-80058781D01*
X96956438Y-80058781D02*
X96651676Y-80363543D01*
X95211295Y-81582591D02*
X95173200Y-81620687D01*
X95173200Y-81620687D02*
X95135104Y-81734972D01*
X95135104Y-81734972D02*
X95135104Y-81811163D01*
X95135104Y-81811163D02*
X95173200Y-81925449D01*
X95173200Y-81925449D02*
X95249390Y-82001639D01*
X95249390Y-82001639D02*
X95325580Y-82039734D01*
X95325580Y-82039734D02*
X95477961Y-82077830D01*
X95477961Y-82077830D02*
X95592247Y-82077830D01*
X95592247Y-82077830D02*
X95744628Y-82039734D01*
X95744628Y-82039734D02*
X95820819Y-82001639D01*
X95820819Y-82001639D02*
X95897009Y-81925449D01*
X95897009Y-81925449D02*
X95935104Y-81811163D01*
X95935104Y-81811163D02*
X95935104Y-81734972D01*
X95935104Y-81734972D02*
X95897009Y-81620687D01*
X95897009Y-81620687D02*
X95858914Y-81582591D01*
X95135104Y-81125449D02*
X95173200Y-81201639D01*
X95173200Y-81201639D02*
X95211295Y-81239734D01*
X95211295Y-81239734D02*
X95287485Y-81277830D01*
X95287485Y-81277830D02*
X95516057Y-81277830D01*
X95516057Y-81277830D02*
X95592247Y-81239734D01*
X95592247Y-81239734D02*
X95630342Y-81201639D01*
X95630342Y-81201639D02*
X95668438Y-81125449D01*
X95668438Y-81125449D02*
X95668438Y-81011163D01*
X95668438Y-81011163D02*
X95630342Y-80934972D01*
X95630342Y-80934972D02*
X95592247Y-80896877D01*
X95592247Y-80896877D02*
X95516057Y-80858782D01*
X95516057Y-80858782D02*
X95287485Y-80858782D01*
X95287485Y-80858782D02*
X95211295Y-80896877D01*
X95211295Y-80896877D02*
X95173200Y-80934972D01*
X95173200Y-80934972D02*
X95135104Y-81011163D01*
X95135104Y-81011163D02*
X95135104Y-81125449D01*
X95135104Y-80401639D02*
X95173200Y-80477829D01*
X95173200Y-80477829D02*
X95249390Y-80515924D01*
X95249390Y-80515924D02*
X95935104Y-80515924D01*
X95135104Y-79982591D02*
X95173200Y-80058781D01*
X95173200Y-80058781D02*
X95211295Y-80096876D01*
X95211295Y-80096876D02*
X95287485Y-80134972D01*
X95287485Y-80134972D02*
X95516057Y-80134972D01*
X95516057Y-80134972D02*
X95592247Y-80096876D01*
X95592247Y-80096876D02*
X95630342Y-80058781D01*
X95630342Y-80058781D02*
X95668438Y-79982591D01*
X95668438Y-79982591D02*
X95668438Y-79868305D01*
X95668438Y-79868305D02*
X95630342Y-79792114D01*
X95630342Y-79792114D02*
X95592247Y-79754019D01*
X95592247Y-79754019D02*
X95516057Y-79715924D01*
X95516057Y-79715924D02*
X95287485Y-79715924D01*
X95287485Y-79715924D02*
X95211295Y-79754019D01*
X95211295Y-79754019D02*
X95173200Y-79792114D01*
X95173200Y-79792114D02*
X95135104Y-79868305D01*
X95135104Y-79868305D02*
X95135104Y-79982591D01*
X95135104Y-79373066D02*
X95668438Y-79373066D01*
X95516057Y-79373066D02*
X95592247Y-79334971D01*
X95592247Y-79334971D02*
X95630342Y-79296876D01*
X95630342Y-79296876D02*
X95668438Y-79220685D01*
X95668438Y-79220685D02*
X95668438Y-79144495D01*
X95135104Y-78877828D02*
X95668438Y-78877828D01*
X95935104Y-78877828D02*
X95897009Y-78915924D01*
X95897009Y-78915924D02*
X95858914Y-78877828D01*
X95858914Y-78877828D02*
X95897009Y-78839733D01*
X95897009Y-78839733D02*
X95935104Y-78877828D01*
X95935104Y-78877828D02*
X95858914Y-78877828D01*
X95135104Y-78496876D02*
X95668438Y-78496876D01*
X95592247Y-78496876D02*
X95630342Y-78458781D01*
X95630342Y-78458781D02*
X95668438Y-78382591D01*
X95668438Y-78382591D02*
X95668438Y-78268305D01*
X95668438Y-78268305D02*
X95630342Y-78192114D01*
X95630342Y-78192114D02*
X95554152Y-78154019D01*
X95554152Y-78154019D02*
X95135104Y-78154019D01*
X95554152Y-78154019D02*
X95630342Y-78115924D01*
X95630342Y-78115924D02*
X95668438Y-78039733D01*
X95668438Y-78039733D02*
X95668438Y-77925448D01*
X95668438Y-77925448D02*
X95630342Y-77849257D01*
X95630342Y-77849257D02*
X95554152Y-77811162D01*
X95554152Y-77811162D02*
X95135104Y-77811162D01*
X95173200Y-77125447D02*
X95135104Y-77201638D01*
X95135104Y-77201638D02*
X95135104Y-77354019D01*
X95135104Y-77354019D02*
X95173200Y-77430209D01*
X95173200Y-77430209D02*
X95249390Y-77468305D01*
X95249390Y-77468305D02*
X95554152Y-77468305D01*
X95554152Y-77468305D02*
X95630342Y-77430209D01*
X95630342Y-77430209D02*
X95668438Y-77354019D01*
X95668438Y-77354019D02*
X95668438Y-77201638D01*
X95668438Y-77201638D02*
X95630342Y-77125447D01*
X95630342Y-77125447D02*
X95554152Y-77087352D01*
X95554152Y-77087352D02*
X95477961Y-77087352D01*
X95477961Y-77087352D02*
X95401771Y-77468305D01*
X95668438Y-76858781D02*
X95668438Y-76554019D01*
X95935104Y-76744495D02*
X95249390Y-76744495D01*
X95249390Y-76744495D02*
X95173200Y-76706400D01*
X95173200Y-76706400D02*
X95135104Y-76630210D01*
X95135104Y-76630210D02*
X95135104Y-76554019D01*
X95173200Y-75982590D02*
X95135104Y-76058781D01*
X95135104Y-76058781D02*
X95135104Y-76211162D01*
X95135104Y-76211162D02*
X95173200Y-76287352D01*
X95173200Y-76287352D02*
X95249390Y-76325448D01*
X95249390Y-76325448D02*
X95554152Y-76325448D01*
X95554152Y-76325448D02*
X95630342Y-76287352D01*
X95630342Y-76287352D02*
X95668438Y-76211162D01*
X95668438Y-76211162D02*
X95668438Y-76058781D01*
X95668438Y-76058781D02*
X95630342Y-75982590D01*
X95630342Y-75982590D02*
X95554152Y-75944495D01*
X95554152Y-75944495D02*
X95477961Y-75944495D01*
X95477961Y-75944495D02*
X95401771Y-76325448D01*
X95135104Y-75601638D02*
X95668438Y-75601638D01*
X95516057Y-75601638D02*
X95592247Y-75563543D01*
X95592247Y-75563543D02*
X95630342Y-75525448D01*
X95630342Y-75525448D02*
X95668438Y-75449257D01*
X95668438Y-75449257D02*
X95668438Y-75373067D01*
X93847104Y-81658782D02*
X93847104Y-82039734D01*
X93847104Y-82039734D02*
X94647104Y-82039734D01*
X94266152Y-81392115D02*
X94266152Y-81125449D01*
X93847104Y-81011163D02*
X93847104Y-81392115D01*
X93847104Y-81392115D02*
X94647104Y-81392115D01*
X94647104Y-81392115D02*
X94647104Y-81011163D01*
X93847104Y-80668305D02*
X94647104Y-80668305D01*
X94647104Y-80668305D02*
X94647104Y-80477829D01*
X94647104Y-80477829D02*
X94609009Y-80363543D01*
X94609009Y-80363543D02*
X94532819Y-80287353D01*
X94532819Y-80287353D02*
X94456628Y-80249258D01*
X94456628Y-80249258D02*
X94304247Y-80211162D01*
X94304247Y-80211162D02*
X94189961Y-80211162D01*
X94189961Y-80211162D02*
X94037580Y-80249258D01*
X94037580Y-80249258D02*
X93961390Y-80287353D01*
X93961390Y-80287353D02*
X93885200Y-80363543D01*
X93885200Y-80363543D02*
X93847104Y-80477829D01*
X93847104Y-80477829D02*
X93847104Y-80668305D01*
X93847104Y-78801638D02*
X94228057Y-79068305D01*
X93847104Y-79258781D02*
X94647104Y-79258781D01*
X94647104Y-79258781D02*
X94647104Y-78954019D01*
X94647104Y-78954019D02*
X94609009Y-78877829D01*
X94609009Y-78877829D02*
X94570914Y-78839734D01*
X94570914Y-78839734D02*
X94494723Y-78801638D01*
X94494723Y-78801638D02*
X94380438Y-78801638D01*
X94380438Y-78801638D02*
X94304247Y-78839734D01*
X94304247Y-78839734D02*
X94266152Y-78877829D01*
X94266152Y-78877829D02*
X94228057Y-78954019D01*
X94228057Y-78954019D02*
X94228057Y-79258781D01*
X93847104Y-78458781D02*
X94380438Y-78458781D01*
X94647104Y-78458781D02*
X94609009Y-78496877D01*
X94609009Y-78496877D02*
X94570914Y-78458781D01*
X94570914Y-78458781D02*
X94609009Y-78420686D01*
X94609009Y-78420686D02*
X94647104Y-78458781D01*
X94647104Y-78458781D02*
X94570914Y-78458781D01*
X93885200Y-78115925D02*
X93847104Y-78039734D01*
X93847104Y-78039734D02*
X93847104Y-77887353D01*
X93847104Y-77887353D02*
X93885200Y-77811163D01*
X93885200Y-77811163D02*
X93961390Y-77773067D01*
X93961390Y-77773067D02*
X93999485Y-77773067D01*
X93999485Y-77773067D02*
X94075676Y-77811163D01*
X94075676Y-77811163D02*
X94113771Y-77887353D01*
X94113771Y-77887353D02*
X94113771Y-78001639D01*
X94113771Y-78001639D02*
X94151866Y-78077829D01*
X94151866Y-78077829D02*
X94228057Y-78115925D01*
X94228057Y-78115925D02*
X94266152Y-78115925D01*
X94266152Y-78115925D02*
X94342342Y-78077829D01*
X94342342Y-78077829D02*
X94380438Y-78001639D01*
X94380438Y-78001639D02*
X94380438Y-77887353D01*
X94380438Y-77887353D02*
X94342342Y-77811163D01*
X93885200Y-77125448D02*
X93847104Y-77201639D01*
X93847104Y-77201639D02*
X93847104Y-77354020D01*
X93847104Y-77354020D02*
X93885200Y-77430210D01*
X93885200Y-77430210D02*
X93961390Y-77468306D01*
X93961390Y-77468306D02*
X94266152Y-77468306D01*
X94266152Y-77468306D02*
X94342342Y-77430210D01*
X94342342Y-77430210D02*
X94380438Y-77354020D01*
X94380438Y-77354020D02*
X94380438Y-77201639D01*
X94380438Y-77201639D02*
X94342342Y-77125448D01*
X94342342Y-77125448D02*
X94266152Y-77087353D01*
X94266152Y-77087353D02*
X94189961Y-77087353D01*
X94189961Y-77087353D02*
X94113771Y-77468306D01*
X93847104Y-76744496D02*
X94380438Y-76744496D01*
X94228057Y-76744496D02*
X94304247Y-76706401D01*
X94304247Y-76706401D02*
X94342342Y-76668306D01*
X94342342Y-76668306D02*
X94380438Y-76592115D01*
X94380438Y-76592115D02*
X94380438Y-76515925D01*
X92559104Y-81582591D02*
X92940057Y-81849258D01*
X92559104Y-82039734D02*
X93359104Y-82039734D01*
X93359104Y-82039734D02*
X93359104Y-81734972D01*
X93359104Y-81734972D02*
X93321009Y-81658782D01*
X93321009Y-81658782D02*
X93282914Y-81620687D01*
X93282914Y-81620687D02*
X93206723Y-81582591D01*
X93206723Y-81582591D02*
X93092438Y-81582591D01*
X93092438Y-81582591D02*
X93016247Y-81620687D01*
X93016247Y-81620687D02*
X92978152Y-81658782D01*
X92978152Y-81658782D02*
X92940057Y-81734972D01*
X92940057Y-81734972D02*
X92940057Y-82039734D01*
X92597200Y-80934972D02*
X92559104Y-81011163D01*
X92559104Y-81011163D02*
X92559104Y-81163544D01*
X92559104Y-81163544D02*
X92597200Y-81239734D01*
X92597200Y-81239734D02*
X92673390Y-81277830D01*
X92673390Y-81277830D02*
X92978152Y-81277830D01*
X92978152Y-81277830D02*
X93054342Y-81239734D01*
X93054342Y-81239734D02*
X93092438Y-81163544D01*
X93092438Y-81163544D02*
X93092438Y-81011163D01*
X93092438Y-81011163D02*
X93054342Y-80934972D01*
X93054342Y-80934972D02*
X92978152Y-80896877D01*
X92978152Y-80896877D02*
X92901961Y-80896877D01*
X92901961Y-80896877D02*
X92825771Y-81277830D01*
X93092438Y-80630211D02*
X92559104Y-80439735D01*
X92559104Y-80439735D02*
X93092438Y-80249258D01*
X92978152Y-79677830D02*
X92940057Y-79563544D01*
X92940057Y-79563544D02*
X92901961Y-79525449D01*
X92901961Y-79525449D02*
X92825771Y-79487353D01*
X92825771Y-79487353D02*
X92711485Y-79487353D01*
X92711485Y-79487353D02*
X92635295Y-79525449D01*
X92635295Y-79525449D02*
X92597200Y-79563544D01*
X92597200Y-79563544D02*
X92559104Y-79639734D01*
X92559104Y-79639734D02*
X92559104Y-79944496D01*
X92559104Y-79944496D02*
X93359104Y-79944496D01*
X93359104Y-79944496D02*
X93359104Y-79677830D01*
X93359104Y-79677830D02*
X93321009Y-79601639D01*
X93321009Y-79601639D02*
X93282914Y-79563544D01*
X93282914Y-79563544D02*
X93206723Y-79525449D01*
X93206723Y-79525449D02*
X93130533Y-79525449D01*
X93130533Y-79525449D02*
X93054342Y-79563544D01*
X93054342Y-79563544D02*
X93016247Y-79601639D01*
X93016247Y-79601639D02*
X92978152Y-79677830D01*
X92978152Y-79677830D02*
X92978152Y-79944496D01*
%LPC*%
D11*
X106680000Y-80645000D03*
D12*
X106680000Y-79375000D03*
X106680000Y-78105000D03*
X106680000Y-76835000D03*
D13*
X101600000Y-76200000D03*
D14*
X99060000Y-76200000D03*
X101600000Y-78740000D03*
X99060000Y-78740000D03*
X101600000Y-81280000D03*
X99060000Y-81280000D03*
%LPD*%
M02*
