G04 #@! TF.GenerationSoftware,KiCad,Pcbnew,7.0.6*
G04 #@! TF.CreationDate,2024-05-07T00:55:17+03:00*
G04 #@! TF.ProjectId,board-led,626f6172-642d-46c6-9564-2e6b69636164,rev?*
G04 #@! TF.SameCoordinates,Original*
G04 #@! TF.FileFunction,Copper,L1,Top*
G04 #@! TF.FilePolarity,Positive*
%FSLAX46Y46*%
G04 Gerber Fmt 4.6, Leading zero omitted, Abs format (unit mm)*
G04 Created by KiCad (PCBNEW 7.0.6) date 2024-05-07 00:55:17*
%MOMM*%
%LPD*%
G01*
G04 APERTURE LIST*
G04 #@! TA.AperFunction,ComponentPad*
%ADD10R,1.800000X1.070000*%
G04 #@! TD*
G04 #@! TA.AperFunction,ComponentPad*
%ADD11O,1.800000X1.070000*%
G04 #@! TD*
G04 #@! TA.AperFunction,ComponentPad*
%ADD12R,1.700000X1.700000*%
G04 #@! TD*
G04 #@! TA.AperFunction,ComponentPad*
%ADD13O,1.700000X1.700000*%
G04 #@! TD*
G04 #@! TA.AperFunction,ViaPad*
%ADD14C,0.800000*%
G04 #@! TD*
G04 #@! TA.AperFunction,Conductor*
%ADD15C,0.400000*%
G04 #@! TD*
G04 APERTURE END LIST*
D10*
X106680000Y-80645000D03*
D11*
X106680000Y-79375000D03*
X106680000Y-78105000D03*
X106680000Y-76835000D03*
D12*
X101600000Y-76200000D03*
D13*
X99060000Y-76200000D03*
X101600000Y-78740000D03*
X99060000Y-78740000D03*
X101600000Y-81280000D03*
X99060000Y-81280000D03*
D14*
X108599998Y-78800000D03*
X104800000Y-78500000D03*
D15*
X101600000Y-76200000D02*
X102108000Y-75692000D01*
X107333145Y-78105000D02*
X106680000Y-78105000D01*
X107587145Y-75692000D02*
X108204000Y-76308855D01*
X102108000Y-75692000D02*
X107587145Y-75692000D01*
X108204000Y-77234145D02*
X107333145Y-78105000D01*
X108204000Y-76308855D02*
X108204000Y-77234145D01*
X103505000Y-76835000D02*
X106680000Y-76835000D01*
X101600000Y-78740000D02*
X103505000Y-76835000D01*
X106045000Y-81280000D02*
X106680000Y-80645000D01*
X101600000Y-81280000D02*
X106045000Y-81280000D01*
X99060000Y-81280000D02*
X100350000Y-79990000D01*
X100350000Y-79990000D02*
X104922000Y-79990000D01*
X105537000Y-79375000D02*
X106680000Y-79375000D01*
X104922000Y-79990000D02*
X105537000Y-79375000D01*
G04 #@! TA.AperFunction,Conductor*
G36*
X105306114Y-77555185D02*
G01*
X105351869Y-77607989D01*
X105361813Y-77677147D01*
X105355289Y-77700931D01*
X105355463Y-77700984D01*
X105294482Y-77902008D01*
X105274490Y-78105000D01*
X105294482Y-78307991D01*
X105294483Y-78307993D01*
X105349021Y-78487782D01*
X105353695Y-78503188D01*
X105371325Y-78536171D01*
X105385567Y-78604574D01*
X105360567Y-78669818D01*
X105312857Y-78707701D01*
X105270528Y-78726751D01*
X105267069Y-78728184D01*
X105209069Y-78750182D01*
X105200724Y-78755942D01*
X105181183Y-78766964D01*
X105171944Y-78771122D01*
X105171939Y-78771125D01*
X105123121Y-78809370D01*
X105120106Y-78811589D01*
X105069072Y-78846816D01*
X105069065Y-78846822D01*
X105027942Y-78893240D01*
X105025375Y-78895966D01*
X104668162Y-79253181D01*
X104606839Y-79286666D01*
X104580481Y-79289500D01*
X103012503Y-79289500D01*
X102945464Y-79269815D01*
X102899709Y-79217011D01*
X102889765Y-79147853D01*
X102892728Y-79133407D01*
X102934686Y-78976814D01*
X102935063Y-78975408D01*
X102955659Y-78740000D01*
X102954788Y-78730050D01*
X102935063Y-78504596D01*
X102935063Y-78504592D01*
X102930558Y-78487779D01*
X102932219Y-78417932D01*
X102962649Y-78368006D01*
X103758837Y-77571819D01*
X103820161Y-77538334D01*
X103846519Y-77535500D01*
X105239075Y-77535500D01*
X105306114Y-77555185D01*
G37*
G04 #@! TD.AperFunction*
G04 #@! TA.AperFunction,Conductor*
G36*
X110051539Y-74442185D02*
G01*
X110097294Y-74494989D01*
X110108500Y-74546500D01*
X110108500Y-82933500D01*
X110088815Y-83000539D01*
X110036011Y-83046294D01*
X109984500Y-83057500D01*
X86484500Y-83057500D01*
X86417461Y-83037815D01*
X86371706Y-82985011D01*
X86360500Y-82933500D01*
X86360500Y-81280000D01*
X97704341Y-81280000D01*
X97724936Y-81515403D01*
X97724938Y-81515413D01*
X97786094Y-81743655D01*
X97786096Y-81743659D01*
X97786097Y-81743663D01*
X97833107Y-81844476D01*
X97885965Y-81957830D01*
X97885967Y-81957834D01*
X97994281Y-82112521D01*
X98021505Y-82151401D01*
X98188599Y-82318495D01*
X98285384Y-82386264D01*
X98382165Y-82454032D01*
X98382167Y-82454033D01*
X98382170Y-82454035D01*
X98596337Y-82553903D01*
X98824592Y-82615063D01*
X99012918Y-82631539D01*
X99059999Y-82635659D01*
X99060000Y-82635659D01*
X99060001Y-82635659D01*
X99099234Y-82632226D01*
X99295408Y-82615063D01*
X99523663Y-82553903D01*
X99737830Y-82454035D01*
X99931401Y-82318495D01*
X100098495Y-82151401D01*
X100228424Y-81965842D01*
X100283002Y-81922217D01*
X100352500Y-81915023D01*
X100414855Y-81946546D01*
X100431575Y-81965842D01*
X100561500Y-82151395D01*
X100561505Y-82151401D01*
X100728599Y-82318495D01*
X100825384Y-82386264D01*
X100922165Y-82454032D01*
X100922167Y-82454033D01*
X100922170Y-82454035D01*
X101136337Y-82553903D01*
X101364592Y-82615063D01*
X101552918Y-82631539D01*
X101599999Y-82635659D01*
X101600000Y-82635659D01*
X101600001Y-82635659D01*
X101639234Y-82632226D01*
X101835408Y-82615063D01*
X102063663Y-82553903D01*
X102277830Y-82454035D01*
X102471401Y-82318495D01*
X102638495Y-82151401D01*
X102721136Y-82033376D01*
X102775713Y-81989752D01*
X102822711Y-81980500D01*
X106021952Y-81980500D01*
X106025697Y-81980613D01*
X106033042Y-81981057D01*
X106087606Y-81984358D01*
X106125314Y-81977447D01*
X106148621Y-81973177D01*
X106152325Y-81972613D01*
X106170170Y-81970446D01*
X106213872Y-81965140D01*
X106223335Y-81961550D01*
X106244961Y-81955522D01*
X106245893Y-81955351D01*
X106254932Y-81953695D01*
X106311512Y-81928229D01*
X106314942Y-81926809D01*
X106372930Y-81904818D01*
X106381266Y-81899062D01*
X106400821Y-81888034D01*
X106410057Y-81883878D01*
X106458896Y-81845613D01*
X106461876Y-81843421D01*
X106512929Y-81808183D01*
X106554080Y-81761731D01*
X106556600Y-81759055D01*
X106598838Y-81716817D01*
X106660162Y-81683332D01*
X106686519Y-81680499D01*
X107627871Y-81680499D01*
X107627872Y-81680499D01*
X107687483Y-81674091D01*
X107822331Y-81623796D01*
X107937546Y-81537546D01*
X108023796Y-81422331D01*
X108074091Y-81287483D01*
X108080500Y-81227873D01*
X108080499Y-80062128D01*
X108074091Y-80002517D01*
X108054295Y-79949442D01*
X108023797Y-79867671D01*
X108019546Y-79859886D01*
X108022654Y-79858188D01*
X108004149Y-79808579D01*
X108009171Y-79763740D01*
X108065517Y-79577993D01*
X108085510Y-79375000D01*
X108065517Y-79172007D01*
X108006306Y-78976814D01*
X107910968Y-78798452D01*
X107896727Y-78730050D01*
X107910967Y-78681550D01*
X108006306Y-78503186D01*
X108032425Y-78417080D01*
X108063402Y-78365398D01*
X108683056Y-77745744D01*
X108685748Y-77743210D01*
X108732183Y-77702074D01*
X108767421Y-77651021D01*
X108769613Y-77648041D01*
X108807878Y-77599202D01*
X108812034Y-77589966D01*
X108823062Y-77570411D01*
X108828818Y-77562075D01*
X108850812Y-77504076D01*
X108852227Y-77500660D01*
X108877695Y-77444076D01*
X108879522Y-77434104D01*
X108885546Y-77412492D01*
X108889140Y-77403017D01*
X108896613Y-77341469D01*
X108897177Y-77337764D01*
X108900535Y-77319434D01*
X108908358Y-77276751D01*
X108904613Y-77214841D01*
X108904500Y-77211096D01*
X108904500Y-76331902D01*
X108904613Y-76328157D01*
X108908358Y-76266249D01*
X108897175Y-76205226D01*
X108896613Y-76201529D01*
X108894618Y-76185106D01*
X108889140Y-76139983D01*
X108885548Y-76130511D01*
X108879521Y-76108889D01*
X108877695Y-76098926D01*
X108877695Y-76098924D01*
X108852224Y-76042331D01*
X108850817Y-76038934D01*
X108828818Y-75980925D01*
X108828816Y-75980923D01*
X108828816Y-75980921D01*
X108823062Y-75972586D01*
X108812034Y-75953032D01*
X108807880Y-75943802D01*
X108807878Y-75943799D01*
X108769621Y-75894967D01*
X108767427Y-75891985D01*
X108732183Y-75840926D01*
X108685750Y-75799790D01*
X108683056Y-75797254D01*
X108098743Y-75212941D01*
X108096209Y-75210250D01*
X108055074Y-75163817D01*
X108055073Y-75163816D01*
X108055069Y-75163812D01*
X108004041Y-75128591D01*
X108001032Y-75126377D01*
X107952205Y-75088124D01*
X107952200Y-75088120D01*
X107942958Y-75083961D01*
X107923411Y-75072936D01*
X107915076Y-75067183D01*
X107915077Y-75067183D01*
X107915075Y-75067182D01*
X107857086Y-75045189D01*
X107853635Y-75043759D01*
X107797075Y-75018304D01*
X107787091Y-75016474D01*
X107765488Y-75010451D01*
X107756019Y-75006860D01*
X107756015Y-75006859D01*
X107694458Y-74999384D01*
X107690757Y-74998821D01*
X107629753Y-74987642D01*
X107629748Y-74987642D01*
X107567842Y-74991387D01*
X107564097Y-74991500D01*
X102847544Y-74991500D01*
X102780505Y-74971815D01*
X102773233Y-74966767D01*
X102692331Y-74906204D01*
X102692328Y-74906202D01*
X102557482Y-74855908D01*
X102557483Y-74855908D01*
X102497883Y-74849501D01*
X102497881Y-74849500D01*
X102497873Y-74849500D01*
X102497864Y-74849500D01*
X100702129Y-74849500D01*
X100702123Y-74849501D01*
X100642516Y-74855908D01*
X100507671Y-74906202D01*
X100507664Y-74906206D01*
X100392455Y-74992452D01*
X100392452Y-74992455D01*
X100306206Y-75107664D01*
X100306202Y-75107671D01*
X100255908Y-75242517D01*
X100249501Y-75302116D01*
X100249500Y-75302135D01*
X100249500Y-77097870D01*
X100249501Y-77097876D01*
X100255908Y-77157483D01*
X100306202Y-77292328D01*
X100306206Y-77292335D01*
X100392452Y-77407544D01*
X100392455Y-77407547D01*
X100507664Y-77493793D01*
X100507671Y-77493797D01*
X100639081Y-77542810D01*
X100695015Y-77584681D01*
X100719432Y-77650145D01*
X100704580Y-77718418D01*
X100683430Y-77746673D01*
X100561503Y-77868600D01*
X100425965Y-78062169D01*
X100425964Y-78062171D01*
X100326098Y-78276335D01*
X100326094Y-78276344D01*
X100264938Y-78504586D01*
X100264936Y-78504596D01*
X100244341Y-78739999D01*
X100244341Y-78740000D01*
X100264936Y-78975403D01*
X100264938Y-78975413D01*
X100310820Y-79146651D01*
X100309157Y-79216501D01*
X100269994Y-79274363D01*
X100205995Y-79301840D01*
X100181124Y-79304860D01*
X100171642Y-79308456D01*
X100150038Y-79314478D01*
X100148535Y-79314754D01*
X100140065Y-79316306D01*
X100140063Y-79316307D01*
X100083527Y-79341752D01*
X100080069Y-79343184D01*
X100022069Y-79365182D01*
X100013724Y-79370942D01*
X99994183Y-79381964D01*
X99984941Y-79386123D01*
X99936129Y-79424364D01*
X99933114Y-79426583D01*
X99882072Y-79461816D01*
X99882065Y-79461822D01*
X99840935Y-79508248D01*
X99838368Y-79510974D01*
X99431994Y-79917347D01*
X99370671Y-79950832D01*
X99312225Y-79949442D01*
X99295410Y-79944937D01*
X99060001Y-79924341D01*
X99059999Y-79924341D01*
X98824596Y-79944936D01*
X98824586Y-79944938D01*
X98596344Y-80006094D01*
X98596335Y-80006098D01*
X98382171Y-80105964D01*
X98382169Y-80105965D01*
X98188597Y-80241505D01*
X98021505Y-80408597D01*
X97885965Y-80602169D01*
X97885964Y-80602171D01*
X97786098Y-80816335D01*
X97786094Y-80816344D01*
X97724938Y-81044586D01*
X97724936Y-81044596D01*
X97704341Y-81279999D01*
X97704341Y-81280000D01*
X86360500Y-81280000D01*
X86360500Y-74546500D01*
X86380185Y-74479461D01*
X86432989Y-74433706D01*
X86484500Y-74422500D01*
X109984500Y-74422500D01*
X110051539Y-74442185D01*
G37*
G04 #@! TD.AperFunction*
M02*
