G04 #@! TF.GenerationSoftware,KiCad,Pcbnew,7.0.6*
G04 #@! TF.CreationDate,2024-05-07T00:55:17+03:00*
G04 #@! TF.ProjectId,board-led,626f6172-642d-46c6-9564-2e6b69636164,rev?*
G04 #@! TF.SameCoordinates,Original*
G04 #@! TF.FileFunction,Legend,Top*
G04 #@! TF.FilePolarity,Positive*
%FSLAX46Y46*%
G04 Gerber Fmt 4.6, Leading zero omitted, Abs format (unit mm)*
G04 Created by KiCad (PCBNEW 7.0.6) date 2024-05-07 00:55:17*
%MOMM*%
%LPD*%
G01*
G04 APERTURE LIST*
%ADD10C,0.150000*%
%ADD11C,0.120000*%
%ADD12R,1.800000X1.070000*%
%ADD13O,1.800000X1.070000*%
%ADD14R,1.700000X1.700000*%
%ADD15O,1.700000X1.700000*%
G04 APERTURE END LIST*
D10*
X105941905Y-82750819D02*
X105941905Y-81750819D01*
X105941905Y-81750819D02*
X106180000Y-81750819D01*
X106180000Y-81750819D02*
X106322857Y-81798438D01*
X106322857Y-81798438D02*
X106418095Y-81893676D01*
X106418095Y-81893676D02*
X106465714Y-81988914D01*
X106465714Y-81988914D02*
X106513333Y-82179390D01*
X106513333Y-82179390D02*
X106513333Y-82322247D01*
X106513333Y-82322247D02*
X106465714Y-82512723D01*
X106465714Y-82512723D02*
X106418095Y-82607961D01*
X106418095Y-82607961D02*
X106322857Y-82703200D01*
X106322857Y-82703200D02*
X106180000Y-82750819D01*
X106180000Y-82750819D02*
X105941905Y-82750819D01*
X107465714Y-82750819D02*
X106894286Y-82750819D01*
X107180000Y-82750819D02*
X107180000Y-81750819D01*
X107180000Y-81750819D02*
X107084762Y-81893676D01*
X107084762Y-81893676D02*
X106989524Y-81988914D01*
X106989524Y-81988914D02*
X106894286Y-82036533D01*
X96186666Y-78194819D02*
X96186666Y-78909104D01*
X96186666Y-78909104D02*
X96139047Y-79051961D01*
X96139047Y-79051961D02*
X96043809Y-79147200D01*
X96043809Y-79147200D02*
X95900952Y-79194819D01*
X95900952Y-79194819D02*
X95805714Y-79194819D01*
X97186666Y-79194819D02*
X96615238Y-79194819D01*
X96900952Y-79194819D02*
X96900952Y-78194819D01*
X96900952Y-78194819D02*
X96805714Y-78337676D01*
X96805714Y-78337676D02*
X96710476Y-78432914D01*
X96710476Y-78432914D02*
X96615238Y-78480533D01*
D11*
X105135000Y-81300000D02*
X105600000Y-81300000D01*
X107760000Y-81300000D02*
X108225000Y-81300000D01*
X105599173Y-75952186D02*
G75*
G03*
X105135170Y-81299999I1080827J-2787814D01*
G01*
X105599572Y-76485522D02*
G75*
G03*
X105600000Y-80994683I1080428J-2254478D01*
G01*
X107760000Y-80994684D02*
G75*
G03*
X107760429Y-76485521I-1080000J2254684D01*
G01*
X108224830Y-81299999D02*
G75*
G03*
X107760827Y-75952186I-1544830J2559999D01*
G01*
X88970000Y-74870000D02*
X88970000Y-82610000D01*
X88970000Y-74870000D02*
X97600000Y-74870000D01*
X88970000Y-74990000D02*
X97600000Y-74990000D01*
X88970000Y-75108095D02*
X97600000Y-75108095D01*
X88970000Y-75226190D02*
X97600000Y-75226190D01*
X88970000Y-75344285D02*
X97600000Y-75344285D01*
X88970000Y-75462380D02*
X97600000Y-75462380D01*
X88970000Y-75580475D02*
X97600000Y-75580475D01*
X88970000Y-75698570D02*
X97600000Y-75698570D01*
X88970000Y-75816665D02*
X97600000Y-75816665D01*
X88970000Y-75934760D02*
X97600000Y-75934760D01*
X88970000Y-76052855D02*
X97600000Y-76052855D01*
X88970000Y-76170950D02*
X97600000Y-76170950D01*
X88970000Y-76289045D02*
X97600000Y-76289045D01*
X88970000Y-76407140D02*
X97600000Y-76407140D01*
X88970000Y-76525235D02*
X97600000Y-76525235D01*
X88970000Y-76643330D02*
X97600000Y-76643330D01*
X88970000Y-76761425D02*
X97600000Y-76761425D01*
X88970000Y-76879520D02*
X97600000Y-76879520D01*
X88970000Y-76997615D02*
X97600000Y-76997615D01*
X88970000Y-77115710D02*
X97600000Y-77115710D01*
X88970000Y-77233805D02*
X97600000Y-77233805D01*
X88970000Y-77351900D02*
X97600000Y-77351900D01*
X88970000Y-77470000D02*
X97600000Y-77470000D01*
X88970000Y-80010000D02*
X97600000Y-80010000D01*
X88970000Y-82610000D02*
X97600000Y-82610000D01*
X97600000Y-74870000D02*
X97600000Y-82610000D01*
X97600000Y-75840000D02*
X98010000Y-75840000D01*
X97600000Y-76560000D02*
X98010000Y-76560000D01*
X97600000Y-78380000D02*
X98010000Y-78380000D01*
X97600000Y-79100000D02*
X98010000Y-79100000D01*
X97600000Y-80920000D02*
X98010000Y-80920000D01*
X97600000Y-81640000D02*
X98010000Y-81640000D01*
X100110000Y-75840000D02*
X100490000Y-75840000D01*
X100110000Y-76560000D02*
X100490000Y-76560000D01*
X100110000Y-78380000D02*
X100550000Y-78380000D01*
X100110000Y-79100000D02*
X100550000Y-79100000D01*
X100110000Y-80920000D02*
X100550000Y-80920000D01*
X100110000Y-81640000D02*
X100550000Y-81640000D01*
X101600000Y-74870000D02*
X102710000Y-74870000D01*
X102710000Y-74870000D02*
X102710000Y-76200000D01*
%LPC*%
D12*
X106680000Y-80645000D03*
D13*
X106680000Y-79375000D03*
X106680000Y-78105000D03*
X106680000Y-76835000D03*
D14*
X101600000Y-76200000D03*
D15*
X99060000Y-76200000D03*
X101600000Y-78740000D03*
X99060000Y-78740000D03*
X101600000Y-81280000D03*
X99060000Y-81280000D03*
%LPD*%
M02*
