%TF.GenerationSoftware,KiCad,Pcbnew,7.0.6*%
%TF.CreationDate,2024-05-07T04:30:43+03:00*%
%TF.ProjectId,board-main,626f6172-642d-46d6-9169-6e2e6b696361,rev?*%
%TF.SameCoordinates,Original*%
%TF.FileFunction,Drillmap*%
%TF.FilePolarity,Positive*%
%FSLAX45Y45*%
G04 Gerber Fmt 4.5, Leading zero omitted, Abs format (unit mm)*
G04 Created by KiCad (PCBNEW 7.0.6) date 2024-05-07 04:30:43*
%MOMM*%
%LPD*%
G01*
G04 APERTURE LIST*
%ADD10C,0.100000*%
%ADD11C,0.200000*%
%ADD12C,0.040000*%
%ADD13C,0.050000*%
%ADD14C,0.075000*%
%ADD15C,0.080000*%
%ADD16C,0.250000*%
G04 APERTURE END LIST*
D10*
X3111500Y-6299200D02*
X3111500Y-10210800D01*
X3340100Y-6070600D02*
X3111500Y-6299200D01*
X3340100Y-4635500D02*
X15176500Y-4635500D01*
X3340100Y-4635500D02*
X3340100Y-6070600D01*
X3340100Y-10439400D02*
X3340100Y-11874500D01*
X3111500Y-10210800D02*
X3340100Y-10439400D01*
X15176500Y-11874500D02*
X3340100Y-11874500D01*
X15176500Y-4635500D02*
X15176500Y-11874500D01*
D11*
D12*
X3410000Y-6200000D02*
X3450000Y-6240000D01*
X3450000Y-6200000D02*
X3410000Y-6240000D01*
X3410000Y-10260000D02*
X3450000Y-10300000D01*
X3450000Y-10260000D02*
X3410000Y-10300000D01*
X4270000Y-11730000D02*
X4310000Y-11770000D01*
X4310000Y-11730000D02*
X4270000Y-11770000D01*
X4960000Y-6580000D02*
X5000000Y-6620000D01*
X5000000Y-6580000D02*
X4960000Y-6620000D01*
X4996500Y-5123500D02*
X5036500Y-5163500D01*
X5036500Y-5123500D02*
X4996500Y-5163500D01*
X5320000Y-7760000D02*
X5360000Y-7800000D01*
X5360000Y-7760000D02*
X5320000Y-7800000D01*
X5441000Y-9759000D02*
X5481000Y-9799000D01*
X5481000Y-9759000D02*
X5441000Y-9799000D01*
X5441000Y-10013000D02*
X5481000Y-10053000D01*
X5481000Y-10013000D02*
X5441000Y-10053000D01*
X5504500Y-9314500D02*
X5544500Y-9354500D01*
X5544500Y-9314500D02*
X5504500Y-9354500D01*
X5730000Y-9400000D02*
X5770000Y-9440000D01*
X5770000Y-9400000D02*
X5730000Y-9440000D01*
X5758500Y-7219000D02*
X5798500Y-7259000D01*
X5798500Y-7219000D02*
X5758500Y-7259000D01*
X5860000Y-11530000D02*
X5900000Y-11570000D01*
X5900000Y-11530000D02*
X5860000Y-11570000D01*
X5885500Y-5123500D02*
X5925500Y-5163500D01*
X5925500Y-5123500D02*
X5885500Y-5163500D01*
X5890000Y-8400000D02*
X5930000Y-8440000D01*
X5930000Y-8400000D02*
X5890000Y-8440000D01*
X5915000Y-9390000D02*
X5955000Y-9430000D01*
X5955000Y-9390000D02*
X5915000Y-9430000D01*
X6410000Y-5790000D02*
X6450000Y-5830000D01*
X6450000Y-5790000D02*
X6410000Y-5830000D01*
X6580000Y-6820000D02*
X6620000Y-6860000D01*
X6620000Y-6820000D02*
X6580000Y-6860000D01*
X6610000Y-9680000D02*
X6650000Y-9720000D01*
X6650000Y-9680000D02*
X6610000Y-9720000D01*
X6965000Y-5123500D02*
X7005000Y-5163500D01*
X7005000Y-5123500D02*
X6965000Y-5163500D01*
X7160000Y-10430000D02*
X7200000Y-10470000D01*
X7200000Y-10430000D02*
X7160000Y-10470000D01*
X7854000Y-5123500D02*
X7894000Y-5163500D01*
X7894000Y-5123500D02*
X7854000Y-5163500D01*
X7860000Y-6310000D02*
X7900000Y-6350000D01*
X7900000Y-6310000D02*
X7860000Y-6350000D01*
X8270000Y-5790000D02*
X8310000Y-5830000D01*
X8310000Y-5790000D02*
X8270000Y-5830000D01*
X8310000Y-9720000D02*
X8350000Y-9760000D01*
X8350000Y-9720000D02*
X8310000Y-9760000D01*
X8933500Y-5123500D02*
X8973500Y-5163500D01*
X8973500Y-5123500D02*
X8933500Y-5163500D01*
X9100000Y-11190000D02*
X9140000Y-11230000D01*
X9140000Y-11190000D02*
X9100000Y-11230000D01*
X9370000Y-8240000D02*
X9410000Y-8280000D01*
X9410000Y-8240000D02*
X9370000Y-8280000D01*
X9822500Y-5123500D02*
X9862500Y-5163500D01*
X9862500Y-5123500D02*
X9822500Y-5163500D01*
X11310000Y-11750000D02*
X11350000Y-11790000D01*
X11350000Y-11750000D02*
X11310000Y-11790000D01*
X12170000Y-5900000D02*
X12210000Y-5940000D01*
X12210000Y-5900000D02*
X12170000Y-5940000D01*
X12700000Y-9050000D02*
X12740000Y-9090000D01*
X12740000Y-9050000D02*
X12700000Y-9090000D01*
X12760000Y-5360000D02*
X12800000Y-5400000D01*
X12800000Y-5360000D02*
X12760000Y-5400000D01*
X13120000Y-10150000D02*
X13160000Y-10190000D01*
X13160000Y-10150000D02*
X13120000Y-10190000D01*
X13180000Y-5880000D02*
X13220000Y-5920000D01*
X13220000Y-5880000D02*
X13180000Y-5920000D01*
X13790000Y-6750000D02*
X13830000Y-6790000D01*
X13830000Y-6750000D02*
X13790000Y-6790000D01*
X14070000Y-8770000D02*
X14110000Y-8810000D01*
X14110000Y-8770000D02*
X14070000Y-8810000D01*
X14320000Y-10300000D02*
X14360000Y-10340000D01*
X14360000Y-10300000D02*
X14320000Y-10340000D01*
X14480000Y-7710000D02*
X14520000Y-7750000D01*
X14520000Y-7710000D02*
X14480000Y-7750000D01*
X14970000Y-9960000D02*
X15010000Y-10000000D01*
X15010000Y-9960000D02*
X14970000Y-10000000D01*
X14980000Y-6660000D02*
X15020000Y-6700000D01*
X15020000Y-6660000D02*
X14980000Y-6700000D01*
D13*
X5155800Y-8940800D02*
G75*
G03*
X5155800Y-8940800I-25000J0D01*
G01*
D14*
X14224000Y-6185500D02*
X14224000Y-6260500D01*
X14186500Y-6223000D02*
X14261500Y-6223000D01*
X14224000Y-6947500D02*
X14224000Y-7022500D01*
X14186500Y-6985000D02*
X14261500Y-6985000D01*
X14224000Y-8344500D02*
X14224000Y-8419500D01*
X14186500Y-8382000D02*
X14261500Y-8382000D01*
X14224000Y-9678000D02*
X14224000Y-9753000D01*
X14186500Y-9715500D02*
X14261500Y-9715500D01*
X14351000Y-6312500D02*
X14351000Y-6387500D01*
X14313500Y-6350000D02*
X14388500Y-6350000D01*
X14351000Y-7074500D02*
X14351000Y-7149500D01*
X14313500Y-7112000D02*
X14388500Y-7112000D01*
X14351000Y-8471500D02*
X14351000Y-8546500D01*
X14313500Y-8509000D02*
X14388500Y-8509000D01*
X14351000Y-9805000D02*
X14351000Y-9880000D01*
X14313500Y-9842500D02*
X14388500Y-9842500D01*
X14478000Y-6185500D02*
X14478000Y-6260500D01*
X14440500Y-6223000D02*
X14515500Y-6223000D01*
X14478000Y-6947500D02*
X14478000Y-7022500D01*
X14440500Y-6985000D02*
X14515500Y-6985000D01*
X14478000Y-8344500D02*
X14478000Y-8419500D01*
X14440500Y-8382000D02*
X14515500Y-8382000D01*
X14478000Y-9678000D02*
X14478000Y-9753000D01*
X14440500Y-9715500D02*
X14515500Y-9715500D01*
D15*
X3723984Y-10874085D02*
X3723984Y-10817516D01*
X3667415Y-10817516D01*
X3667415Y-10874085D01*
X3723984Y-10874085D01*
X4073984Y-10874085D02*
X4073984Y-10817516D01*
X4017415Y-10817516D01*
X4017415Y-10874085D01*
X4073984Y-10874085D01*
X4604982Y-10860482D02*
X4604982Y-10803913D01*
X4548413Y-10803913D01*
X4548413Y-10860482D01*
X4604982Y-10860482D01*
X4954982Y-10860482D02*
X4954982Y-10803913D01*
X4898413Y-10803913D01*
X4898413Y-10860482D01*
X4954982Y-10860482D01*
X5171785Y-8033284D02*
X5171785Y-7976715D01*
X5115216Y-7976715D01*
X5115216Y-8033284D01*
X5171785Y-8033284D01*
X5171785Y-8533285D02*
X5171785Y-8476716D01*
X5115216Y-8476716D01*
X5115216Y-8533285D01*
X5171785Y-8533285D01*
X5551785Y-7903284D02*
X5551785Y-7846715D01*
X5495216Y-7846715D01*
X5495216Y-7903284D01*
X5551785Y-7903284D01*
X5551785Y-8665285D02*
X5551785Y-8608716D01*
X5495216Y-8608716D01*
X5495216Y-8665285D01*
X5551785Y-8665285D01*
X5805784Y-7903284D02*
X5805784Y-7846715D01*
X5749215Y-7846715D01*
X5749215Y-7903284D01*
X5805784Y-7903284D01*
X5805784Y-8665285D02*
X5805784Y-8608716D01*
X5749215Y-8608716D01*
X5749215Y-8665285D01*
X5805784Y-8665285D01*
X6059784Y-7903284D02*
X6059784Y-7846715D01*
X6003215Y-7846715D01*
X6003215Y-7903284D01*
X6059784Y-7903284D01*
X6059784Y-8665285D02*
X6059784Y-8608716D01*
X6003215Y-8608716D01*
X6003215Y-8665285D01*
X6059784Y-8665285D01*
X6313784Y-7903284D02*
X6313784Y-7846715D01*
X6257215Y-7846715D01*
X6257215Y-7903284D01*
X6313784Y-7903284D01*
X6313784Y-8665285D02*
X6313784Y-8608716D01*
X6257215Y-8608716D01*
X6257215Y-8665285D01*
X6313784Y-8665285D01*
X6421864Y-7183864D02*
X6421864Y-7127295D01*
X6365295Y-7127295D01*
X6365295Y-7183864D01*
X6421864Y-7183864D01*
X6421864Y-9382705D02*
X6421864Y-9326136D01*
X6365295Y-9326136D01*
X6365295Y-9382705D01*
X6421864Y-9382705D01*
X6695784Y-8033284D02*
X6695784Y-7976715D01*
X6639215Y-7976715D01*
X6639215Y-8033284D01*
X6695784Y-8033284D01*
X6695784Y-8533285D02*
X6695784Y-8476716D01*
X6639215Y-8476716D01*
X6639215Y-8533285D01*
X6695784Y-8533285D01*
X7056570Y-6547128D02*
X7056570Y-6490559D01*
X7000001Y-6490559D01*
X7000001Y-6547128D01*
X7056570Y-6547128D01*
X7056864Y-10017705D02*
X7056864Y-9961136D01*
X7000295Y-9961136D01*
X7000295Y-10017705D01*
X7056864Y-10017705D01*
X7104180Y-7230685D02*
X7104180Y-7174116D01*
X7047611Y-7174116D01*
X7047611Y-7230685D01*
X7104180Y-7230685D01*
X7104231Y-9335338D02*
X7104231Y-9278769D01*
X7047662Y-9278769D01*
X7047662Y-9335338D01*
X7104231Y-9335338D01*
X7140284Y-7902284D02*
X7140284Y-7845715D01*
X7083715Y-7845715D01*
X7083715Y-7902284D01*
X7140284Y-7902284D01*
X7140284Y-8664285D02*
X7140284Y-8607716D01*
X7083715Y-8607716D01*
X7083715Y-8664285D01*
X7140284Y-8664285D01*
X7457734Y-7584238D02*
X7457734Y-7527669D01*
X7401165Y-7527669D01*
X7401165Y-7584238D01*
X7457734Y-7584238D01*
X7457784Y-8981785D02*
X7457784Y-8925216D01*
X7401215Y-8925216D01*
X7401215Y-8981785D01*
X7457784Y-8981785D01*
X7739231Y-9970338D02*
X7739231Y-9913769D01*
X7682662Y-9913769D01*
X7682662Y-9970338D01*
X7739231Y-9970338D01*
X7739871Y-6594871D02*
X7739871Y-6538302D01*
X7683302Y-6538302D01*
X7683302Y-6594871D01*
X7739871Y-6594871D01*
X7774990Y-7265548D02*
X7774990Y-7208979D01*
X7718421Y-7208979D01*
X7718421Y-7265548D01*
X7774990Y-7265548D01*
X7775284Y-9299285D02*
X7775284Y-9242716D01*
X7718715Y-9242716D01*
X7718715Y-9299285D01*
X7775284Y-9299285D01*
X8092784Y-9616785D02*
X8092784Y-9560216D01*
X8036215Y-9560216D01*
X8036215Y-9616785D01*
X8092784Y-9616785D01*
X8093425Y-6948425D02*
X8093425Y-6891856D01*
X8036856Y-6891856D01*
X8036856Y-6948425D01*
X8093425Y-6948425D01*
X12283784Y-10188285D02*
X12283784Y-10131716D01*
X12227215Y-10131716D01*
X12227215Y-10188285D01*
X12283784Y-10188285D01*
X12372684Y-6180684D02*
X12372684Y-6124115D01*
X12316115Y-6124115D01*
X12316115Y-6180684D01*
X12372684Y-6180684D01*
X12372684Y-6530684D02*
X12372684Y-6474115D01*
X12316115Y-6474115D01*
X12316115Y-6530684D01*
X12372684Y-6530684D01*
X12633784Y-10188285D02*
X12633784Y-10131716D01*
X12577215Y-10131716D01*
X12577215Y-10188285D01*
X12633784Y-10188285D01*
X12986791Y-7394284D02*
X12986791Y-7337715D01*
X12930222Y-7337715D01*
X12930222Y-7394284D01*
X12986791Y-7394284D01*
X12986791Y-7648284D02*
X12986791Y-7591715D01*
X12930222Y-7591715D01*
X12930222Y-7648284D01*
X12986791Y-7648284D01*
X12986791Y-7902284D02*
X12986791Y-7845715D01*
X12930222Y-7845715D01*
X12930222Y-7902284D01*
X12986791Y-7902284D01*
X12986791Y-8156284D02*
X12986791Y-8099715D01*
X12930222Y-8099715D01*
X12930222Y-8156284D01*
X12986791Y-8156284D01*
X12986791Y-8410285D02*
X12986791Y-8353715D01*
X12930222Y-8353715D01*
X12930222Y-8410285D01*
X12986791Y-8410285D01*
X12986791Y-8664285D02*
X12986791Y-8607716D01*
X12930222Y-8607716D01*
X12930222Y-8664285D01*
X12986791Y-8664285D01*
X12986791Y-8918285D02*
X12986791Y-8861716D01*
X12930222Y-8861716D01*
X12930222Y-8918285D01*
X12986791Y-8918285D01*
X12986791Y-9172285D02*
X12986791Y-9115716D01*
X12930222Y-9115716D01*
X12930222Y-9172285D01*
X12986791Y-9172285D01*
X13109284Y-5235285D02*
X13109284Y-5178716D01*
X13052715Y-5178716D01*
X13052715Y-5235285D01*
X13109284Y-5235285D01*
X13175452Y-7013284D02*
X13175452Y-6956715D01*
X13118883Y-6956715D01*
X13118883Y-7013284D01*
X13175452Y-7013284D01*
X13175452Y-9527885D02*
X13175452Y-9471316D01*
X13118883Y-9471316D01*
X13118883Y-9527885D01*
X13175452Y-9527885D01*
X13675452Y-7013284D02*
X13675452Y-6956715D01*
X13618883Y-6956715D01*
X13618883Y-7013284D01*
X13675452Y-7013284D01*
X13675452Y-9527885D02*
X13675452Y-9471316D01*
X13618883Y-9471316D01*
X13618883Y-9527885D01*
X13675452Y-9527885D01*
X13748791Y-7394284D02*
X13748791Y-7337715D01*
X13692222Y-7337715D01*
X13692222Y-7394284D01*
X13748791Y-7394284D01*
X13748791Y-7648284D02*
X13748791Y-7591715D01*
X13692222Y-7591715D01*
X13692222Y-7648284D01*
X13748791Y-7648284D01*
X13748791Y-7902284D02*
X13748791Y-7845715D01*
X13692222Y-7845715D01*
X13692222Y-7902284D01*
X13748791Y-7902284D01*
X13748791Y-8156284D02*
X13748791Y-8099715D01*
X13692222Y-8099715D01*
X13692222Y-8156284D01*
X13748791Y-8156284D01*
X13748791Y-8410285D02*
X13748791Y-8353715D01*
X13692222Y-8353715D01*
X13692222Y-8410285D01*
X13748791Y-8410285D01*
X13748791Y-8664285D02*
X13748791Y-8607716D01*
X13692222Y-8607716D01*
X13692222Y-8664285D01*
X13748791Y-8664285D01*
X13748791Y-8918285D02*
X13748791Y-8861716D01*
X13692222Y-8861716D01*
X13692222Y-8918285D01*
X13748791Y-8918285D01*
X13748791Y-9172285D02*
X13748791Y-9115716D01*
X13692222Y-9115716D01*
X13692222Y-9172285D01*
X13748791Y-9172285D01*
X13934784Y-5552785D02*
X13934784Y-5496216D01*
X13878215Y-5496216D01*
X13878215Y-5552785D01*
X13934784Y-5552785D01*
X13934784Y-6568785D02*
X13934784Y-6512216D01*
X13878215Y-6512216D01*
X13878215Y-6568785D01*
X13934784Y-6568785D01*
X14125284Y-5235285D02*
X14125284Y-5178716D01*
X14068715Y-5178716D01*
X14068715Y-5235285D01*
X14125284Y-5235285D01*
X14887284Y-7013285D02*
X14887284Y-6956716D01*
X14830715Y-6956716D01*
X14830715Y-7013285D01*
X14887284Y-7013285D01*
X14887284Y-8029285D02*
X14887284Y-7972716D01*
X14830715Y-7972716D01*
X14830715Y-8029285D01*
X14887284Y-8029285D01*
X14887284Y-8410285D02*
X14887284Y-8353715D01*
X14830715Y-8353715D01*
X14830715Y-8410285D01*
X14887284Y-8410285D01*
X14887284Y-9426285D02*
X14887284Y-9369716D01*
X14830715Y-9369716D01*
X14830715Y-9426285D01*
X14887284Y-9426285D01*
X14887284Y-9743785D02*
X14887284Y-9687216D01*
X14830715Y-9687216D01*
X14830715Y-9743785D01*
X14887284Y-9743785D01*
X14887284Y-10759785D02*
X14887284Y-10703216D01*
X14830715Y-10703216D01*
X14830715Y-10759785D01*
X14887284Y-10759785D01*
X14950784Y-5878284D02*
X14950784Y-5821715D01*
X14894215Y-5821715D01*
X14894215Y-5878284D01*
X14950784Y-5878284D01*
X14950784Y-6378284D02*
X14950784Y-6321715D01*
X14894215Y-6321715D01*
X14894215Y-6378284D01*
X14950784Y-6378284D01*
D10*
X3428500Y-6527500D02*
X3478500Y-6477500D01*
X3428500Y-6427500D01*
X3378500Y-6477500D01*
X3428500Y-6527500D01*
X3428500Y-6781500D02*
X3478500Y-6731500D01*
X3428500Y-6681500D01*
X3378500Y-6731500D01*
X3428500Y-6781500D01*
X3428500Y-7035500D02*
X3478500Y-6985500D01*
X3428500Y-6935500D01*
X3378500Y-6985500D01*
X3428500Y-7035500D01*
X3428500Y-7289500D02*
X3478500Y-7239500D01*
X3428500Y-7189500D01*
X3378500Y-7239500D01*
X3428500Y-7289500D01*
X3428500Y-7543500D02*
X3478500Y-7493500D01*
X3428500Y-7443500D01*
X3378500Y-7493500D01*
X3428500Y-7543500D01*
X3428500Y-7797500D02*
X3478500Y-7747500D01*
X3428500Y-7697500D01*
X3378500Y-7747500D01*
X3428500Y-7797500D01*
X3428500Y-8051500D02*
X3478500Y-8001500D01*
X3428500Y-7951500D01*
X3378500Y-8001500D01*
X3428500Y-8051500D01*
X3428500Y-8305500D02*
X3478500Y-8255500D01*
X3428500Y-8205500D01*
X3378500Y-8255500D01*
X3428500Y-8305500D01*
X3428500Y-8559500D02*
X3478500Y-8509500D01*
X3428500Y-8459500D01*
X3378500Y-8509500D01*
X3428500Y-8559500D01*
X3428500Y-8813500D02*
X3478500Y-8763500D01*
X3428500Y-8713500D01*
X3378500Y-8763500D01*
X3428500Y-8813500D01*
X3428500Y-9067500D02*
X3478500Y-9017500D01*
X3428500Y-8967500D01*
X3378500Y-9017500D01*
X3428500Y-9067500D01*
X3428500Y-9321500D02*
X3478500Y-9271500D01*
X3428500Y-9221500D01*
X3378500Y-9271500D01*
X3428500Y-9321500D01*
X3428500Y-9575500D02*
X3478500Y-9525500D01*
X3428500Y-9475500D01*
X3378500Y-9525500D01*
X3428500Y-9575500D01*
X3428500Y-9829500D02*
X3478500Y-9779500D01*
X3428500Y-9729500D01*
X3378500Y-9779500D01*
X3428500Y-9829500D01*
X3428500Y-10083500D02*
X3478500Y-10033500D01*
X3428500Y-9983500D01*
X3378500Y-10033500D01*
X3428500Y-10083500D01*
X3682500Y-6527500D02*
X3732500Y-6477500D01*
X3682500Y-6427500D01*
X3632500Y-6477500D01*
X3682500Y-6527500D01*
X3682500Y-6781500D02*
X3732500Y-6731500D01*
X3682500Y-6681500D01*
X3632500Y-6731500D01*
X3682500Y-6781500D01*
X3682500Y-7035500D02*
X3732500Y-6985500D01*
X3682500Y-6935500D01*
X3632500Y-6985500D01*
X3682500Y-7035500D01*
X3682500Y-7289500D02*
X3732500Y-7239500D01*
X3682500Y-7189500D01*
X3632500Y-7239500D01*
X3682500Y-7289500D01*
X3682500Y-7543500D02*
X3732500Y-7493500D01*
X3682500Y-7443500D01*
X3632500Y-7493500D01*
X3682500Y-7543500D01*
X3682500Y-7797500D02*
X3732500Y-7747500D01*
X3682500Y-7697500D01*
X3632500Y-7747500D01*
X3682500Y-7797500D01*
X3682500Y-8051500D02*
X3732500Y-8001500D01*
X3682500Y-7951500D01*
X3632500Y-8001500D01*
X3682500Y-8051500D01*
X3682500Y-8305500D02*
X3732500Y-8255500D01*
X3682500Y-8205500D01*
X3632500Y-8255500D01*
X3682500Y-8305500D01*
X3682500Y-8559500D02*
X3732500Y-8509500D01*
X3682500Y-8459500D01*
X3632500Y-8509500D01*
X3682500Y-8559500D01*
X3682500Y-8813500D02*
X3732500Y-8763500D01*
X3682500Y-8713500D01*
X3632500Y-8763500D01*
X3682500Y-8813500D01*
X3682500Y-9067500D02*
X3732500Y-9017500D01*
X3682500Y-8967500D01*
X3632500Y-9017500D01*
X3682500Y-9067500D01*
X3682500Y-9321500D02*
X3732500Y-9271500D01*
X3682500Y-9221500D01*
X3632500Y-9271500D01*
X3682500Y-9321500D01*
X3682500Y-9575500D02*
X3732500Y-9525500D01*
X3682500Y-9475500D01*
X3632500Y-9525500D01*
X3682500Y-9575500D01*
X3682500Y-9829500D02*
X3732500Y-9779500D01*
X3682500Y-9729500D01*
X3632500Y-9779500D01*
X3682500Y-9829500D01*
X3682500Y-10083500D02*
X3732500Y-10033500D01*
X3682500Y-9983500D01*
X3632500Y-10033500D01*
X3682500Y-10083500D01*
X4190500Y-6527500D02*
X4240500Y-6477500D01*
X4190500Y-6427500D01*
X4140500Y-6477500D01*
X4190500Y-6527500D01*
X4190500Y-6781500D02*
X4240500Y-6731500D01*
X4190500Y-6681500D01*
X4140500Y-6731500D01*
X4190500Y-6781500D01*
X4190500Y-7035500D02*
X4240500Y-6985500D01*
X4190500Y-6935500D01*
X4140500Y-6985500D01*
X4190500Y-7035500D01*
X4190500Y-7289500D02*
X4240500Y-7239500D01*
X4190500Y-7189500D01*
X4140500Y-7239500D01*
X4190500Y-7289500D01*
X4190500Y-7543500D02*
X4240500Y-7493500D01*
X4190500Y-7443500D01*
X4140500Y-7493500D01*
X4190500Y-7543500D01*
X4190500Y-7797500D02*
X4240500Y-7747500D01*
X4190500Y-7697500D01*
X4140500Y-7747500D01*
X4190500Y-7797500D01*
X4190500Y-8051500D02*
X4240500Y-8001500D01*
X4190500Y-7951500D01*
X4140500Y-8001500D01*
X4190500Y-8051500D01*
X4190500Y-8305500D02*
X4240500Y-8255500D01*
X4190500Y-8205500D01*
X4140500Y-8255500D01*
X4190500Y-8305500D01*
X4190500Y-8559500D02*
X4240500Y-8509500D01*
X4190500Y-8459500D01*
X4140500Y-8509500D01*
X4190500Y-8559500D01*
X4190500Y-8813500D02*
X4240500Y-8763500D01*
X4190500Y-8713500D01*
X4140500Y-8763500D01*
X4190500Y-8813500D01*
X4190500Y-9067500D02*
X4240500Y-9017500D01*
X4190500Y-8967500D01*
X4140500Y-9017500D01*
X4190500Y-9067500D01*
X4190500Y-9321500D02*
X4240500Y-9271500D01*
X4190500Y-9221500D01*
X4140500Y-9271500D01*
X4190500Y-9321500D01*
X4190500Y-9575500D02*
X4240500Y-9525500D01*
X4190500Y-9475500D01*
X4140500Y-9525500D01*
X4190500Y-9575500D01*
X4190500Y-9829500D02*
X4240500Y-9779500D01*
X4190500Y-9729500D01*
X4140500Y-9779500D01*
X4190500Y-9829500D01*
X4190500Y-10083500D02*
X4240500Y-10033500D01*
X4190500Y-9983500D01*
X4140500Y-10033500D01*
X4190500Y-10083500D01*
X4444500Y-6527500D02*
X4494500Y-6477500D01*
X4444500Y-6427500D01*
X4394500Y-6477500D01*
X4444500Y-6527500D01*
X4444500Y-6781500D02*
X4494500Y-6731500D01*
X4444500Y-6681500D01*
X4394500Y-6731500D01*
X4444500Y-6781500D01*
X4444500Y-7035500D02*
X4494500Y-6985500D01*
X4444500Y-6935500D01*
X4394500Y-6985500D01*
X4444500Y-7035500D01*
X4444500Y-7289500D02*
X4494500Y-7239500D01*
X4444500Y-7189500D01*
X4394500Y-7239500D01*
X4444500Y-7289500D01*
X4444500Y-7543500D02*
X4494500Y-7493500D01*
X4444500Y-7443500D01*
X4394500Y-7493500D01*
X4444500Y-7543500D01*
X4444500Y-7797500D02*
X4494500Y-7747500D01*
X4444500Y-7697500D01*
X4394500Y-7747500D01*
X4444500Y-7797500D01*
X4444500Y-8051500D02*
X4494500Y-8001500D01*
X4444500Y-7951500D01*
X4394500Y-8001500D01*
X4444500Y-8051500D01*
X4444500Y-8305500D02*
X4494500Y-8255500D01*
X4444500Y-8205500D01*
X4394500Y-8255500D01*
X4444500Y-8305500D01*
X4444500Y-8559500D02*
X4494500Y-8509500D01*
X4444500Y-8459500D01*
X4394500Y-8509500D01*
X4444500Y-8559500D01*
X4444500Y-8813500D02*
X4494500Y-8763500D01*
X4444500Y-8713500D01*
X4394500Y-8763500D01*
X4444500Y-8813500D01*
X4444500Y-9067500D02*
X4494500Y-9017500D01*
X4444500Y-8967500D01*
X4394500Y-9017500D01*
X4444500Y-9067500D01*
X4444500Y-9321500D02*
X4494500Y-9271500D01*
X4444500Y-9221500D01*
X4394500Y-9271500D01*
X4444500Y-9321500D01*
X4444500Y-9575500D02*
X4494500Y-9525500D01*
X4444500Y-9475500D01*
X4394500Y-9525500D01*
X4444500Y-9575500D01*
X4444500Y-9829500D02*
X4494500Y-9779500D01*
X4444500Y-9729500D01*
X4394500Y-9779500D01*
X4444500Y-9829500D01*
X4444500Y-10083500D02*
X4494500Y-10033500D01*
X4444500Y-9983500D01*
X4394500Y-10033500D01*
X4444500Y-10083500D01*
X5651500Y-11035500D02*
X5701500Y-10985500D01*
X5651500Y-10935500D01*
X5601500Y-10985500D01*
X5651500Y-11035500D01*
X5651500Y-11289500D02*
X5701500Y-11239500D01*
X5651500Y-11189500D01*
X5601500Y-11239500D01*
X5651500Y-11289500D01*
X5651500Y-11543500D02*
X5701500Y-11493500D01*
X5651500Y-11443500D01*
X5601500Y-11493500D01*
X5651500Y-11543500D01*
X6096000Y-11035500D02*
X6146000Y-10985500D01*
X6096000Y-10935500D01*
X6046000Y-10985500D01*
X6096000Y-11035500D01*
X6096000Y-11289500D02*
X6146000Y-11239500D01*
X6096000Y-11189500D01*
X6046000Y-11239500D01*
X6096000Y-11289500D01*
X6096000Y-11543500D02*
X6146000Y-11493500D01*
X6096000Y-11443500D01*
X6046000Y-11493500D01*
X6096000Y-11543500D01*
X6223000Y-6209500D02*
X6273000Y-6159500D01*
X6223000Y-6109500D01*
X6173000Y-6159500D01*
X6223000Y-6209500D01*
X6223000Y-6463500D02*
X6273000Y-6413500D01*
X6223000Y-6363500D01*
X6173000Y-6413500D01*
X6223000Y-6463500D01*
X6223000Y-10146500D02*
X6273000Y-10096500D01*
X6223000Y-10046500D01*
X6173000Y-10096500D01*
X6223000Y-10146500D01*
X6223000Y-10400500D02*
X6273000Y-10350500D01*
X6223000Y-10300500D01*
X6173000Y-10350500D01*
X6223000Y-10400500D01*
X6584079Y-6209500D02*
X6634079Y-6159500D01*
X6584079Y-6109500D01*
X6534079Y-6159500D01*
X6584079Y-6209500D01*
X6584079Y-6463500D02*
X6634079Y-6413500D01*
X6584079Y-6363500D01*
X6534079Y-6413500D01*
X6584079Y-6463500D01*
X6604000Y-10146500D02*
X6654000Y-10096500D01*
X6604000Y-10046500D01*
X6554000Y-10096500D01*
X6604000Y-10146500D01*
X6604000Y-10400500D02*
X6654000Y-10350500D01*
X6604000Y-10300500D01*
X6554000Y-10350500D01*
X6604000Y-10400500D01*
X7556500Y-10718000D02*
X7606500Y-10668000D01*
X7556500Y-10618000D01*
X7506500Y-10668000D01*
X7556500Y-10718000D01*
X7556500Y-10972000D02*
X7606500Y-10922000D01*
X7556500Y-10872000D01*
X7506500Y-10922000D01*
X7556500Y-10972000D01*
X7556500Y-11226000D02*
X7606500Y-11176000D01*
X7556500Y-11126000D01*
X7506500Y-11176000D01*
X7556500Y-11226000D01*
X8360214Y-6325676D02*
X8410214Y-6275676D01*
X8360214Y-6225676D01*
X8310214Y-6275676D01*
X8360214Y-6325676D01*
X8362289Y-10281798D02*
X8412290Y-10231798D01*
X8362289Y-10181798D01*
X8312289Y-10231798D01*
X8362289Y-10281798D01*
X8539819Y-6146071D02*
X8589819Y-6096071D01*
X8539819Y-6046071D01*
X8489819Y-6096071D01*
X8539819Y-6146071D01*
X8539819Y-6505281D02*
X8589819Y-6455281D01*
X8539819Y-6405281D01*
X8489819Y-6455281D01*
X8539819Y-6505281D01*
X8541895Y-10102193D02*
X8591895Y-10052193D01*
X8541895Y-10002193D01*
X8491895Y-10052193D01*
X8541895Y-10102193D01*
X8541895Y-10461403D02*
X8591895Y-10411403D01*
X8541895Y-10361403D01*
X8491895Y-10411403D01*
X8541895Y-10461403D01*
X8719424Y-5966466D02*
X8769424Y-5916466D01*
X8719424Y-5866466D01*
X8669424Y-5916466D01*
X8719424Y-5966466D01*
X8719424Y-6325676D02*
X8769424Y-6275676D01*
X8719424Y-6225676D01*
X8669424Y-6275676D01*
X8719424Y-6325676D01*
X8721500Y-10281798D02*
X8771500Y-10231798D01*
X8721500Y-10181798D01*
X8671500Y-10231798D01*
X8721500Y-10281798D01*
X8721500Y-10641008D02*
X8771500Y-10591008D01*
X8721500Y-10541008D01*
X8671500Y-10591008D01*
X8721500Y-10641008D01*
X8899029Y-6146071D02*
X8949029Y-6096071D01*
X8899029Y-6046071D01*
X8849029Y-6096071D01*
X8899029Y-6146071D01*
X8901105Y-10461403D02*
X8951105Y-10411403D01*
X8901105Y-10361403D01*
X8851105Y-10411403D01*
X8901105Y-10461403D01*
X11669397Y-9638156D02*
X11719397Y-9588156D01*
X11669397Y-9538156D01*
X11619397Y-9588156D01*
X11669397Y-9638156D01*
X11673038Y-6971500D02*
X11723038Y-6921500D01*
X11673038Y-6871500D01*
X11623038Y-6921500D01*
X11673038Y-6971500D01*
X11849002Y-9458551D02*
X11899002Y-9408551D01*
X11849002Y-9358551D01*
X11799002Y-9408551D01*
X11849002Y-9458551D01*
X11849002Y-9817762D02*
X11899002Y-9767762D01*
X11849002Y-9717762D01*
X11799002Y-9767762D01*
X11849002Y-9817762D01*
X11852643Y-6791895D02*
X11902643Y-6741895D01*
X11852643Y-6691895D01*
X11802643Y-6741895D01*
X11852643Y-6791895D01*
X11852643Y-7151105D02*
X11902643Y-7101105D01*
X11852643Y-7051105D01*
X11802643Y-7101105D01*
X11852643Y-7151105D01*
X12028607Y-9278946D02*
X12078607Y-9228946D01*
X12028607Y-9178946D01*
X11978607Y-9228946D01*
X12028607Y-9278946D01*
X12028607Y-9638156D02*
X12078607Y-9588156D01*
X12028607Y-9538156D01*
X11978607Y-9588156D01*
X12028607Y-9638156D01*
X12032248Y-6971500D02*
X12082248Y-6921500D01*
X12032248Y-6871500D01*
X11982248Y-6921500D01*
X12032248Y-6971500D01*
X12032248Y-7330710D02*
X12082248Y-7280710D01*
X12032248Y-7230710D01*
X11982248Y-7280710D01*
X12032248Y-7330710D01*
X12208212Y-9458551D02*
X12258212Y-9408551D01*
X12208212Y-9358551D01*
X12158212Y-9408551D01*
X12208212Y-9458551D01*
X12211853Y-7151105D02*
X12261853Y-7101105D01*
X12211853Y-7051105D01*
X12161853Y-7101105D01*
X12211853Y-7151105D01*
X13906500Y-10527500D02*
X13956500Y-10477500D01*
X13906500Y-10427500D01*
X13856500Y-10477500D01*
X13906500Y-10527500D01*
X13906500Y-10781500D02*
X13956500Y-10731500D01*
X13906500Y-10681500D01*
X13856500Y-10731500D01*
X13906500Y-10781500D01*
X13906500Y-11035500D02*
X13956500Y-10985500D01*
X13906500Y-10935500D01*
X13856500Y-10985500D01*
X13906500Y-11035500D01*
D16*
X7574827Y-8130000D02*
X7824827Y-8380000D01*
X7824827Y-8130000D02*
X7574827Y-8380000D01*
X7824827Y-8255000D02*
G75*
G03*
X7824827Y-8255000I-125000J0D01*
G01*
X9781000Y-5923827D02*
X10031000Y-6173827D01*
X10031000Y-5923827D02*
X9781000Y-6173827D01*
X10031000Y-6048827D02*
G75*
G03*
X10031000Y-6048827I-125000J0D01*
G01*
X9781000Y-10336173D02*
X10031000Y-10586173D01*
X10031000Y-10336173D02*
X9781000Y-10586173D01*
X10031000Y-10461173D02*
G75*
G03*
X10031000Y-10461173I-125000J0D01*
G01*
X11987173Y-8130000D02*
X12237173Y-8380000D01*
X12237173Y-8130000D02*
X11987173Y-8380000D01*
X12237173Y-8255000D02*
G75*
G03*
X12237173Y-8255000I-125000J0D01*
G01*
X14480000Y-5082000D02*
X14730000Y-5332000D01*
X14730000Y-5082000D02*
X14480000Y-5332000D01*
X14730000Y-5207000D02*
G75*
G03*
X14730000Y-5207000I-125000J0D01*
G01*
X14480000Y-11178000D02*
X14730000Y-11428000D01*
X14730000Y-11178000D02*
X14480000Y-11428000D01*
X14730000Y-11303000D02*
G75*
G03*
X14730000Y-11303000I-125000J0D01*
G01*
D11*
X3367277Y-12190984D02*
X3367277Y-11990984D01*
X3367277Y-11990984D02*
X3414896Y-11990984D01*
X3414896Y-11990984D02*
X3443467Y-12000508D01*
X3443467Y-12000508D02*
X3462515Y-12019555D01*
X3462515Y-12019555D02*
X3472039Y-12038603D01*
X3472039Y-12038603D02*
X3481562Y-12076698D01*
X3481562Y-12076698D02*
X3481562Y-12105269D01*
X3481562Y-12105269D02*
X3472039Y-12143365D01*
X3472039Y-12143365D02*
X3462515Y-12162412D01*
X3462515Y-12162412D02*
X3443467Y-12181460D01*
X3443467Y-12181460D02*
X3414896Y-12190984D01*
X3414896Y-12190984D02*
X3367277Y-12190984D01*
X3567277Y-12190984D02*
X3567277Y-12057650D01*
X3567277Y-12095746D02*
X3576801Y-12076698D01*
X3576801Y-12076698D02*
X3586324Y-12067174D01*
X3586324Y-12067174D02*
X3605372Y-12057650D01*
X3605372Y-12057650D02*
X3624420Y-12057650D01*
X3691086Y-12190984D02*
X3691086Y-12057650D01*
X3691086Y-11990984D02*
X3681562Y-12000508D01*
X3681562Y-12000508D02*
X3691086Y-12010031D01*
X3691086Y-12010031D02*
X3700610Y-12000508D01*
X3700610Y-12000508D02*
X3691086Y-11990984D01*
X3691086Y-11990984D02*
X3691086Y-12010031D01*
X3814896Y-12190984D02*
X3795848Y-12181460D01*
X3795848Y-12181460D02*
X3786324Y-12162412D01*
X3786324Y-12162412D02*
X3786324Y-11990984D01*
X3919658Y-12190984D02*
X3900610Y-12181460D01*
X3900610Y-12181460D02*
X3891086Y-12162412D01*
X3891086Y-12162412D02*
X3891086Y-11990984D01*
X4148229Y-12190984D02*
X4148229Y-11990984D01*
X4148229Y-11990984D02*
X4214896Y-12133841D01*
X4214896Y-12133841D02*
X4281563Y-11990984D01*
X4281563Y-11990984D02*
X4281563Y-12190984D01*
X4462515Y-12190984D02*
X4462515Y-12086222D01*
X4462515Y-12086222D02*
X4452991Y-12067174D01*
X4452991Y-12067174D02*
X4433944Y-12057650D01*
X4433944Y-12057650D02*
X4395848Y-12057650D01*
X4395848Y-12057650D02*
X4376801Y-12067174D01*
X4462515Y-12181460D02*
X4443467Y-12190984D01*
X4443467Y-12190984D02*
X4395848Y-12190984D01*
X4395848Y-12190984D02*
X4376801Y-12181460D01*
X4376801Y-12181460D02*
X4367277Y-12162412D01*
X4367277Y-12162412D02*
X4367277Y-12143365D01*
X4367277Y-12143365D02*
X4376801Y-12124317D01*
X4376801Y-12124317D02*
X4395848Y-12114793D01*
X4395848Y-12114793D02*
X4443467Y-12114793D01*
X4443467Y-12114793D02*
X4462515Y-12105269D01*
X4557753Y-12057650D02*
X4557753Y-12257650D01*
X4557753Y-12067174D02*
X4576801Y-12057650D01*
X4576801Y-12057650D02*
X4614896Y-12057650D01*
X4614896Y-12057650D02*
X4633944Y-12067174D01*
X4633944Y-12067174D02*
X4643467Y-12076698D01*
X4643467Y-12076698D02*
X4652991Y-12095746D01*
X4652991Y-12095746D02*
X4652991Y-12152888D01*
X4652991Y-12152888D02*
X4643467Y-12171936D01*
X4643467Y-12171936D02*
X4633944Y-12181460D01*
X4633944Y-12181460D02*
X4614896Y-12190984D01*
X4614896Y-12190984D02*
X4576801Y-12190984D01*
X4576801Y-12190984D02*
X4557753Y-12181460D01*
X4738705Y-12171936D02*
X4748229Y-12181460D01*
X4748229Y-12181460D02*
X4738705Y-12190984D01*
X4738705Y-12190984D02*
X4729182Y-12181460D01*
X4729182Y-12181460D02*
X4738705Y-12171936D01*
X4738705Y-12171936D02*
X4738705Y-12190984D01*
X4738705Y-12067174D02*
X4748229Y-12076698D01*
X4748229Y-12076698D02*
X4738705Y-12086222D01*
X4738705Y-12086222D02*
X4729182Y-12076698D01*
X4729182Y-12076698D02*
X4738705Y-12067174D01*
X4738705Y-12067174D02*
X4738705Y-12086222D01*
D12*
X3066500Y-12499500D02*
X3106500Y-12539500D01*
X3106500Y-12499500D02*
X3066500Y-12539500D01*
D11*
X3405372Y-12410984D02*
X3424420Y-12410984D01*
X3424420Y-12410984D02*
X3443467Y-12420508D01*
X3443467Y-12420508D02*
X3452991Y-12430031D01*
X3452991Y-12430031D02*
X3462515Y-12449079D01*
X3462515Y-12449079D02*
X3472039Y-12487174D01*
X3472039Y-12487174D02*
X3472039Y-12534793D01*
X3472039Y-12534793D02*
X3462515Y-12572888D01*
X3462515Y-12572888D02*
X3452991Y-12591936D01*
X3452991Y-12591936D02*
X3443467Y-12601460D01*
X3443467Y-12601460D02*
X3424420Y-12610984D01*
X3424420Y-12610984D02*
X3405372Y-12610984D01*
X3405372Y-12610984D02*
X3386324Y-12601460D01*
X3386324Y-12601460D02*
X3376801Y-12591936D01*
X3376801Y-12591936D02*
X3367277Y-12572888D01*
X3367277Y-12572888D02*
X3357753Y-12534793D01*
X3357753Y-12534793D02*
X3357753Y-12487174D01*
X3357753Y-12487174D02*
X3367277Y-12449079D01*
X3367277Y-12449079D02*
X3376801Y-12430031D01*
X3376801Y-12430031D02*
X3386324Y-12420508D01*
X3386324Y-12420508D02*
X3405372Y-12410984D01*
X3557753Y-12591936D02*
X3567277Y-12601460D01*
X3567277Y-12601460D02*
X3557753Y-12610984D01*
X3557753Y-12610984D02*
X3548229Y-12601460D01*
X3548229Y-12601460D02*
X3557753Y-12591936D01*
X3557753Y-12591936D02*
X3557753Y-12610984D01*
X3738705Y-12477650D02*
X3738705Y-12610984D01*
X3691086Y-12401460D02*
X3643467Y-12544317D01*
X3643467Y-12544317D02*
X3767277Y-12544317D01*
X3881562Y-12410984D02*
X3900610Y-12410984D01*
X3900610Y-12410984D02*
X3919658Y-12420508D01*
X3919658Y-12420508D02*
X3929182Y-12430031D01*
X3929182Y-12430031D02*
X3938705Y-12449079D01*
X3938705Y-12449079D02*
X3948229Y-12487174D01*
X3948229Y-12487174D02*
X3948229Y-12534793D01*
X3948229Y-12534793D02*
X3938705Y-12572888D01*
X3938705Y-12572888D02*
X3929182Y-12591936D01*
X3929182Y-12591936D02*
X3919658Y-12601460D01*
X3919658Y-12601460D02*
X3900610Y-12610984D01*
X3900610Y-12610984D02*
X3881562Y-12610984D01*
X3881562Y-12610984D02*
X3862515Y-12601460D01*
X3862515Y-12601460D02*
X3852991Y-12591936D01*
X3852991Y-12591936D02*
X3843467Y-12572888D01*
X3843467Y-12572888D02*
X3833943Y-12534793D01*
X3833943Y-12534793D02*
X3833943Y-12487174D01*
X3833943Y-12487174D02*
X3843467Y-12449079D01*
X3843467Y-12449079D02*
X3852991Y-12430031D01*
X3852991Y-12430031D02*
X3862515Y-12420508D01*
X3862515Y-12420508D02*
X3881562Y-12410984D01*
X4072039Y-12410984D02*
X4091086Y-12410984D01*
X4091086Y-12410984D02*
X4110134Y-12420508D01*
X4110134Y-12420508D02*
X4119658Y-12430031D01*
X4119658Y-12430031D02*
X4129182Y-12449079D01*
X4129182Y-12449079D02*
X4138705Y-12487174D01*
X4138705Y-12487174D02*
X4138705Y-12534793D01*
X4138705Y-12534793D02*
X4129182Y-12572888D01*
X4129182Y-12572888D02*
X4119658Y-12591936D01*
X4119658Y-12591936D02*
X4110134Y-12601460D01*
X4110134Y-12601460D02*
X4091086Y-12610984D01*
X4091086Y-12610984D02*
X4072039Y-12610984D01*
X4072039Y-12610984D02*
X4052991Y-12601460D01*
X4052991Y-12601460D02*
X4043467Y-12591936D01*
X4043467Y-12591936D02*
X4033943Y-12572888D01*
X4033943Y-12572888D02*
X4024420Y-12534793D01*
X4024420Y-12534793D02*
X4024420Y-12487174D01*
X4024420Y-12487174D02*
X4033943Y-12449079D01*
X4033943Y-12449079D02*
X4043467Y-12430031D01*
X4043467Y-12430031D02*
X4052991Y-12420508D01*
X4052991Y-12420508D02*
X4072039Y-12410984D01*
X4224420Y-12610984D02*
X4224420Y-12477650D01*
X4224420Y-12496698D02*
X4233944Y-12487174D01*
X4233944Y-12487174D02*
X4252991Y-12477650D01*
X4252991Y-12477650D02*
X4281563Y-12477650D01*
X4281563Y-12477650D02*
X4300610Y-12487174D01*
X4300610Y-12487174D02*
X4310134Y-12506222D01*
X4310134Y-12506222D02*
X4310134Y-12610984D01*
X4310134Y-12506222D02*
X4319658Y-12487174D01*
X4319658Y-12487174D02*
X4338705Y-12477650D01*
X4338705Y-12477650D02*
X4367277Y-12477650D01*
X4367277Y-12477650D02*
X4386325Y-12487174D01*
X4386325Y-12487174D02*
X4395848Y-12506222D01*
X4395848Y-12506222D02*
X4395848Y-12610984D01*
X4491086Y-12610984D02*
X4491086Y-12477650D01*
X4491086Y-12496698D02*
X4500610Y-12487174D01*
X4500610Y-12487174D02*
X4519658Y-12477650D01*
X4519658Y-12477650D02*
X4548229Y-12477650D01*
X4548229Y-12477650D02*
X4567277Y-12487174D01*
X4567277Y-12487174D02*
X4576801Y-12506222D01*
X4576801Y-12506222D02*
X4576801Y-12610984D01*
X4576801Y-12506222D02*
X4586325Y-12487174D01*
X4586325Y-12487174D02*
X4605372Y-12477650D01*
X4605372Y-12477650D02*
X4633944Y-12477650D01*
X4633944Y-12477650D02*
X4652991Y-12487174D01*
X4652991Y-12487174D02*
X4662515Y-12506222D01*
X4662515Y-12506222D02*
X4662515Y-12610984D01*
X5052991Y-12401460D02*
X4881563Y-12658603D01*
X5310134Y-12410984D02*
X5329182Y-12410984D01*
X5329182Y-12410984D02*
X5348229Y-12420508D01*
X5348229Y-12420508D02*
X5357753Y-12430031D01*
X5357753Y-12430031D02*
X5367277Y-12449079D01*
X5367277Y-12449079D02*
X5376801Y-12487174D01*
X5376801Y-12487174D02*
X5376801Y-12534793D01*
X5376801Y-12534793D02*
X5367277Y-12572888D01*
X5367277Y-12572888D02*
X5357753Y-12591936D01*
X5357753Y-12591936D02*
X5348229Y-12601460D01*
X5348229Y-12601460D02*
X5329182Y-12610984D01*
X5329182Y-12610984D02*
X5310134Y-12610984D01*
X5310134Y-12610984D02*
X5291087Y-12601460D01*
X5291087Y-12601460D02*
X5281563Y-12591936D01*
X5281563Y-12591936D02*
X5272039Y-12572888D01*
X5272039Y-12572888D02*
X5262515Y-12534793D01*
X5262515Y-12534793D02*
X5262515Y-12487174D01*
X5262515Y-12487174D02*
X5272039Y-12449079D01*
X5272039Y-12449079D02*
X5281563Y-12430031D01*
X5281563Y-12430031D02*
X5291087Y-12420508D01*
X5291087Y-12420508D02*
X5310134Y-12410984D01*
X5462515Y-12591936D02*
X5472039Y-12601460D01*
X5472039Y-12601460D02*
X5462515Y-12610984D01*
X5462515Y-12610984D02*
X5452991Y-12601460D01*
X5452991Y-12601460D02*
X5462515Y-12591936D01*
X5462515Y-12591936D02*
X5462515Y-12610984D01*
X5595848Y-12410984D02*
X5614896Y-12410984D01*
X5614896Y-12410984D02*
X5633944Y-12420508D01*
X5633944Y-12420508D02*
X5643467Y-12430031D01*
X5643467Y-12430031D02*
X5652991Y-12449079D01*
X5652991Y-12449079D02*
X5662515Y-12487174D01*
X5662515Y-12487174D02*
X5662515Y-12534793D01*
X5662515Y-12534793D02*
X5652991Y-12572888D01*
X5652991Y-12572888D02*
X5643467Y-12591936D01*
X5643467Y-12591936D02*
X5633944Y-12601460D01*
X5633944Y-12601460D02*
X5614896Y-12610984D01*
X5614896Y-12610984D02*
X5595848Y-12610984D01*
X5595848Y-12610984D02*
X5576801Y-12601460D01*
X5576801Y-12601460D02*
X5567277Y-12591936D01*
X5567277Y-12591936D02*
X5557753Y-12572888D01*
X5557753Y-12572888D02*
X5548229Y-12534793D01*
X5548229Y-12534793D02*
X5548229Y-12487174D01*
X5548229Y-12487174D02*
X5557753Y-12449079D01*
X5557753Y-12449079D02*
X5567277Y-12430031D01*
X5567277Y-12430031D02*
X5576801Y-12420508D01*
X5576801Y-12420508D02*
X5595848Y-12410984D01*
X5852991Y-12610984D02*
X5738706Y-12610984D01*
X5795848Y-12610984D02*
X5795848Y-12410984D01*
X5795848Y-12410984D02*
X5776801Y-12439555D01*
X5776801Y-12439555D02*
X5757753Y-12458603D01*
X5757753Y-12458603D02*
X5738706Y-12468127D01*
X6033944Y-12410984D02*
X5938706Y-12410984D01*
X5938706Y-12410984D02*
X5929182Y-12506222D01*
X5929182Y-12506222D02*
X5938706Y-12496698D01*
X5938706Y-12496698D02*
X5957753Y-12487174D01*
X5957753Y-12487174D02*
X6005372Y-12487174D01*
X6005372Y-12487174D02*
X6024420Y-12496698D01*
X6024420Y-12496698D02*
X6033944Y-12506222D01*
X6033944Y-12506222D02*
X6043467Y-12525269D01*
X6043467Y-12525269D02*
X6043467Y-12572888D01*
X6043467Y-12572888D02*
X6033944Y-12591936D01*
X6033944Y-12591936D02*
X6024420Y-12601460D01*
X6024420Y-12601460D02*
X6005372Y-12610984D01*
X6005372Y-12610984D02*
X5957753Y-12610984D01*
X5957753Y-12610984D02*
X5938706Y-12601460D01*
X5938706Y-12601460D02*
X5929182Y-12591936D01*
X6110134Y-12410984D02*
X6243467Y-12410984D01*
X6243467Y-12410984D02*
X6157753Y-12610984D01*
X6310134Y-12410984D02*
X6310134Y-12449079D01*
X6386325Y-12410984D02*
X6386325Y-12449079D01*
X6681563Y-12687174D02*
X6672039Y-12677650D01*
X6672039Y-12677650D02*
X6652991Y-12649079D01*
X6652991Y-12649079D02*
X6643468Y-12630031D01*
X6643468Y-12630031D02*
X6633944Y-12601460D01*
X6633944Y-12601460D02*
X6624420Y-12553841D01*
X6624420Y-12553841D02*
X6624420Y-12515746D01*
X6624420Y-12515746D02*
X6633944Y-12468127D01*
X6633944Y-12468127D02*
X6643468Y-12439555D01*
X6643468Y-12439555D02*
X6652991Y-12420508D01*
X6652991Y-12420508D02*
X6672039Y-12391936D01*
X6672039Y-12391936D02*
X6681563Y-12382412D01*
X6843468Y-12477650D02*
X6843468Y-12610984D01*
X6795848Y-12401460D02*
X6748229Y-12544317D01*
X6748229Y-12544317D02*
X6872039Y-12544317D01*
X6986325Y-12410984D02*
X7005372Y-12410984D01*
X7005372Y-12410984D02*
X7024420Y-12420508D01*
X7024420Y-12420508D02*
X7033944Y-12430031D01*
X7033944Y-12430031D02*
X7043468Y-12449079D01*
X7043468Y-12449079D02*
X7052991Y-12487174D01*
X7052991Y-12487174D02*
X7052991Y-12534793D01*
X7052991Y-12534793D02*
X7043468Y-12572888D01*
X7043468Y-12572888D02*
X7033944Y-12591936D01*
X7033944Y-12591936D02*
X7024420Y-12601460D01*
X7024420Y-12601460D02*
X7005372Y-12610984D01*
X7005372Y-12610984D02*
X6986325Y-12610984D01*
X6986325Y-12610984D02*
X6967277Y-12601460D01*
X6967277Y-12601460D02*
X6957753Y-12591936D01*
X6957753Y-12591936D02*
X6948229Y-12572888D01*
X6948229Y-12572888D02*
X6938706Y-12534793D01*
X6938706Y-12534793D02*
X6938706Y-12487174D01*
X6938706Y-12487174D02*
X6948229Y-12449079D01*
X6948229Y-12449079D02*
X6957753Y-12430031D01*
X6957753Y-12430031D02*
X6967277Y-12420508D01*
X6967277Y-12420508D02*
X6986325Y-12410984D01*
X7291087Y-12610984D02*
X7291087Y-12410984D01*
X7376801Y-12610984D02*
X7376801Y-12506222D01*
X7376801Y-12506222D02*
X7367277Y-12487174D01*
X7367277Y-12487174D02*
X7348230Y-12477650D01*
X7348230Y-12477650D02*
X7319658Y-12477650D01*
X7319658Y-12477650D02*
X7300610Y-12487174D01*
X7300610Y-12487174D02*
X7291087Y-12496698D01*
X7500610Y-12610984D02*
X7481563Y-12601460D01*
X7481563Y-12601460D02*
X7472039Y-12591936D01*
X7472039Y-12591936D02*
X7462515Y-12572888D01*
X7462515Y-12572888D02*
X7462515Y-12515746D01*
X7462515Y-12515746D02*
X7472039Y-12496698D01*
X7472039Y-12496698D02*
X7481563Y-12487174D01*
X7481563Y-12487174D02*
X7500610Y-12477650D01*
X7500610Y-12477650D02*
X7529182Y-12477650D01*
X7529182Y-12477650D02*
X7548230Y-12487174D01*
X7548230Y-12487174D02*
X7557753Y-12496698D01*
X7557753Y-12496698D02*
X7567277Y-12515746D01*
X7567277Y-12515746D02*
X7567277Y-12572888D01*
X7567277Y-12572888D02*
X7557753Y-12591936D01*
X7557753Y-12591936D02*
X7548230Y-12601460D01*
X7548230Y-12601460D02*
X7529182Y-12610984D01*
X7529182Y-12610984D02*
X7500610Y-12610984D01*
X7681563Y-12610984D02*
X7662515Y-12601460D01*
X7662515Y-12601460D02*
X7652991Y-12582412D01*
X7652991Y-12582412D02*
X7652991Y-12410984D01*
X7833944Y-12601460D02*
X7814896Y-12610984D01*
X7814896Y-12610984D02*
X7776801Y-12610984D01*
X7776801Y-12610984D02*
X7757753Y-12601460D01*
X7757753Y-12601460D02*
X7748230Y-12582412D01*
X7748230Y-12582412D02*
X7748230Y-12506222D01*
X7748230Y-12506222D02*
X7757753Y-12487174D01*
X7757753Y-12487174D02*
X7776801Y-12477650D01*
X7776801Y-12477650D02*
X7814896Y-12477650D01*
X7814896Y-12477650D02*
X7833944Y-12487174D01*
X7833944Y-12487174D02*
X7843468Y-12506222D01*
X7843468Y-12506222D02*
X7843468Y-12525269D01*
X7843468Y-12525269D02*
X7748230Y-12544317D01*
X7919658Y-12601460D02*
X7938706Y-12610984D01*
X7938706Y-12610984D02*
X7976801Y-12610984D01*
X7976801Y-12610984D02*
X7995849Y-12601460D01*
X7995849Y-12601460D02*
X8005372Y-12582412D01*
X8005372Y-12582412D02*
X8005372Y-12572888D01*
X8005372Y-12572888D02*
X7995849Y-12553841D01*
X7995849Y-12553841D02*
X7976801Y-12544317D01*
X7976801Y-12544317D02*
X7948230Y-12544317D01*
X7948230Y-12544317D02*
X7929182Y-12534793D01*
X7929182Y-12534793D02*
X7919658Y-12515746D01*
X7919658Y-12515746D02*
X7919658Y-12506222D01*
X7919658Y-12506222D02*
X7929182Y-12487174D01*
X7929182Y-12487174D02*
X7948230Y-12477650D01*
X7948230Y-12477650D02*
X7976801Y-12477650D01*
X7976801Y-12477650D02*
X7995849Y-12487174D01*
X8072039Y-12687174D02*
X8081563Y-12677650D01*
X8081563Y-12677650D02*
X8100611Y-12649079D01*
X8100611Y-12649079D02*
X8110134Y-12630031D01*
X8110134Y-12630031D02*
X8119658Y-12601460D01*
X8119658Y-12601460D02*
X8129182Y-12553841D01*
X8129182Y-12553841D02*
X8129182Y-12515746D01*
X8129182Y-12515746D02*
X8119658Y-12468127D01*
X8119658Y-12468127D02*
X8110134Y-12439555D01*
X8110134Y-12439555D02*
X8100611Y-12420508D01*
X8100611Y-12420508D02*
X8081563Y-12391936D01*
X8081563Y-12391936D02*
X8072039Y-12382412D01*
D13*
X3106500Y-12783500D02*
G75*
G03*
X3106500Y-12783500I-25000J0D01*
G01*
D11*
X3405372Y-12674984D02*
X3424420Y-12674984D01*
X3424420Y-12674984D02*
X3443467Y-12684508D01*
X3443467Y-12684508D02*
X3452991Y-12694031D01*
X3452991Y-12694031D02*
X3462515Y-12713079D01*
X3462515Y-12713079D02*
X3472039Y-12751174D01*
X3472039Y-12751174D02*
X3472039Y-12798793D01*
X3472039Y-12798793D02*
X3462515Y-12836888D01*
X3462515Y-12836888D02*
X3452991Y-12855936D01*
X3452991Y-12855936D02*
X3443467Y-12865460D01*
X3443467Y-12865460D02*
X3424420Y-12874984D01*
X3424420Y-12874984D02*
X3405372Y-12874984D01*
X3405372Y-12874984D02*
X3386324Y-12865460D01*
X3386324Y-12865460D02*
X3376801Y-12855936D01*
X3376801Y-12855936D02*
X3367277Y-12836888D01*
X3367277Y-12836888D02*
X3357753Y-12798793D01*
X3357753Y-12798793D02*
X3357753Y-12751174D01*
X3357753Y-12751174D02*
X3367277Y-12713079D01*
X3367277Y-12713079D02*
X3376801Y-12694031D01*
X3376801Y-12694031D02*
X3386324Y-12684508D01*
X3386324Y-12684508D02*
X3405372Y-12674984D01*
X3557753Y-12855936D02*
X3567277Y-12865460D01*
X3567277Y-12865460D02*
X3557753Y-12874984D01*
X3557753Y-12874984D02*
X3548229Y-12865460D01*
X3548229Y-12865460D02*
X3557753Y-12855936D01*
X3557753Y-12855936D02*
X3557753Y-12874984D01*
X3748229Y-12674984D02*
X3652991Y-12674984D01*
X3652991Y-12674984D02*
X3643467Y-12770222D01*
X3643467Y-12770222D02*
X3652991Y-12760698D01*
X3652991Y-12760698D02*
X3672039Y-12751174D01*
X3672039Y-12751174D02*
X3719658Y-12751174D01*
X3719658Y-12751174D02*
X3738705Y-12760698D01*
X3738705Y-12760698D02*
X3748229Y-12770222D01*
X3748229Y-12770222D02*
X3757753Y-12789269D01*
X3757753Y-12789269D02*
X3757753Y-12836888D01*
X3757753Y-12836888D02*
X3748229Y-12855936D01*
X3748229Y-12855936D02*
X3738705Y-12865460D01*
X3738705Y-12865460D02*
X3719658Y-12874984D01*
X3719658Y-12874984D02*
X3672039Y-12874984D01*
X3672039Y-12874984D02*
X3652991Y-12865460D01*
X3652991Y-12865460D02*
X3643467Y-12855936D01*
X3881562Y-12674984D02*
X3900610Y-12674984D01*
X3900610Y-12674984D02*
X3919658Y-12684508D01*
X3919658Y-12684508D02*
X3929182Y-12694031D01*
X3929182Y-12694031D02*
X3938705Y-12713079D01*
X3938705Y-12713079D02*
X3948229Y-12751174D01*
X3948229Y-12751174D02*
X3948229Y-12798793D01*
X3948229Y-12798793D02*
X3938705Y-12836888D01*
X3938705Y-12836888D02*
X3929182Y-12855936D01*
X3929182Y-12855936D02*
X3919658Y-12865460D01*
X3919658Y-12865460D02*
X3900610Y-12874984D01*
X3900610Y-12874984D02*
X3881562Y-12874984D01*
X3881562Y-12874984D02*
X3862515Y-12865460D01*
X3862515Y-12865460D02*
X3852991Y-12855936D01*
X3852991Y-12855936D02*
X3843467Y-12836888D01*
X3843467Y-12836888D02*
X3833943Y-12798793D01*
X3833943Y-12798793D02*
X3833943Y-12751174D01*
X3833943Y-12751174D02*
X3843467Y-12713079D01*
X3843467Y-12713079D02*
X3852991Y-12694031D01*
X3852991Y-12694031D02*
X3862515Y-12684508D01*
X3862515Y-12684508D02*
X3881562Y-12674984D01*
X4072039Y-12674984D02*
X4091086Y-12674984D01*
X4091086Y-12674984D02*
X4110134Y-12684508D01*
X4110134Y-12684508D02*
X4119658Y-12694031D01*
X4119658Y-12694031D02*
X4129182Y-12713079D01*
X4129182Y-12713079D02*
X4138705Y-12751174D01*
X4138705Y-12751174D02*
X4138705Y-12798793D01*
X4138705Y-12798793D02*
X4129182Y-12836888D01*
X4129182Y-12836888D02*
X4119658Y-12855936D01*
X4119658Y-12855936D02*
X4110134Y-12865460D01*
X4110134Y-12865460D02*
X4091086Y-12874984D01*
X4091086Y-12874984D02*
X4072039Y-12874984D01*
X4072039Y-12874984D02*
X4052991Y-12865460D01*
X4052991Y-12865460D02*
X4043467Y-12855936D01*
X4043467Y-12855936D02*
X4033943Y-12836888D01*
X4033943Y-12836888D02*
X4024420Y-12798793D01*
X4024420Y-12798793D02*
X4024420Y-12751174D01*
X4024420Y-12751174D02*
X4033943Y-12713079D01*
X4033943Y-12713079D02*
X4043467Y-12694031D01*
X4043467Y-12694031D02*
X4052991Y-12684508D01*
X4052991Y-12684508D02*
X4072039Y-12674984D01*
X4224420Y-12874984D02*
X4224420Y-12741650D01*
X4224420Y-12760698D02*
X4233944Y-12751174D01*
X4233944Y-12751174D02*
X4252991Y-12741650D01*
X4252991Y-12741650D02*
X4281563Y-12741650D01*
X4281563Y-12741650D02*
X4300610Y-12751174D01*
X4300610Y-12751174D02*
X4310134Y-12770222D01*
X4310134Y-12770222D02*
X4310134Y-12874984D01*
X4310134Y-12770222D02*
X4319658Y-12751174D01*
X4319658Y-12751174D02*
X4338705Y-12741650D01*
X4338705Y-12741650D02*
X4367277Y-12741650D01*
X4367277Y-12741650D02*
X4386325Y-12751174D01*
X4386325Y-12751174D02*
X4395848Y-12770222D01*
X4395848Y-12770222D02*
X4395848Y-12874984D01*
X4491086Y-12874984D02*
X4491086Y-12741650D01*
X4491086Y-12760698D02*
X4500610Y-12751174D01*
X4500610Y-12751174D02*
X4519658Y-12741650D01*
X4519658Y-12741650D02*
X4548229Y-12741650D01*
X4548229Y-12741650D02*
X4567277Y-12751174D01*
X4567277Y-12751174D02*
X4576801Y-12770222D01*
X4576801Y-12770222D02*
X4576801Y-12874984D01*
X4576801Y-12770222D02*
X4586325Y-12751174D01*
X4586325Y-12751174D02*
X4605372Y-12741650D01*
X4605372Y-12741650D02*
X4633944Y-12741650D01*
X4633944Y-12741650D02*
X4652991Y-12751174D01*
X4652991Y-12751174D02*
X4662515Y-12770222D01*
X4662515Y-12770222D02*
X4662515Y-12874984D01*
X5052991Y-12665460D02*
X4881563Y-12922603D01*
X5310134Y-12674984D02*
X5329182Y-12674984D01*
X5329182Y-12674984D02*
X5348229Y-12684508D01*
X5348229Y-12684508D02*
X5357753Y-12694031D01*
X5357753Y-12694031D02*
X5367277Y-12713079D01*
X5367277Y-12713079D02*
X5376801Y-12751174D01*
X5376801Y-12751174D02*
X5376801Y-12798793D01*
X5376801Y-12798793D02*
X5367277Y-12836888D01*
X5367277Y-12836888D02*
X5357753Y-12855936D01*
X5357753Y-12855936D02*
X5348229Y-12865460D01*
X5348229Y-12865460D02*
X5329182Y-12874984D01*
X5329182Y-12874984D02*
X5310134Y-12874984D01*
X5310134Y-12874984D02*
X5291087Y-12865460D01*
X5291087Y-12865460D02*
X5281563Y-12855936D01*
X5281563Y-12855936D02*
X5272039Y-12836888D01*
X5272039Y-12836888D02*
X5262515Y-12798793D01*
X5262515Y-12798793D02*
X5262515Y-12751174D01*
X5262515Y-12751174D02*
X5272039Y-12713079D01*
X5272039Y-12713079D02*
X5281563Y-12694031D01*
X5281563Y-12694031D02*
X5291087Y-12684508D01*
X5291087Y-12684508D02*
X5310134Y-12674984D01*
X5462515Y-12855936D02*
X5472039Y-12865460D01*
X5472039Y-12865460D02*
X5462515Y-12874984D01*
X5462515Y-12874984D02*
X5452991Y-12865460D01*
X5452991Y-12865460D02*
X5462515Y-12855936D01*
X5462515Y-12855936D02*
X5462515Y-12874984D01*
X5595848Y-12674984D02*
X5614896Y-12674984D01*
X5614896Y-12674984D02*
X5633944Y-12684508D01*
X5633944Y-12684508D02*
X5643467Y-12694031D01*
X5643467Y-12694031D02*
X5652991Y-12713079D01*
X5652991Y-12713079D02*
X5662515Y-12751174D01*
X5662515Y-12751174D02*
X5662515Y-12798793D01*
X5662515Y-12798793D02*
X5652991Y-12836888D01*
X5652991Y-12836888D02*
X5643467Y-12855936D01*
X5643467Y-12855936D02*
X5633944Y-12865460D01*
X5633944Y-12865460D02*
X5614896Y-12874984D01*
X5614896Y-12874984D02*
X5595848Y-12874984D01*
X5595848Y-12874984D02*
X5576801Y-12865460D01*
X5576801Y-12865460D02*
X5567277Y-12855936D01*
X5567277Y-12855936D02*
X5557753Y-12836888D01*
X5557753Y-12836888D02*
X5548229Y-12798793D01*
X5548229Y-12798793D02*
X5548229Y-12751174D01*
X5548229Y-12751174D02*
X5557753Y-12713079D01*
X5557753Y-12713079D02*
X5567277Y-12694031D01*
X5567277Y-12694031D02*
X5576801Y-12684508D01*
X5576801Y-12684508D02*
X5595848Y-12674984D01*
X5852991Y-12874984D02*
X5738706Y-12874984D01*
X5795848Y-12874984D02*
X5795848Y-12674984D01*
X5795848Y-12674984D02*
X5776801Y-12703555D01*
X5776801Y-12703555D02*
X5757753Y-12722603D01*
X5757753Y-12722603D02*
X5738706Y-12732127D01*
X5948229Y-12874984D02*
X5986325Y-12874984D01*
X5986325Y-12874984D02*
X6005372Y-12865460D01*
X6005372Y-12865460D02*
X6014896Y-12855936D01*
X6014896Y-12855936D02*
X6033944Y-12827365D01*
X6033944Y-12827365D02*
X6043467Y-12789269D01*
X6043467Y-12789269D02*
X6043467Y-12713079D01*
X6043467Y-12713079D02*
X6033944Y-12694031D01*
X6033944Y-12694031D02*
X6024420Y-12684508D01*
X6024420Y-12684508D02*
X6005372Y-12674984D01*
X6005372Y-12674984D02*
X5967277Y-12674984D01*
X5967277Y-12674984D02*
X5948229Y-12684508D01*
X5948229Y-12684508D02*
X5938706Y-12694031D01*
X5938706Y-12694031D02*
X5929182Y-12713079D01*
X5929182Y-12713079D02*
X5929182Y-12760698D01*
X5929182Y-12760698D02*
X5938706Y-12779746D01*
X5938706Y-12779746D02*
X5948229Y-12789269D01*
X5948229Y-12789269D02*
X5967277Y-12798793D01*
X5967277Y-12798793D02*
X6005372Y-12798793D01*
X6005372Y-12798793D02*
X6024420Y-12789269D01*
X6024420Y-12789269D02*
X6033944Y-12779746D01*
X6033944Y-12779746D02*
X6043467Y-12760698D01*
X6110134Y-12674984D02*
X6243467Y-12674984D01*
X6243467Y-12674984D02*
X6157753Y-12874984D01*
X6310134Y-12674984D02*
X6310134Y-12713079D01*
X6386325Y-12674984D02*
X6386325Y-12713079D01*
X6681563Y-12951174D02*
X6672039Y-12941650D01*
X6672039Y-12941650D02*
X6652991Y-12913079D01*
X6652991Y-12913079D02*
X6643468Y-12894031D01*
X6643468Y-12894031D02*
X6633944Y-12865460D01*
X6633944Y-12865460D02*
X6624420Y-12817841D01*
X6624420Y-12817841D02*
X6624420Y-12779746D01*
X6624420Y-12779746D02*
X6633944Y-12732127D01*
X6633944Y-12732127D02*
X6643468Y-12703555D01*
X6643468Y-12703555D02*
X6652991Y-12684508D01*
X6652991Y-12684508D02*
X6672039Y-12655936D01*
X6672039Y-12655936D02*
X6681563Y-12646412D01*
X6862515Y-12874984D02*
X6748229Y-12874984D01*
X6805372Y-12874984D02*
X6805372Y-12674984D01*
X6805372Y-12674984D02*
X6786325Y-12703555D01*
X6786325Y-12703555D02*
X6767277Y-12722603D01*
X6767277Y-12722603D02*
X6748229Y-12732127D01*
X7100610Y-12874984D02*
X7100610Y-12674984D01*
X7186325Y-12874984D02*
X7186325Y-12770222D01*
X7186325Y-12770222D02*
X7176801Y-12751174D01*
X7176801Y-12751174D02*
X7157753Y-12741650D01*
X7157753Y-12741650D02*
X7129182Y-12741650D01*
X7129182Y-12741650D02*
X7110134Y-12751174D01*
X7110134Y-12751174D02*
X7100610Y-12760698D01*
X7310134Y-12874984D02*
X7291087Y-12865460D01*
X7291087Y-12865460D02*
X7281563Y-12855936D01*
X7281563Y-12855936D02*
X7272039Y-12836888D01*
X7272039Y-12836888D02*
X7272039Y-12779746D01*
X7272039Y-12779746D02*
X7281563Y-12760698D01*
X7281563Y-12760698D02*
X7291087Y-12751174D01*
X7291087Y-12751174D02*
X7310134Y-12741650D01*
X7310134Y-12741650D02*
X7338706Y-12741650D01*
X7338706Y-12741650D02*
X7357753Y-12751174D01*
X7357753Y-12751174D02*
X7367277Y-12760698D01*
X7367277Y-12760698D02*
X7376801Y-12779746D01*
X7376801Y-12779746D02*
X7376801Y-12836888D01*
X7376801Y-12836888D02*
X7367277Y-12855936D01*
X7367277Y-12855936D02*
X7357753Y-12865460D01*
X7357753Y-12865460D02*
X7338706Y-12874984D01*
X7338706Y-12874984D02*
X7310134Y-12874984D01*
X7491087Y-12874984D02*
X7472039Y-12865460D01*
X7472039Y-12865460D02*
X7462515Y-12846412D01*
X7462515Y-12846412D02*
X7462515Y-12674984D01*
X7643468Y-12865460D02*
X7624420Y-12874984D01*
X7624420Y-12874984D02*
X7586325Y-12874984D01*
X7586325Y-12874984D02*
X7567277Y-12865460D01*
X7567277Y-12865460D02*
X7557753Y-12846412D01*
X7557753Y-12846412D02*
X7557753Y-12770222D01*
X7557753Y-12770222D02*
X7567277Y-12751174D01*
X7567277Y-12751174D02*
X7586325Y-12741650D01*
X7586325Y-12741650D02*
X7624420Y-12741650D01*
X7624420Y-12741650D02*
X7643468Y-12751174D01*
X7643468Y-12751174D02*
X7652991Y-12770222D01*
X7652991Y-12770222D02*
X7652991Y-12789269D01*
X7652991Y-12789269D02*
X7557753Y-12808317D01*
X7719658Y-12951174D02*
X7729182Y-12941650D01*
X7729182Y-12941650D02*
X7748230Y-12913079D01*
X7748230Y-12913079D02*
X7757753Y-12894031D01*
X7757753Y-12894031D02*
X7767277Y-12865460D01*
X7767277Y-12865460D02*
X7776801Y-12817841D01*
X7776801Y-12817841D02*
X7776801Y-12779746D01*
X7776801Y-12779746D02*
X7767277Y-12732127D01*
X7767277Y-12732127D02*
X7757753Y-12703555D01*
X7757753Y-12703555D02*
X7748230Y-12684508D01*
X7748230Y-12684508D02*
X7729182Y-12655936D01*
X7729182Y-12655936D02*
X7719658Y-12646412D01*
D14*
X3069000Y-13010000D02*
X3069000Y-13085000D01*
X3031500Y-13047500D02*
X3106500Y-13047500D01*
D11*
X3405372Y-12938984D02*
X3424420Y-12938984D01*
X3424420Y-12938984D02*
X3443467Y-12948508D01*
X3443467Y-12948508D02*
X3452991Y-12958031D01*
X3452991Y-12958031D02*
X3462515Y-12977079D01*
X3462515Y-12977079D02*
X3472039Y-13015174D01*
X3472039Y-13015174D02*
X3472039Y-13062793D01*
X3472039Y-13062793D02*
X3462515Y-13100888D01*
X3462515Y-13100888D02*
X3452991Y-13119936D01*
X3452991Y-13119936D02*
X3443467Y-13129460D01*
X3443467Y-13129460D02*
X3424420Y-13138984D01*
X3424420Y-13138984D02*
X3405372Y-13138984D01*
X3405372Y-13138984D02*
X3386324Y-13129460D01*
X3386324Y-13129460D02*
X3376801Y-13119936D01*
X3376801Y-13119936D02*
X3367277Y-13100888D01*
X3367277Y-13100888D02*
X3357753Y-13062793D01*
X3357753Y-13062793D02*
X3357753Y-13015174D01*
X3357753Y-13015174D02*
X3367277Y-12977079D01*
X3367277Y-12977079D02*
X3376801Y-12958031D01*
X3376801Y-12958031D02*
X3386324Y-12948508D01*
X3386324Y-12948508D02*
X3405372Y-12938984D01*
X3557753Y-13119936D02*
X3567277Y-13129460D01*
X3567277Y-13129460D02*
X3557753Y-13138984D01*
X3557753Y-13138984D02*
X3548229Y-13129460D01*
X3548229Y-13129460D02*
X3557753Y-13119936D01*
X3557753Y-13119936D02*
X3557753Y-13138984D01*
X3633943Y-12938984D02*
X3767277Y-12938984D01*
X3767277Y-12938984D02*
X3681562Y-13138984D01*
X3938705Y-12938984D02*
X3843467Y-12938984D01*
X3843467Y-12938984D02*
X3833943Y-13034222D01*
X3833943Y-13034222D02*
X3843467Y-13024698D01*
X3843467Y-13024698D02*
X3862515Y-13015174D01*
X3862515Y-13015174D02*
X3910134Y-13015174D01*
X3910134Y-13015174D02*
X3929182Y-13024698D01*
X3929182Y-13024698D02*
X3938705Y-13034222D01*
X3938705Y-13034222D02*
X3948229Y-13053269D01*
X3948229Y-13053269D02*
X3948229Y-13100888D01*
X3948229Y-13100888D02*
X3938705Y-13119936D01*
X3938705Y-13119936D02*
X3929182Y-13129460D01*
X3929182Y-13129460D02*
X3910134Y-13138984D01*
X3910134Y-13138984D02*
X3862515Y-13138984D01*
X3862515Y-13138984D02*
X3843467Y-13129460D01*
X3843467Y-13129460D02*
X3833943Y-13119936D01*
X4072039Y-12938984D02*
X4091086Y-12938984D01*
X4091086Y-12938984D02*
X4110134Y-12948508D01*
X4110134Y-12948508D02*
X4119658Y-12958031D01*
X4119658Y-12958031D02*
X4129182Y-12977079D01*
X4129182Y-12977079D02*
X4138705Y-13015174D01*
X4138705Y-13015174D02*
X4138705Y-13062793D01*
X4138705Y-13062793D02*
X4129182Y-13100888D01*
X4129182Y-13100888D02*
X4119658Y-13119936D01*
X4119658Y-13119936D02*
X4110134Y-13129460D01*
X4110134Y-13129460D02*
X4091086Y-13138984D01*
X4091086Y-13138984D02*
X4072039Y-13138984D01*
X4072039Y-13138984D02*
X4052991Y-13129460D01*
X4052991Y-13129460D02*
X4043467Y-13119936D01*
X4043467Y-13119936D02*
X4033943Y-13100888D01*
X4033943Y-13100888D02*
X4024420Y-13062793D01*
X4024420Y-13062793D02*
X4024420Y-13015174D01*
X4024420Y-13015174D02*
X4033943Y-12977079D01*
X4033943Y-12977079D02*
X4043467Y-12958031D01*
X4043467Y-12958031D02*
X4052991Y-12948508D01*
X4052991Y-12948508D02*
X4072039Y-12938984D01*
X4224420Y-13138984D02*
X4224420Y-13005650D01*
X4224420Y-13024698D02*
X4233944Y-13015174D01*
X4233944Y-13015174D02*
X4252991Y-13005650D01*
X4252991Y-13005650D02*
X4281563Y-13005650D01*
X4281563Y-13005650D02*
X4300610Y-13015174D01*
X4300610Y-13015174D02*
X4310134Y-13034222D01*
X4310134Y-13034222D02*
X4310134Y-13138984D01*
X4310134Y-13034222D02*
X4319658Y-13015174D01*
X4319658Y-13015174D02*
X4338705Y-13005650D01*
X4338705Y-13005650D02*
X4367277Y-13005650D01*
X4367277Y-13005650D02*
X4386325Y-13015174D01*
X4386325Y-13015174D02*
X4395848Y-13034222D01*
X4395848Y-13034222D02*
X4395848Y-13138984D01*
X4491086Y-13138984D02*
X4491086Y-13005650D01*
X4491086Y-13024698D02*
X4500610Y-13015174D01*
X4500610Y-13015174D02*
X4519658Y-13005650D01*
X4519658Y-13005650D02*
X4548229Y-13005650D01*
X4548229Y-13005650D02*
X4567277Y-13015174D01*
X4567277Y-13015174D02*
X4576801Y-13034222D01*
X4576801Y-13034222D02*
X4576801Y-13138984D01*
X4576801Y-13034222D02*
X4586325Y-13015174D01*
X4586325Y-13015174D02*
X4605372Y-13005650D01*
X4605372Y-13005650D02*
X4633944Y-13005650D01*
X4633944Y-13005650D02*
X4652991Y-13015174D01*
X4652991Y-13015174D02*
X4662515Y-13034222D01*
X4662515Y-13034222D02*
X4662515Y-13138984D01*
X5052991Y-12929460D02*
X4881563Y-13186603D01*
X5310134Y-12938984D02*
X5329182Y-12938984D01*
X5329182Y-12938984D02*
X5348229Y-12948508D01*
X5348229Y-12948508D02*
X5357753Y-12958031D01*
X5357753Y-12958031D02*
X5367277Y-12977079D01*
X5367277Y-12977079D02*
X5376801Y-13015174D01*
X5376801Y-13015174D02*
X5376801Y-13062793D01*
X5376801Y-13062793D02*
X5367277Y-13100888D01*
X5367277Y-13100888D02*
X5357753Y-13119936D01*
X5357753Y-13119936D02*
X5348229Y-13129460D01*
X5348229Y-13129460D02*
X5329182Y-13138984D01*
X5329182Y-13138984D02*
X5310134Y-13138984D01*
X5310134Y-13138984D02*
X5291087Y-13129460D01*
X5291087Y-13129460D02*
X5281563Y-13119936D01*
X5281563Y-13119936D02*
X5272039Y-13100888D01*
X5272039Y-13100888D02*
X5262515Y-13062793D01*
X5262515Y-13062793D02*
X5262515Y-13015174D01*
X5262515Y-13015174D02*
X5272039Y-12977079D01*
X5272039Y-12977079D02*
X5281563Y-12958031D01*
X5281563Y-12958031D02*
X5291087Y-12948508D01*
X5291087Y-12948508D02*
X5310134Y-12938984D01*
X5462515Y-13119936D02*
X5472039Y-13129460D01*
X5472039Y-13129460D02*
X5462515Y-13138984D01*
X5462515Y-13138984D02*
X5452991Y-13129460D01*
X5452991Y-13129460D02*
X5462515Y-13119936D01*
X5462515Y-13119936D02*
X5462515Y-13138984D01*
X5595848Y-12938984D02*
X5614896Y-12938984D01*
X5614896Y-12938984D02*
X5633944Y-12948508D01*
X5633944Y-12948508D02*
X5643467Y-12958031D01*
X5643467Y-12958031D02*
X5652991Y-12977079D01*
X5652991Y-12977079D02*
X5662515Y-13015174D01*
X5662515Y-13015174D02*
X5662515Y-13062793D01*
X5662515Y-13062793D02*
X5652991Y-13100888D01*
X5652991Y-13100888D02*
X5643467Y-13119936D01*
X5643467Y-13119936D02*
X5633944Y-13129460D01*
X5633944Y-13129460D02*
X5614896Y-13138984D01*
X5614896Y-13138984D02*
X5595848Y-13138984D01*
X5595848Y-13138984D02*
X5576801Y-13129460D01*
X5576801Y-13129460D02*
X5567277Y-13119936D01*
X5567277Y-13119936D02*
X5557753Y-13100888D01*
X5557753Y-13100888D02*
X5548229Y-13062793D01*
X5548229Y-13062793D02*
X5548229Y-13015174D01*
X5548229Y-13015174D02*
X5557753Y-12977079D01*
X5557753Y-12977079D02*
X5567277Y-12958031D01*
X5567277Y-12958031D02*
X5576801Y-12948508D01*
X5576801Y-12948508D02*
X5595848Y-12938984D01*
X5738706Y-12958031D02*
X5748229Y-12948508D01*
X5748229Y-12948508D02*
X5767277Y-12938984D01*
X5767277Y-12938984D02*
X5814896Y-12938984D01*
X5814896Y-12938984D02*
X5833944Y-12948508D01*
X5833944Y-12948508D02*
X5843467Y-12958031D01*
X5843467Y-12958031D02*
X5852991Y-12977079D01*
X5852991Y-12977079D02*
X5852991Y-12996127D01*
X5852991Y-12996127D02*
X5843467Y-13024698D01*
X5843467Y-13024698D02*
X5729182Y-13138984D01*
X5729182Y-13138984D02*
X5852991Y-13138984D01*
X5948229Y-13138984D02*
X5986325Y-13138984D01*
X5986325Y-13138984D02*
X6005372Y-13129460D01*
X6005372Y-13129460D02*
X6014896Y-13119936D01*
X6014896Y-13119936D02*
X6033944Y-13091365D01*
X6033944Y-13091365D02*
X6043467Y-13053269D01*
X6043467Y-13053269D02*
X6043467Y-12977079D01*
X6043467Y-12977079D02*
X6033944Y-12958031D01*
X6033944Y-12958031D02*
X6024420Y-12948508D01*
X6024420Y-12948508D02*
X6005372Y-12938984D01*
X6005372Y-12938984D02*
X5967277Y-12938984D01*
X5967277Y-12938984D02*
X5948229Y-12948508D01*
X5948229Y-12948508D02*
X5938706Y-12958031D01*
X5938706Y-12958031D02*
X5929182Y-12977079D01*
X5929182Y-12977079D02*
X5929182Y-13024698D01*
X5929182Y-13024698D02*
X5938706Y-13043746D01*
X5938706Y-13043746D02*
X5948229Y-13053269D01*
X5948229Y-13053269D02*
X5967277Y-13062793D01*
X5967277Y-13062793D02*
X6005372Y-13062793D01*
X6005372Y-13062793D02*
X6024420Y-13053269D01*
X6024420Y-13053269D02*
X6033944Y-13043746D01*
X6033944Y-13043746D02*
X6043467Y-13024698D01*
X6224420Y-12938984D02*
X6129182Y-12938984D01*
X6129182Y-12938984D02*
X6119658Y-13034222D01*
X6119658Y-13034222D02*
X6129182Y-13024698D01*
X6129182Y-13024698D02*
X6148229Y-13015174D01*
X6148229Y-13015174D02*
X6195848Y-13015174D01*
X6195848Y-13015174D02*
X6214896Y-13024698D01*
X6214896Y-13024698D02*
X6224420Y-13034222D01*
X6224420Y-13034222D02*
X6233944Y-13053269D01*
X6233944Y-13053269D02*
X6233944Y-13100888D01*
X6233944Y-13100888D02*
X6224420Y-13119936D01*
X6224420Y-13119936D02*
X6214896Y-13129460D01*
X6214896Y-13129460D02*
X6195848Y-13138984D01*
X6195848Y-13138984D02*
X6148229Y-13138984D01*
X6148229Y-13138984D02*
X6129182Y-13129460D01*
X6129182Y-13129460D02*
X6119658Y-13119936D01*
X6310134Y-12938984D02*
X6310134Y-12977079D01*
X6386325Y-12938984D02*
X6386325Y-12977079D01*
X6681563Y-13215174D02*
X6672039Y-13205650D01*
X6672039Y-13205650D02*
X6652991Y-13177079D01*
X6652991Y-13177079D02*
X6643468Y-13158031D01*
X6643468Y-13158031D02*
X6633944Y-13129460D01*
X6633944Y-13129460D02*
X6624420Y-13081841D01*
X6624420Y-13081841D02*
X6624420Y-13043746D01*
X6624420Y-13043746D02*
X6633944Y-12996127D01*
X6633944Y-12996127D02*
X6643468Y-12967555D01*
X6643468Y-12967555D02*
X6652991Y-12948508D01*
X6652991Y-12948508D02*
X6672039Y-12919936D01*
X6672039Y-12919936D02*
X6681563Y-12910412D01*
X6862515Y-13138984D02*
X6748229Y-13138984D01*
X6805372Y-13138984D02*
X6805372Y-12938984D01*
X6805372Y-12938984D02*
X6786325Y-12967555D01*
X6786325Y-12967555D02*
X6767277Y-12986603D01*
X6767277Y-12986603D02*
X6748229Y-12996127D01*
X6938706Y-12958031D02*
X6948229Y-12948508D01*
X6948229Y-12948508D02*
X6967277Y-12938984D01*
X6967277Y-12938984D02*
X7014896Y-12938984D01*
X7014896Y-12938984D02*
X7033944Y-12948508D01*
X7033944Y-12948508D02*
X7043468Y-12958031D01*
X7043468Y-12958031D02*
X7052991Y-12977079D01*
X7052991Y-12977079D02*
X7052991Y-12996127D01*
X7052991Y-12996127D02*
X7043468Y-13024698D01*
X7043468Y-13024698D02*
X6929182Y-13138984D01*
X6929182Y-13138984D02*
X7052991Y-13138984D01*
X7291087Y-13138984D02*
X7291087Y-12938984D01*
X7376801Y-13138984D02*
X7376801Y-13034222D01*
X7376801Y-13034222D02*
X7367277Y-13015174D01*
X7367277Y-13015174D02*
X7348230Y-13005650D01*
X7348230Y-13005650D02*
X7319658Y-13005650D01*
X7319658Y-13005650D02*
X7300610Y-13015174D01*
X7300610Y-13015174D02*
X7291087Y-13024698D01*
X7500610Y-13138984D02*
X7481563Y-13129460D01*
X7481563Y-13129460D02*
X7472039Y-13119936D01*
X7472039Y-13119936D02*
X7462515Y-13100888D01*
X7462515Y-13100888D02*
X7462515Y-13043746D01*
X7462515Y-13043746D02*
X7472039Y-13024698D01*
X7472039Y-13024698D02*
X7481563Y-13015174D01*
X7481563Y-13015174D02*
X7500610Y-13005650D01*
X7500610Y-13005650D02*
X7529182Y-13005650D01*
X7529182Y-13005650D02*
X7548230Y-13015174D01*
X7548230Y-13015174D02*
X7557753Y-13024698D01*
X7557753Y-13024698D02*
X7567277Y-13043746D01*
X7567277Y-13043746D02*
X7567277Y-13100888D01*
X7567277Y-13100888D02*
X7557753Y-13119936D01*
X7557753Y-13119936D02*
X7548230Y-13129460D01*
X7548230Y-13129460D02*
X7529182Y-13138984D01*
X7529182Y-13138984D02*
X7500610Y-13138984D01*
X7681563Y-13138984D02*
X7662515Y-13129460D01*
X7662515Y-13129460D02*
X7652991Y-13110412D01*
X7652991Y-13110412D02*
X7652991Y-12938984D01*
X7833944Y-13129460D02*
X7814896Y-13138984D01*
X7814896Y-13138984D02*
X7776801Y-13138984D01*
X7776801Y-13138984D02*
X7757753Y-13129460D01*
X7757753Y-13129460D02*
X7748230Y-13110412D01*
X7748230Y-13110412D02*
X7748230Y-13034222D01*
X7748230Y-13034222D02*
X7757753Y-13015174D01*
X7757753Y-13015174D02*
X7776801Y-13005650D01*
X7776801Y-13005650D02*
X7814896Y-13005650D01*
X7814896Y-13005650D02*
X7833944Y-13015174D01*
X7833944Y-13015174D02*
X7843468Y-13034222D01*
X7843468Y-13034222D02*
X7843468Y-13053269D01*
X7843468Y-13053269D02*
X7748230Y-13072317D01*
X7919658Y-13129460D02*
X7938706Y-13138984D01*
X7938706Y-13138984D02*
X7976801Y-13138984D01*
X7976801Y-13138984D02*
X7995849Y-13129460D01*
X7995849Y-13129460D02*
X8005372Y-13110412D01*
X8005372Y-13110412D02*
X8005372Y-13100888D01*
X8005372Y-13100888D02*
X7995849Y-13081841D01*
X7995849Y-13081841D02*
X7976801Y-13072317D01*
X7976801Y-13072317D02*
X7948230Y-13072317D01*
X7948230Y-13072317D02*
X7929182Y-13062793D01*
X7929182Y-13062793D02*
X7919658Y-13043746D01*
X7919658Y-13043746D02*
X7919658Y-13034222D01*
X7919658Y-13034222D02*
X7929182Y-13015174D01*
X7929182Y-13015174D02*
X7948230Y-13005650D01*
X7948230Y-13005650D02*
X7976801Y-13005650D01*
X7976801Y-13005650D02*
X7995849Y-13015174D01*
X8072039Y-13215174D02*
X8081563Y-13205650D01*
X8081563Y-13205650D02*
X8100611Y-13177079D01*
X8100611Y-13177079D02*
X8110134Y-13158031D01*
X8110134Y-13158031D02*
X8119658Y-13129460D01*
X8119658Y-13129460D02*
X8129182Y-13081841D01*
X8129182Y-13081841D02*
X8129182Y-13043746D01*
X8129182Y-13043746D02*
X8119658Y-12996127D01*
X8119658Y-12996127D02*
X8110134Y-12967555D01*
X8110134Y-12967555D02*
X8100611Y-12948508D01*
X8100611Y-12948508D02*
X8081563Y-12919936D01*
X8081563Y-12919936D02*
X8072039Y-12910412D01*
D15*
X3094784Y-13339784D02*
X3094784Y-13283215D01*
X3038215Y-13283215D01*
X3038215Y-13339784D01*
X3094784Y-13339784D01*
D11*
X3405372Y-13202984D02*
X3424420Y-13202984D01*
X3424420Y-13202984D02*
X3443467Y-13212508D01*
X3443467Y-13212508D02*
X3452991Y-13222031D01*
X3452991Y-13222031D02*
X3462515Y-13241079D01*
X3462515Y-13241079D02*
X3472039Y-13279174D01*
X3472039Y-13279174D02*
X3472039Y-13326793D01*
X3472039Y-13326793D02*
X3462515Y-13364888D01*
X3462515Y-13364888D02*
X3452991Y-13383936D01*
X3452991Y-13383936D02*
X3443467Y-13393460D01*
X3443467Y-13393460D02*
X3424420Y-13402984D01*
X3424420Y-13402984D02*
X3405372Y-13402984D01*
X3405372Y-13402984D02*
X3386324Y-13393460D01*
X3386324Y-13393460D02*
X3376801Y-13383936D01*
X3376801Y-13383936D02*
X3367277Y-13364888D01*
X3367277Y-13364888D02*
X3357753Y-13326793D01*
X3357753Y-13326793D02*
X3357753Y-13279174D01*
X3357753Y-13279174D02*
X3367277Y-13241079D01*
X3367277Y-13241079D02*
X3376801Y-13222031D01*
X3376801Y-13222031D02*
X3386324Y-13212508D01*
X3386324Y-13212508D02*
X3405372Y-13202984D01*
X3557753Y-13383936D02*
X3567277Y-13393460D01*
X3567277Y-13393460D02*
X3557753Y-13402984D01*
X3557753Y-13402984D02*
X3548229Y-13393460D01*
X3548229Y-13393460D02*
X3557753Y-13383936D01*
X3557753Y-13383936D02*
X3557753Y-13402984D01*
X3681562Y-13288698D02*
X3662515Y-13279174D01*
X3662515Y-13279174D02*
X3652991Y-13269650D01*
X3652991Y-13269650D02*
X3643467Y-13250603D01*
X3643467Y-13250603D02*
X3643467Y-13241079D01*
X3643467Y-13241079D02*
X3652991Y-13222031D01*
X3652991Y-13222031D02*
X3662515Y-13212508D01*
X3662515Y-13212508D02*
X3681562Y-13202984D01*
X3681562Y-13202984D02*
X3719658Y-13202984D01*
X3719658Y-13202984D02*
X3738705Y-13212508D01*
X3738705Y-13212508D02*
X3748229Y-13222031D01*
X3748229Y-13222031D02*
X3757753Y-13241079D01*
X3757753Y-13241079D02*
X3757753Y-13250603D01*
X3757753Y-13250603D02*
X3748229Y-13269650D01*
X3748229Y-13269650D02*
X3738705Y-13279174D01*
X3738705Y-13279174D02*
X3719658Y-13288698D01*
X3719658Y-13288698D02*
X3681562Y-13288698D01*
X3681562Y-13288698D02*
X3662515Y-13298222D01*
X3662515Y-13298222D02*
X3652991Y-13307746D01*
X3652991Y-13307746D02*
X3643467Y-13326793D01*
X3643467Y-13326793D02*
X3643467Y-13364888D01*
X3643467Y-13364888D02*
X3652991Y-13383936D01*
X3652991Y-13383936D02*
X3662515Y-13393460D01*
X3662515Y-13393460D02*
X3681562Y-13402984D01*
X3681562Y-13402984D02*
X3719658Y-13402984D01*
X3719658Y-13402984D02*
X3738705Y-13393460D01*
X3738705Y-13393460D02*
X3748229Y-13383936D01*
X3748229Y-13383936D02*
X3757753Y-13364888D01*
X3757753Y-13364888D02*
X3757753Y-13326793D01*
X3757753Y-13326793D02*
X3748229Y-13307746D01*
X3748229Y-13307746D02*
X3738705Y-13298222D01*
X3738705Y-13298222D02*
X3719658Y-13288698D01*
X3881562Y-13202984D02*
X3900610Y-13202984D01*
X3900610Y-13202984D02*
X3919658Y-13212508D01*
X3919658Y-13212508D02*
X3929182Y-13222031D01*
X3929182Y-13222031D02*
X3938705Y-13241079D01*
X3938705Y-13241079D02*
X3948229Y-13279174D01*
X3948229Y-13279174D02*
X3948229Y-13326793D01*
X3948229Y-13326793D02*
X3938705Y-13364888D01*
X3938705Y-13364888D02*
X3929182Y-13383936D01*
X3929182Y-13383936D02*
X3919658Y-13393460D01*
X3919658Y-13393460D02*
X3900610Y-13402984D01*
X3900610Y-13402984D02*
X3881562Y-13402984D01*
X3881562Y-13402984D02*
X3862515Y-13393460D01*
X3862515Y-13393460D02*
X3852991Y-13383936D01*
X3852991Y-13383936D02*
X3843467Y-13364888D01*
X3843467Y-13364888D02*
X3833943Y-13326793D01*
X3833943Y-13326793D02*
X3833943Y-13279174D01*
X3833943Y-13279174D02*
X3843467Y-13241079D01*
X3843467Y-13241079D02*
X3852991Y-13222031D01*
X3852991Y-13222031D02*
X3862515Y-13212508D01*
X3862515Y-13212508D02*
X3881562Y-13202984D01*
X4072039Y-13202984D02*
X4091086Y-13202984D01*
X4091086Y-13202984D02*
X4110134Y-13212508D01*
X4110134Y-13212508D02*
X4119658Y-13222031D01*
X4119658Y-13222031D02*
X4129182Y-13241079D01*
X4129182Y-13241079D02*
X4138705Y-13279174D01*
X4138705Y-13279174D02*
X4138705Y-13326793D01*
X4138705Y-13326793D02*
X4129182Y-13364888D01*
X4129182Y-13364888D02*
X4119658Y-13383936D01*
X4119658Y-13383936D02*
X4110134Y-13393460D01*
X4110134Y-13393460D02*
X4091086Y-13402984D01*
X4091086Y-13402984D02*
X4072039Y-13402984D01*
X4072039Y-13402984D02*
X4052991Y-13393460D01*
X4052991Y-13393460D02*
X4043467Y-13383936D01*
X4043467Y-13383936D02*
X4033943Y-13364888D01*
X4033943Y-13364888D02*
X4024420Y-13326793D01*
X4024420Y-13326793D02*
X4024420Y-13279174D01*
X4024420Y-13279174D02*
X4033943Y-13241079D01*
X4033943Y-13241079D02*
X4043467Y-13222031D01*
X4043467Y-13222031D02*
X4052991Y-13212508D01*
X4052991Y-13212508D02*
X4072039Y-13202984D01*
X4224420Y-13402984D02*
X4224420Y-13269650D01*
X4224420Y-13288698D02*
X4233944Y-13279174D01*
X4233944Y-13279174D02*
X4252991Y-13269650D01*
X4252991Y-13269650D02*
X4281563Y-13269650D01*
X4281563Y-13269650D02*
X4300610Y-13279174D01*
X4300610Y-13279174D02*
X4310134Y-13298222D01*
X4310134Y-13298222D02*
X4310134Y-13402984D01*
X4310134Y-13298222D02*
X4319658Y-13279174D01*
X4319658Y-13279174D02*
X4338705Y-13269650D01*
X4338705Y-13269650D02*
X4367277Y-13269650D01*
X4367277Y-13269650D02*
X4386325Y-13279174D01*
X4386325Y-13279174D02*
X4395848Y-13298222D01*
X4395848Y-13298222D02*
X4395848Y-13402984D01*
X4491086Y-13402984D02*
X4491086Y-13269650D01*
X4491086Y-13288698D02*
X4500610Y-13279174D01*
X4500610Y-13279174D02*
X4519658Y-13269650D01*
X4519658Y-13269650D02*
X4548229Y-13269650D01*
X4548229Y-13269650D02*
X4567277Y-13279174D01*
X4567277Y-13279174D02*
X4576801Y-13298222D01*
X4576801Y-13298222D02*
X4576801Y-13402984D01*
X4576801Y-13298222D02*
X4586325Y-13279174D01*
X4586325Y-13279174D02*
X4605372Y-13269650D01*
X4605372Y-13269650D02*
X4633944Y-13269650D01*
X4633944Y-13269650D02*
X4652991Y-13279174D01*
X4652991Y-13279174D02*
X4662515Y-13298222D01*
X4662515Y-13298222D02*
X4662515Y-13402984D01*
X5052991Y-13193460D02*
X4881563Y-13450603D01*
X5310134Y-13202984D02*
X5329182Y-13202984D01*
X5329182Y-13202984D02*
X5348229Y-13212508D01*
X5348229Y-13212508D02*
X5357753Y-13222031D01*
X5357753Y-13222031D02*
X5367277Y-13241079D01*
X5367277Y-13241079D02*
X5376801Y-13279174D01*
X5376801Y-13279174D02*
X5376801Y-13326793D01*
X5376801Y-13326793D02*
X5367277Y-13364888D01*
X5367277Y-13364888D02*
X5357753Y-13383936D01*
X5357753Y-13383936D02*
X5348229Y-13393460D01*
X5348229Y-13393460D02*
X5329182Y-13402984D01*
X5329182Y-13402984D02*
X5310134Y-13402984D01*
X5310134Y-13402984D02*
X5291087Y-13393460D01*
X5291087Y-13393460D02*
X5281563Y-13383936D01*
X5281563Y-13383936D02*
X5272039Y-13364888D01*
X5272039Y-13364888D02*
X5262515Y-13326793D01*
X5262515Y-13326793D02*
X5262515Y-13279174D01*
X5262515Y-13279174D02*
X5272039Y-13241079D01*
X5272039Y-13241079D02*
X5281563Y-13222031D01*
X5281563Y-13222031D02*
X5291087Y-13212508D01*
X5291087Y-13212508D02*
X5310134Y-13202984D01*
X5462515Y-13383936D02*
X5472039Y-13393460D01*
X5472039Y-13393460D02*
X5462515Y-13402984D01*
X5462515Y-13402984D02*
X5452991Y-13393460D01*
X5452991Y-13393460D02*
X5462515Y-13383936D01*
X5462515Y-13383936D02*
X5462515Y-13402984D01*
X5595848Y-13202984D02*
X5614896Y-13202984D01*
X5614896Y-13202984D02*
X5633944Y-13212508D01*
X5633944Y-13212508D02*
X5643467Y-13222031D01*
X5643467Y-13222031D02*
X5652991Y-13241079D01*
X5652991Y-13241079D02*
X5662515Y-13279174D01*
X5662515Y-13279174D02*
X5662515Y-13326793D01*
X5662515Y-13326793D02*
X5652991Y-13364888D01*
X5652991Y-13364888D02*
X5643467Y-13383936D01*
X5643467Y-13383936D02*
X5633944Y-13393460D01*
X5633944Y-13393460D02*
X5614896Y-13402984D01*
X5614896Y-13402984D02*
X5595848Y-13402984D01*
X5595848Y-13402984D02*
X5576801Y-13393460D01*
X5576801Y-13393460D02*
X5567277Y-13383936D01*
X5567277Y-13383936D02*
X5557753Y-13364888D01*
X5557753Y-13364888D02*
X5548229Y-13326793D01*
X5548229Y-13326793D02*
X5548229Y-13279174D01*
X5548229Y-13279174D02*
X5557753Y-13241079D01*
X5557753Y-13241079D02*
X5567277Y-13222031D01*
X5567277Y-13222031D02*
X5576801Y-13212508D01*
X5576801Y-13212508D02*
X5595848Y-13202984D01*
X5729182Y-13202984D02*
X5852991Y-13202984D01*
X5852991Y-13202984D02*
X5786325Y-13279174D01*
X5786325Y-13279174D02*
X5814896Y-13279174D01*
X5814896Y-13279174D02*
X5833944Y-13288698D01*
X5833944Y-13288698D02*
X5843467Y-13298222D01*
X5843467Y-13298222D02*
X5852991Y-13317269D01*
X5852991Y-13317269D02*
X5852991Y-13364888D01*
X5852991Y-13364888D02*
X5843467Y-13383936D01*
X5843467Y-13383936D02*
X5833944Y-13393460D01*
X5833944Y-13393460D02*
X5814896Y-13402984D01*
X5814896Y-13402984D02*
X5757753Y-13402984D01*
X5757753Y-13402984D02*
X5738706Y-13393460D01*
X5738706Y-13393460D02*
X5729182Y-13383936D01*
X6043467Y-13402984D02*
X5929182Y-13402984D01*
X5986325Y-13402984D02*
X5986325Y-13202984D01*
X5986325Y-13202984D02*
X5967277Y-13231555D01*
X5967277Y-13231555D02*
X5948229Y-13250603D01*
X5948229Y-13250603D02*
X5929182Y-13260127D01*
X6224420Y-13202984D02*
X6129182Y-13202984D01*
X6129182Y-13202984D02*
X6119658Y-13298222D01*
X6119658Y-13298222D02*
X6129182Y-13288698D01*
X6129182Y-13288698D02*
X6148229Y-13279174D01*
X6148229Y-13279174D02*
X6195848Y-13279174D01*
X6195848Y-13279174D02*
X6214896Y-13288698D01*
X6214896Y-13288698D02*
X6224420Y-13298222D01*
X6224420Y-13298222D02*
X6233944Y-13317269D01*
X6233944Y-13317269D02*
X6233944Y-13364888D01*
X6233944Y-13364888D02*
X6224420Y-13383936D01*
X6224420Y-13383936D02*
X6214896Y-13393460D01*
X6214896Y-13393460D02*
X6195848Y-13402984D01*
X6195848Y-13402984D02*
X6148229Y-13402984D01*
X6148229Y-13402984D02*
X6129182Y-13393460D01*
X6129182Y-13393460D02*
X6119658Y-13383936D01*
X6310134Y-13202984D02*
X6310134Y-13241079D01*
X6386325Y-13202984D02*
X6386325Y-13241079D01*
X6681563Y-13479174D02*
X6672039Y-13469650D01*
X6672039Y-13469650D02*
X6652991Y-13441079D01*
X6652991Y-13441079D02*
X6643468Y-13422031D01*
X6643468Y-13422031D02*
X6633944Y-13393460D01*
X6633944Y-13393460D02*
X6624420Y-13345841D01*
X6624420Y-13345841D02*
X6624420Y-13307746D01*
X6624420Y-13307746D02*
X6633944Y-13260127D01*
X6633944Y-13260127D02*
X6643468Y-13231555D01*
X6643468Y-13231555D02*
X6652991Y-13212508D01*
X6652991Y-13212508D02*
X6672039Y-13183936D01*
X6672039Y-13183936D02*
X6681563Y-13174412D01*
X6843468Y-13202984D02*
X6805372Y-13202984D01*
X6805372Y-13202984D02*
X6786325Y-13212508D01*
X6786325Y-13212508D02*
X6776801Y-13222031D01*
X6776801Y-13222031D02*
X6757753Y-13250603D01*
X6757753Y-13250603D02*
X6748229Y-13288698D01*
X6748229Y-13288698D02*
X6748229Y-13364888D01*
X6748229Y-13364888D02*
X6757753Y-13383936D01*
X6757753Y-13383936D02*
X6767277Y-13393460D01*
X6767277Y-13393460D02*
X6786325Y-13402984D01*
X6786325Y-13402984D02*
X6824420Y-13402984D01*
X6824420Y-13402984D02*
X6843468Y-13393460D01*
X6843468Y-13393460D02*
X6852991Y-13383936D01*
X6852991Y-13383936D02*
X6862515Y-13364888D01*
X6862515Y-13364888D02*
X6862515Y-13317269D01*
X6862515Y-13317269D02*
X6852991Y-13298222D01*
X6852991Y-13298222D02*
X6843468Y-13288698D01*
X6843468Y-13288698D02*
X6824420Y-13279174D01*
X6824420Y-13279174D02*
X6786325Y-13279174D01*
X6786325Y-13279174D02*
X6767277Y-13288698D01*
X6767277Y-13288698D02*
X6757753Y-13298222D01*
X6757753Y-13298222D02*
X6748229Y-13317269D01*
X6976801Y-13288698D02*
X6957753Y-13279174D01*
X6957753Y-13279174D02*
X6948229Y-13269650D01*
X6948229Y-13269650D02*
X6938706Y-13250603D01*
X6938706Y-13250603D02*
X6938706Y-13241079D01*
X6938706Y-13241079D02*
X6948229Y-13222031D01*
X6948229Y-13222031D02*
X6957753Y-13212508D01*
X6957753Y-13212508D02*
X6976801Y-13202984D01*
X6976801Y-13202984D02*
X7014896Y-13202984D01*
X7014896Y-13202984D02*
X7033944Y-13212508D01*
X7033944Y-13212508D02*
X7043468Y-13222031D01*
X7043468Y-13222031D02*
X7052991Y-13241079D01*
X7052991Y-13241079D02*
X7052991Y-13250603D01*
X7052991Y-13250603D02*
X7043468Y-13269650D01*
X7043468Y-13269650D02*
X7033944Y-13279174D01*
X7033944Y-13279174D02*
X7014896Y-13288698D01*
X7014896Y-13288698D02*
X6976801Y-13288698D01*
X6976801Y-13288698D02*
X6957753Y-13298222D01*
X6957753Y-13298222D02*
X6948229Y-13307746D01*
X6948229Y-13307746D02*
X6938706Y-13326793D01*
X6938706Y-13326793D02*
X6938706Y-13364888D01*
X6938706Y-13364888D02*
X6948229Y-13383936D01*
X6948229Y-13383936D02*
X6957753Y-13393460D01*
X6957753Y-13393460D02*
X6976801Y-13402984D01*
X6976801Y-13402984D02*
X7014896Y-13402984D01*
X7014896Y-13402984D02*
X7033944Y-13393460D01*
X7033944Y-13393460D02*
X7043468Y-13383936D01*
X7043468Y-13383936D02*
X7052991Y-13364888D01*
X7052991Y-13364888D02*
X7052991Y-13326793D01*
X7052991Y-13326793D02*
X7043468Y-13307746D01*
X7043468Y-13307746D02*
X7033944Y-13298222D01*
X7033944Y-13298222D02*
X7014896Y-13288698D01*
X7291087Y-13402984D02*
X7291087Y-13202984D01*
X7376801Y-13402984D02*
X7376801Y-13298222D01*
X7376801Y-13298222D02*
X7367277Y-13279174D01*
X7367277Y-13279174D02*
X7348230Y-13269650D01*
X7348230Y-13269650D02*
X7319658Y-13269650D01*
X7319658Y-13269650D02*
X7300610Y-13279174D01*
X7300610Y-13279174D02*
X7291087Y-13288698D01*
X7500610Y-13402984D02*
X7481563Y-13393460D01*
X7481563Y-13393460D02*
X7472039Y-13383936D01*
X7472039Y-13383936D02*
X7462515Y-13364888D01*
X7462515Y-13364888D02*
X7462515Y-13307746D01*
X7462515Y-13307746D02*
X7472039Y-13288698D01*
X7472039Y-13288698D02*
X7481563Y-13279174D01*
X7481563Y-13279174D02*
X7500610Y-13269650D01*
X7500610Y-13269650D02*
X7529182Y-13269650D01*
X7529182Y-13269650D02*
X7548230Y-13279174D01*
X7548230Y-13279174D02*
X7557753Y-13288698D01*
X7557753Y-13288698D02*
X7567277Y-13307746D01*
X7567277Y-13307746D02*
X7567277Y-13364888D01*
X7567277Y-13364888D02*
X7557753Y-13383936D01*
X7557753Y-13383936D02*
X7548230Y-13393460D01*
X7548230Y-13393460D02*
X7529182Y-13402984D01*
X7529182Y-13402984D02*
X7500610Y-13402984D01*
X7681563Y-13402984D02*
X7662515Y-13393460D01*
X7662515Y-13393460D02*
X7652991Y-13374412D01*
X7652991Y-13374412D02*
X7652991Y-13202984D01*
X7833944Y-13393460D02*
X7814896Y-13402984D01*
X7814896Y-13402984D02*
X7776801Y-13402984D01*
X7776801Y-13402984D02*
X7757753Y-13393460D01*
X7757753Y-13393460D02*
X7748230Y-13374412D01*
X7748230Y-13374412D02*
X7748230Y-13298222D01*
X7748230Y-13298222D02*
X7757753Y-13279174D01*
X7757753Y-13279174D02*
X7776801Y-13269650D01*
X7776801Y-13269650D02*
X7814896Y-13269650D01*
X7814896Y-13269650D02*
X7833944Y-13279174D01*
X7833944Y-13279174D02*
X7843468Y-13298222D01*
X7843468Y-13298222D02*
X7843468Y-13317269D01*
X7843468Y-13317269D02*
X7748230Y-13336317D01*
X7919658Y-13393460D02*
X7938706Y-13402984D01*
X7938706Y-13402984D02*
X7976801Y-13402984D01*
X7976801Y-13402984D02*
X7995849Y-13393460D01*
X7995849Y-13393460D02*
X8005372Y-13374412D01*
X8005372Y-13374412D02*
X8005372Y-13364888D01*
X8005372Y-13364888D02*
X7995849Y-13345841D01*
X7995849Y-13345841D02*
X7976801Y-13336317D01*
X7976801Y-13336317D02*
X7948230Y-13336317D01*
X7948230Y-13336317D02*
X7929182Y-13326793D01*
X7929182Y-13326793D02*
X7919658Y-13307746D01*
X7919658Y-13307746D02*
X7919658Y-13298222D01*
X7919658Y-13298222D02*
X7929182Y-13279174D01*
X7929182Y-13279174D02*
X7948230Y-13269650D01*
X7948230Y-13269650D02*
X7976801Y-13269650D01*
X7976801Y-13269650D02*
X7995849Y-13279174D01*
X8072039Y-13479174D02*
X8081563Y-13469650D01*
X8081563Y-13469650D02*
X8100611Y-13441079D01*
X8100611Y-13441079D02*
X8110134Y-13422031D01*
X8110134Y-13422031D02*
X8119658Y-13393460D01*
X8119658Y-13393460D02*
X8129182Y-13345841D01*
X8129182Y-13345841D02*
X8129182Y-13307746D01*
X8129182Y-13307746D02*
X8119658Y-13260127D01*
X8119658Y-13260127D02*
X8110134Y-13231555D01*
X8110134Y-13231555D02*
X8100611Y-13212508D01*
X8100611Y-13212508D02*
X8081563Y-13183936D01*
X8081563Y-13183936D02*
X8072039Y-13174412D01*
D10*
X3056500Y-13625500D02*
X3106500Y-13575500D01*
X3056500Y-13525500D01*
X3006500Y-13575500D01*
X3056500Y-13625500D01*
D11*
X3472039Y-13666984D02*
X3357753Y-13666984D01*
X3414896Y-13666984D02*
X3414896Y-13466984D01*
X3414896Y-13466984D02*
X3395848Y-13495555D01*
X3395848Y-13495555D02*
X3376801Y-13514603D01*
X3376801Y-13514603D02*
X3357753Y-13524127D01*
X3557753Y-13647936D02*
X3567277Y-13657460D01*
X3567277Y-13657460D02*
X3557753Y-13666984D01*
X3557753Y-13666984D02*
X3548229Y-13657460D01*
X3548229Y-13657460D02*
X3557753Y-13647936D01*
X3557753Y-13647936D02*
X3557753Y-13666984D01*
X3691086Y-13466984D02*
X3710134Y-13466984D01*
X3710134Y-13466984D02*
X3729182Y-13476508D01*
X3729182Y-13476508D02*
X3738705Y-13486031D01*
X3738705Y-13486031D02*
X3748229Y-13505079D01*
X3748229Y-13505079D02*
X3757753Y-13543174D01*
X3757753Y-13543174D02*
X3757753Y-13590793D01*
X3757753Y-13590793D02*
X3748229Y-13628888D01*
X3748229Y-13628888D02*
X3738705Y-13647936D01*
X3738705Y-13647936D02*
X3729182Y-13657460D01*
X3729182Y-13657460D02*
X3710134Y-13666984D01*
X3710134Y-13666984D02*
X3691086Y-13666984D01*
X3691086Y-13666984D02*
X3672039Y-13657460D01*
X3672039Y-13657460D02*
X3662515Y-13647936D01*
X3662515Y-13647936D02*
X3652991Y-13628888D01*
X3652991Y-13628888D02*
X3643467Y-13590793D01*
X3643467Y-13590793D02*
X3643467Y-13543174D01*
X3643467Y-13543174D02*
X3652991Y-13505079D01*
X3652991Y-13505079D02*
X3662515Y-13486031D01*
X3662515Y-13486031D02*
X3672039Y-13476508D01*
X3672039Y-13476508D02*
X3691086Y-13466984D01*
X3881562Y-13466984D02*
X3900610Y-13466984D01*
X3900610Y-13466984D02*
X3919658Y-13476508D01*
X3919658Y-13476508D02*
X3929182Y-13486031D01*
X3929182Y-13486031D02*
X3938705Y-13505079D01*
X3938705Y-13505079D02*
X3948229Y-13543174D01*
X3948229Y-13543174D02*
X3948229Y-13590793D01*
X3948229Y-13590793D02*
X3938705Y-13628888D01*
X3938705Y-13628888D02*
X3929182Y-13647936D01*
X3929182Y-13647936D02*
X3919658Y-13657460D01*
X3919658Y-13657460D02*
X3900610Y-13666984D01*
X3900610Y-13666984D02*
X3881562Y-13666984D01*
X3881562Y-13666984D02*
X3862515Y-13657460D01*
X3862515Y-13657460D02*
X3852991Y-13647936D01*
X3852991Y-13647936D02*
X3843467Y-13628888D01*
X3843467Y-13628888D02*
X3833943Y-13590793D01*
X3833943Y-13590793D02*
X3833943Y-13543174D01*
X3833943Y-13543174D02*
X3843467Y-13505079D01*
X3843467Y-13505079D02*
X3852991Y-13486031D01*
X3852991Y-13486031D02*
X3862515Y-13476508D01*
X3862515Y-13476508D02*
X3881562Y-13466984D01*
X4072039Y-13466984D02*
X4091086Y-13466984D01*
X4091086Y-13466984D02*
X4110134Y-13476508D01*
X4110134Y-13476508D02*
X4119658Y-13486031D01*
X4119658Y-13486031D02*
X4129182Y-13505079D01*
X4129182Y-13505079D02*
X4138705Y-13543174D01*
X4138705Y-13543174D02*
X4138705Y-13590793D01*
X4138705Y-13590793D02*
X4129182Y-13628888D01*
X4129182Y-13628888D02*
X4119658Y-13647936D01*
X4119658Y-13647936D02*
X4110134Y-13657460D01*
X4110134Y-13657460D02*
X4091086Y-13666984D01*
X4091086Y-13666984D02*
X4072039Y-13666984D01*
X4072039Y-13666984D02*
X4052991Y-13657460D01*
X4052991Y-13657460D02*
X4043467Y-13647936D01*
X4043467Y-13647936D02*
X4033943Y-13628888D01*
X4033943Y-13628888D02*
X4024420Y-13590793D01*
X4024420Y-13590793D02*
X4024420Y-13543174D01*
X4024420Y-13543174D02*
X4033943Y-13505079D01*
X4033943Y-13505079D02*
X4043467Y-13486031D01*
X4043467Y-13486031D02*
X4052991Y-13476508D01*
X4052991Y-13476508D02*
X4072039Y-13466984D01*
X4224420Y-13666984D02*
X4224420Y-13533650D01*
X4224420Y-13552698D02*
X4233944Y-13543174D01*
X4233944Y-13543174D02*
X4252991Y-13533650D01*
X4252991Y-13533650D02*
X4281563Y-13533650D01*
X4281563Y-13533650D02*
X4300610Y-13543174D01*
X4300610Y-13543174D02*
X4310134Y-13562222D01*
X4310134Y-13562222D02*
X4310134Y-13666984D01*
X4310134Y-13562222D02*
X4319658Y-13543174D01*
X4319658Y-13543174D02*
X4338705Y-13533650D01*
X4338705Y-13533650D02*
X4367277Y-13533650D01*
X4367277Y-13533650D02*
X4386325Y-13543174D01*
X4386325Y-13543174D02*
X4395848Y-13562222D01*
X4395848Y-13562222D02*
X4395848Y-13666984D01*
X4491086Y-13666984D02*
X4491086Y-13533650D01*
X4491086Y-13552698D02*
X4500610Y-13543174D01*
X4500610Y-13543174D02*
X4519658Y-13533650D01*
X4519658Y-13533650D02*
X4548229Y-13533650D01*
X4548229Y-13533650D02*
X4567277Y-13543174D01*
X4567277Y-13543174D02*
X4576801Y-13562222D01*
X4576801Y-13562222D02*
X4576801Y-13666984D01*
X4576801Y-13562222D02*
X4586325Y-13543174D01*
X4586325Y-13543174D02*
X4605372Y-13533650D01*
X4605372Y-13533650D02*
X4633944Y-13533650D01*
X4633944Y-13533650D02*
X4652991Y-13543174D01*
X4652991Y-13543174D02*
X4662515Y-13562222D01*
X4662515Y-13562222D02*
X4662515Y-13666984D01*
X5052991Y-13457460D02*
X4881563Y-13714603D01*
X5310134Y-13466984D02*
X5329182Y-13466984D01*
X5329182Y-13466984D02*
X5348229Y-13476508D01*
X5348229Y-13476508D02*
X5357753Y-13486031D01*
X5357753Y-13486031D02*
X5367277Y-13505079D01*
X5367277Y-13505079D02*
X5376801Y-13543174D01*
X5376801Y-13543174D02*
X5376801Y-13590793D01*
X5376801Y-13590793D02*
X5367277Y-13628888D01*
X5367277Y-13628888D02*
X5357753Y-13647936D01*
X5357753Y-13647936D02*
X5348229Y-13657460D01*
X5348229Y-13657460D02*
X5329182Y-13666984D01*
X5329182Y-13666984D02*
X5310134Y-13666984D01*
X5310134Y-13666984D02*
X5291087Y-13657460D01*
X5291087Y-13657460D02*
X5281563Y-13647936D01*
X5281563Y-13647936D02*
X5272039Y-13628888D01*
X5272039Y-13628888D02*
X5262515Y-13590793D01*
X5262515Y-13590793D02*
X5262515Y-13543174D01*
X5262515Y-13543174D02*
X5272039Y-13505079D01*
X5272039Y-13505079D02*
X5281563Y-13486031D01*
X5281563Y-13486031D02*
X5291087Y-13476508D01*
X5291087Y-13476508D02*
X5310134Y-13466984D01*
X5462515Y-13647936D02*
X5472039Y-13657460D01*
X5472039Y-13657460D02*
X5462515Y-13666984D01*
X5462515Y-13666984D02*
X5452991Y-13657460D01*
X5452991Y-13657460D02*
X5462515Y-13647936D01*
X5462515Y-13647936D02*
X5462515Y-13666984D01*
X5595848Y-13466984D02*
X5614896Y-13466984D01*
X5614896Y-13466984D02*
X5633944Y-13476508D01*
X5633944Y-13476508D02*
X5643467Y-13486031D01*
X5643467Y-13486031D02*
X5652991Y-13505079D01*
X5652991Y-13505079D02*
X5662515Y-13543174D01*
X5662515Y-13543174D02*
X5662515Y-13590793D01*
X5662515Y-13590793D02*
X5652991Y-13628888D01*
X5652991Y-13628888D02*
X5643467Y-13647936D01*
X5643467Y-13647936D02*
X5633944Y-13657460D01*
X5633944Y-13657460D02*
X5614896Y-13666984D01*
X5614896Y-13666984D02*
X5595848Y-13666984D01*
X5595848Y-13666984D02*
X5576801Y-13657460D01*
X5576801Y-13657460D02*
X5567277Y-13647936D01*
X5567277Y-13647936D02*
X5557753Y-13628888D01*
X5557753Y-13628888D02*
X5548229Y-13590793D01*
X5548229Y-13590793D02*
X5548229Y-13543174D01*
X5548229Y-13543174D02*
X5557753Y-13505079D01*
X5557753Y-13505079D02*
X5567277Y-13486031D01*
X5567277Y-13486031D02*
X5576801Y-13476508D01*
X5576801Y-13476508D02*
X5595848Y-13466984D01*
X5729182Y-13466984D02*
X5852991Y-13466984D01*
X5852991Y-13466984D02*
X5786325Y-13543174D01*
X5786325Y-13543174D02*
X5814896Y-13543174D01*
X5814896Y-13543174D02*
X5833944Y-13552698D01*
X5833944Y-13552698D02*
X5843467Y-13562222D01*
X5843467Y-13562222D02*
X5852991Y-13581269D01*
X5852991Y-13581269D02*
X5852991Y-13628888D01*
X5852991Y-13628888D02*
X5843467Y-13647936D01*
X5843467Y-13647936D02*
X5833944Y-13657460D01*
X5833944Y-13657460D02*
X5814896Y-13666984D01*
X5814896Y-13666984D02*
X5757753Y-13666984D01*
X5757753Y-13666984D02*
X5738706Y-13657460D01*
X5738706Y-13657460D02*
X5729182Y-13647936D01*
X5948229Y-13666984D02*
X5986325Y-13666984D01*
X5986325Y-13666984D02*
X6005372Y-13657460D01*
X6005372Y-13657460D02*
X6014896Y-13647936D01*
X6014896Y-13647936D02*
X6033944Y-13619365D01*
X6033944Y-13619365D02*
X6043467Y-13581269D01*
X6043467Y-13581269D02*
X6043467Y-13505079D01*
X6043467Y-13505079D02*
X6033944Y-13486031D01*
X6033944Y-13486031D02*
X6024420Y-13476508D01*
X6024420Y-13476508D02*
X6005372Y-13466984D01*
X6005372Y-13466984D02*
X5967277Y-13466984D01*
X5967277Y-13466984D02*
X5948229Y-13476508D01*
X5948229Y-13476508D02*
X5938706Y-13486031D01*
X5938706Y-13486031D02*
X5929182Y-13505079D01*
X5929182Y-13505079D02*
X5929182Y-13552698D01*
X5929182Y-13552698D02*
X5938706Y-13571746D01*
X5938706Y-13571746D02*
X5948229Y-13581269D01*
X5948229Y-13581269D02*
X5967277Y-13590793D01*
X5967277Y-13590793D02*
X6005372Y-13590793D01*
X6005372Y-13590793D02*
X6024420Y-13581269D01*
X6024420Y-13581269D02*
X6033944Y-13571746D01*
X6033944Y-13571746D02*
X6043467Y-13552698D01*
X6214896Y-13533650D02*
X6214896Y-13666984D01*
X6167277Y-13457460D02*
X6119658Y-13600317D01*
X6119658Y-13600317D02*
X6243467Y-13600317D01*
X6310134Y-13466984D02*
X6310134Y-13505079D01*
X6386325Y-13466984D02*
X6386325Y-13505079D01*
X6681563Y-13743174D02*
X6672039Y-13733650D01*
X6672039Y-13733650D02*
X6652991Y-13705079D01*
X6652991Y-13705079D02*
X6643468Y-13686031D01*
X6643468Y-13686031D02*
X6633944Y-13657460D01*
X6633944Y-13657460D02*
X6624420Y-13609841D01*
X6624420Y-13609841D02*
X6624420Y-13571746D01*
X6624420Y-13571746D02*
X6633944Y-13524127D01*
X6633944Y-13524127D02*
X6643468Y-13495555D01*
X6643468Y-13495555D02*
X6652991Y-13476508D01*
X6652991Y-13476508D02*
X6672039Y-13447936D01*
X6672039Y-13447936D02*
X6681563Y-13438412D01*
X6862515Y-13666984D02*
X6748229Y-13666984D01*
X6805372Y-13666984D02*
X6805372Y-13466984D01*
X6805372Y-13466984D02*
X6786325Y-13495555D01*
X6786325Y-13495555D02*
X6767277Y-13514603D01*
X6767277Y-13514603D02*
X6748229Y-13524127D01*
X6986325Y-13466984D02*
X7005372Y-13466984D01*
X7005372Y-13466984D02*
X7024420Y-13476508D01*
X7024420Y-13476508D02*
X7033944Y-13486031D01*
X7033944Y-13486031D02*
X7043468Y-13505079D01*
X7043468Y-13505079D02*
X7052991Y-13543174D01*
X7052991Y-13543174D02*
X7052991Y-13590793D01*
X7052991Y-13590793D02*
X7043468Y-13628888D01*
X7043468Y-13628888D02*
X7033944Y-13647936D01*
X7033944Y-13647936D02*
X7024420Y-13657460D01*
X7024420Y-13657460D02*
X7005372Y-13666984D01*
X7005372Y-13666984D02*
X6986325Y-13666984D01*
X6986325Y-13666984D02*
X6967277Y-13657460D01*
X6967277Y-13657460D02*
X6957753Y-13647936D01*
X6957753Y-13647936D02*
X6948229Y-13628888D01*
X6948229Y-13628888D02*
X6938706Y-13590793D01*
X6938706Y-13590793D02*
X6938706Y-13543174D01*
X6938706Y-13543174D02*
X6948229Y-13505079D01*
X6948229Y-13505079D02*
X6957753Y-13486031D01*
X6957753Y-13486031D02*
X6967277Y-13476508D01*
X6967277Y-13476508D02*
X6986325Y-13466984D01*
X7224420Y-13533650D02*
X7224420Y-13666984D01*
X7176801Y-13457460D02*
X7129182Y-13600317D01*
X7129182Y-13600317D02*
X7252991Y-13600317D01*
X7481563Y-13666984D02*
X7481563Y-13466984D01*
X7567277Y-13666984D02*
X7567277Y-13562222D01*
X7567277Y-13562222D02*
X7557753Y-13543174D01*
X7557753Y-13543174D02*
X7538706Y-13533650D01*
X7538706Y-13533650D02*
X7510134Y-13533650D01*
X7510134Y-13533650D02*
X7491087Y-13543174D01*
X7491087Y-13543174D02*
X7481563Y-13552698D01*
X7691087Y-13666984D02*
X7672039Y-13657460D01*
X7672039Y-13657460D02*
X7662515Y-13647936D01*
X7662515Y-13647936D02*
X7652991Y-13628888D01*
X7652991Y-13628888D02*
X7652991Y-13571746D01*
X7652991Y-13571746D02*
X7662515Y-13552698D01*
X7662515Y-13552698D02*
X7672039Y-13543174D01*
X7672039Y-13543174D02*
X7691087Y-13533650D01*
X7691087Y-13533650D02*
X7719658Y-13533650D01*
X7719658Y-13533650D02*
X7738706Y-13543174D01*
X7738706Y-13543174D02*
X7748230Y-13552698D01*
X7748230Y-13552698D02*
X7757753Y-13571746D01*
X7757753Y-13571746D02*
X7757753Y-13628888D01*
X7757753Y-13628888D02*
X7748230Y-13647936D01*
X7748230Y-13647936D02*
X7738706Y-13657460D01*
X7738706Y-13657460D02*
X7719658Y-13666984D01*
X7719658Y-13666984D02*
X7691087Y-13666984D01*
X7872039Y-13666984D02*
X7852991Y-13657460D01*
X7852991Y-13657460D02*
X7843468Y-13638412D01*
X7843468Y-13638412D02*
X7843468Y-13466984D01*
X8024420Y-13657460D02*
X8005372Y-13666984D01*
X8005372Y-13666984D02*
X7967277Y-13666984D01*
X7967277Y-13666984D02*
X7948230Y-13657460D01*
X7948230Y-13657460D02*
X7938706Y-13638412D01*
X7938706Y-13638412D02*
X7938706Y-13562222D01*
X7938706Y-13562222D02*
X7948230Y-13543174D01*
X7948230Y-13543174D02*
X7967277Y-13533650D01*
X7967277Y-13533650D02*
X8005372Y-13533650D01*
X8005372Y-13533650D02*
X8024420Y-13543174D01*
X8024420Y-13543174D02*
X8033944Y-13562222D01*
X8033944Y-13562222D02*
X8033944Y-13581269D01*
X8033944Y-13581269D02*
X7938706Y-13600317D01*
X8110134Y-13657460D02*
X8129182Y-13666984D01*
X8129182Y-13666984D02*
X8167277Y-13666984D01*
X8167277Y-13666984D02*
X8186325Y-13657460D01*
X8186325Y-13657460D02*
X8195849Y-13638412D01*
X8195849Y-13638412D02*
X8195849Y-13628888D01*
X8195849Y-13628888D02*
X8186325Y-13609841D01*
X8186325Y-13609841D02*
X8167277Y-13600317D01*
X8167277Y-13600317D02*
X8138706Y-13600317D01*
X8138706Y-13600317D02*
X8119658Y-13590793D01*
X8119658Y-13590793D02*
X8110134Y-13571746D01*
X8110134Y-13571746D02*
X8110134Y-13562222D01*
X8110134Y-13562222D02*
X8119658Y-13543174D01*
X8119658Y-13543174D02*
X8138706Y-13533650D01*
X8138706Y-13533650D02*
X8167277Y-13533650D01*
X8167277Y-13533650D02*
X8186325Y-13543174D01*
X8262515Y-13743174D02*
X8272039Y-13733650D01*
X8272039Y-13733650D02*
X8291087Y-13705079D01*
X8291087Y-13705079D02*
X8300611Y-13686031D01*
X8300611Y-13686031D02*
X8310134Y-13657460D01*
X8310134Y-13657460D02*
X8319658Y-13609841D01*
X8319658Y-13609841D02*
X8319658Y-13571746D01*
X8319658Y-13571746D02*
X8310134Y-13524127D01*
X8310134Y-13524127D02*
X8300611Y-13495555D01*
X8300611Y-13495555D02*
X8291087Y-13476508D01*
X8291087Y-13476508D02*
X8272039Y-13447936D01*
X8272039Y-13447936D02*
X8262515Y-13438412D01*
X2906500Y-13739500D02*
X3106500Y-13939500D01*
X3106500Y-13739500D02*
X2906500Y-13939500D01*
X3106500Y-13839500D02*
G75*
G03*
X3106500Y-13839500I-100000J0D01*
G01*
X3357753Y-13750031D02*
X3367277Y-13740508D01*
X3367277Y-13740508D02*
X3386324Y-13730984D01*
X3386324Y-13730984D02*
X3433943Y-13730984D01*
X3433943Y-13730984D02*
X3452991Y-13740508D01*
X3452991Y-13740508D02*
X3462515Y-13750031D01*
X3462515Y-13750031D02*
X3472039Y-13769079D01*
X3472039Y-13769079D02*
X3472039Y-13788127D01*
X3472039Y-13788127D02*
X3462515Y-13816698D01*
X3462515Y-13816698D02*
X3348229Y-13930984D01*
X3348229Y-13930984D02*
X3472039Y-13930984D01*
X3557753Y-13911936D02*
X3567277Y-13921460D01*
X3567277Y-13921460D02*
X3557753Y-13930984D01*
X3557753Y-13930984D02*
X3548229Y-13921460D01*
X3548229Y-13921460D02*
X3557753Y-13911936D01*
X3557753Y-13911936D02*
X3557753Y-13930984D01*
X3748229Y-13730984D02*
X3652991Y-13730984D01*
X3652991Y-13730984D02*
X3643467Y-13826222D01*
X3643467Y-13826222D02*
X3652991Y-13816698D01*
X3652991Y-13816698D02*
X3672039Y-13807174D01*
X3672039Y-13807174D02*
X3719658Y-13807174D01*
X3719658Y-13807174D02*
X3738705Y-13816698D01*
X3738705Y-13816698D02*
X3748229Y-13826222D01*
X3748229Y-13826222D02*
X3757753Y-13845269D01*
X3757753Y-13845269D02*
X3757753Y-13892888D01*
X3757753Y-13892888D02*
X3748229Y-13911936D01*
X3748229Y-13911936D02*
X3738705Y-13921460D01*
X3738705Y-13921460D02*
X3719658Y-13930984D01*
X3719658Y-13930984D02*
X3672039Y-13930984D01*
X3672039Y-13930984D02*
X3652991Y-13921460D01*
X3652991Y-13921460D02*
X3643467Y-13911936D01*
X3881562Y-13730984D02*
X3900610Y-13730984D01*
X3900610Y-13730984D02*
X3919658Y-13740508D01*
X3919658Y-13740508D02*
X3929182Y-13750031D01*
X3929182Y-13750031D02*
X3938705Y-13769079D01*
X3938705Y-13769079D02*
X3948229Y-13807174D01*
X3948229Y-13807174D02*
X3948229Y-13854793D01*
X3948229Y-13854793D02*
X3938705Y-13892888D01*
X3938705Y-13892888D02*
X3929182Y-13911936D01*
X3929182Y-13911936D02*
X3919658Y-13921460D01*
X3919658Y-13921460D02*
X3900610Y-13930984D01*
X3900610Y-13930984D02*
X3881562Y-13930984D01*
X3881562Y-13930984D02*
X3862515Y-13921460D01*
X3862515Y-13921460D02*
X3852991Y-13911936D01*
X3852991Y-13911936D02*
X3843467Y-13892888D01*
X3843467Y-13892888D02*
X3833943Y-13854793D01*
X3833943Y-13854793D02*
X3833943Y-13807174D01*
X3833943Y-13807174D02*
X3843467Y-13769079D01*
X3843467Y-13769079D02*
X3852991Y-13750031D01*
X3852991Y-13750031D02*
X3862515Y-13740508D01*
X3862515Y-13740508D02*
X3881562Y-13730984D01*
X4072039Y-13730984D02*
X4091086Y-13730984D01*
X4091086Y-13730984D02*
X4110134Y-13740508D01*
X4110134Y-13740508D02*
X4119658Y-13750031D01*
X4119658Y-13750031D02*
X4129182Y-13769079D01*
X4129182Y-13769079D02*
X4138705Y-13807174D01*
X4138705Y-13807174D02*
X4138705Y-13854793D01*
X4138705Y-13854793D02*
X4129182Y-13892888D01*
X4129182Y-13892888D02*
X4119658Y-13911936D01*
X4119658Y-13911936D02*
X4110134Y-13921460D01*
X4110134Y-13921460D02*
X4091086Y-13930984D01*
X4091086Y-13930984D02*
X4072039Y-13930984D01*
X4072039Y-13930984D02*
X4052991Y-13921460D01*
X4052991Y-13921460D02*
X4043467Y-13911936D01*
X4043467Y-13911936D02*
X4033943Y-13892888D01*
X4033943Y-13892888D02*
X4024420Y-13854793D01*
X4024420Y-13854793D02*
X4024420Y-13807174D01*
X4024420Y-13807174D02*
X4033943Y-13769079D01*
X4033943Y-13769079D02*
X4043467Y-13750031D01*
X4043467Y-13750031D02*
X4052991Y-13740508D01*
X4052991Y-13740508D02*
X4072039Y-13730984D01*
X4224420Y-13930984D02*
X4224420Y-13797650D01*
X4224420Y-13816698D02*
X4233944Y-13807174D01*
X4233944Y-13807174D02*
X4252991Y-13797650D01*
X4252991Y-13797650D02*
X4281563Y-13797650D01*
X4281563Y-13797650D02*
X4300610Y-13807174D01*
X4300610Y-13807174D02*
X4310134Y-13826222D01*
X4310134Y-13826222D02*
X4310134Y-13930984D01*
X4310134Y-13826222D02*
X4319658Y-13807174D01*
X4319658Y-13807174D02*
X4338705Y-13797650D01*
X4338705Y-13797650D02*
X4367277Y-13797650D01*
X4367277Y-13797650D02*
X4386325Y-13807174D01*
X4386325Y-13807174D02*
X4395848Y-13826222D01*
X4395848Y-13826222D02*
X4395848Y-13930984D01*
X4491086Y-13930984D02*
X4491086Y-13797650D01*
X4491086Y-13816698D02*
X4500610Y-13807174D01*
X4500610Y-13807174D02*
X4519658Y-13797650D01*
X4519658Y-13797650D02*
X4548229Y-13797650D01*
X4548229Y-13797650D02*
X4567277Y-13807174D01*
X4567277Y-13807174D02*
X4576801Y-13826222D01*
X4576801Y-13826222D02*
X4576801Y-13930984D01*
X4576801Y-13826222D02*
X4586325Y-13807174D01*
X4586325Y-13807174D02*
X4605372Y-13797650D01*
X4605372Y-13797650D02*
X4633944Y-13797650D01*
X4633944Y-13797650D02*
X4652991Y-13807174D01*
X4652991Y-13807174D02*
X4662515Y-13826222D01*
X4662515Y-13826222D02*
X4662515Y-13930984D01*
X5052991Y-13721460D02*
X4881563Y-13978603D01*
X5310134Y-13730984D02*
X5329182Y-13730984D01*
X5329182Y-13730984D02*
X5348229Y-13740508D01*
X5348229Y-13740508D02*
X5357753Y-13750031D01*
X5357753Y-13750031D02*
X5367277Y-13769079D01*
X5367277Y-13769079D02*
X5376801Y-13807174D01*
X5376801Y-13807174D02*
X5376801Y-13854793D01*
X5376801Y-13854793D02*
X5367277Y-13892888D01*
X5367277Y-13892888D02*
X5357753Y-13911936D01*
X5357753Y-13911936D02*
X5348229Y-13921460D01*
X5348229Y-13921460D02*
X5329182Y-13930984D01*
X5329182Y-13930984D02*
X5310134Y-13930984D01*
X5310134Y-13930984D02*
X5291087Y-13921460D01*
X5291087Y-13921460D02*
X5281563Y-13911936D01*
X5281563Y-13911936D02*
X5272039Y-13892888D01*
X5272039Y-13892888D02*
X5262515Y-13854793D01*
X5262515Y-13854793D02*
X5262515Y-13807174D01*
X5262515Y-13807174D02*
X5272039Y-13769079D01*
X5272039Y-13769079D02*
X5281563Y-13750031D01*
X5281563Y-13750031D02*
X5291087Y-13740508D01*
X5291087Y-13740508D02*
X5310134Y-13730984D01*
X5462515Y-13911936D02*
X5472039Y-13921460D01*
X5472039Y-13921460D02*
X5462515Y-13930984D01*
X5462515Y-13930984D02*
X5452991Y-13921460D01*
X5452991Y-13921460D02*
X5462515Y-13911936D01*
X5462515Y-13911936D02*
X5462515Y-13930984D01*
X5595848Y-13730984D02*
X5614896Y-13730984D01*
X5614896Y-13730984D02*
X5633944Y-13740508D01*
X5633944Y-13740508D02*
X5643467Y-13750031D01*
X5643467Y-13750031D02*
X5652991Y-13769079D01*
X5652991Y-13769079D02*
X5662515Y-13807174D01*
X5662515Y-13807174D02*
X5662515Y-13854793D01*
X5662515Y-13854793D02*
X5652991Y-13892888D01*
X5652991Y-13892888D02*
X5643467Y-13911936D01*
X5643467Y-13911936D02*
X5633944Y-13921460D01*
X5633944Y-13921460D02*
X5614896Y-13930984D01*
X5614896Y-13930984D02*
X5595848Y-13930984D01*
X5595848Y-13930984D02*
X5576801Y-13921460D01*
X5576801Y-13921460D02*
X5567277Y-13911936D01*
X5567277Y-13911936D02*
X5557753Y-13892888D01*
X5557753Y-13892888D02*
X5548229Y-13854793D01*
X5548229Y-13854793D02*
X5548229Y-13807174D01*
X5548229Y-13807174D02*
X5557753Y-13769079D01*
X5557753Y-13769079D02*
X5567277Y-13750031D01*
X5567277Y-13750031D02*
X5576801Y-13740508D01*
X5576801Y-13740508D02*
X5595848Y-13730984D01*
X5757753Y-13930984D02*
X5795848Y-13930984D01*
X5795848Y-13930984D02*
X5814896Y-13921460D01*
X5814896Y-13921460D02*
X5824420Y-13911936D01*
X5824420Y-13911936D02*
X5843467Y-13883365D01*
X5843467Y-13883365D02*
X5852991Y-13845269D01*
X5852991Y-13845269D02*
X5852991Y-13769079D01*
X5852991Y-13769079D02*
X5843467Y-13750031D01*
X5843467Y-13750031D02*
X5833944Y-13740508D01*
X5833944Y-13740508D02*
X5814896Y-13730984D01*
X5814896Y-13730984D02*
X5776801Y-13730984D01*
X5776801Y-13730984D02*
X5757753Y-13740508D01*
X5757753Y-13740508D02*
X5748229Y-13750031D01*
X5748229Y-13750031D02*
X5738706Y-13769079D01*
X5738706Y-13769079D02*
X5738706Y-13816698D01*
X5738706Y-13816698D02*
X5748229Y-13835746D01*
X5748229Y-13835746D02*
X5757753Y-13845269D01*
X5757753Y-13845269D02*
X5776801Y-13854793D01*
X5776801Y-13854793D02*
X5814896Y-13854793D01*
X5814896Y-13854793D02*
X5833944Y-13845269D01*
X5833944Y-13845269D02*
X5843467Y-13835746D01*
X5843467Y-13835746D02*
X5852991Y-13816698D01*
X5967277Y-13816698D02*
X5948229Y-13807174D01*
X5948229Y-13807174D02*
X5938706Y-13797650D01*
X5938706Y-13797650D02*
X5929182Y-13778603D01*
X5929182Y-13778603D02*
X5929182Y-13769079D01*
X5929182Y-13769079D02*
X5938706Y-13750031D01*
X5938706Y-13750031D02*
X5948229Y-13740508D01*
X5948229Y-13740508D02*
X5967277Y-13730984D01*
X5967277Y-13730984D02*
X6005372Y-13730984D01*
X6005372Y-13730984D02*
X6024420Y-13740508D01*
X6024420Y-13740508D02*
X6033944Y-13750031D01*
X6033944Y-13750031D02*
X6043467Y-13769079D01*
X6043467Y-13769079D02*
X6043467Y-13778603D01*
X6043467Y-13778603D02*
X6033944Y-13797650D01*
X6033944Y-13797650D02*
X6024420Y-13807174D01*
X6024420Y-13807174D02*
X6005372Y-13816698D01*
X6005372Y-13816698D02*
X5967277Y-13816698D01*
X5967277Y-13816698D02*
X5948229Y-13826222D01*
X5948229Y-13826222D02*
X5938706Y-13835746D01*
X5938706Y-13835746D02*
X5929182Y-13854793D01*
X5929182Y-13854793D02*
X5929182Y-13892888D01*
X5929182Y-13892888D02*
X5938706Y-13911936D01*
X5938706Y-13911936D02*
X5948229Y-13921460D01*
X5948229Y-13921460D02*
X5967277Y-13930984D01*
X5967277Y-13930984D02*
X6005372Y-13930984D01*
X6005372Y-13930984D02*
X6024420Y-13921460D01*
X6024420Y-13921460D02*
X6033944Y-13911936D01*
X6033944Y-13911936D02*
X6043467Y-13892888D01*
X6043467Y-13892888D02*
X6043467Y-13854793D01*
X6043467Y-13854793D02*
X6033944Y-13835746D01*
X6033944Y-13835746D02*
X6024420Y-13826222D01*
X6024420Y-13826222D02*
X6005372Y-13816698D01*
X6214896Y-13797650D02*
X6214896Y-13930984D01*
X6167277Y-13721460D02*
X6119658Y-13864317D01*
X6119658Y-13864317D02*
X6243467Y-13864317D01*
X6310134Y-13730984D02*
X6310134Y-13769079D01*
X6386325Y-13730984D02*
X6386325Y-13769079D01*
X6681563Y-14007174D02*
X6672039Y-13997650D01*
X6672039Y-13997650D02*
X6652991Y-13969079D01*
X6652991Y-13969079D02*
X6643468Y-13950031D01*
X6643468Y-13950031D02*
X6633944Y-13921460D01*
X6633944Y-13921460D02*
X6624420Y-13873841D01*
X6624420Y-13873841D02*
X6624420Y-13835746D01*
X6624420Y-13835746D02*
X6633944Y-13788127D01*
X6633944Y-13788127D02*
X6643468Y-13759555D01*
X6643468Y-13759555D02*
X6652991Y-13740508D01*
X6652991Y-13740508D02*
X6672039Y-13711936D01*
X6672039Y-13711936D02*
X6681563Y-13702412D01*
X6843468Y-13730984D02*
X6805372Y-13730984D01*
X6805372Y-13730984D02*
X6786325Y-13740508D01*
X6786325Y-13740508D02*
X6776801Y-13750031D01*
X6776801Y-13750031D02*
X6757753Y-13778603D01*
X6757753Y-13778603D02*
X6748229Y-13816698D01*
X6748229Y-13816698D02*
X6748229Y-13892888D01*
X6748229Y-13892888D02*
X6757753Y-13911936D01*
X6757753Y-13911936D02*
X6767277Y-13921460D01*
X6767277Y-13921460D02*
X6786325Y-13930984D01*
X6786325Y-13930984D02*
X6824420Y-13930984D01*
X6824420Y-13930984D02*
X6843468Y-13921460D01*
X6843468Y-13921460D02*
X6852991Y-13911936D01*
X6852991Y-13911936D02*
X6862515Y-13892888D01*
X6862515Y-13892888D02*
X6862515Y-13845269D01*
X6862515Y-13845269D02*
X6852991Y-13826222D01*
X6852991Y-13826222D02*
X6843468Y-13816698D01*
X6843468Y-13816698D02*
X6824420Y-13807174D01*
X6824420Y-13807174D02*
X6786325Y-13807174D01*
X6786325Y-13807174D02*
X6767277Y-13816698D01*
X6767277Y-13816698D02*
X6757753Y-13826222D01*
X6757753Y-13826222D02*
X6748229Y-13845269D01*
X7100610Y-13930984D02*
X7100610Y-13730984D01*
X7186325Y-13930984D02*
X7186325Y-13826222D01*
X7186325Y-13826222D02*
X7176801Y-13807174D01*
X7176801Y-13807174D02*
X7157753Y-13797650D01*
X7157753Y-13797650D02*
X7129182Y-13797650D01*
X7129182Y-13797650D02*
X7110134Y-13807174D01*
X7110134Y-13807174D02*
X7100610Y-13816698D01*
X7310134Y-13930984D02*
X7291087Y-13921460D01*
X7291087Y-13921460D02*
X7281563Y-13911936D01*
X7281563Y-13911936D02*
X7272039Y-13892888D01*
X7272039Y-13892888D02*
X7272039Y-13835746D01*
X7272039Y-13835746D02*
X7281563Y-13816698D01*
X7281563Y-13816698D02*
X7291087Y-13807174D01*
X7291087Y-13807174D02*
X7310134Y-13797650D01*
X7310134Y-13797650D02*
X7338706Y-13797650D01*
X7338706Y-13797650D02*
X7357753Y-13807174D01*
X7357753Y-13807174D02*
X7367277Y-13816698D01*
X7367277Y-13816698D02*
X7376801Y-13835746D01*
X7376801Y-13835746D02*
X7376801Y-13892888D01*
X7376801Y-13892888D02*
X7367277Y-13911936D01*
X7367277Y-13911936D02*
X7357753Y-13921460D01*
X7357753Y-13921460D02*
X7338706Y-13930984D01*
X7338706Y-13930984D02*
X7310134Y-13930984D01*
X7491087Y-13930984D02*
X7472039Y-13921460D01*
X7472039Y-13921460D02*
X7462515Y-13902412D01*
X7462515Y-13902412D02*
X7462515Y-13730984D01*
X7643468Y-13921460D02*
X7624420Y-13930984D01*
X7624420Y-13930984D02*
X7586325Y-13930984D01*
X7586325Y-13930984D02*
X7567277Y-13921460D01*
X7567277Y-13921460D02*
X7557753Y-13902412D01*
X7557753Y-13902412D02*
X7557753Y-13826222D01*
X7557753Y-13826222D02*
X7567277Y-13807174D01*
X7567277Y-13807174D02*
X7586325Y-13797650D01*
X7586325Y-13797650D02*
X7624420Y-13797650D01*
X7624420Y-13797650D02*
X7643468Y-13807174D01*
X7643468Y-13807174D02*
X7652991Y-13826222D01*
X7652991Y-13826222D02*
X7652991Y-13845269D01*
X7652991Y-13845269D02*
X7557753Y-13864317D01*
X7729182Y-13921460D02*
X7748230Y-13930984D01*
X7748230Y-13930984D02*
X7786325Y-13930984D01*
X7786325Y-13930984D02*
X7805372Y-13921460D01*
X7805372Y-13921460D02*
X7814896Y-13902412D01*
X7814896Y-13902412D02*
X7814896Y-13892888D01*
X7814896Y-13892888D02*
X7805372Y-13873841D01*
X7805372Y-13873841D02*
X7786325Y-13864317D01*
X7786325Y-13864317D02*
X7757753Y-13864317D01*
X7757753Y-13864317D02*
X7738706Y-13854793D01*
X7738706Y-13854793D02*
X7729182Y-13835746D01*
X7729182Y-13835746D02*
X7729182Y-13826222D01*
X7729182Y-13826222D02*
X7738706Y-13807174D01*
X7738706Y-13807174D02*
X7757753Y-13797650D01*
X7757753Y-13797650D02*
X7786325Y-13797650D01*
X7786325Y-13797650D02*
X7805372Y-13807174D01*
X7881563Y-14007174D02*
X7891087Y-13997650D01*
X7891087Y-13997650D02*
X7910134Y-13969079D01*
X7910134Y-13969079D02*
X7919658Y-13950031D01*
X7919658Y-13950031D02*
X7929182Y-13921460D01*
X7929182Y-13921460D02*
X7938706Y-13873841D01*
X7938706Y-13873841D02*
X7938706Y-13835746D01*
X7938706Y-13835746D02*
X7929182Y-13788127D01*
X7929182Y-13788127D02*
X7919658Y-13759555D01*
X7919658Y-13759555D02*
X7910134Y-13740508D01*
X7910134Y-13740508D02*
X7891087Y-13711936D01*
X7891087Y-13711936D02*
X7881563Y-13702412D01*
M02*
