%TF.GenerationSoftware,KiCad,Pcbnew,7.0.6*%
%TF.CreationDate,2024-05-07T04:30:43+03:00*%
%TF.ProjectId,board-main,626f6172-642d-46d6-9169-6e2e6b696361,rev?*%
%TF.SameCoordinates,Original*%
%TF.FileFunction,Drillmap*%
%TF.FilePolarity,Positive*%
%FSLAX45Y45*%
G04 Gerber Fmt 4.5, Leading zero omitted, Abs format (unit mm)*
G04 Created by KiCad (PCBNEW 7.0.6) date 2024-05-07 04:30:43*
%MOMM*%
%LPD*%
G01*
G04 APERTURE LIST*
%ADD10C,0.100000*%
%ADD11C,0.200000*%
G04 APERTURE END LIST*
D10*
X3111500Y-6299200D02*
X3111500Y-10210800D01*
X3340100Y-6070600D02*
X3111500Y-6299200D01*
X3340100Y-4635500D02*
X15176500Y-4635500D01*
X3340100Y-4635500D02*
X3340100Y-6070600D01*
X3340100Y-10439400D02*
X3340100Y-11874500D01*
X3111500Y-10210800D02*
X3340100Y-10439400D01*
X15176500Y-11874500D02*
X3340100Y-11874500D01*
X15176500Y-4635500D02*
X15176500Y-11874500D01*
D11*
X3367277Y-12190984D02*
X3367277Y-11990984D01*
X3367277Y-11990984D02*
X3414896Y-11990984D01*
X3414896Y-11990984D02*
X3443467Y-12000508D01*
X3443467Y-12000508D02*
X3462515Y-12019555D01*
X3462515Y-12019555D02*
X3472039Y-12038603D01*
X3472039Y-12038603D02*
X3481562Y-12076698D01*
X3481562Y-12076698D02*
X3481562Y-12105269D01*
X3481562Y-12105269D02*
X3472039Y-12143365D01*
X3472039Y-12143365D02*
X3462515Y-12162412D01*
X3462515Y-12162412D02*
X3443467Y-12181460D01*
X3443467Y-12181460D02*
X3414896Y-12190984D01*
X3414896Y-12190984D02*
X3367277Y-12190984D01*
X3567277Y-12190984D02*
X3567277Y-12057650D01*
X3567277Y-12095746D02*
X3576801Y-12076698D01*
X3576801Y-12076698D02*
X3586324Y-12067174D01*
X3586324Y-12067174D02*
X3605372Y-12057650D01*
X3605372Y-12057650D02*
X3624420Y-12057650D01*
X3691086Y-12190984D02*
X3691086Y-12057650D01*
X3691086Y-11990984D02*
X3681562Y-12000508D01*
X3681562Y-12000508D02*
X3691086Y-12010031D01*
X3691086Y-12010031D02*
X3700610Y-12000508D01*
X3700610Y-12000508D02*
X3691086Y-11990984D01*
X3691086Y-11990984D02*
X3691086Y-12010031D01*
X3814896Y-12190984D02*
X3795848Y-12181460D01*
X3795848Y-12181460D02*
X3786324Y-12162412D01*
X3786324Y-12162412D02*
X3786324Y-11990984D01*
X3919658Y-12190984D02*
X3900610Y-12181460D01*
X3900610Y-12181460D02*
X3891086Y-12162412D01*
X3891086Y-12162412D02*
X3891086Y-11990984D01*
X4148229Y-12190984D02*
X4148229Y-11990984D01*
X4148229Y-11990984D02*
X4214896Y-12133841D01*
X4214896Y-12133841D02*
X4281563Y-11990984D01*
X4281563Y-11990984D02*
X4281563Y-12190984D01*
X4462515Y-12190984D02*
X4462515Y-12086222D01*
X4462515Y-12086222D02*
X4452991Y-12067174D01*
X4452991Y-12067174D02*
X4433944Y-12057650D01*
X4433944Y-12057650D02*
X4395848Y-12057650D01*
X4395848Y-12057650D02*
X4376801Y-12067174D01*
X4462515Y-12181460D02*
X4443467Y-12190984D01*
X4443467Y-12190984D02*
X4395848Y-12190984D01*
X4395848Y-12190984D02*
X4376801Y-12181460D01*
X4376801Y-12181460D02*
X4367277Y-12162412D01*
X4367277Y-12162412D02*
X4367277Y-12143365D01*
X4367277Y-12143365D02*
X4376801Y-12124317D01*
X4376801Y-12124317D02*
X4395848Y-12114793D01*
X4395848Y-12114793D02*
X4443467Y-12114793D01*
X4443467Y-12114793D02*
X4462515Y-12105269D01*
X4557753Y-12057650D02*
X4557753Y-12257650D01*
X4557753Y-12067174D02*
X4576801Y-12057650D01*
X4576801Y-12057650D02*
X4614896Y-12057650D01*
X4614896Y-12057650D02*
X4633944Y-12067174D01*
X4633944Y-12067174D02*
X4643467Y-12076698D01*
X4643467Y-12076698D02*
X4652991Y-12095746D01*
X4652991Y-12095746D02*
X4652991Y-12152888D01*
X4652991Y-12152888D02*
X4643467Y-12171936D01*
X4643467Y-12171936D02*
X4633944Y-12181460D01*
X4633944Y-12181460D02*
X4614896Y-12190984D01*
X4614896Y-12190984D02*
X4576801Y-12190984D01*
X4576801Y-12190984D02*
X4557753Y-12181460D01*
X4738705Y-12171936D02*
X4748229Y-12181460D01*
X4748229Y-12181460D02*
X4738705Y-12190984D01*
X4738705Y-12190984D02*
X4729182Y-12181460D01*
X4729182Y-12181460D02*
X4738705Y-12171936D01*
X4738705Y-12171936D02*
X4738705Y-12190984D01*
X4738705Y-12067174D02*
X4748229Y-12076698D01*
X4748229Y-12076698D02*
X4738705Y-12086222D01*
X4738705Y-12086222D02*
X4729182Y-12076698D01*
X4729182Y-12076698D02*
X4738705Y-12067174D01*
X4738705Y-12067174D02*
X4738705Y-12086222D01*
M02*
