G04 #@! TF.GenerationSoftware,KiCad,Pcbnew,7.0.6*
G04 #@! TF.CreationDate,2024-05-07T04:30:38+03:00*
G04 #@! TF.ProjectId,board-main,626f6172-642d-46d6-9169-6e2e6b696361,rev?*
G04 #@! TF.SameCoordinates,Original*
G04 #@! TF.FileFunction,Copper,L1,Top*
G04 #@! TF.FilePolarity,Positive*
%FSLAX46Y46*%
G04 Gerber Fmt 4.6, Leading zero omitted, Abs format (unit mm)*
G04 Created by KiCad (PCBNEW 7.0.6) date 2024-05-07 04:30:38*
%MOMM*%
%LPD*%
G01*
G04 APERTURE LIST*
G04 Aperture macros list*
%AMRoundRect*
0 Rectangle with rounded corners*
0 $1 Rounding radius*
0 $2 $3 $4 $5 $6 $7 $8 $9 X,Y pos of 4 corners*
0 Add a 4 corners polygon primitive as box body*
4,1,4,$2,$3,$4,$5,$6,$7,$8,$9,$2,$3,0*
0 Add four circle primitives for the rounded corners*
1,1,$1+$1,$2,$3*
1,1,$1+$1,$4,$5*
1,1,$1+$1,$6,$7*
1,1,$1+$1,$8,$9*
0 Add four rect primitives between the rounded corners*
20,1,$1+$1,$2,$3,$4,$5,0*
20,1,$1+$1,$4,$5,$6,$7,0*
20,1,$1+$1,$6,$7,$8,$9,0*
20,1,$1+$1,$8,$9,$2,$3,0*%
%AMHorizOval*
0 Thick line with rounded ends*
0 $1 width*
0 $2 $3 position (X,Y) of the first rounded end (center of the circle)*
0 $4 $5 position (X,Y) of the second rounded end (center of the circle)*
0 Add line between two ends*
20,1,$1,$2,$3,$4,$5,0*
0 Add two circle primitives to create the rounded ends*
1,1,$1,$2,$3*
1,1,$1,$4,$5*%
%AMFreePoly0*
4,1,19,0.500000,-0.750000,0.000000,-0.750000,0.000000,-0.744911,-0.071157,-0.744911,-0.207708,-0.704816,-0.327430,-0.627875,-0.420627,-0.520320,-0.479746,-0.390866,-0.500000,-0.250000,-0.500000,0.250000,-0.479746,0.390866,-0.420627,0.520320,-0.327430,0.627875,-0.207708,0.704816,-0.071157,0.744911,0.000000,0.744911,0.000000,0.750000,0.500000,0.750000,0.500000,-0.750000,0.500000,-0.750000,
$1*%
%AMFreePoly1*
4,1,19,0.000000,0.744911,0.071157,0.744911,0.207708,0.704816,0.327430,0.627875,0.420627,0.520320,0.479746,0.390866,0.500000,0.250000,0.500000,-0.250000,0.479746,-0.390866,0.420627,-0.520320,0.327430,-0.627875,0.207708,-0.704816,0.071157,-0.744911,0.000000,-0.744911,0.000000,-0.750000,-0.500000,-0.750000,-0.500000,0.750000,0.000000,0.750000,0.000000,0.744911,0.000000,0.744911,
$1*%
G04 Aperture macros list end*
G04 #@! TA.AperFunction,ComponentPad*
%ADD10C,1.600000*%
G04 #@! TD*
G04 #@! TA.AperFunction,ComponentPad*
%ADD11R,1.600000X1.600000*%
G04 #@! TD*
G04 #@! TA.AperFunction,ComponentPad*
%ADD12R,1.600000X2.400000*%
G04 #@! TD*
G04 #@! TA.AperFunction,ComponentPad*
%ADD13O,1.600000X2.400000*%
G04 #@! TD*
G04 #@! TA.AperFunction,ComponentPad*
%ADD14HorizOval,1.600000X0.000000X0.000000X0.000000X0.000000X0*%
G04 #@! TD*
G04 #@! TA.AperFunction,ComponentPad*
%ADD15R,1.700000X1.700000*%
G04 #@! TD*
G04 #@! TA.AperFunction,ComponentPad*
%ADD16O,1.700000X1.700000*%
G04 #@! TD*
G04 #@! TA.AperFunction,ComponentPad*
%ADD17C,1.700000*%
G04 #@! TD*
G04 #@! TA.AperFunction,ComponentPad*
%ADD18C,4.000000*%
G04 #@! TD*
G04 #@! TA.AperFunction,ComponentPad*
%ADD19R,2.400000X1.600000*%
G04 #@! TD*
G04 #@! TA.AperFunction,ComponentPad*
%ADD20O,2.400000X1.600000*%
G04 #@! TD*
G04 #@! TA.AperFunction,ComponentPad*
%ADD21O,1.600000X1.600000*%
G04 #@! TD*
G04 #@! TA.AperFunction,ComponentPad*
%ADD22R,1.100000X1.800000*%
G04 #@! TD*
G04 #@! TA.AperFunction,ComponentPad*
%ADD23RoundRect,0.275000X0.275000X0.625000X-0.275000X0.625000X-0.275000X-0.625000X0.275000X-0.625000X0*%
G04 #@! TD*
G04 #@! TA.AperFunction,SMDPad,CuDef*
%ADD24FreePoly0,180.000000*%
G04 #@! TD*
G04 #@! TA.AperFunction,SMDPad,CuDef*
%ADD25FreePoly1,180.000000*%
G04 #@! TD*
G04 #@! TA.AperFunction,ComponentPad*
%ADD26HorizOval,1.600000X0.000000X0.000000X0.000000X0.000000X0*%
G04 #@! TD*
G04 #@! TA.AperFunction,SMDPad,CuDef*
%ADD27FreePoly0,90.000000*%
G04 #@! TD*
G04 #@! TA.AperFunction,SMDPad,CuDef*
%ADD28FreePoly1,90.000000*%
G04 #@! TD*
G04 #@! TA.AperFunction,SMDPad,CuDef*
%ADD29FreePoly0,270.000000*%
G04 #@! TD*
G04 #@! TA.AperFunction,SMDPad,CuDef*
%ADD30FreePoly1,270.000000*%
G04 #@! TD*
G04 #@! TA.AperFunction,SMDPad,CuDef*
%ADD31R,1.500000X5.080000*%
G04 #@! TD*
G04 #@! TA.AperFunction,ViaPad*
%ADD32C,1.000000*%
G04 #@! TD*
G04 #@! TA.AperFunction,ViaPad*
%ADD33C,0.800000*%
G04 #@! TD*
G04 #@! TA.AperFunction,Conductor*
%ADD34C,0.500000*%
G04 #@! TD*
G04 #@! TA.AperFunction,Conductor*
%ADD35C,0.400000*%
G04 #@! TD*
G04 APERTURE END LIST*
D10*
X77109466Y-99420534D03*
X80645000Y-95885000D03*
D11*
X45766974Y-108321974D03*
D10*
X49266974Y-108321974D03*
D12*
X62855000Y-78750000D03*
D13*
X60315000Y-78750000D03*
X57775000Y-78750000D03*
X55235000Y-78750000D03*
X55235000Y-86370000D03*
X57775000Y-86370000D03*
X60315000Y-86370000D03*
X62855000Y-86370000D03*
D10*
X149225000Y-63500000D03*
X149225000Y-58500000D03*
X63935795Y-71555795D03*
D14*
X71120000Y-78740000D03*
D15*
X65840795Y-61595000D03*
D16*
X65840795Y-64135000D03*
D10*
X70282855Y-65188434D03*
D14*
X77467060Y-72372639D03*
D11*
X123444000Y-65024000D03*
D10*
X123444000Y-61524000D03*
D15*
X36825000Y-64775000D03*
D16*
X34285000Y-64775000D03*
X36825000Y-67315000D03*
X34285000Y-67315000D03*
X36825000Y-69855000D03*
X34285000Y-69855000D03*
X36825000Y-72395000D03*
X34285000Y-72395000D03*
X36825000Y-74935000D03*
X34285000Y-74935000D03*
X36825000Y-77475000D03*
X34285000Y-77475000D03*
X36825000Y-80015000D03*
X34285000Y-80015000D03*
X36825000Y-82555000D03*
X34285000Y-82555000D03*
X36825000Y-85095000D03*
X34285000Y-85095000D03*
X36825000Y-87635000D03*
X34285000Y-87635000D03*
X36825000Y-90175000D03*
X34285000Y-90175000D03*
X36825000Y-92715000D03*
X34285000Y-92715000D03*
X36825000Y-95255000D03*
X34285000Y-95255000D03*
X36825000Y-97795000D03*
X34285000Y-97795000D03*
X36825000Y-100335000D03*
X34285000Y-100335000D03*
D10*
X136471680Y-69850000D03*
X131471680Y-69850000D03*
D15*
X66040000Y-103505000D03*
D16*
X66040000Y-100965000D03*
D10*
X51435000Y-85050000D03*
X51435000Y-80050000D03*
D17*
X85418946Y-100521929D03*
X83622895Y-102317980D03*
X87214997Y-102317980D03*
X85418946Y-104114031D03*
X89011048Y-104114031D03*
X87214997Y-105910082D03*
D15*
X41905000Y-64775000D03*
D16*
X44445000Y-64775000D03*
X41905000Y-67315000D03*
X44445000Y-67315000D03*
X41905000Y-69855000D03*
X44445000Y-69855000D03*
X41905000Y-72395000D03*
X44445000Y-72395000D03*
X41905000Y-74935000D03*
X44445000Y-74935000D03*
X41905000Y-77475000D03*
X44445000Y-77475000D03*
X41905000Y-80015000D03*
X44445000Y-80015000D03*
X41905000Y-82555000D03*
X44445000Y-82555000D03*
X41905000Y-85095000D03*
X44445000Y-85095000D03*
X41905000Y-87635000D03*
X44445000Y-87635000D03*
X41905000Y-90175000D03*
X44445000Y-90175000D03*
X41905000Y-92715000D03*
X44445000Y-92715000D03*
X41905000Y-95255000D03*
X44445000Y-95255000D03*
X41905000Y-97795000D03*
X44445000Y-97795000D03*
X41905000Y-100335000D03*
X44445000Y-100335000D03*
D18*
X146050000Y-52070000D03*
D19*
X137205062Y-91440000D03*
D20*
X137205062Y-88900000D03*
X137205062Y-86360000D03*
X137205062Y-83820000D03*
X137205062Y-81280000D03*
X137205062Y-78740000D03*
X137205062Y-76200000D03*
X137205062Y-73660000D03*
X129585062Y-73660000D03*
X129585062Y-76200000D03*
X129585062Y-78740000D03*
X129585062Y-81280000D03*
X129585062Y-83820000D03*
X129585062Y-86360000D03*
X129585062Y-88900000D03*
X129585062Y-91440000D03*
D10*
X148590000Y-83820000D03*
D21*
X148590000Y-93980000D03*
D22*
X144780000Y-96755000D03*
D23*
X143510000Y-98825000D03*
X142240000Y-96755000D03*
D24*
X52705000Y-97536000D03*
D25*
X51405000Y-97536000D03*
D17*
X122118533Y-71011052D03*
X120322482Y-72807103D03*
X118526430Y-71011052D03*
X116730379Y-69215000D03*
X120322482Y-69215000D03*
X118526430Y-67418949D03*
D18*
X99060000Y-104611732D03*
X76998268Y-82550000D03*
X99060000Y-60488268D03*
X121121732Y-82550000D03*
D24*
X52720000Y-100584000D03*
D25*
X51420000Y-100584000D03*
D10*
X139065000Y-65405001D03*
D21*
X139065000Y-55245001D03*
D10*
X130810000Y-52070000D03*
D21*
X140970000Y-52070000D03*
D15*
X60960000Y-114934999D03*
D16*
X60960000Y-112394999D03*
X60960000Y-109854999D03*
D22*
X144780000Y-83420000D03*
D23*
X143510000Y-85490000D03*
X142240000Y-83420000D03*
D10*
X70759466Y-93070534D03*
X74295000Y-89535000D03*
D17*
X88990291Y-60960707D03*
X87194240Y-59164656D03*
X87194240Y-62756758D03*
X85398189Y-60960707D03*
X85398189Y-64552809D03*
X83602138Y-62756758D03*
D10*
X70285795Y-99894205D03*
D26*
X77470000Y-92710000D03*
D22*
X144780000Y-69450000D03*
D23*
X143510000Y-71520000D03*
X142240000Y-69450000D03*
D22*
X144780000Y-61830000D03*
D23*
X143510000Y-63900000D03*
X142240000Y-61830000D03*
D27*
X57785000Y-75580000D03*
D28*
X57785000Y-74280000D03*
D15*
X75565000Y-111760000D03*
D16*
X75565000Y-109220000D03*
X75565000Y-106680000D03*
D10*
X63935795Y-93544205D03*
D26*
X71120000Y-86360000D03*
D17*
X118490022Y-97677615D03*
X116693971Y-95881564D03*
X118490022Y-94085512D03*
X120286074Y-92289461D03*
X120286074Y-95881564D03*
X122082125Y-94085512D03*
D15*
X62230000Y-103505000D03*
D16*
X62230000Y-100965000D03*
D11*
X36957000Y-108458000D03*
D10*
X40457000Y-108458000D03*
X66675000Y-85050000D03*
X66675000Y-80050000D03*
X148590000Y-69850001D03*
D21*
X148590000Y-80010001D03*
D29*
X55245000Y-89520000D03*
D30*
X55245000Y-90820000D03*
D10*
X148590000Y-97155000D03*
D21*
X148590000Y-107315000D03*
D15*
X62230000Y-61595000D03*
D16*
X62230000Y-64135000D03*
D10*
X70758958Y-72024002D03*
X74294492Y-75559536D03*
D11*
X122555000Y-101600000D03*
D10*
X126055000Y-101600000D03*
D15*
X56515000Y-114935000D03*
D16*
X56515000Y-112395000D03*
X56515000Y-109855000D03*
D15*
X139065000Y-109855000D03*
D16*
X139065000Y-107315000D03*
X139065000Y-104775000D03*
D18*
X146050000Y-113030000D03*
D10*
X77115869Y-65665869D03*
X80651403Y-69201403D03*
X131471680Y-94996000D03*
X136471680Y-94996000D03*
D31*
X50360000Y-49177500D03*
X58860000Y-49177500D03*
X89730000Y-49177500D03*
X98230000Y-49177500D03*
X70045000Y-49177500D03*
X78545000Y-49177500D03*
D32*
X51308000Y-89408000D03*
D33*
X59055000Y-51435000D03*
X55245000Y-93345000D03*
X54610000Y-97790000D03*
X132000000Y-59000000D03*
X49800000Y-66000000D03*
X69850000Y-51435000D03*
X149900000Y-99800000D03*
X82900000Y-58100000D03*
X83300000Y-97400000D03*
X71800000Y-104500000D03*
X57500000Y-94200000D03*
X34300000Y-102800000D03*
X145000000Y-77300000D03*
X53400000Y-77800000D03*
X54610000Y-100330000D03*
X66300000Y-97000000D03*
X58800000Y-115500000D03*
X34300000Y-62200000D03*
X138100000Y-67700000D03*
X42900000Y-117500000D03*
X143400000Y-103200000D03*
X127200000Y-90700000D03*
X98425000Y-51435000D03*
X91200000Y-112100000D03*
X66000000Y-68400000D03*
X131400000Y-101700000D03*
X127800000Y-53800000D03*
X64300000Y-58100000D03*
X59350000Y-94100000D03*
X89535000Y-51435000D03*
X57785000Y-72390000D03*
X113300000Y-117700000D03*
X150000000Y-66800000D03*
X50165000Y-51435000D03*
X140900000Y-87900000D03*
X93900000Y-82600000D03*
X59100000Y-84200000D03*
X78740000Y-51435000D03*
X121900000Y-59200000D03*
X78800000Y-63300000D03*
D34*
X71120000Y-78734028D02*
X74294492Y-75559536D01*
X74294492Y-75545207D02*
X77467060Y-72372639D01*
X71120000Y-78740000D02*
X62865000Y-78740000D01*
X77480167Y-72372639D02*
X80651403Y-69201403D01*
X54610000Y-99060000D02*
X45466000Y-99060000D01*
X58420000Y-102870000D02*
X54610000Y-99060000D01*
X36825000Y-97795000D02*
X41905000Y-97795000D01*
X60960000Y-112394999D02*
X58420000Y-109854999D01*
D35*
X43815000Y-99060000D02*
X45466000Y-99060000D01*
X42545000Y-97790000D02*
X43815000Y-99060000D01*
D34*
X58420000Y-109854999D02*
X58420000Y-102870000D01*
D35*
X42540000Y-99060000D02*
X43815000Y-100335000D01*
X34285000Y-100335000D02*
X35560000Y-99060000D01*
D34*
X44445000Y-100335000D02*
X51415000Y-100335000D01*
D35*
X35560000Y-99060000D02*
X42540000Y-99060000D01*
D34*
X118490022Y-94085512D02*
X120257789Y-94085512D01*
X128651000Y-93218000D02*
X135427062Y-93218000D01*
X135427062Y-93218000D02*
X137205062Y-91440000D01*
X126238000Y-95631000D02*
X128651000Y-93218000D01*
X121803277Y-95631000D02*
X126238000Y-95631000D01*
D35*
X120257789Y-94085512D02*
X121803277Y-95631000D01*
X36825000Y-82555000D02*
X41905000Y-82555000D01*
D34*
X137205062Y-83820000D02*
X142240000Y-83820000D01*
X133858000Y-87630000D02*
X135128000Y-86360000D01*
X124945535Y-87630000D02*
X120286074Y-92289461D01*
X135128000Y-86360000D02*
X137205062Y-86360000D01*
X124945535Y-87630000D02*
X133858000Y-87630000D01*
X132354000Y-82530000D02*
X125710000Y-82530000D01*
X137205062Y-81280000D02*
X133604000Y-81280000D01*
X133604000Y-81280000D02*
X132354000Y-82530000D01*
X125710000Y-82530000D02*
X116730379Y-73550379D01*
X116730379Y-73550379D02*
X116730379Y-69215000D01*
D35*
X36825000Y-80015000D02*
X41905000Y-80015000D01*
D34*
X120322482Y-74856482D02*
X126746000Y-81280000D01*
X126746000Y-81280000D02*
X129585062Y-81280000D01*
X120322482Y-72807103D02*
X120322482Y-74856482D01*
X125730000Y-83820000D02*
X130001680Y-83820000D01*
X116693971Y-92856029D02*
X125730000Y-83820000D01*
X116693971Y-95881564D02*
X116693971Y-92856029D01*
X135656000Y-82530000D02*
X139212000Y-82530000D01*
X131826000Y-86360000D02*
X135656000Y-82530000D01*
X139212000Y-82530000D02*
X142240000Y-79502000D01*
X129585062Y-86360000D02*
X131826000Y-86360000D01*
X142240000Y-79502000D02*
X142240000Y-69850000D01*
D35*
X36825000Y-77475000D02*
X41905000Y-77475000D01*
D34*
X142240000Y-93574938D02*
X138815062Y-90150000D01*
X138815062Y-90150000D02*
X130835062Y-90150000D01*
X142240000Y-97155000D02*
X142240000Y-93574938D01*
X130835062Y-90150000D02*
X129585062Y-88900000D01*
X142240000Y-55372000D02*
X140970000Y-54102000D01*
X143510000Y-71120000D02*
X143510000Y-85090000D01*
X143510000Y-71120000D02*
X143510000Y-63615000D01*
X140970000Y-54102000D02*
X140970000Y-52070000D01*
X149225000Y-63500000D02*
X143510000Y-63500000D01*
X143510000Y-63500000D02*
X142240000Y-62230000D01*
X143510000Y-98425000D02*
X143510000Y-85090000D01*
X142240000Y-62230000D02*
X142240000Y-55372000D01*
D35*
X43170000Y-63500000D02*
X44445000Y-64775000D01*
X35560000Y-63500000D02*
X43170000Y-63500000D01*
D34*
X125349000Y-53848000D02*
X129585062Y-58084062D01*
X129585062Y-58084062D02*
X129585062Y-73660000D01*
X55372000Y-53848000D02*
X125349000Y-53848000D01*
D35*
X34285000Y-64775000D02*
X35560000Y-63500000D01*
D34*
X44445000Y-64775000D02*
X55372000Y-53848000D01*
D35*
X35560000Y-66040000D02*
X43170000Y-66040000D01*
D34*
X127762000Y-74376938D02*
X127762000Y-58420000D01*
D35*
X43170000Y-66040000D02*
X44445000Y-67315000D01*
D34*
X124714000Y-55372000D02*
X56388000Y-55372000D01*
X56388000Y-55372000D02*
X44445000Y-67315000D01*
X129585062Y-76200000D02*
X127762000Y-74376938D01*
D35*
X34285000Y-67315000D02*
X35560000Y-66040000D01*
D34*
X127762000Y-58420000D02*
X124714000Y-55372000D01*
X125984000Y-75138938D02*
X129585062Y-78740000D01*
X125984000Y-58801000D02*
X125984000Y-75138938D01*
X57450000Y-56850000D02*
X124033000Y-56850000D01*
X124033000Y-56850000D02*
X125984000Y-58801000D01*
D35*
X34285000Y-69855000D02*
X35560000Y-68580000D01*
X35560000Y-68580000D02*
X43170000Y-68580000D01*
D34*
X44445000Y-69855000D02*
X57450000Y-56850000D01*
D35*
X43170000Y-68580000D02*
X44445000Y-69855000D01*
X36825000Y-69855000D02*
X41905000Y-69855000D01*
X36825000Y-72395000D02*
X41905000Y-72395000D01*
X36825000Y-64775000D02*
X41905000Y-64775000D01*
X36825000Y-67315000D02*
X41905000Y-67315000D01*
D34*
X71120000Y-86360000D02*
X74295000Y-89535000D01*
X62445000Y-88500000D02*
X68980000Y-88500000D01*
X77470000Y-92710000D02*
X80645000Y-95885000D01*
X74295000Y-89535000D02*
X77470000Y-92710000D01*
X68980000Y-88500000D02*
X71120000Y-86360000D01*
X60315000Y-86370000D02*
X62445000Y-88500000D01*
X64404002Y-72024002D02*
X63935795Y-71555795D01*
X70758958Y-72024002D02*
X64404002Y-72024002D01*
X62230000Y-69850000D02*
X62230000Y-64135000D01*
X63935795Y-71555795D02*
X62230000Y-69850000D01*
X66894229Y-65188434D02*
X65840795Y-64135000D01*
X77115869Y-65665869D02*
X70760290Y-65665869D01*
X70282855Y-65188434D02*
X66894229Y-65188434D01*
X70760290Y-65665869D02*
X70282855Y-65188434D01*
X70176205Y-93544205D02*
X70231000Y-93599000D01*
X62230000Y-95250000D02*
X62230000Y-100965000D01*
X63935795Y-93544205D02*
X62230000Y-95250000D01*
X63935795Y-93544205D02*
X70176205Y-93544205D01*
D35*
X34285000Y-72395000D02*
X35560000Y-71120000D01*
X35560000Y-71120000D02*
X43170000Y-71120000D01*
X43170000Y-71120000D02*
X44445000Y-72395000D01*
D34*
X80907082Y-61595000D02*
X83337426Y-59164656D01*
X83337426Y-59164656D02*
X87194240Y-59164656D01*
X60315000Y-63510000D02*
X62230000Y-61595000D01*
X60315000Y-78750000D02*
X60315000Y-63510000D01*
X65840795Y-61595000D02*
X62230000Y-61595000D01*
X65840795Y-61595000D02*
X80907082Y-61595000D01*
X88989584Y-60960000D02*
X87193533Y-59163949D01*
X62230000Y-103505000D02*
X60325000Y-101600000D01*
X85417946Y-100521929D02*
X83621895Y-102317980D01*
X60325000Y-101600000D02*
X60325000Y-88900000D01*
X60325000Y-88900000D02*
X57795000Y-86370000D01*
X67227020Y-102317980D02*
X83622895Y-102317980D01*
X62230000Y-103505000D02*
X66040000Y-103505000D01*
X66040000Y-103505000D02*
X67227020Y-102317980D01*
X144780000Y-69850000D02*
X148590000Y-69850001D01*
X148590000Y-97155000D02*
X144780000Y-97155000D01*
X144780000Y-83820000D02*
X148590000Y-83820000D01*
D35*
X36825000Y-74935000D02*
X41905000Y-74935000D01*
X34285000Y-74935000D02*
X35560000Y-73660000D01*
X35560000Y-73660000D02*
X43170000Y-73660000D01*
X43170000Y-73660000D02*
X44445000Y-74935000D01*
X34285000Y-77475000D02*
X35560000Y-76200000D01*
X35560000Y-76200000D02*
X43170000Y-76200000D01*
X43170000Y-76200000D02*
X44445000Y-77475000D01*
X43170000Y-78740000D02*
X44445000Y-80015000D01*
X34285000Y-80015000D02*
X35560000Y-78740000D01*
X35560000Y-78740000D02*
X43170000Y-78740000D01*
X35560000Y-81280000D02*
X43170000Y-81280000D01*
X43170000Y-81280000D02*
X44445000Y-82555000D01*
X34285000Y-82555000D02*
X35560000Y-81280000D01*
X36825000Y-85095000D02*
X41905000Y-85095000D01*
X35560000Y-83820000D02*
X43170000Y-83820000D01*
X43170000Y-83820000D02*
X44445000Y-85095000D01*
X34285000Y-85095000D02*
X35560000Y-83820000D01*
X36825000Y-90175000D02*
X41905000Y-90175000D01*
X34285000Y-90175000D02*
X35560000Y-88900000D01*
X43170000Y-88900000D02*
X44445000Y-90175000D01*
X35560000Y-88900000D02*
X43170000Y-88900000D01*
D34*
X41905000Y-100335000D02*
X45075000Y-103505000D01*
X47625000Y-103505000D02*
X56515000Y-112395000D01*
X45075000Y-103505000D02*
X47625000Y-103505000D01*
X36825000Y-100335000D02*
X41905000Y-100335000D01*
X89010048Y-104114031D02*
X89010048Y-68164668D01*
X83904079Y-109220000D02*
X75565000Y-109220000D01*
X83601431Y-62756051D02*
X85397482Y-64552102D01*
X87213997Y-105910082D02*
X89010048Y-104114031D01*
X87213997Y-105910082D02*
X83904079Y-109220000D01*
X85397482Y-64552102D02*
X89010048Y-68164668D01*
X57785000Y-74280000D02*
X57785000Y-72390000D01*
X55245000Y-90820000D02*
X55245000Y-93345000D01*
D35*
X52720000Y-100330000D02*
X54610000Y-100330000D01*
X52705000Y-97790000D02*
X54610000Y-97790000D01*
X35560000Y-96520000D02*
X43170000Y-96520000D01*
D34*
X44445000Y-97795000D02*
X51400000Y-97795000D01*
D35*
X43170000Y-96520000D02*
X44445000Y-97795000D01*
X34285000Y-97795000D02*
X35560000Y-96520000D01*
D34*
X67110795Y-99894205D02*
X66040000Y-100965000D01*
X77109466Y-99420534D02*
X70759466Y-99420534D01*
X70285795Y-99894205D02*
X67110795Y-99894205D01*
X70759466Y-99420534D02*
X70285795Y-99894205D01*
X57775000Y-78750000D02*
X57775000Y-75590000D01*
X55245000Y-89520000D02*
X55245000Y-86380000D01*
G04 #@! TA.AperFunction,Conductor*
G36*
X137919299Y-83086017D02*
G01*
X138169979Y-83244716D01*
X138428750Y-83375537D01*
X138687520Y-83473358D01*
X138687528Y-83473360D01*
X138946285Y-83538178D01*
X138946288Y-83538178D01*
X138946291Y-83538179D01*
X139194791Y-83568737D01*
X139202583Y-83573147D01*
X139205062Y-83580349D01*
X139205062Y-84059650D01*
X139201635Y-84067923D01*
X139194790Y-84071263D01*
X138946285Y-84101820D01*
X138687528Y-84166638D01*
X138687515Y-84166642D01*
X138428761Y-84264457D01*
X138428754Y-84264460D01*
X138428750Y-84264462D01*
X138179821Y-84390307D01*
X138169975Y-84395285D01*
X137919300Y-84553981D01*
X137910477Y-84555510D01*
X137904588Y-84552183D01*
X137211800Y-83828088D01*
X137208557Y-83819742D01*
X137211800Y-83811912D01*
X137440242Y-83573147D01*
X137904588Y-83087815D01*
X137912784Y-83084207D01*
X137919299Y-83086017D01*
G37*
G04 #@! TD.AperFunction*
G04 #@! TA.AperFunction,Conductor*
G36*
X142489652Y-95308427D02*
G01*
X142492554Y-95313234D01*
X142545813Y-95484952D01*
X142601626Y-95646904D01*
X142657442Y-95790862D01*
X142713250Y-95916803D01*
X142713253Y-95916809D01*
X142744448Y-95977146D01*
X142766422Y-96019647D01*
X142767178Y-96028569D01*
X142766627Y-96029977D01*
X142250598Y-97133339D01*
X142243989Y-97139381D01*
X142235043Y-97138980D01*
X142229402Y-97133339D01*
X141713372Y-96029977D01*
X141712971Y-96021031D01*
X141713574Y-96019653D01*
X141766746Y-95916809D01*
X141766749Y-95916803D01*
X141822557Y-95790862D01*
X141878373Y-95646904D01*
X141934186Y-95484952D01*
X141987446Y-95313234D01*
X141993170Y-95306347D01*
X141998621Y-95305000D01*
X142481379Y-95305000D01*
X142489652Y-95308427D01*
G37*
G04 #@! TD.AperFunction*
G04 #@! TA.AperFunction,Conductor*
G36*
X86873436Y-58390195D02*
G01*
X86873740Y-58390866D01*
X87193374Y-59160167D01*
X87193383Y-59169122D01*
X87193374Y-59169145D01*
X86873740Y-59938446D01*
X86867401Y-59944771D01*
X86858446Y-59944762D01*
X86857775Y-59944457D01*
X86535398Y-59786028D01*
X86534857Y-59785726D01*
X86303094Y-59639584D01*
X86100532Y-59521785D01*
X86100523Y-59521781D01*
X85855035Y-59443227D01*
X85855037Y-59443227D01*
X85505016Y-59415509D01*
X85497040Y-59411440D01*
X85494240Y-59403846D01*
X85494240Y-58925465D01*
X85497667Y-58917192D01*
X85505014Y-58913802D01*
X85855038Y-58886083D01*
X86100530Y-58807527D01*
X86303094Y-58689727D01*
X86534858Y-58543583D01*
X86535385Y-58543289D01*
X86857775Y-58384853D01*
X86866711Y-58384281D01*
X86873436Y-58390195D01*
G37*
G04 #@! TD.AperFunction*
G04 #@! TA.AperFunction,Conductor*
G36*
X75248189Y-74253344D02*
G01*
X75586397Y-74591552D01*
X75589824Y-74599825D01*
X75587017Y-74607428D01*
X75373175Y-74857524D01*
X75261558Y-75072282D01*
X75204334Y-75284524D01*
X75146703Y-75535008D01*
X75146537Y-75535590D01*
X75037625Y-75853905D01*
X75031704Y-75860623D01*
X75022767Y-75861187D01*
X75022090Y-75860932D01*
X74298279Y-75562098D01*
X74291940Y-75555773D01*
X74291929Y-75555748D01*
X73993068Y-74831872D01*
X73993079Y-74822917D01*
X73999418Y-74816592D01*
X74000033Y-74816359D01*
X74315969Y-74706265D01*
X74316426Y-74706128D01*
X74563757Y-74644511D01*
X74772600Y-74582482D01*
X74984317Y-74467171D01*
X75232265Y-74252766D01*
X75240763Y-74249948D01*
X75248189Y-74253344D01*
G37*
G04 #@! TD.AperFunction*
G04 #@! TA.AperFunction,Conductor*
G36*
X70202067Y-92513222D02*
G01*
X70203034Y-92514086D01*
X70757025Y-93067099D01*
X70760459Y-93075369D01*
X70760459Y-93075394D01*
X70759480Y-93858584D01*
X70756043Y-93866852D01*
X70747765Y-93870269D01*
X70747518Y-93870266D01*
X70635627Y-93867758D01*
X70405374Y-93862598D01*
X70405097Y-93862584D01*
X70154200Y-93843666D01*
X69937564Y-93821072D01*
X69937564Y-93821071D01*
X69686532Y-93802143D01*
X69343737Y-93794461D01*
X69335543Y-93790850D01*
X69332299Y-93782764D01*
X69332299Y-93304233D01*
X69335726Y-93295960D01*
X69342208Y-93292671D01*
X69606574Y-93251769D01*
X69768948Y-93135325D01*
X69880333Y-92961162D01*
X70001179Y-92746390D01*
X70002226Y-92744838D01*
X70185626Y-92515065D01*
X70193463Y-92510739D01*
X70202067Y-92513222D01*
G37*
G04 #@! TD.AperFunction*
G04 #@! TA.AperFunction,Conductor*
G36*
X63087976Y-60753569D02*
G01*
X63088241Y-60753844D01*
X63166386Y-60837701D01*
X63249990Y-60927416D01*
X63249995Y-60927420D01*
X63249999Y-60927425D01*
X63419999Y-61078638D01*
X63590000Y-61198638D01*
X63760000Y-61287425D01*
X63922052Y-61342308D01*
X63928789Y-61348208D01*
X63929999Y-61353390D01*
X63929999Y-61836609D01*
X63926572Y-61844882D01*
X63922052Y-61847691D01*
X63760000Y-61902574D01*
X63759996Y-61902576D01*
X63589999Y-61991361D01*
X63420002Y-62111358D01*
X63250008Y-62262565D01*
X63249990Y-62262582D01*
X63088258Y-62436138D01*
X63080110Y-62439855D01*
X63071722Y-62436722D01*
X63071430Y-62436440D01*
X62237287Y-61603277D01*
X62233855Y-61595006D01*
X62237275Y-61586733D01*
X63071431Y-60753558D01*
X63079705Y-60750137D01*
X63087976Y-60753569D01*
G37*
G04 #@! TD.AperFunction*
G04 #@! TA.AperFunction,Conductor*
G36*
X145338227Y-69307180D02*
G01*
X145439999Y-69396000D01*
X145549999Y-69474000D01*
X145550001Y-69474001D01*
X145659995Y-69533998D01*
X145660007Y-69534003D01*
X145769999Y-69576000D01*
X145769998Y-69576000D01*
X145849582Y-69593364D01*
X145870793Y-69597992D01*
X145878146Y-69603104D01*
X145879999Y-69609423D01*
X145879999Y-70089694D01*
X145876572Y-70097967D01*
X145869776Y-70101300D01*
X145770011Y-70113996D01*
X145769995Y-70113999D01*
X145660001Y-70145997D01*
X145660000Y-70145998D01*
X145550007Y-70195996D01*
X145550003Y-70195997D01*
X145549999Y-70196000D01*
X145549990Y-70196005D01*
X145549991Y-70196005D01*
X145440011Y-70263991D01*
X145439989Y-70264007D01*
X145337766Y-70343927D01*
X145329138Y-70346323D01*
X145322698Y-70343374D01*
X145043143Y-70089694D01*
X144788103Y-69858260D01*
X144784280Y-69850164D01*
X144787302Y-69841735D01*
X144787685Y-69841330D01*
X145322271Y-69307714D01*
X145330547Y-69304296D01*
X145338227Y-69307180D01*
G37*
G04 #@! TD.AperFunction*
G04 #@! TA.AperFunction,Conductor*
G36*
X54461428Y-97431248D02*
G01*
X54461495Y-97431405D01*
X54609123Y-97785498D01*
X54609144Y-97794452D01*
X54609123Y-97794502D01*
X54461495Y-98148594D01*
X54455148Y-98154912D01*
X54446194Y-98154891D01*
X54446037Y-98154824D01*
X54303116Y-98092780D01*
X54192063Y-98044592D01*
X54192046Y-98044586D01*
X54093198Y-98012827D01*
X53976035Y-97995349D01*
X53976020Y-97995347D01*
X53821323Y-97990364D01*
X53813165Y-97986672D01*
X53810000Y-97978670D01*
X53810000Y-97601329D01*
X53813427Y-97593056D01*
X53821322Y-97589635D01*
X53976027Y-97584651D01*
X54093200Y-97567171D01*
X54192052Y-97535410D01*
X54303116Y-97487219D01*
X54446038Y-97425174D01*
X54454990Y-97425024D01*
X54461428Y-97431248D01*
G37*
G04 #@! TD.AperFunction*
G04 #@! TA.AperFunction,Conductor*
G36*
X41584190Y-66540552D02*
G01*
X41584562Y-66541358D01*
X41904134Y-67310511D01*
X41904143Y-67319466D01*
X41904134Y-67319489D01*
X41584562Y-68088641D01*
X41578223Y-68094966D01*
X41569268Y-68094957D01*
X41568462Y-68094585D01*
X41243783Y-67929824D01*
X41243110Y-67929424D01*
X41012806Y-67770768D01*
X40812855Y-67638688D01*
X40669687Y-67585784D01*
X40568582Y-67548424D01*
X40215629Y-67515977D01*
X40207704Y-67511807D01*
X40205000Y-67504326D01*
X40205000Y-67125673D01*
X40208427Y-67117400D01*
X40215626Y-67114023D01*
X40568584Y-67081574D01*
X40812855Y-66991311D01*
X41012806Y-66859230D01*
X41243121Y-66700566D01*
X41243766Y-66700183D01*
X41568463Y-66535413D01*
X41577391Y-66534726D01*
X41584190Y-66540552D01*
G37*
G04 #@! TD.AperFunction*
G04 #@! TA.AperFunction,Conductor*
G36*
X121319022Y-90918246D02*
G01*
X121657288Y-91256512D01*
X121660715Y-91264785D01*
X121657915Y-91272379D01*
X121430011Y-91539482D01*
X121430010Y-91539482D01*
X121311972Y-91768614D01*
X121311970Y-91768619D01*
X121252033Y-91995150D01*
X121191492Y-92262360D01*
X121191324Y-92262956D01*
X121075393Y-92602947D01*
X121069479Y-92609671D01*
X121060543Y-92610245D01*
X121059853Y-92609985D01*
X120289859Y-92292023D01*
X120283521Y-92285699D01*
X119965549Y-91515680D01*
X119965558Y-91506726D01*
X119971897Y-91500401D01*
X119972576Y-91500145D01*
X120312580Y-91384207D01*
X120313172Y-91384041D01*
X120580383Y-91323500D01*
X120580382Y-91323499D01*
X120806915Y-91263563D01*
X120958048Y-91185705D01*
X121036051Y-91145523D01*
X121036051Y-91145522D01*
X121036052Y-91145522D01*
X121303156Y-90917618D01*
X121311673Y-90914856D01*
X121319022Y-90918246D01*
G37*
G04 #@! TD.AperFunction*
G04 #@! TA.AperFunction,Conductor*
G36*
X130299299Y-85626017D02*
G01*
X130549979Y-85784716D01*
X130808750Y-85915537D01*
X131067520Y-86013358D01*
X131067528Y-86013360D01*
X131326285Y-86078178D01*
X131326288Y-86078178D01*
X131326291Y-86078179D01*
X131574791Y-86108737D01*
X131582583Y-86113147D01*
X131585062Y-86120349D01*
X131585062Y-86599650D01*
X131581635Y-86607923D01*
X131574790Y-86611263D01*
X131326285Y-86641820D01*
X131067528Y-86706638D01*
X131067515Y-86706642D01*
X130808761Y-86804457D01*
X130808754Y-86804460D01*
X130808750Y-86804462D01*
X130559821Y-86930307D01*
X130549975Y-86935285D01*
X130299300Y-87093981D01*
X130290477Y-87095510D01*
X130284588Y-87092183D01*
X129591800Y-86368088D01*
X129588557Y-86359742D01*
X129591800Y-86351912D01*
X129820242Y-86113147D01*
X130284588Y-85627815D01*
X130292784Y-85624207D01*
X130299299Y-85626017D01*
G37*
G04 #@! TD.AperFunction*
G04 #@! TA.AperFunction,Conductor*
G36*
X64252473Y-92810246D02*
G01*
X64253101Y-92810529D01*
X64555213Y-92957475D01*
X64555711Y-92957747D01*
X64774226Y-93091601D01*
X64965605Y-93198264D01*
X64965610Y-93198266D01*
X65196992Y-93268745D01*
X65196995Y-93268745D01*
X65196997Y-93268746D01*
X65524973Y-93293391D01*
X65532965Y-93297428D01*
X65535795Y-93305058D01*
X65535795Y-93783351D01*
X65532368Y-93791624D01*
X65524972Y-93795018D01*
X65196998Y-93819662D01*
X65196992Y-93819663D01*
X64965610Y-93890142D01*
X64965605Y-93890144D01*
X64774226Y-93996808D01*
X64555711Y-94130661D01*
X64555214Y-94130933D01*
X64253101Y-94277880D01*
X64244162Y-94278417D01*
X64237462Y-94272477D01*
X64237186Y-94271866D01*
X63936659Y-93548692D01*
X63936649Y-93539743D01*
X64237180Y-92816558D01*
X64243518Y-92810235D01*
X64252473Y-92810246D01*
G37*
G04 #@! TD.AperFunction*
G04 #@! TA.AperFunction,Conductor*
G36*
X141697645Y-52371385D02*
G01*
X141703969Y-52377723D01*
X141703958Y-52386678D01*
X141703675Y-52387306D01*
X141556728Y-52689419D01*
X141556456Y-52689916D01*
X141422603Y-52908431D01*
X141315939Y-53099810D01*
X141315937Y-53099815D01*
X141245458Y-53331197D01*
X141245457Y-53331203D01*
X141220813Y-53659177D01*
X141216776Y-53667170D01*
X141209146Y-53670000D01*
X140730854Y-53670000D01*
X140722581Y-53666573D01*
X140719187Y-53659177D01*
X140694541Y-53331203D01*
X140694540Y-53331197D01*
X140624061Y-53099815D01*
X140624059Y-53099810D01*
X140517396Y-52908431D01*
X140383542Y-52689916D01*
X140383270Y-52689418D01*
X140236324Y-52387306D01*
X140235787Y-52378367D01*
X140241727Y-52371667D01*
X140242325Y-52371397D01*
X140965512Y-52070864D01*
X140974461Y-52070854D01*
X141697645Y-52371385D01*
G37*
G04 #@! TD.AperFunction*
G04 #@! TA.AperFunction,Conductor*
G36*
X76739425Y-72071227D02*
G01*
X77463272Y-72370076D01*
X77469611Y-72376401D01*
X77469622Y-72376426D01*
X77768471Y-73100272D01*
X77768460Y-73109227D01*
X77762121Y-73115552D01*
X77761477Y-73115795D01*
X77443945Y-73225514D01*
X77443401Y-73225673D01*
X77194238Y-73285538D01*
X76983492Y-73345440D01*
X76770035Y-73459221D01*
X76520695Y-73673708D01*
X76512188Y-73676505D01*
X76504792Y-73673111D01*
X76166587Y-73334906D01*
X76163160Y-73326633D01*
X76165988Y-73319006D01*
X76380476Y-73069664D01*
X76494256Y-72856207D01*
X76554159Y-72645459D01*
X76614030Y-72396272D01*
X76614175Y-72395775D01*
X76723903Y-72078218D01*
X76729842Y-72071521D01*
X76738781Y-72070984D01*
X76739425Y-72071227D01*
G37*
G04 #@! TD.AperFunction*
G04 #@! TA.AperFunction,Conductor*
G36*
X54461428Y-99971248D02*
G01*
X54461495Y-99971405D01*
X54609123Y-100325498D01*
X54609144Y-100334452D01*
X54609123Y-100334502D01*
X54461495Y-100688594D01*
X54455148Y-100694912D01*
X54446194Y-100694891D01*
X54446037Y-100694824D01*
X54303116Y-100632780D01*
X54192063Y-100584592D01*
X54192046Y-100584586D01*
X54093198Y-100552827D01*
X53976035Y-100535349D01*
X53976020Y-100535347D01*
X53821323Y-100530364D01*
X53813165Y-100526672D01*
X53810000Y-100518670D01*
X53810000Y-100141329D01*
X53813427Y-100133056D01*
X53821322Y-100129635D01*
X53976027Y-100124651D01*
X54093200Y-100107171D01*
X54192052Y-100075410D01*
X54303116Y-100027219D01*
X54446038Y-99965174D01*
X54454990Y-99965024D01*
X54461428Y-99971248D01*
G37*
G04 #@! TD.AperFunction*
G04 #@! TA.AperFunction,Conductor*
G36*
X35353207Y-65979044D02*
G01*
X35620955Y-66246792D01*
X35624382Y-66255065D01*
X35621678Y-66262546D01*
X35395043Y-66535070D01*
X35286144Y-66771618D01*
X35286144Y-66771619D01*
X35238152Y-67006400D01*
X35187489Y-67281442D01*
X35187299Y-67282190D01*
X35074218Y-67628283D01*
X35068392Y-67635082D01*
X35059463Y-67635770D01*
X35058631Y-67635463D01*
X34288785Y-67317562D01*
X34282447Y-67311238D01*
X33964536Y-66541367D01*
X33964545Y-66532413D01*
X33970884Y-66526088D01*
X33971689Y-66525790D01*
X34317819Y-66412696D01*
X34318549Y-66412510D01*
X34593598Y-66361846D01*
X34828379Y-66313854D01*
X35064931Y-66204954D01*
X35337454Y-65978320D01*
X35346005Y-65975666D01*
X35353207Y-65979044D01*
G37*
G04 #@! TD.AperFunction*
G04 #@! TA.AperFunction,Conductor*
G36*
X35353207Y-98999044D02*
G01*
X35620955Y-99266792D01*
X35624382Y-99275065D01*
X35621678Y-99282546D01*
X35395043Y-99555070D01*
X35286144Y-99791619D01*
X35238152Y-100026400D01*
X35187489Y-100301442D01*
X35187299Y-100302190D01*
X35074218Y-100648283D01*
X35068392Y-100655082D01*
X35059463Y-100655770D01*
X35058631Y-100655463D01*
X34288785Y-100337562D01*
X34282447Y-100331238D01*
X33964536Y-99561367D01*
X33964545Y-99552413D01*
X33970884Y-99546088D01*
X33971689Y-99545790D01*
X34317819Y-99432696D01*
X34318549Y-99432510D01*
X34593598Y-99381846D01*
X34828379Y-99333854D01*
X35064931Y-99224954D01*
X35337454Y-98998320D01*
X35346005Y-98995666D01*
X35353207Y-98999044D01*
G37*
G04 #@! TD.AperFunction*
G04 #@! TA.AperFunction,Conductor*
G36*
X45477948Y-63403785D02*
G01*
X45816214Y-63742051D01*
X45819641Y-63750324D01*
X45816841Y-63757918D01*
X45588937Y-64025021D01*
X45588936Y-64025021D01*
X45470898Y-64254153D01*
X45470896Y-64254158D01*
X45410959Y-64480689D01*
X45350418Y-64747899D01*
X45350250Y-64748495D01*
X45234319Y-65088486D01*
X45228405Y-65095210D01*
X45219469Y-65095784D01*
X45218779Y-65095524D01*
X44448785Y-64777562D01*
X44442447Y-64771238D01*
X44124475Y-64001219D01*
X44124484Y-63992265D01*
X44130823Y-63985940D01*
X44131502Y-63985684D01*
X44471506Y-63869746D01*
X44472098Y-63869580D01*
X44739309Y-63809039D01*
X44965841Y-63749102D01*
X45116974Y-63671244D01*
X45194977Y-63631062D01*
X45194977Y-63631061D01*
X45194978Y-63631061D01*
X45462082Y-63403157D01*
X45470599Y-63400395D01*
X45477948Y-63403785D01*
G37*
G04 #@! TD.AperFunction*
G04 #@! TA.AperFunction,Conductor*
G36*
X65198279Y-102663278D02*
G01*
X65198570Y-102663560D01*
X66032712Y-103496722D01*
X66036144Y-103504992D01*
X66032722Y-103513267D01*
X66032712Y-103513277D01*
X65198569Y-104346440D01*
X65190294Y-104349862D01*
X65182023Y-104346430D01*
X65181759Y-104346156D01*
X65094530Y-104252551D01*
X65020008Y-104172582D01*
X65019990Y-104172565D01*
X64993040Y-104148593D01*
X64850000Y-104021361D01*
X64679999Y-103901361D01*
X64509999Y-103812574D01*
X64438691Y-103788424D01*
X64347947Y-103757691D01*
X64341210Y-103751791D01*
X64340000Y-103746609D01*
X64340000Y-103263390D01*
X64343427Y-103255117D01*
X64347945Y-103252309D01*
X64509999Y-103197425D01*
X64679999Y-103108638D01*
X64850000Y-102988638D01*
X65020000Y-102837425D01*
X65181742Y-102663860D01*
X65189890Y-102660145D01*
X65198279Y-102663278D01*
G37*
G04 #@! TD.AperFunction*
G04 #@! TA.AperFunction,Conductor*
G36*
X116941434Y-94184991D02*
G01*
X116944824Y-94192340D01*
X116972542Y-94542360D01*
X117051096Y-94787847D01*
X117051100Y-94787856D01*
X117168899Y-94990418D01*
X117315041Y-95222181D01*
X117315343Y-95222722D01*
X117473772Y-95545099D01*
X117474346Y-95554035D01*
X117468432Y-95560759D01*
X117467761Y-95561064D01*
X116698460Y-95880698D01*
X116689505Y-95880707D01*
X116689482Y-95880698D01*
X115920181Y-95561064D01*
X115913856Y-95554725D01*
X115913865Y-95545770D01*
X115914169Y-95545099D01*
X116072601Y-95222715D01*
X116072899Y-95222181D01*
X116219042Y-94990418D01*
X116336842Y-94787854D01*
X116415398Y-94542362D01*
X116443117Y-94192340D01*
X116447187Y-94184364D01*
X116454781Y-94181564D01*
X116933161Y-94181564D01*
X116941434Y-94184991D01*
G37*
G04 #@! TD.AperFunction*
G04 #@! TA.AperFunction,Conductor*
G36*
X84384872Y-62436242D02*
G01*
X84391197Y-62442581D01*
X84391457Y-62443271D01*
X84507388Y-62783260D01*
X84507556Y-62783856D01*
X84568097Y-63051067D01*
X84628034Y-63277598D01*
X84628036Y-63277603D01*
X84746075Y-63506735D01*
X84973979Y-63773839D01*
X84976742Y-63782357D01*
X84973352Y-63789706D01*
X84635086Y-64127972D01*
X84626813Y-64131399D01*
X84619219Y-64128599D01*
X84352115Y-63900695D01*
X84352115Y-63900694D01*
X84122983Y-63782656D01*
X84122982Y-63782655D01*
X84122979Y-63782654D01*
X83896447Y-63722717D01*
X83629236Y-63662176D01*
X83628640Y-63662008D01*
X83288651Y-63546077D01*
X83281927Y-63540163D01*
X83281353Y-63531227D01*
X83281605Y-63530555D01*
X83599576Y-62760541D01*
X83605897Y-62754206D01*
X84375918Y-62436233D01*
X84384872Y-62436242D01*
G37*
G04 #@! TD.AperFunction*
G04 #@! TA.AperFunction,Conductor*
G36*
X136505535Y-80547816D02*
G01*
X137198323Y-81271912D01*
X137201566Y-81280258D01*
X137198323Y-81288088D01*
X136505535Y-82012183D01*
X136497339Y-82015792D01*
X136490823Y-82013981D01*
X136240147Y-81855285D01*
X136240144Y-81855283D01*
X135981373Y-81724462D01*
X135981364Y-81724458D01*
X135981361Y-81724457D01*
X135722607Y-81626642D01*
X135722594Y-81626638D01*
X135463837Y-81561820D01*
X135215334Y-81531263D01*
X135207541Y-81526852D01*
X135205062Y-81519650D01*
X135205062Y-81040349D01*
X135208489Y-81032076D01*
X135215331Y-81028737D01*
X135463832Y-80998179D01*
X135463835Y-80998178D01*
X135463837Y-80998178D01*
X135592709Y-80965895D01*
X135722603Y-80933358D01*
X135981373Y-80835537D01*
X136240144Y-80704716D01*
X136490824Y-80546017D01*
X136499646Y-80544489D01*
X136505535Y-80547816D01*
G37*
G04 #@! TD.AperFunction*
G04 #@! TA.AperFunction,Conductor*
G36*
X145338227Y-83277180D02*
G01*
X145439999Y-83366000D01*
X145549999Y-83444000D01*
X145550001Y-83444001D01*
X145659995Y-83503998D01*
X145660007Y-83504003D01*
X145769999Y-83546000D01*
X145769998Y-83546000D01*
X145821468Y-83557229D01*
X145870794Y-83567991D01*
X145878146Y-83573102D01*
X145880000Y-83579422D01*
X145880000Y-84059694D01*
X145876573Y-84067967D01*
X145869777Y-84071300D01*
X145770012Y-84083996D01*
X145769996Y-84083999D01*
X145660002Y-84115997D01*
X145660001Y-84115998D01*
X145550007Y-84165996D01*
X145550003Y-84165997D01*
X145549999Y-84166000D01*
X145549990Y-84166005D01*
X145549991Y-84166005D01*
X145440011Y-84233991D01*
X145439989Y-84234007D01*
X145337766Y-84313927D01*
X145329138Y-84316323D01*
X145322698Y-84313374D01*
X144788102Y-83828260D01*
X144784279Y-83820164D01*
X144787301Y-83811735D01*
X144787684Y-83811331D01*
X145322271Y-83277714D01*
X145330547Y-83274296D01*
X145338227Y-83277180D01*
G37*
G04 #@! TD.AperFunction*
G04 #@! TA.AperFunction,Conductor*
G36*
X69984127Y-99165932D02*
G01*
X69984410Y-99166560D01*
X70284929Y-99889715D01*
X70284939Y-99898668D01*
X70284930Y-99898690D01*
X70284929Y-99898695D01*
X69984410Y-100621849D01*
X69978071Y-100628174D01*
X69969116Y-100628163D01*
X69968488Y-100627880D01*
X69666374Y-100480933D01*
X69665877Y-100480661D01*
X69447362Y-100346808D01*
X69255982Y-100240144D01*
X69255977Y-100240142D01*
X69024596Y-100169663D01*
X69024590Y-100169662D01*
X68696618Y-100145018D01*
X68688625Y-100140981D01*
X68685795Y-100133351D01*
X68685795Y-99655058D01*
X68689222Y-99646785D01*
X68696616Y-99643391D01*
X69024592Y-99618746D01*
X69024594Y-99618745D01*
X69024596Y-99618745D01*
X69255977Y-99548266D01*
X69255978Y-99548265D01*
X69255983Y-99548264D01*
X69447362Y-99441601D01*
X69665889Y-99307739D01*
X69666375Y-99307475D01*
X69968488Y-99160529D01*
X69977427Y-99159992D01*
X69984127Y-99165932D01*
G37*
G04 #@! TD.AperFunction*
G04 #@! TA.AperFunction,Conductor*
G36*
X64999074Y-60753278D02*
G01*
X64999365Y-60753560D01*
X65833507Y-61586722D01*
X65836939Y-61594993D01*
X65833517Y-61603268D01*
X65833507Y-61603278D01*
X64999364Y-62436440D01*
X64991089Y-62439862D01*
X64982818Y-62436430D01*
X64982554Y-62436156D01*
X64895325Y-62342551D01*
X64820803Y-62262582D01*
X64820785Y-62262565D01*
X64793835Y-62238593D01*
X64650795Y-62111361D01*
X64480794Y-61991361D01*
X64310794Y-61902574D01*
X64239486Y-61878424D01*
X64148742Y-61847691D01*
X64142005Y-61841791D01*
X64140795Y-61836609D01*
X64140795Y-61353390D01*
X64144222Y-61345117D01*
X64148740Y-61342309D01*
X64310794Y-61287425D01*
X64480794Y-61198638D01*
X64650795Y-61078638D01*
X64820795Y-60927425D01*
X64982537Y-60753860D01*
X64990685Y-60750145D01*
X64999074Y-60753278D01*
G37*
G04 #@! TD.AperFunction*
G04 #@! TA.AperFunction,Conductor*
G36*
X41584190Y-69080552D02*
G01*
X41584562Y-69081358D01*
X41904134Y-69850511D01*
X41904143Y-69859466D01*
X41904134Y-69859489D01*
X41584562Y-70628641D01*
X41578223Y-70634966D01*
X41569268Y-70634957D01*
X41568462Y-70634585D01*
X41243783Y-70469824D01*
X41243110Y-70469424D01*
X41012806Y-70310768D01*
X41012806Y-70310767D01*
X40812855Y-70178688D01*
X40669687Y-70125784D01*
X40568582Y-70088424D01*
X40215629Y-70055977D01*
X40207704Y-70051807D01*
X40205000Y-70044326D01*
X40205000Y-69665673D01*
X40208427Y-69657400D01*
X40215626Y-69654023D01*
X40568584Y-69621574D01*
X40812855Y-69531311D01*
X41012806Y-69399230D01*
X41243121Y-69240566D01*
X41243766Y-69240183D01*
X41568463Y-69075413D01*
X41577391Y-69074726D01*
X41584190Y-69080552D01*
G37*
G04 #@! TD.AperFunction*
G04 #@! TA.AperFunction,Conductor*
G36*
X83302091Y-101543519D02*
G01*
X83302395Y-101544190D01*
X83622029Y-102313491D01*
X83622038Y-102322446D01*
X83622029Y-102322469D01*
X83302395Y-103091770D01*
X83296056Y-103098095D01*
X83287101Y-103098086D01*
X83286430Y-103097781D01*
X82964053Y-102939352D01*
X82963512Y-102939050D01*
X82731749Y-102792908D01*
X82529187Y-102675109D01*
X82529178Y-102675105D01*
X82283690Y-102596551D01*
X82283692Y-102596551D01*
X81933671Y-102568833D01*
X81925695Y-102564764D01*
X81922895Y-102557170D01*
X81922895Y-102078789D01*
X81926322Y-102070516D01*
X81933669Y-102067126D01*
X82283693Y-102039407D01*
X82529185Y-101960851D01*
X82731749Y-101843051D01*
X82963513Y-101696907D01*
X82964040Y-101696613D01*
X83286430Y-101538177D01*
X83295366Y-101537605D01*
X83302091Y-101543519D01*
G37*
G04 #@! TD.AperFunction*
G04 #@! TA.AperFunction,Conductor*
G36*
X35353207Y-63439044D02*
G01*
X35620955Y-63706792D01*
X35624382Y-63715065D01*
X35621678Y-63722546D01*
X35395043Y-63995070D01*
X35286144Y-64231619D01*
X35238152Y-64466400D01*
X35187489Y-64741442D01*
X35187299Y-64742190D01*
X35074218Y-65088283D01*
X35068392Y-65095082D01*
X35059463Y-65095770D01*
X35058631Y-65095463D01*
X34288785Y-64777562D01*
X34282447Y-64771238D01*
X33964536Y-64001367D01*
X33964545Y-63992413D01*
X33970884Y-63986088D01*
X33971689Y-63985790D01*
X34317819Y-63872696D01*
X34318549Y-63872510D01*
X34593598Y-63821846D01*
X34828379Y-63773854D01*
X35064931Y-63664954D01*
X35337454Y-63438320D01*
X35346005Y-63435666D01*
X35353207Y-63439044D01*
G37*
G04 #@! TD.AperFunction*
G04 #@! TA.AperFunction,Conductor*
G36*
X78206588Y-92408599D02*
G01*
X78212913Y-92414938D01*
X78213156Y-92415582D01*
X78292990Y-92646624D01*
X78314644Y-92709293D01*
X78322875Y-92733112D01*
X78323033Y-92733652D01*
X78382899Y-92982820D01*
X78442802Y-93193568D01*
X78556583Y-93407025D01*
X78771069Y-93656365D01*
X78773866Y-93664871D01*
X78770472Y-93672267D01*
X78432267Y-94010472D01*
X78423994Y-94013899D01*
X78416365Y-94011069D01*
X78167025Y-93796583D01*
X77953568Y-93682802D01*
X77953567Y-93682801D01*
X77953566Y-93682801D01*
X77742820Y-93622899D01*
X77742819Y-93622898D01*
X77493652Y-93563033D01*
X77493117Y-93562876D01*
X77406624Y-93532990D01*
X77175582Y-93453156D01*
X77168882Y-93447216D01*
X77168345Y-93438277D01*
X77168577Y-93437659D01*
X77467438Y-92713785D01*
X77473762Y-92707448D01*
X77473764Y-92707446D01*
X78197635Y-92408588D01*
X78206588Y-92408599D01*
G37*
G04 #@! TD.AperFunction*
G04 #@! TA.AperFunction,Conductor*
G36*
X44780793Y-99554894D02*
G01*
X44781464Y-99555198D01*
X45103847Y-99713630D01*
X45104388Y-99713932D01*
X45336144Y-99860071D01*
X45538709Y-99977871D01*
X45784201Y-100056427D01*
X46134225Y-100084146D01*
X46142200Y-100088215D01*
X46145000Y-100095809D01*
X46145000Y-100574190D01*
X46141573Y-100582463D01*
X46134224Y-100585853D01*
X45784202Y-100613571D01*
X45538715Y-100692125D01*
X45538706Y-100692129D01*
X45336144Y-100809928D01*
X45104381Y-100956070D01*
X45103840Y-100956372D01*
X44781464Y-101114801D01*
X44772528Y-101115375D01*
X44765804Y-101109461D01*
X44765505Y-101108804D01*
X44445864Y-100339488D01*
X44445856Y-100330534D01*
X44445865Y-100330511D01*
X44765499Y-99561209D01*
X44771838Y-99554885D01*
X44780793Y-99554894D01*
G37*
G04 #@! TD.AperFunction*
G04 #@! TA.AperFunction,Conductor*
G36*
X43392545Y-81218320D02*
G01*
X43665068Y-81444954D01*
X43901619Y-81553854D01*
X44136400Y-81601846D01*
X44411445Y-81652510D01*
X44412183Y-81652698D01*
X44758284Y-81765782D01*
X44765082Y-81771607D01*
X44765770Y-81780536D01*
X44765463Y-81781368D01*
X44447562Y-82551214D01*
X44441237Y-82557553D01*
X44441214Y-82557562D01*
X43671368Y-82875463D01*
X43662413Y-82875454D01*
X43656088Y-82869115D01*
X43655788Y-82868301D01*
X43542698Y-82522183D01*
X43542510Y-82521445D01*
X43491846Y-82246400D01*
X43443854Y-82011619D01*
X43334954Y-81775068D01*
X43108320Y-81502545D01*
X43105666Y-81493994D01*
X43109043Y-81486793D01*
X43376793Y-81219043D01*
X43385065Y-81215617D01*
X43392545Y-81218320D01*
G37*
G04 #@! TD.AperFunction*
G04 #@! TA.AperFunction,Conductor*
G36*
X66622416Y-63814948D02*
G01*
X66628745Y-63821282D01*
X66629306Y-63823005D01*
X66706797Y-64143430D01*
X66707116Y-64145715D01*
X66719277Y-64451663D01*
X66738827Y-64704214D01*
X66738827Y-64704215D01*
X66738828Y-64704217D01*
X66841846Y-64875411D01*
X67095479Y-64936281D01*
X67102724Y-64941544D01*
X67104449Y-64947658D01*
X67104449Y-65426056D01*
X67101022Y-65434329D01*
X67092749Y-65437756D01*
X67092092Y-65437738D01*
X66693448Y-65415304D01*
X66691432Y-65415013D01*
X66407586Y-65348404D01*
X66405463Y-65347685D01*
X66167853Y-65240909D01*
X66167505Y-65240738D01*
X65897009Y-65096985D01*
X65897005Y-65096983D01*
X65897001Y-65096981D01*
X65525691Y-64925011D01*
X65519625Y-64918425D01*
X65519794Y-64909930D01*
X65837942Y-64139486D01*
X65844263Y-64133151D01*
X66613462Y-63814944D01*
X66622416Y-63814948D01*
G37*
G04 #@! TD.AperFunction*
G04 #@! TA.AperFunction,Conductor*
G36*
X37160793Y-99554894D02*
G01*
X37161464Y-99555198D01*
X37483847Y-99713630D01*
X37484388Y-99713932D01*
X37716144Y-99860071D01*
X37918709Y-99977871D01*
X38164201Y-100056427D01*
X38514225Y-100084146D01*
X38522200Y-100088215D01*
X38525000Y-100095809D01*
X38525000Y-100574190D01*
X38521573Y-100582463D01*
X38514224Y-100585853D01*
X38164202Y-100613571D01*
X37918715Y-100692125D01*
X37918706Y-100692129D01*
X37716144Y-100809928D01*
X37484381Y-100956070D01*
X37483840Y-100956372D01*
X37161464Y-101114801D01*
X37152528Y-101115375D01*
X37145804Y-101109461D01*
X37145505Y-101108804D01*
X36825864Y-100339488D01*
X36825856Y-100330534D01*
X36825865Y-100330511D01*
X37145499Y-99561209D01*
X37151838Y-99554885D01*
X37160793Y-99554894D01*
G37*
G04 #@! TD.AperFunction*
G04 #@! TA.AperFunction,Conductor*
G36*
X37160731Y-76695042D02*
G01*
X37161538Y-76695414D01*
X37486219Y-76860176D01*
X37486888Y-76860574D01*
X37717192Y-77019230D01*
X37917143Y-77151311D01*
X38161415Y-77241574D01*
X38514372Y-77274023D01*
X38522296Y-77278192D01*
X38525000Y-77285673D01*
X38525000Y-77664326D01*
X38521573Y-77672599D01*
X38514371Y-77675977D01*
X38161416Y-77708424D01*
X37917143Y-77798688D01*
X37917141Y-77798689D01*
X37717192Y-77930768D01*
X37486888Y-78089424D01*
X37486215Y-78089824D01*
X37161537Y-78254585D01*
X37152608Y-78255273D01*
X37145809Y-78249447D01*
X37145443Y-78248655D01*
X36825864Y-77479488D01*
X36825856Y-77470534D01*
X36825865Y-77470511D01*
X36907097Y-77275000D01*
X37145438Y-76701356D01*
X37151776Y-76695033D01*
X37160731Y-76695042D01*
G37*
G04 #@! TD.AperFunction*
G04 #@! TA.AperFunction,Conductor*
G36*
X66698771Y-60753569D02*
G01*
X66699036Y-60753844D01*
X66777181Y-60837701D01*
X66860785Y-60927416D01*
X66860790Y-60927420D01*
X66860794Y-60927425D01*
X67030794Y-61078638D01*
X67200795Y-61198638D01*
X67370795Y-61287425D01*
X67532849Y-61342308D01*
X67539585Y-61348208D01*
X67540795Y-61353390D01*
X67540795Y-61836609D01*
X67537368Y-61844882D01*
X67532848Y-61847691D01*
X67370795Y-61902574D01*
X67370791Y-61902576D01*
X67200794Y-61991361D01*
X67030797Y-62111358D01*
X66860803Y-62262565D01*
X66860785Y-62262582D01*
X66699053Y-62436138D01*
X66690905Y-62439855D01*
X66682517Y-62436722D01*
X66682225Y-62436440D01*
X66236622Y-61991361D01*
X65848081Y-61603276D01*
X65844650Y-61595007D01*
X65848071Y-61586733D01*
X66682226Y-60753558D01*
X66690500Y-60750137D01*
X66698771Y-60753569D01*
G37*
G04 #@! TD.AperFunction*
G04 #@! TA.AperFunction,Conductor*
G36*
X41584196Y-97020539D02*
G01*
X41584500Y-97021210D01*
X41904134Y-97790511D01*
X41904143Y-97799466D01*
X41904134Y-97799489D01*
X41584500Y-98568790D01*
X41578161Y-98575115D01*
X41569206Y-98575106D01*
X41568535Y-98574801D01*
X41246158Y-98416372D01*
X41245617Y-98416070D01*
X41013854Y-98269928D01*
X40811292Y-98152129D01*
X40811283Y-98152125D01*
X40565795Y-98073571D01*
X40565797Y-98073571D01*
X40215776Y-98045853D01*
X40207800Y-98041784D01*
X40205000Y-98034190D01*
X40205000Y-97555809D01*
X40208427Y-97547536D01*
X40215774Y-97544146D01*
X40565798Y-97516427D01*
X40811290Y-97437871D01*
X41013854Y-97320071D01*
X41245618Y-97173927D01*
X41246145Y-97173633D01*
X41568535Y-97015197D01*
X41577471Y-97014625D01*
X41584196Y-97020539D01*
G37*
G04 #@! TD.AperFunction*
G04 #@! TA.AperFunction,Conductor*
G36*
X70855818Y-64632014D02*
G01*
X70856693Y-64632995D01*
X71039880Y-64863206D01*
X71040946Y-64864797D01*
X71161117Y-65080510D01*
X71250319Y-65221903D01*
X71271663Y-65255735D01*
X71433382Y-65373066D01*
X71697614Y-65414324D01*
X71705257Y-65418985D01*
X71707507Y-65425883D01*
X71707507Y-65904416D01*
X71704080Y-65912689D01*
X71696057Y-65916113D01*
X71443235Y-65921509D01*
X71353927Y-65923415D01*
X71103320Y-65941411D01*
X71103321Y-65941411D01*
X70887040Y-65962891D01*
X70636573Y-65980876D01*
X70636279Y-65980890D01*
X70294790Y-65988179D01*
X70286445Y-65984930D01*
X70282843Y-65976732D01*
X70282840Y-65976497D01*
X70281861Y-65193294D01*
X70285277Y-65185017D01*
X70839273Y-64631999D01*
X70847548Y-64628580D01*
X70855818Y-64632014D01*
G37*
G04 #@! TD.AperFunction*
G04 #@! TA.AperFunction,Conductor*
G36*
X67292518Y-99647878D02*
G01*
X67296441Y-99655927D01*
X67296463Y-99656638D01*
X67296463Y-100135008D01*
X67293036Y-100143281D01*
X67287528Y-100146377D01*
X67032306Y-100208445D01*
X67032306Y-100208446D01*
X66931240Y-100382768D01*
X66915137Y-100639580D01*
X66905901Y-100950088D01*
X66905589Y-100952445D01*
X66828471Y-101276928D01*
X66823224Y-101284185D01*
X66814383Y-101285606D01*
X66812615Y-101285034D01*
X66043487Y-100966856D01*
X66037153Y-100960527D01*
X66037146Y-100960511D01*
X65718980Y-100190020D01*
X65718989Y-100181067D01*
X65724825Y-100174964D01*
X66095283Y-100001311D01*
X66259095Y-99911093D01*
X66364118Y-99853254D01*
X66364430Y-99853094D01*
X66600111Y-99741167D01*
X66602265Y-99740394D01*
X66884344Y-99669484D01*
X66886466Y-99669156D01*
X67284052Y-99644960D01*
X67292518Y-99647878D01*
G37*
G04 #@! TD.AperFunction*
G04 #@! TA.AperFunction,Conductor*
G36*
X76523633Y-91408929D02*
G01*
X76772974Y-91623416D01*
X76772976Y-91623417D01*
X76986430Y-91737196D01*
X77197177Y-91797098D01*
X77197178Y-91797099D01*
X77446358Y-91856969D01*
X77446867Y-91857117D01*
X77722706Y-91952430D01*
X77764417Y-91966843D01*
X77771117Y-91972783D01*
X77771654Y-91981722D01*
X77771411Y-91982366D01*
X77472562Y-92706212D01*
X77466237Y-92712551D01*
X77466212Y-92712562D01*
X76742366Y-93011411D01*
X76733411Y-93011400D01*
X76727086Y-93005061D01*
X76726843Y-93004417D01*
X76712430Y-92962706D01*
X76617117Y-92686867D01*
X76616969Y-92686358D01*
X76557099Y-92437178D01*
X76497196Y-92226431D01*
X76497196Y-92226430D01*
X76383417Y-92012976D01*
X76383416Y-92012974D01*
X76168929Y-91763633D01*
X76166133Y-91755128D01*
X76169526Y-91747733D01*
X76507733Y-91409526D01*
X76516005Y-91406100D01*
X76523633Y-91408929D01*
G37*
G04 #@! TD.AperFunction*
G04 #@! TA.AperFunction,Conductor*
G36*
X84655246Y-100946366D02*
G01*
X84993511Y-101284631D01*
X84996938Y-101292904D01*
X84994140Y-101300496D01*
X84766281Y-101567652D01*
X84648391Y-101796879D01*
X84648390Y-101796882D01*
X84588641Y-102023516D01*
X84528258Y-102290810D01*
X84528089Y-102291409D01*
X84412213Y-102631463D01*
X84406301Y-102638188D01*
X84397364Y-102638764D01*
X84396672Y-102638503D01*
X83626680Y-102320542D01*
X83620342Y-102314218D01*
X83302369Y-101544196D01*
X83302378Y-101535243D01*
X83308717Y-101528918D01*
X83309399Y-101528661D01*
X83649304Y-101412693D01*
X83649855Y-101412537D01*
X83916955Y-101351871D01*
X84143355Y-101291784D01*
X84372371Y-101173636D01*
X84639377Y-100945739D01*
X84647895Y-100942975D01*
X84655246Y-100946366D01*
G37*
G04 #@! TD.AperFunction*
G04 #@! TA.AperFunction,Conductor*
G36*
X37160731Y-89395042D02*
G01*
X37161538Y-89395414D01*
X37486219Y-89560176D01*
X37486888Y-89560574D01*
X37717192Y-89719230D01*
X37917143Y-89851311D01*
X38161415Y-89941574D01*
X38514372Y-89974023D01*
X38522296Y-89978192D01*
X38525000Y-89985673D01*
X38525000Y-90364326D01*
X38521573Y-90372599D01*
X38514371Y-90375977D01*
X38161416Y-90408424D01*
X37917143Y-90498688D01*
X37917141Y-90498689D01*
X37717192Y-90630768D01*
X37486888Y-90789424D01*
X37486215Y-90789824D01*
X37161537Y-90954585D01*
X37152608Y-90955273D01*
X37145809Y-90949447D01*
X37145443Y-90948655D01*
X36825864Y-90179488D01*
X36825856Y-90170534D01*
X36825865Y-90170511D01*
X36907097Y-89975000D01*
X37145438Y-89401356D01*
X37151776Y-89395033D01*
X37160731Y-89395042D01*
G37*
G04 #@! TD.AperFunction*
G04 #@! TA.AperFunction,Conductor*
G36*
X35353207Y-81219044D02*
G01*
X35620955Y-81486792D01*
X35624382Y-81495065D01*
X35621678Y-81502546D01*
X35395043Y-81775070D01*
X35286144Y-82011619D01*
X35238152Y-82246400D01*
X35187489Y-82521442D01*
X35187299Y-82522190D01*
X35074218Y-82868283D01*
X35068392Y-82875082D01*
X35059463Y-82875770D01*
X35058631Y-82875463D01*
X34288785Y-82557562D01*
X34282447Y-82551238D01*
X33964536Y-81781367D01*
X33964545Y-81772413D01*
X33970884Y-81766088D01*
X33971689Y-81765790D01*
X34317819Y-81652696D01*
X34318549Y-81652510D01*
X34593598Y-81601846D01*
X34828379Y-81553854D01*
X35064931Y-81444954D01*
X35337454Y-81218320D01*
X35346005Y-81215666D01*
X35353207Y-81219044D01*
G37*
G04 #@! TD.AperFunction*
G04 #@! TA.AperFunction,Conductor*
G36*
X63087976Y-102663569D02*
G01*
X63088241Y-102663844D01*
X63166386Y-102747701D01*
X63249990Y-102837416D01*
X63249995Y-102837420D01*
X63249999Y-102837425D01*
X63419999Y-102988638D01*
X63590000Y-103108638D01*
X63760000Y-103197425D01*
X63922052Y-103252308D01*
X63928789Y-103258208D01*
X63929999Y-103263390D01*
X63929999Y-103746609D01*
X63926572Y-103754882D01*
X63922052Y-103757691D01*
X63760000Y-103812574D01*
X63759996Y-103812576D01*
X63589999Y-103901361D01*
X63420002Y-104021358D01*
X63250008Y-104172565D01*
X63249990Y-104172582D01*
X63088258Y-104346138D01*
X63080110Y-104349855D01*
X63071722Y-104346722D01*
X63071430Y-104346440D01*
X62237287Y-103513277D01*
X62233855Y-103505006D01*
X62237275Y-103496733D01*
X63071431Y-102663558D01*
X63079705Y-102660137D01*
X63087976Y-102663569D01*
G37*
G04 #@! TD.AperFunction*
G04 #@! TA.AperFunction,Conductor*
G36*
X41063279Y-63933304D02*
G01*
X41063831Y-63933820D01*
X41411722Y-64281303D01*
X41897712Y-64766722D01*
X41901144Y-64774993D01*
X41897722Y-64783268D01*
X41897712Y-64783278D01*
X41063841Y-65616169D01*
X41055566Y-65619591D01*
X41047295Y-65616159D01*
X41046769Y-65615597D01*
X41019083Y-65583970D01*
X40885000Y-65430797D01*
X40715000Y-65268696D01*
X40714995Y-65268692D01*
X40545000Y-65138696D01*
X40375003Y-65040799D01*
X40375000Y-65040798D01*
X40374999Y-65040797D01*
X40350861Y-65031454D01*
X40212477Y-64977893D01*
X40205998Y-64971711D01*
X40205000Y-64966982D01*
X40205000Y-64583017D01*
X40208427Y-64574744D01*
X40212477Y-64572106D01*
X40374999Y-64509202D01*
X40544999Y-64411303D01*
X40715000Y-64281303D01*
X40885000Y-64119202D01*
X41046770Y-63934401D01*
X41054797Y-63930434D01*
X41063279Y-63933304D01*
G37*
G04 #@! TD.AperFunction*
G04 #@! TA.AperFunction,Conductor*
G36*
X41584190Y-74160552D02*
G01*
X41584562Y-74161358D01*
X41904134Y-74930511D01*
X41904143Y-74939466D01*
X41904134Y-74939489D01*
X41584562Y-75708641D01*
X41578223Y-75714966D01*
X41569268Y-75714957D01*
X41568462Y-75714585D01*
X41243783Y-75549824D01*
X41243110Y-75549424D01*
X41012806Y-75390768D01*
X41012805Y-75390768D01*
X40812855Y-75258688D01*
X40669687Y-75205784D01*
X40568582Y-75168424D01*
X40215629Y-75135977D01*
X40207704Y-75131807D01*
X40205000Y-75124326D01*
X40205000Y-74745673D01*
X40208427Y-74737400D01*
X40215626Y-74734023D01*
X40568584Y-74701574D01*
X40812855Y-74611311D01*
X41012806Y-74479230D01*
X41243121Y-74320566D01*
X41243766Y-74320183D01*
X41568463Y-74155413D01*
X41577391Y-74154726D01*
X41584190Y-74160552D01*
G37*
G04 #@! TD.AperFunction*
G04 #@! TA.AperFunction,Conductor*
G36*
X44780793Y-97014894D02*
G01*
X44781464Y-97015198D01*
X45103847Y-97173630D01*
X45104388Y-97173932D01*
X45336144Y-97320071D01*
X45538709Y-97437871D01*
X45784201Y-97516427D01*
X46134225Y-97544146D01*
X46142200Y-97548215D01*
X46145000Y-97555809D01*
X46145000Y-98034190D01*
X46141573Y-98042463D01*
X46134224Y-98045853D01*
X45784202Y-98073571D01*
X45538715Y-98152125D01*
X45538706Y-98152129D01*
X45336144Y-98269928D01*
X45104381Y-98416070D01*
X45103840Y-98416372D01*
X44781464Y-98574801D01*
X44772528Y-98575375D01*
X44765804Y-98569461D01*
X44765505Y-98568804D01*
X44445864Y-97799488D01*
X44445856Y-97790534D01*
X44445865Y-97790511D01*
X44765499Y-97021209D01*
X44771838Y-97014885D01*
X44780793Y-97014894D01*
G37*
G04 #@! TD.AperFunction*
G04 #@! TA.AperFunction,Conductor*
G36*
X130767952Y-88933587D02*
G01*
X130776123Y-88937247D01*
X130779270Y-88944212D01*
X130801432Y-89185485D01*
X130824543Y-89407899D01*
X130847655Y-89601122D01*
X130870766Y-89765156D01*
X130893708Y-89899019D01*
X130893876Y-89900995D01*
X130893877Y-90378769D01*
X130890450Y-90387042D01*
X130882177Y-90390469D01*
X130875928Y-90388660D01*
X130567811Y-90193995D01*
X130567810Y-90193995D01*
X130241760Y-90020999D01*
X130055702Y-89941111D01*
X129915703Y-89880999D01*
X129589645Y-89773999D01*
X129498412Y-89753293D01*
X129276957Y-89703034D01*
X129269647Y-89697861D01*
X129268136Y-89689035D01*
X129268685Y-89687273D01*
X129303197Y-89601122D01*
X129581027Y-88907574D01*
X129587285Y-88901170D01*
X129592217Y-88900231D01*
X130767952Y-88933587D01*
G37*
G04 #@! TD.AperFunction*
G04 #@! TA.AperFunction,Conductor*
G36*
X143514957Y-71136019D02*
G01*
X143520598Y-71141660D01*
X144036627Y-72245022D01*
X144037028Y-72253968D01*
X144036422Y-72255352D01*
X144004521Y-72317054D01*
X143983253Y-72358190D01*
X143983250Y-72358197D01*
X143983250Y-72358196D01*
X143927442Y-72484137D01*
X143871626Y-72628095D01*
X143815813Y-72790047D01*
X143762554Y-72961766D01*
X143756830Y-72968653D01*
X143751379Y-72970000D01*
X143268621Y-72970000D01*
X143260348Y-72966573D01*
X143257446Y-72961766D01*
X143204186Y-72790047D01*
X143148373Y-72628095D01*
X143092557Y-72484137D01*
X143036749Y-72358196D01*
X143036749Y-72358197D01*
X143036746Y-72358190D01*
X142983576Y-72255351D01*
X142982821Y-72246430D01*
X142983372Y-72245022D01*
X143499402Y-71141660D01*
X143506011Y-71135618D01*
X143514957Y-71136019D01*
G37*
G04 #@! TD.AperFunction*
G04 #@! TA.AperFunction,Conductor*
G36*
X78434557Y-71080003D02*
G01*
X78772763Y-71418209D01*
X78776190Y-71426482D01*
X78773342Y-71434133D01*
X78558929Y-71682200D01*
X78558927Y-71682202D01*
X78443750Y-71894061D01*
X78443750Y-71894062D01*
X78381902Y-72103069D01*
X78320440Y-72350530D01*
X78320287Y-72351044D01*
X78210235Y-72667093D01*
X78204278Y-72673780D01*
X78195339Y-72674295D01*
X78194721Y-72674061D01*
X77470847Y-72375201D01*
X77464508Y-72368876D01*
X77464497Y-72368851D01*
X77456933Y-72350530D01*
X77165661Y-71645035D01*
X77165672Y-71636082D01*
X77172011Y-71629757D01*
X77172663Y-71629510D01*
X77490946Y-71520516D01*
X77491510Y-71520356D01*
X77741883Y-71462535D01*
X77741883Y-71462534D01*
X77953998Y-71405081D01*
X78168644Y-71293281D01*
X78418678Y-71079384D01*
X78427193Y-71076611D01*
X78434557Y-71080003D01*
G37*
G04 #@! TD.AperFunction*
G04 #@! TA.AperFunction,Conductor*
G36*
X142788295Y-62006591D02*
G01*
X142794551Y-62012775D01*
X142881033Y-62214068D01*
X142972066Y-62407954D01*
X143063093Y-62583830D01*
X143139970Y-62717165D01*
X143154132Y-62741726D01*
X143239993Y-62873664D01*
X143241634Y-62882467D01*
X143238460Y-62888318D01*
X142898729Y-63228049D01*
X142890456Y-63231476D01*
X142883513Y-63229193D01*
X142816275Y-63179612D01*
X142705590Y-63097994D01*
X142705590Y-63097995D01*
X142705586Y-63097992D01*
X142519560Y-62978819D01*
X142353157Y-62888318D01*
X142333537Y-62877647D01*
X142333534Y-62877646D01*
X142147508Y-62794473D01*
X141974581Y-62733889D01*
X141967907Y-62727919D01*
X141967408Y-62718978D01*
X141968217Y-62717177D01*
X142237307Y-62232866D01*
X142243070Y-62227735D01*
X142779342Y-62006577D01*
X142788295Y-62006591D01*
G37*
G04 #@! TD.AperFunction*
G04 #@! TA.AperFunction,Conductor*
G36*
X89257514Y-102417657D02*
G01*
X89260904Y-102425003D01*
X89288718Y-102775026D01*
X89288720Y-102775033D01*
X89367519Y-103020466D01*
X89485609Y-103222945D01*
X89631994Y-103454634D01*
X89632299Y-103455177D01*
X89790845Y-103777564D01*
X89791421Y-103786500D01*
X89785509Y-103793226D01*
X89784835Y-103793532D01*
X89015536Y-104113165D01*
X89006581Y-104113174D01*
X89006558Y-104113165D01*
X88237255Y-103793530D01*
X88230930Y-103787191D01*
X88230939Y-103778236D01*
X88231242Y-103777567D01*
X88231244Y-103777564D01*
X88389538Y-103455265D01*
X88389829Y-103454742D01*
X88535722Y-103222986D01*
X88653241Y-103020404D01*
X88731569Y-102774926D01*
X88759196Y-102425009D01*
X88763265Y-102417031D01*
X88770861Y-102414230D01*
X89249241Y-102414230D01*
X89257514Y-102417657D01*
G37*
G04 #@! TD.AperFunction*
G04 #@! TA.AperFunction,Conductor*
G36*
X118825815Y-93305406D02*
G01*
X118826486Y-93305710D01*
X119148869Y-93464142D01*
X119149410Y-93464444D01*
X119381166Y-93610583D01*
X119583731Y-93728383D01*
X119829223Y-93806939D01*
X120179247Y-93834658D01*
X120187222Y-93838727D01*
X120190022Y-93846321D01*
X120190022Y-94324702D01*
X120186595Y-94332975D01*
X120179246Y-94336365D01*
X119829224Y-94364083D01*
X119583737Y-94442637D01*
X119583728Y-94442641D01*
X119381166Y-94560440D01*
X119149403Y-94706582D01*
X119148862Y-94706884D01*
X118826486Y-94865313D01*
X118817550Y-94865887D01*
X118810826Y-94859973D01*
X118810527Y-94859316D01*
X118490887Y-94090000D01*
X118490878Y-94081045D01*
X118490878Y-94081044D01*
X118810521Y-93311721D01*
X118816860Y-93305397D01*
X118825815Y-93305406D01*
G37*
G04 #@! TD.AperFunction*
G04 #@! TA.AperFunction,Conductor*
G36*
X70297671Y-99094471D02*
G01*
X70639921Y-99102140D01*
X70640127Y-99102150D01*
X70891060Y-99121072D01*
X71107696Y-99143666D01*
X71358728Y-99162595D01*
X71380744Y-99163088D01*
X71701525Y-99170277D01*
X71709718Y-99173888D01*
X71712962Y-99181974D01*
X71712962Y-99660505D01*
X71709535Y-99668778D01*
X71703051Y-99672067D01*
X71438688Y-99712968D01*
X71438687Y-99712968D01*
X71276314Y-99829410D01*
X71164931Y-100003569D01*
X71044082Y-100218342D01*
X71043029Y-100219904D01*
X70859636Y-100449671D01*
X70851797Y-100453999D01*
X70843193Y-100451516D01*
X70842226Y-100450652D01*
X70288235Y-99897639D01*
X70284801Y-99889369D01*
X70284801Y-99889344D01*
X70285022Y-99712969D01*
X70285780Y-99106153D01*
X70289217Y-99097886D01*
X70297495Y-99094469D01*
X70297671Y-99094471D01*
G37*
G04 #@! TD.AperFunction*
G04 #@! TA.AperFunction,Conductor*
G36*
X62477463Y-99268427D02*
G01*
X62480853Y-99275776D01*
X62508571Y-99625796D01*
X62587125Y-99871283D01*
X62587129Y-99871292D01*
X62704928Y-100073854D01*
X62851070Y-100305617D01*
X62851372Y-100306158D01*
X63009801Y-100628535D01*
X63010375Y-100637471D01*
X63004461Y-100644195D01*
X63003790Y-100644500D01*
X62234488Y-100964134D01*
X62225533Y-100964143D01*
X62225510Y-100964134D01*
X61456210Y-100644500D01*
X61449885Y-100638161D01*
X61449894Y-100629206D01*
X61450198Y-100628535D01*
X61608630Y-100306151D01*
X61608928Y-100305617D01*
X61755071Y-100073854D01*
X61872871Y-99871290D01*
X61951427Y-99625798D01*
X61979146Y-99275776D01*
X61983216Y-99267800D01*
X61990810Y-99265000D01*
X62469190Y-99265000D01*
X62477463Y-99268427D01*
G37*
G04 #@! TD.AperFunction*
G04 #@! TA.AperFunction,Conductor*
G36*
X73348633Y-88233929D02*
G01*
X73597974Y-88448416D01*
X73597976Y-88448417D01*
X73811430Y-88562196D01*
X74022177Y-88622099D01*
X74022178Y-88622099D01*
X74271358Y-88681969D01*
X74271867Y-88682117D01*
X74547706Y-88777430D01*
X74589417Y-88791843D01*
X74596117Y-88797783D01*
X74596654Y-88806722D01*
X74596411Y-88807366D01*
X74297562Y-89531212D01*
X74291237Y-89537551D01*
X74291212Y-89537562D01*
X73567366Y-89836411D01*
X73558411Y-89836400D01*
X73552086Y-89830061D01*
X73551843Y-89829417D01*
X73537430Y-89787706D01*
X73442117Y-89511867D01*
X73441969Y-89511358D01*
X73382099Y-89262178D01*
X73322196Y-89051431D01*
X73322196Y-89051430D01*
X73208417Y-88837976D01*
X73208416Y-88837974D01*
X72993929Y-88588633D01*
X72991133Y-88580128D01*
X72994526Y-88572733D01*
X73332733Y-88234526D01*
X73341005Y-88231100D01*
X73348633Y-88233929D01*
G37*
G04 #@! TD.AperFunction*
G04 #@! TA.AperFunction,Conductor*
G36*
X37160731Y-66535042D02*
G01*
X37161538Y-66535414D01*
X37486219Y-66700176D01*
X37486888Y-66700574D01*
X37717192Y-66859230D01*
X37917143Y-66991311D01*
X38161415Y-67081574D01*
X38514372Y-67114023D01*
X38522296Y-67118192D01*
X38525000Y-67125673D01*
X38525000Y-67504326D01*
X38521573Y-67512599D01*
X38514371Y-67515977D01*
X38161416Y-67548424D01*
X37917143Y-67638688D01*
X37917141Y-67638689D01*
X37717192Y-67770768D01*
X37486888Y-67929424D01*
X37486215Y-67929824D01*
X37161537Y-68094585D01*
X37152608Y-68095273D01*
X37145809Y-68089447D01*
X37145443Y-68088655D01*
X36825864Y-67319488D01*
X36825856Y-67310534D01*
X36825865Y-67310511D01*
X36907097Y-67115000D01*
X37145438Y-66541356D01*
X37151776Y-66535033D01*
X37160731Y-66535042D01*
G37*
G04 #@! TD.AperFunction*
G04 #@! TA.AperFunction,Conductor*
G36*
X128478275Y-74737175D02*
G01*
X128634878Y-74845284D01*
X128759487Y-74931307D01*
X128974784Y-75055372D01*
X129048714Y-75097975D01*
X129048715Y-75097976D01*
X129048720Y-75097978D01*
X129048723Y-75097980D01*
X129337960Y-75231654D01*
X129627196Y-75332327D01*
X129627199Y-75332327D01*
X129627200Y-75332328D01*
X129903030Y-75396864D01*
X129910305Y-75402085D01*
X129911757Y-75410921D01*
X129911179Y-75412722D01*
X129588916Y-76193085D01*
X129582591Y-76199424D01*
X129577533Y-76200305D01*
X128405545Y-76143199D01*
X128397448Y-76139374D01*
X128394646Y-76133830D01*
X128340497Y-75865606D01*
X128284547Y-75621275D01*
X128228597Y-75409761D01*
X128228593Y-75409745D01*
X128228593Y-75409746D01*
X128172649Y-75231070D01*
X128119417Y-75092280D01*
X128119654Y-75083328D01*
X128122065Y-75079820D01*
X128463356Y-74738529D01*
X128471628Y-74735103D01*
X128478275Y-74737175D01*
G37*
G04 #@! TD.AperFunction*
G04 #@! TA.AperFunction,Conductor*
G36*
X142246207Y-69852886D02*
G01*
X142425679Y-69965250D01*
X142759933Y-70174520D01*
X142765126Y-70181815D01*
X142764117Y-70189810D01*
X142732390Y-70251174D01*
X142713253Y-70288190D01*
X142713250Y-70288197D01*
X142713250Y-70288196D01*
X142657442Y-70414137D01*
X142601626Y-70558095D01*
X142545813Y-70720047D01*
X142492554Y-70891766D01*
X142486830Y-70898653D01*
X142481379Y-70900000D01*
X141998621Y-70900000D01*
X141990348Y-70896573D01*
X141987446Y-70891766D01*
X141934186Y-70720047D01*
X141878373Y-70558095D01*
X141822557Y-70414137D01*
X141766749Y-70288196D01*
X141766749Y-70288197D01*
X141766746Y-70288190D01*
X141715880Y-70189807D01*
X141715125Y-70180888D01*
X141720064Y-70174521D01*
X142233791Y-69852886D01*
X142242622Y-69851402D01*
X142246207Y-69852886D01*
G37*
G04 #@! TD.AperFunction*
G04 #@! TA.AperFunction,Conductor*
G36*
X148288332Y-83091727D02*
G01*
X148288615Y-83092355D01*
X148589134Y-83815510D01*
X148589144Y-83824463D01*
X148589135Y-83824485D01*
X148589134Y-83824490D01*
X148288615Y-84547644D01*
X148282276Y-84553969D01*
X148273321Y-84553958D01*
X148272693Y-84553675D01*
X147970579Y-84406728D01*
X147970082Y-84406456D01*
X147751567Y-84272603D01*
X147560187Y-84165939D01*
X147560182Y-84165937D01*
X147328801Y-84095458D01*
X147328795Y-84095457D01*
X147000823Y-84070813D01*
X146992830Y-84066776D01*
X146990000Y-84059146D01*
X146990000Y-83580853D01*
X146993427Y-83572580D01*
X147000821Y-83569186D01*
X147328797Y-83544541D01*
X147328799Y-83544540D01*
X147328801Y-83544540D01*
X147560182Y-83474061D01*
X147560183Y-83474060D01*
X147560188Y-83474059D01*
X147751567Y-83367396D01*
X147970094Y-83233534D01*
X147970580Y-83233270D01*
X148272693Y-83086324D01*
X148281632Y-83085787D01*
X148288332Y-83091727D01*
G37*
G04 #@! TD.AperFunction*
G04 #@! TA.AperFunction,Conductor*
G36*
X58024578Y-76753427D02*
G01*
X58027507Y-76758325D01*
X58122820Y-77074770D01*
X58220641Y-77366541D01*
X58318462Y-77625311D01*
X58416283Y-77851082D01*
X58416285Y-77851085D01*
X58416285Y-77851086D01*
X58510174Y-78036109D01*
X58510861Y-78045037D01*
X58507828Y-78049857D01*
X57783087Y-78743261D01*
X57774741Y-78746504D01*
X57766911Y-78743261D01*
X57042171Y-78049857D01*
X57038562Y-78041661D01*
X57039824Y-78036111D01*
X57133716Y-77851082D01*
X57231537Y-77625311D01*
X57329358Y-77366541D01*
X57427179Y-77074770D01*
X57522492Y-76758325D01*
X57528159Y-76751392D01*
X57533695Y-76750000D01*
X58016305Y-76750000D01*
X58024578Y-76753427D01*
G37*
G04 #@! TD.AperFunction*
G04 #@! TA.AperFunction,Conductor*
G36*
X136505535Y-85627816D02*
G01*
X137198323Y-86351912D01*
X137201566Y-86360258D01*
X137198323Y-86368088D01*
X136505535Y-87092183D01*
X136497339Y-87095792D01*
X136490823Y-87093981D01*
X136240147Y-86935285D01*
X136240144Y-86935283D01*
X135981373Y-86804462D01*
X135981364Y-86804458D01*
X135981361Y-86804457D01*
X135722607Y-86706642D01*
X135722594Y-86706638D01*
X135463837Y-86641820D01*
X135215334Y-86611263D01*
X135207541Y-86606852D01*
X135205062Y-86599650D01*
X135205062Y-86120349D01*
X135208489Y-86112076D01*
X135215331Y-86108737D01*
X135463832Y-86078179D01*
X135463835Y-86078178D01*
X135463837Y-86078178D01*
X135592709Y-86045895D01*
X135722603Y-86013358D01*
X135981373Y-85915537D01*
X136240144Y-85784716D01*
X136490824Y-85626017D01*
X136499646Y-85624489D01*
X136505535Y-85627816D01*
G37*
G04 #@! TD.AperFunction*
G04 #@! TA.AperFunction,Conductor*
G36*
X148923332Y-62771727D02*
G01*
X148923615Y-62772355D01*
X149224134Y-63495510D01*
X149224144Y-63504463D01*
X149224135Y-63504485D01*
X149224134Y-63504490D01*
X148923615Y-64227644D01*
X148917276Y-64233969D01*
X148908321Y-64233958D01*
X148907693Y-64233675D01*
X148605579Y-64086728D01*
X148605082Y-64086456D01*
X148386567Y-63952603D01*
X148195187Y-63845939D01*
X148195182Y-63845937D01*
X147963801Y-63775458D01*
X147963795Y-63775457D01*
X147635823Y-63750813D01*
X147627830Y-63746776D01*
X147625000Y-63739146D01*
X147625000Y-63260853D01*
X147628427Y-63252580D01*
X147635821Y-63249186D01*
X147963797Y-63224541D01*
X147963799Y-63224540D01*
X147963801Y-63224540D01*
X148195182Y-63154061D01*
X148195183Y-63154060D01*
X148195188Y-63154059D01*
X148386567Y-63047396D01*
X148605094Y-62913534D01*
X148605580Y-62913270D01*
X148907693Y-62766324D01*
X148916632Y-62765787D01*
X148923332Y-62771727D01*
G37*
G04 #@! TD.AperFunction*
G04 #@! TA.AperFunction,Conductor*
G36*
X142866484Y-62500805D02*
G01*
X142951049Y-62563162D01*
X143044408Y-62632005D01*
X143044408Y-62632004D01*
X143044412Y-62632007D01*
X143230438Y-62751180D01*
X143335774Y-62808468D01*
X143416461Y-62852351D01*
X143416461Y-62852350D01*
X143416464Y-62852352D01*
X143602490Y-62935525D01*
X143775416Y-62996109D01*
X143782090Y-63002079D01*
X143782589Y-63011020D01*
X143781774Y-63012833D01*
X143512693Y-63497131D01*
X143506927Y-63502265D01*
X142970659Y-63723420D01*
X142961704Y-63723406D01*
X142955448Y-63717223D01*
X142868966Y-63515931D01*
X142777933Y-63322045D01*
X142686906Y-63146168D01*
X142595868Y-62988273D01*
X142595867Y-62988272D01*
X142510005Y-62856333D01*
X142508365Y-62847532D01*
X142511537Y-62841683D01*
X142851271Y-62501949D01*
X142859543Y-62498523D01*
X142866484Y-62500805D01*
G37*
G04 #@! TD.AperFunction*
G04 #@! TA.AperFunction,Conductor*
G36*
X75031588Y-89233599D02*
G01*
X75037913Y-89239938D01*
X75038156Y-89240582D01*
X75117990Y-89471624D01*
X75139644Y-89534293D01*
X75147875Y-89558112D01*
X75148033Y-89558652D01*
X75207899Y-89807820D01*
X75267802Y-90018568D01*
X75381583Y-90232025D01*
X75596069Y-90481365D01*
X75598866Y-90489871D01*
X75595472Y-90497267D01*
X75257267Y-90835472D01*
X75248994Y-90838899D01*
X75241365Y-90836069D01*
X74992025Y-90621583D01*
X74778568Y-90507802D01*
X74778567Y-90507801D01*
X74778566Y-90507801D01*
X74567820Y-90447899D01*
X74567819Y-90447899D01*
X74318652Y-90388033D01*
X74318117Y-90387876D01*
X74231624Y-90357990D01*
X74000582Y-90278156D01*
X73993882Y-90272216D01*
X73993345Y-90263277D01*
X73993577Y-90262659D01*
X74292438Y-89538785D01*
X74298762Y-89532448D01*
X74298764Y-89532446D01*
X75022635Y-89233588D01*
X75031588Y-89233599D01*
G37*
G04 #@! TD.AperFunction*
G04 #@! TA.AperFunction,Conductor*
G36*
X35353207Y-88839044D02*
G01*
X35620955Y-89106792D01*
X35624382Y-89115065D01*
X35621678Y-89122546D01*
X35395043Y-89395070D01*
X35286144Y-89631619D01*
X35238152Y-89866400D01*
X35187489Y-90141442D01*
X35187299Y-90142190D01*
X35074218Y-90488283D01*
X35068392Y-90495082D01*
X35059463Y-90495770D01*
X35058631Y-90495463D01*
X34288785Y-90177562D01*
X34282447Y-90171238D01*
X33964536Y-89401367D01*
X33964545Y-89392413D01*
X33970884Y-89386088D01*
X33971689Y-89385790D01*
X34317819Y-89272696D01*
X34318549Y-89272510D01*
X34593598Y-89221846D01*
X34828379Y-89173854D01*
X35064931Y-89064954D01*
X35337454Y-88838320D01*
X35346005Y-88835666D01*
X35353207Y-88839044D01*
G37*
G04 #@! TD.AperFunction*
G04 #@! TA.AperFunction,Conductor*
G36*
X76814201Y-64937596D02*
G01*
X76814484Y-64938224D01*
X77115003Y-65661379D01*
X77115013Y-65670332D01*
X77115004Y-65670354D01*
X77115003Y-65670359D01*
X76814484Y-66393513D01*
X76808145Y-66399838D01*
X76799190Y-66399827D01*
X76798562Y-66399544D01*
X76496448Y-66252597D01*
X76495951Y-66252325D01*
X76277436Y-66118472D01*
X76086056Y-66011808D01*
X76086051Y-66011806D01*
X75854670Y-65941327D01*
X75854664Y-65941326D01*
X75526692Y-65916682D01*
X75518699Y-65912645D01*
X75515869Y-65905015D01*
X75515869Y-65426722D01*
X75519296Y-65418449D01*
X75526690Y-65415055D01*
X75854666Y-65390410D01*
X75854668Y-65390409D01*
X75854670Y-65390409D01*
X76086051Y-65319930D01*
X76086052Y-65319929D01*
X76086057Y-65319928D01*
X76277436Y-65213265D01*
X76495963Y-65079403D01*
X76496449Y-65079139D01*
X76798562Y-64932193D01*
X76807501Y-64931656D01*
X76814201Y-64937596D01*
G37*
G04 #@! TD.AperFunction*
G04 #@! TA.AperFunction,Conductor*
G36*
X137205914Y-91442717D02*
G01*
X137208946Y-91446987D01*
X137531360Y-92227720D01*
X137531351Y-92236675D01*
X137525012Y-92243000D01*
X137523610Y-92243478D01*
X137232382Y-92322490D01*
X137232378Y-92322491D01*
X137232376Y-92322492D01*
X137095579Y-92374452D01*
X136928327Y-92437981D01*
X136928328Y-92437981D01*
X136928320Y-92437984D01*
X136624265Y-92586477D01*
X136320209Y-92767968D01*
X136320209Y-92767969D01*
X136024204Y-92976783D01*
X136015469Y-92978751D01*
X136009187Y-92975495D01*
X135668225Y-92634533D01*
X135664798Y-92626260D01*
X135665763Y-92621608D01*
X135731091Y-92470854D01*
X135784279Y-92322490D01*
X135799584Y-92279796D01*
X135868077Y-92055741D01*
X135936569Y-91798685D01*
X136003057Y-91517118D01*
X136008294Y-91509855D01*
X136013768Y-91508127D01*
X137197459Y-91439772D01*
X137205914Y-91442717D01*
G37*
G04 #@! TD.AperFunction*
G04 #@! TA.AperFunction,Conductor*
G36*
X45477948Y-68483785D02*
G01*
X45816214Y-68822051D01*
X45819641Y-68830324D01*
X45816841Y-68837918D01*
X45588937Y-69105021D01*
X45588936Y-69105021D01*
X45470898Y-69334153D01*
X45470896Y-69334158D01*
X45410959Y-69560689D01*
X45350418Y-69827899D01*
X45350250Y-69828495D01*
X45234319Y-70168486D01*
X45228405Y-70175210D01*
X45219469Y-70175784D01*
X45218779Y-70175524D01*
X44448785Y-69857562D01*
X44442447Y-69851238D01*
X44124475Y-69081219D01*
X44124484Y-69072265D01*
X44130823Y-69065940D01*
X44131502Y-69065684D01*
X44471506Y-68949746D01*
X44472098Y-68949580D01*
X44739309Y-68889039D01*
X44739309Y-68889038D01*
X44965841Y-68829102D01*
X45116974Y-68751244D01*
X45194977Y-68711062D01*
X45194977Y-68711061D01*
X45194978Y-68711061D01*
X45462082Y-68483157D01*
X45470599Y-68480395D01*
X45477948Y-68483785D01*
G37*
G04 #@! TD.AperFunction*
G04 #@! TA.AperFunction,Conductor*
G36*
X43392545Y-78678320D02*
G01*
X43665068Y-78904954D01*
X43901619Y-79013854D01*
X44136400Y-79061846D01*
X44411445Y-79112510D01*
X44412183Y-79112698D01*
X44758284Y-79225782D01*
X44765082Y-79231607D01*
X44765770Y-79240536D01*
X44765463Y-79241368D01*
X44447562Y-80011214D01*
X44441237Y-80017553D01*
X44441214Y-80017562D01*
X43671368Y-80335463D01*
X43662413Y-80335454D01*
X43656088Y-80329115D01*
X43655788Y-80328301D01*
X43542698Y-79982183D01*
X43542510Y-79981445D01*
X43491846Y-79706400D01*
X43443854Y-79471619D01*
X43334954Y-79235068D01*
X43108320Y-78962545D01*
X43105666Y-78953994D01*
X43109043Y-78946793D01*
X43376793Y-78679043D01*
X43385065Y-78675617D01*
X43392545Y-78678320D01*
G37*
G04 #@! TD.AperFunction*
G04 #@! TA.AperFunction,Conductor*
G36*
X37682704Y-63933840D02*
G01*
X37683230Y-63934402D01*
X37844999Y-64119202D01*
X38014999Y-64281303D01*
X38015003Y-64281306D01*
X38184998Y-64411302D01*
X38185000Y-64411303D01*
X38355000Y-64509202D01*
X38517523Y-64572106D01*
X38524002Y-64578288D01*
X38525000Y-64583017D01*
X38525000Y-64966982D01*
X38521573Y-64975255D01*
X38517523Y-64977893D01*
X38355002Y-65040796D01*
X38354995Y-65040799D01*
X38184998Y-65138696D01*
X38015003Y-65268692D01*
X37845001Y-65430794D01*
X37844996Y-65430800D01*
X37683230Y-65615597D01*
X37675202Y-65619565D01*
X37666720Y-65616695D01*
X37666167Y-65616178D01*
X36832286Y-64783276D01*
X36828855Y-64775007D01*
X36832276Y-64766733D01*
X37666160Y-63933828D01*
X37674433Y-63930408D01*
X37682704Y-63933840D01*
G37*
G04 #@! TD.AperFunction*
G04 #@! TA.AperFunction,Conductor*
G36*
X43392545Y-73598320D02*
G01*
X43665068Y-73824954D01*
X43901619Y-73933854D01*
X44136400Y-73981846D01*
X44411445Y-74032510D01*
X44412183Y-74032698D01*
X44758284Y-74145782D01*
X44765082Y-74151607D01*
X44765770Y-74160536D01*
X44765463Y-74161368D01*
X44447562Y-74931214D01*
X44441237Y-74937553D01*
X44441214Y-74937562D01*
X43671368Y-75255463D01*
X43662413Y-75255454D01*
X43656088Y-75249115D01*
X43655788Y-75248301D01*
X43542698Y-74902183D01*
X43542510Y-74901445D01*
X43491846Y-74626400D01*
X43443854Y-74391619D01*
X43334954Y-74155068D01*
X43108320Y-73882545D01*
X43105666Y-73873994D01*
X43109043Y-73866793D01*
X43376793Y-73599043D01*
X43385065Y-73595617D01*
X43392545Y-73598320D01*
G37*
G04 #@! TD.AperFunction*
G04 #@! TA.AperFunction,Conductor*
G36*
X70818332Y-78011727D02*
G01*
X70818615Y-78012355D01*
X71119134Y-78735510D01*
X71119144Y-78744463D01*
X71119135Y-78744485D01*
X71119134Y-78744490D01*
X70818615Y-79467644D01*
X70812276Y-79473969D01*
X70803321Y-79473958D01*
X70802693Y-79473675D01*
X70500579Y-79326728D01*
X70500082Y-79326456D01*
X70281567Y-79192603D01*
X70090187Y-79085939D01*
X70090182Y-79085937D01*
X69858801Y-79015458D01*
X69858795Y-79015457D01*
X69530823Y-78990813D01*
X69522830Y-78986776D01*
X69520000Y-78979146D01*
X69520000Y-78500853D01*
X69523427Y-78492580D01*
X69530821Y-78489186D01*
X69858797Y-78464541D01*
X69858799Y-78464540D01*
X69858801Y-78464540D01*
X70090182Y-78394061D01*
X70090183Y-78394060D01*
X70090188Y-78394059D01*
X70281567Y-78287396D01*
X70500094Y-78153534D01*
X70500580Y-78153270D01*
X70802693Y-78006324D01*
X70811632Y-78005787D01*
X70818332Y-78011727D01*
G37*
G04 #@! TD.AperFunction*
G04 #@! TA.AperFunction,Conductor*
G36*
X37160731Y-84315042D02*
G01*
X37161538Y-84315414D01*
X37486219Y-84480176D01*
X37486888Y-84480574D01*
X37717192Y-84639230D01*
X37917143Y-84771311D01*
X38161415Y-84861574D01*
X38514372Y-84894023D01*
X38522296Y-84898192D01*
X38525000Y-84905673D01*
X38525000Y-85284326D01*
X38521573Y-85292599D01*
X38514371Y-85295977D01*
X38161416Y-85328424D01*
X37917143Y-85418688D01*
X37917141Y-85418689D01*
X37717192Y-85550768D01*
X37486888Y-85709424D01*
X37486215Y-85709824D01*
X37161537Y-85874585D01*
X37152608Y-85875273D01*
X37145809Y-85869447D01*
X37145443Y-85868655D01*
X36825864Y-85099488D01*
X36825856Y-85090534D01*
X36825865Y-85090511D01*
X36907097Y-84895000D01*
X37145438Y-84321356D01*
X37151776Y-84315033D01*
X37160731Y-84315042D01*
G37*
G04 #@! TD.AperFunction*
G04 #@! TA.AperFunction,Conductor*
G36*
X61391012Y-61247466D02*
G01*
X62226216Y-61592438D01*
X62232553Y-61598763D01*
X62232562Y-61598784D01*
X62576940Y-62432552D01*
X62576931Y-62441507D01*
X62570593Y-62447833D01*
X62569037Y-62448351D01*
X62256823Y-62528559D01*
X62256812Y-62528562D01*
X62256812Y-62528563D01*
X61931543Y-62648126D01*
X61606274Y-62803690D01*
X61281005Y-62995253D01*
X61281000Y-62995256D01*
X60963776Y-63217191D01*
X60955033Y-63219125D01*
X60948796Y-63215877D01*
X60608712Y-62875793D01*
X60605285Y-62867520D01*
X60607015Y-62861397D01*
X60757746Y-62615994D01*
X60851582Y-62441507D01*
X60913306Y-62326732D01*
X61068873Y-62001456D01*
X61224436Y-61640187D01*
X61375654Y-61254016D01*
X61381862Y-61247562D01*
X61390815Y-61247387D01*
X61391012Y-61247466D01*
G37*
G04 #@! TD.AperFunction*
G04 #@! TA.AperFunction,Conductor*
G36*
X64508792Y-70999341D02*
G01*
X64509640Y-71000288D01*
X64693336Y-71229411D01*
X64694369Y-71230929D01*
X64816203Y-71444348D01*
X64928787Y-71616942D01*
X64928789Y-71616943D01*
X64928790Y-71616945D01*
X65092113Y-71732101D01*
X65092112Y-71732101D01*
X65156575Y-71741940D01*
X65356679Y-71772485D01*
X65364340Y-71777121D01*
X65366613Y-71784051D01*
X65366613Y-72262578D01*
X65363186Y-72270851D01*
X65355193Y-72274275D01*
X65011447Y-72282507D01*
X65011435Y-72282507D01*
X65011433Y-72282508D01*
X64759776Y-72302793D01*
X64759777Y-72302793D01*
X64542629Y-72327003D01*
X64291146Y-72347273D01*
X64290816Y-72347291D01*
X63947760Y-72355508D01*
X63939407Y-72352280D01*
X63935783Y-72344091D01*
X63935780Y-72343826D01*
X63934801Y-71560655D01*
X63938217Y-71552378D01*
X64492247Y-70999326D01*
X64500522Y-70995907D01*
X64508792Y-70999341D01*
G37*
G04 #@! TD.AperFunction*
G04 #@! TA.AperFunction,Conductor*
G36*
X43392545Y-76138320D02*
G01*
X43665068Y-76364954D01*
X43901619Y-76473854D01*
X44136400Y-76521846D01*
X44411445Y-76572510D01*
X44412183Y-76572698D01*
X44758284Y-76685782D01*
X44765082Y-76691607D01*
X44765770Y-76700536D01*
X44765463Y-76701368D01*
X44447562Y-77471214D01*
X44441237Y-77477553D01*
X44441214Y-77477562D01*
X43671368Y-77795463D01*
X43662413Y-77795454D01*
X43656088Y-77789115D01*
X43655788Y-77788301D01*
X43542698Y-77442183D01*
X43542510Y-77441445D01*
X43491846Y-77166400D01*
X43443854Y-76931619D01*
X43334954Y-76695068D01*
X43108320Y-76422545D01*
X43105666Y-76413994D01*
X43109043Y-76406793D01*
X43376793Y-76139043D01*
X43385065Y-76135617D01*
X43392545Y-76138320D01*
G37*
G04 #@! TD.AperFunction*
G04 #@! TA.AperFunction,Conductor*
G36*
X70457290Y-71295729D02*
G01*
X70457573Y-71296357D01*
X70758092Y-72019512D01*
X70758102Y-72028465D01*
X70758093Y-72028487D01*
X70758092Y-72028492D01*
X70457573Y-72751646D01*
X70451234Y-72757971D01*
X70442279Y-72757960D01*
X70441651Y-72757677D01*
X70139537Y-72610730D01*
X70139040Y-72610458D01*
X69920525Y-72476605D01*
X69729145Y-72369941D01*
X69729140Y-72369939D01*
X69497759Y-72299460D01*
X69497753Y-72299459D01*
X69169781Y-72274815D01*
X69161788Y-72270778D01*
X69158958Y-72263148D01*
X69158958Y-71784855D01*
X69162385Y-71776582D01*
X69169779Y-71773188D01*
X69497755Y-71748543D01*
X69497757Y-71748542D01*
X69497759Y-71748542D01*
X69729140Y-71678063D01*
X69729141Y-71678062D01*
X69729146Y-71678061D01*
X69920525Y-71571398D01*
X70139052Y-71437536D01*
X70139538Y-71437272D01*
X70441651Y-71290326D01*
X70450590Y-71289789D01*
X70457290Y-71295729D01*
G37*
G04 #@! TD.AperFunction*
G04 #@! TA.AperFunction,Conductor*
G36*
X143759652Y-84043427D02*
G01*
X143762554Y-84048234D01*
X143815813Y-84219952D01*
X143871626Y-84381904D01*
X143927442Y-84525862D01*
X143983250Y-84651803D01*
X143983253Y-84651809D01*
X144034118Y-84750190D01*
X144034874Y-84759111D01*
X144029934Y-84765479D01*
X143516209Y-85087112D01*
X143507378Y-85088597D01*
X143503791Y-85087112D01*
X142990065Y-84765479D01*
X142984872Y-84758184D01*
X142985880Y-84750192D01*
X143036746Y-84651809D01*
X143036749Y-84651803D01*
X143092557Y-84525862D01*
X143148373Y-84381904D01*
X143204186Y-84219952D01*
X143257446Y-84048234D01*
X143263170Y-84041347D01*
X143268621Y-84040000D01*
X143751379Y-84040000D01*
X143759652Y-84043427D01*
G37*
G04 #@! TD.AperFunction*
G04 #@! TA.AperFunction,Conductor*
G36*
X41584190Y-76700552D02*
G01*
X41584562Y-76701358D01*
X41904134Y-77470511D01*
X41904143Y-77479466D01*
X41904134Y-77479489D01*
X41584562Y-78248641D01*
X41578223Y-78254966D01*
X41569268Y-78254957D01*
X41568462Y-78254585D01*
X41243783Y-78089824D01*
X41243110Y-78089424D01*
X41012806Y-77930768D01*
X40812855Y-77798688D01*
X40669687Y-77745784D01*
X40568582Y-77708424D01*
X40215629Y-77675977D01*
X40207704Y-77671807D01*
X40205000Y-77664326D01*
X40205000Y-77285673D01*
X40208427Y-77277400D01*
X40215626Y-77274023D01*
X40568584Y-77241574D01*
X40812855Y-77151311D01*
X41012806Y-77019230D01*
X41243121Y-76860566D01*
X41243766Y-76860183D01*
X41568463Y-76695413D01*
X41577391Y-76694726D01*
X41584190Y-76700552D01*
G37*
G04 #@! TD.AperFunction*
G04 #@! TA.AperFunction,Conductor*
G36*
X60963776Y-101882808D02*
G01*
X61281000Y-102104743D01*
X61281004Y-102104745D01*
X61281005Y-102104746D01*
X61606274Y-102296309D01*
X61931543Y-102451873D01*
X62256812Y-102571436D01*
X62256821Y-102571438D01*
X62256823Y-102571439D01*
X62322457Y-102588300D01*
X62569038Y-102651648D01*
X62576198Y-102657026D01*
X62577458Y-102665891D01*
X62576940Y-102667447D01*
X62232562Y-103501215D01*
X62226236Y-103507553D01*
X62226215Y-103507562D01*
X61391016Y-103852530D01*
X61382061Y-103852521D01*
X61375735Y-103846183D01*
X61375655Y-103845982D01*
X61224436Y-103459812D01*
X61068873Y-103098542D01*
X60913306Y-102773267D01*
X60757750Y-102484013D01*
X60757746Y-102484005D01*
X60642459Y-102296309D01*
X60607015Y-102238602D01*
X60605605Y-102229759D01*
X60608710Y-102224208D01*
X60948797Y-101884121D01*
X60957069Y-101880695D01*
X60963776Y-101882808D01*
G37*
G04 #@! TD.AperFunction*
G04 #@! TA.AperFunction,Conductor*
G36*
X43392545Y-65978320D02*
G01*
X43665068Y-66204954D01*
X43901619Y-66313854D01*
X44136400Y-66361846D01*
X44411445Y-66412510D01*
X44412183Y-66412698D01*
X44758284Y-66525782D01*
X44765082Y-66531607D01*
X44765770Y-66540536D01*
X44765463Y-66541368D01*
X44447562Y-67311214D01*
X44441237Y-67317553D01*
X44441214Y-67317562D01*
X43671368Y-67635463D01*
X43662413Y-67635454D01*
X43656088Y-67629115D01*
X43655788Y-67628301D01*
X43542698Y-67282183D01*
X43542510Y-67281445D01*
X43491846Y-67006400D01*
X43443854Y-66771619D01*
X43334954Y-66535068D01*
X43108320Y-66262545D01*
X43105666Y-66253994D01*
X43109043Y-66246793D01*
X43376793Y-65979043D01*
X43385065Y-65975617D01*
X43392545Y-65978320D01*
G37*
G04 #@! TD.AperFunction*
G04 #@! TA.AperFunction,Conductor*
G36*
X41584190Y-79240552D02*
G01*
X41584562Y-79241358D01*
X41904134Y-80010511D01*
X41904143Y-80019466D01*
X41904134Y-80019489D01*
X41584562Y-80788641D01*
X41578223Y-80794966D01*
X41569268Y-80794957D01*
X41568462Y-80794585D01*
X41243783Y-80629824D01*
X41243110Y-80629424D01*
X41012806Y-80470768D01*
X41012806Y-80470767D01*
X40812855Y-80338688D01*
X40669687Y-80285784D01*
X40568582Y-80248424D01*
X40215629Y-80215977D01*
X40207704Y-80211807D01*
X40205000Y-80204326D01*
X40205000Y-79825673D01*
X40208427Y-79817400D01*
X40215626Y-79814023D01*
X40568584Y-79781574D01*
X40812855Y-79691311D01*
X41012806Y-79559230D01*
X41243121Y-79400566D01*
X41243766Y-79400183D01*
X41568463Y-79235413D01*
X41577391Y-79234726D01*
X41584190Y-79240552D01*
G37*
G04 #@! TD.AperFunction*
G04 #@! TA.AperFunction,Conductor*
G36*
X143759652Y-97378427D02*
G01*
X143762554Y-97383234D01*
X143815813Y-97554952D01*
X143871626Y-97716904D01*
X143927442Y-97860862D01*
X143983250Y-97986803D01*
X143983253Y-97986809D01*
X144034118Y-98085190D01*
X144034874Y-98094111D01*
X144029934Y-98100479D01*
X143516209Y-98422112D01*
X143507378Y-98423597D01*
X143503791Y-98422112D01*
X142990065Y-98100479D01*
X142984872Y-98093184D01*
X142985880Y-98085192D01*
X143036746Y-97986809D01*
X143036749Y-97986803D01*
X143092557Y-97860862D01*
X143148373Y-97716904D01*
X143204186Y-97554952D01*
X143257446Y-97383234D01*
X143263170Y-97376347D01*
X143268621Y-97375000D01*
X143751379Y-97375000D01*
X143759652Y-97378427D01*
G37*
G04 #@! TD.AperFunction*
G04 #@! TA.AperFunction,Conductor*
G36*
X143759652Y-70073427D02*
G01*
X143762554Y-70078234D01*
X143815813Y-70249952D01*
X143871626Y-70411904D01*
X143927442Y-70555862D01*
X143983250Y-70681803D01*
X143983253Y-70681809D01*
X144034118Y-70780190D01*
X144034874Y-70789111D01*
X144029934Y-70795479D01*
X143516209Y-71117112D01*
X143507378Y-71118597D01*
X143503791Y-71117112D01*
X142990065Y-70795479D01*
X142984872Y-70788184D01*
X142985880Y-70780192D01*
X143036746Y-70681809D01*
X143036749Y-70681803D01*
X143092557Y-70555862D01*
X143148373Y-70411904D01*
X143204186Y-70249952D01*
X143257446Y-70078234D01*
X143263170Y-70071347D01*
X143268621Y-70070000D01*
X143751379Y-70070000D01*
X143759652Y-70073427D01*
G37*
G04 #@! TD.AperFunction*
G04 #@! TA.AperFunction,Conductor*
G36*
X116734863Y-69215863D02*
G01*
X117504169Y-69535499D01*
X117510494Y-69541838D01*
X117510485Y-69550793D01*
X117510180Y-69551464D01*
X117351751Y-69873840D01*
X117351449Y-69874381D01*
X117205307Y-70106144D01*
X117087508Y-70308706D01*
X117087504Y-70308715D01*
X117008950Y-70554202D01*
X116981232Y-70904224D01*
X116977163Y-70912200D01*
X116969569Y-70915000D01*
X116491189Y-70915000D01*
X116482916Y-70911573D01*
X116479526Y-70904224D01*
X116451806Y-70554202D01*
X116373252Y-70308715D01*
X116373251Y-70308714D01*
X116373250Y-70308709D01*
X116255450Y-70106144D01*
X116109307Y-69874381D01*
X116109009Y-69873847D01*
X115950577Y-69551464D01*
X115950004Y-69542528D01*
X115955918Y-69535803D01*
X115956573Y-69535505D01*
X116725890Y-69215864D01*
X116734845Y-69215856D01*
X116734863Y-69215863D01*
G37*
G04 #@! TD.AperFunction*
G04 #@! TA.AperFunction,Conductor*
G36*
X43392545Y-88838320D02*
G01*
X43665068Y-89064954D01*
X43901619Y-89173854D01*
X44136400Y-89221846D01*
X44411445Y-89272510D01*
X44412183Y-89272698D01*
X44758284Y-89385782D01*
X44765082Y-89391607D01*
X44765770Y-89400536D01*
X44765463Y-89401368D01*
X44447562Y-90171214D01*
X44441237Y-90177553D01*
X44441214Y-90177562D01*
X43671368Y-90495463D01*
X43662413Y-90495454D01*
X43656088Y-90489115D01*
X43655788Y-90488301D01*
X43542698Y-90142183D01*
X43542510Y-90141445D01*
X43491846Y-89866400D01*
X43443854Y-89631619D01*
X43334954Y-89395068D01*
X43108320Y-89122545D01*
X43105666Y-89113994D01*
X43109043Y-89106793D01*
X43376793Y-88839043D01*
X43385065Y-88835617D01*
X43392545Y-88838320D01*
G37*
G04 #@! TD.AperFunction*
G04 #@! TA.AperFunction,Conductor*
G36*
X120326966Y-72807966D02*
G01*
X121096272Y-73127602D01*
X121102597Y-73133941D01*
X121102588Y-73142896D01*
X121102283Y-73143567D01*
X120943854Y-73465943D01*
X120943552Y-73466484D01*
X120797410Y-73698247D01*
X120679611Y-73900809D01*
X120679607Y-73900818D01*
X120601053Y-74146305D01*
X120573335Y-74496327D01*
X120569266Y-74504303D01*
X120561672Y-74507103D01*
X120083292Y-74507103D01*
X120075019Y-74503676D01*
X120071629Y-74496327D01*
X120043909Y-74146305D01*
X119965355Y-73900818D01*
X119965354Y-73900817D01*
X119965353Y-73900812D01*
X119847553Y-73698247D01*
X119701410Y-73466484D01*
X119701112Y-73465950D01*
X119542680Y-73143567D01*
X119542107Y-73134631D01*
X119548021Y-73127906D01*
X119548676Y-73127608D01*
X120317993Y-72807967D01*
X120326948Y-72807959D01*
X120326966Y-72807966D01*
G37*
G04 #@! TD.AperFunction*
G04 #@! TA.AperFunction,Conductor*
G36*
X43392545Y-63438320D02*
G01*
X43665068Y-63664954D01*
X43901619Y-63773854D01*
X44136400Y-63821846D01*
X44411445Y-63872510D01*
X44412183Y-63872698D01*
X44758284Y-63985782D01*
X44765082Y-63991607D01*
X44765770Y-64000536D01*
X44765463Y-64001368D01*
X44447562Y-64771214D01*
X44441237Y-64777553D01*
X44441214Y-64777562D01*
X43671368Y-65095463D01*
X43662413Y-65095454D01*
X43656088Y-65089115D01*
X43655788Y-65088301D01*
X43542698Y-64742183D01*
X43542510Y-64741445D01*
X43491846Y-64466400D01*
X43443854Y-64231619D01*
X43334954Y-63995068D01*
X43108320Y-63722545D01*
X43105666Y-63713994D01*
X43109043Y-63706793D01*
X43376793Y-63439043D01*
X43385065Y-63435617D01*
X43392545Y-63438320D01*
G37*
G04 #@! TD.AperFunction*
G04 #@! TA.AperFunction,Conductor*
G36*
X79923768Y-68899991D02*
G01*
X80647615Y-69198840D01*
X80653954Y-69205165D01*
X80653965Y-69205190D01*
X80952814Y-69929036D01*
X80952803Y-69937991D01*
X80946464Y-69944316D01*
X80945820Y-69944559D01*
X80628288Y-70054278D01*
X80627744Y-70054437D01*
X80378581Y-70114302D01*
X80167835Y-70174204D01*
X79954378Y-70287985D01*
X79705038Y-70502472D01*
X79696531Y-70505269D01*
X79689135Y-70501875D01*
X79350930Y-70163670D01*
X79347503Y-70155397D01*
X79350331Y-70147770D01*
X79564819Y-69898428D01*
X79678599Y-69684971D01*
X79738502Y-69474223D01*
X79798373Y-69225036D01*
X79798518Y-69224539D01*
X79908246Y-68906982D01*
X79914185Y-68900285D01*
X79923124Y-68899748D01*
X79923768Y-68899991D01*
G37*
G04 #@! TD.AperFunction*
G04 #@! TA.AperFunction,Conductor*
G36*
X71856588Y-86058599D02*
G01*
X71862913Y-86064938D01*
X71863156Y-86065582D01*
X71942990Y-86296624D01*
X71964644Y-86359293D01*
X71972875Y-86383112D01*
X71973033Y-86383652D01*
X72032899Y-86632820D01*
X72092802Y-86843568D01*
X72206583Y-87057025D01*
X72421069Y-87306365D01*
X72423866Y-87314871D01*
X72420472Y-87322267D01*
X72082267Y-87660472D01*
X72073994Y-87663899D01*
X72066365Y-87661069D01*
X71817025Y-87446583D01*
X71603568Y-87332802D01*
X71603567Y-87332801D01*
X71603566Y-87332801D01*
X71392820Y-87272899D01*
X71392820Y-87272898D01*
X71143652Y-87213033D01*
X71143117Y-87212876D01*
X71056624Y-87182990D01*
X70825582Y-87103156D01*
X70818882Y-87097216D01*
X70818345Y-87088277D01*
X70818577Y-87087659D01*
X71117438Y-86363785D01*
X71123762Y-86357448D01*
X71123764Y-86357446D01*
X71847635Y-86058588D01*
X71856588Y-86058599D01*
G37*
G04 #@! TD.AperFunction*
G04 #@! TA.AperFunction,Conductor*
G36*
X43392545Y-68518320D02*
G01*
X43665068Y-68744954D01*
X43901619Y-68853854D01*
X44136400Y-68901846D01*
X44411445Y-68952510D01*
X44412183Y-68952698D01*
X44758284Y-69065782D01*
X44765082Y-69071607D01*
X44765770Y-69080536D01*
X44765463Y-69081368D01*
X44447562Y-69851214D01*
X44441237Y-69857553D01*
X44441214Y-69857562D01*
X43671368Y-70175463D01*
X43662413Y-70175454D01*
X43656088Y-70169115D01*
X43655788Y-70168301D01*
X43542698Y-69822183D01*
X43542510Y-69821445D01*
X43491846Y-69546400D01*
X43443854Y-69311619D01*
X43334954Y-69075068D01*
X43108320Y-68802545D01*
X43105666Y-68793994D01*
X43109043Y-68786793D01*
X43376793Y-68519043D01*
X43385065Y-68515617D01*
X43392545Y-68518320D01*
G37*
G04 #@! TD.AperFunction*
G04 #@! TA.AperFunction,Conductor*
G36*
X88247348Y-104538468D02*
G01*
X88585613Y-104876733D01*
X88589040Y-104885006D01*
X88586242Y-104892598D01*
X88358383Y-105159754D01*
X88240493Y-105388981D01*
X88240492Y-105388984D01*
X88180743Y-105615618D01*
X88120360Y-105882912D01*
X88120191Y-105883511D01*
X88004315Y-106223565D01*
X87998403Y-106230290D01*
X87989466Y-106230866D01*
X87988774Y-106230605D01*
X87218782Y-105912644D01*
X87212444Y-105906320D01*
X86894471Y-105136298D01*
X86894480Y-105127345D01*
X86900819Y-105121020D01*
X86901501Y-105120763D01*
X87241406Y-105004795D01*
X87241957Y-105004639D01*
X87509057Y-104943973D01*
X87735457Y-104883886D01*
X87964473Y-104765738D01*
X88231479Y-104537841D01*
X88239997Y-104535077D01*
X88247348Y-104538468D01*
G37*
G04 #@! TD.AperFunction*
G04 #@! TA.AperFunction,Conductor*
G36*
X69981187Y-64460161D02*
G01*
X69981470Y-64460789D01*
X70281989Y-65183944D01*
X70281999Y-65192897D01*
X70281990Y-65192919D01*
X70281989Y-65192924D01*
X69981470Y-65916078D01*
X69975131Y-65922403D01*
X69966176Y-65922392D01*
X69965548Y-65922109D01*
X69663434Y-65775162D01*
X69662937Y-65774890D01*
X69444422Y-65641037D01*
X69253042Y-65534373D01*
X69253037Y-65534371D01*
X69021656Y-65463892D01*
X69021650Y-65463891D01*
X68693678Y-65439247D01*
X68685685Y-65435210D01*
X68682855Y-65427580D01*
X68682855Y-64949287D01*
X68686282Y-64941014D01*
X68693676Y-64937620D01*
X69021652Y-64912975D01*
X69021654Y-64912974D01*
X69021656Y-64912974D01*
X69253037Y-64842495D01*
X69253038Y-64842494D01*
X69253043Y-64842493D01*
X69444422Y-64735830D01*
X69662949Y-64601968D01*
X69663435Y-64601704D01*
X69965548Y-64454758D01*
X69974487Y-64454221D01*
X69981187Y-64460161D01*
G37*
G04 #@! TD.AperFunction*
G04 #@! TA.AperFunction,Conductor*
G36*
X143514957Y-63516019D02*
G01*
X143520598Y-63521660D01*
X144036627Y-64625022D01*
X144037028Y-64633968D01*
X144036422Y-64635352D01*
X144004521Y-64697054D01*
X143983253Y-64738190D01*
X143983250Y-64738197D01*
X143983250Y-64738196D01*
X143927442Y-64864137D01*
X143871626Y-65008095D01*
X143815813Y-65170047D01*
X143762554Y-65341766D01*
X143756830Y-65348653D01*
X143751379Y-65350000D01*
X143268621Y-65350000D01*
X143260348Y-65346573D01*
X143257446Y-65341766D01*
X143204186Y-65170047D01*
X143148373Y-65008095D01*
X143092557Y-64864137D01*
X143036749Y-64738196D01*
X143036749Y-64738197D01*
X143036746Y-64738190D01*
X142983576Y-64635351D01*
X142982821Y-64626430D01*
X142983372Y-64625022D01*
X143499402Y-63521660D01*
X143506011Y-63515618D01*
X143514957Y-63516019D01*
G37*
G04 #@! TD.AperFunction*
G04 #@! TA.AperFunction,Conductor*
G36*
X84645152Y-100201398D02*
G01*
X85415161Y-100519367D01*
X85421498Y-100525690D01*
X85421508Y-100525714D01*
X85739469Y-101295706D01*
X85739460Y-101304661D01*
X85733121Y-101310986D01*
X85732429Y-101311247D01*
X85392375Y-101427123D01*
X85391776Y-101427292D01*
X85124482Y-101487675D01*
X84897848Y-101547424D01*
X84897845Y-101547425D01*
X84668618Y-101665315D01*
X84401462Y-101893174D01*
X84392944Y-101895935D01*
X84385597Y-101892545D01*
X84047332Y-101554280D01*
X84043905Y-101546007D01*
X84046706Y-101538411D01*
X84274602Y-101271405D01*
X84392750Y-101042389D01*
X84452837Y-100815989D01*
X84513503Y-100548889D01*
X84513659Y-100548338D01*
X84629625Y-100208438D01*
X84635539Y-100201716D01*
X84644476Y-100201144D01*
X84645152Y-100201398D01*
G37*
G04 #@! TD.AperFunction*
G04 #@! TA.AperFunction,Conductor*
G36*
X42513870Y-97202675D02*
G01*
X42514281Y-97203108D01*
X42764214Y-97480626D01*
X42764655Y-97481181D01*
X42824794Y-97567203D01*
X42922360Y-97706764D01*
X42922570Y-97707086D01*
X43047017Y-97912641D01*
X43205032Y-98138668D01*
X43205035Y-98138671D01*
X43456019Y-98417356D01*
X43459009Y-98425796D01*
X43455598Y-98433458D01*
X43187714Y-98701342D01*
X43179441Y-98704769D01*
X43172509Y-98702495D01*
X42935852Y-98528454D01*
X42935849Y-98528453D01*
X42935848Y-98528453D01*
X42720438Y-98491043D01*
X42720437Y-98491043D01*
X42588644Y-98518670D01*
X42499838Y-98537287D01*
X42330575Y-98583429D01*
X42240420Y-98608007D01*
X42238621Y-98608349D01*
X41917967Y-98643575D01*
X41909369Y-98641072D01*
X41905059Y-98633223D01*
X41904989Y-98631955D01*
X41904969Y-98608349D01*
X41904297Y-97799152D01*
X41907717Y-97790877D01*
X41907734Y-97790860D01*
X42218430Y-97480894D01*
X42497324Y-97202654D01*
X42505601Y-97199238D01*
X42513870Y-97202675D01*
G37*
G04 #@! TD.AperFunction*
G04 #@! TA.AperFunction,Conductor*
G36*
X148288332Y-69121728D02*
G01*
X148288615Y-69122356D01*
X148589133Y-69845511D01*
X148589144Y-69854466D01*
X148589133Y-69854491D01*
X148288615Y-70577645D01*
X148282276Y-70583970D01*
X148273321Y-70583959D01*
X148272693Y-70583676D01*
X147970579Y-70436728D01*
X147970082Y-70436456D01*
X147751567Y-70302603D01*
X147560187Y-70195939D01*
X147560182Y-70195937D01*
X147328801Y-70125458D01*
X147328795Y-70125457D01*
X147000823Y-70100813D01*
X146992830Y-70096776D01*
X146990000Y-70089146D01*
X146990000Y-69850001D01*
X146990000Y-69610851D01*
X146993427Y-69602581D01*
X147000820Y-69599187D01*
X147328797Y-69574542D01*
X147328799Y-69574541D01*
X147328801Y-69574541D01*
X147560183Y-69504062D01*
X147560184Y-69504061D01*
X147560189Y-69504060D01*
X147751568Y-69397397D01*
X147970094Y-69263535D01*
X147970580Y-69263271D01*
X148272693Y-69116325D01*
X148281632Y-69115788D01*
X148288332Y-69121728D01*
G37*
G04 #@! TD.AperFunction*
G04 #@! TA.AperFunction,Conductor*
G36*
X43392545Y-71058320D02*
G01*
X43665068Y-71284954D01*
X43901619Y-71393854D01*
X44136400Y-71441846D01*
X44411445Y-71492510D01*
X44412183Y-71492698D01*
X44758284Y-71605782D01*
X44765082Y-71611607D01*
X44765770Y-71620536D01*
X44765463Y-71621368D01*
X44447562Y-72391214D01*
X44441237Y-72397553D01*
X44441214Y-72397562D01*
X43671368Y-72715463D01*
X43662413Y-72715454D01*
X43656088Y-72709115D01*
X43655788Y-72708301D01*
X43542698Y-72362183D01*
X43542510Y-72361445D01*
X43491846Y-72086400D01*
X43443854Y-71851619D01*
X43334954Y-71615068D01*
X43108320Y-71342545D01*
X43105666Y-71333994D01*
X43109043Y-71326793D01*
X43376793Y-71059043D01*
X43385065Y-71055617D01*
X43392545Y-71058320D01*
G37*
G04 #@! TD.AperFunction*
G04 #@! TA.AperFunction,Conductor*
G36*
X63663090Y-77953435D02*
G01*
X63663288Y-77953637D01*
X63814996Y-78112062D01*
X63814996Y-78112063D01*
X63868332Y-78158079D01*
X63974999Y-78250109D01*
X63975005Y-78250113D01*
X63975008Y-78250116D01*
X64134995Y-78359111D01*
X64135000Y-78359114D01*
X64294849Y-78439001D01*
X64294999Y-78439076D01*
X64446847Y-78487405D01*
X64453692Y-78493180D01*
X64454999Y-78498554D01*
X64455000Y-78981529D01*
X64451573Y-78989802D01*
X64446953Y-78992644D01*
X64294999Y-79042582D01*
X64134992Y-79124377D01*
X63975015Y-79235363D01*
X63974992Y-79235381D01*
X63814998Y-79375589D01*
X63814993Y-79375594D01*
X63663234Y-79536291D01*
X63655063Y-79539953D01*
X63646695Y-79536764D01*
X63646486Y-79536562D01*
X62862314Y-78758252D01*
X62858856Y-78749992D01*
X62862251Y-78741706D01*
X63646546Y-77953475D01*
X63654809Y-77950029D01*
X63663090Y-77953435D01*
G37*
G04 #@! TD.AperFunction*
G04 #@! TA.AperFunction,Conductor*
G36*
X128478275Y-77277175D02*
G01*
X128634878Y-77385284D01*
X128759487Y-77471307D01*
X128974784Y-77595372D01*
X129048714Y-77637975D01*
X129048715Y-77637976D01*
X129048720Y-77637978D01*
X129048723Y-77637980D01*
X129337960Y-77771654D01*
X129627196Y-77872327D01*
X129627199Y-77872327D01*
X129627200Y-77872328D01*
X129903030Y-77936864D01*
X129910305Y-77942085D01*
X129911757Y-77950921D01*
X129911179Y-77952722D01*
X129588916Y-78733085D01*
X129582591Y-78739424D01*
X129577533Y-78740305D01*
X128405545Y-78683199D01*
X128397448Y-78679374D01*
X128394646Y-78673830D01*
X128340497Y-78405606D01*
X128284547Y-78161275D01*
X128228597Y-77949761D01*
X128228593Y-77949745D01*
X128228593Y-77949746D01*
X128172649Y-77771070D01*
X128119417Y-77632280D01*
X128119654Y-77623328D01*
X128122065Y-77619820D01*
X128463356Y-77278529D01*
X128471628Y-77275103D01*
X128478275Y-77277175D01*
G37*
G04 #@! TD.AperFunction*
G04 #@! TA.AperFunction,Conductor*
G36*
X37160731Y-71615042D02*
G01*
X37161538Y-71615414D01*
X37486219Y-71780176D01*
X37486888Y-71780574D01*
X37717192Y-71939230D01*
X37917143Y-72071311D01*
X38161415Y-72161574D01*
X38514372Y-72194023D01*
X38522296Y-72198192D01*
X38525000Y-72205673D01*
X38525000Y-72584326D01*
X38521573Y-72592599D01*
X38514371Y-72595977D01*
X38161416Y-72628424D01*
X37917143Y-72718688D01*
X37917141Y-72718689D01*
X37717192Y-72850768D01*
X37486888Y-73009424D01*
X37486215Y-73009824D01*
X37161537Y-73174585D01*
X37152608Y-73175273D01*
X37145809Y-73169447D01*
X37145443Y-73168655D01*
X36825864Y-72399488D01*
X36825856Y-72390534D01*
X36825865Y-72390511D01*
X36907097Y-72195000D01*
X37145438Y-71621356D01*
X37151776Y-71615033D01*
X37160731Y-71615042D01*
G37*
G04 #@! TD.AperFunction*
G04 #@! TA.AperFunction,Conductor*
G36*
X61112791Y-86043247D02*
G01*
X61119116Y-86049586D01*
X61119252Y-86049931D01*
X61248672Y-86393865D01*
X61382345Y-86716101D01*
X61516013Y-87005328D01*
X61649686Y-87261565D01*
X61778676Y-87476980D01*
X61779986Y-87485839D01*
X61776911Y-87491264D01*
X61436146Y-87832029D01*
X61427873Y-87835456D01*
X61422042Y-87833899D01*
X61218301Y-87716780D01*
X61218289Y-87716774D01*
X61006792Y-87628012D01*
X61006781Y-87628008D01*
X60795276Y-87572060D01*
X60795271Y-87572059D01*
X60795270Y-87572059D01*
X60742391Y-87566276D01*
X60583759Y-87548927D01*
X60583756Y-87548927D01*
X60528991Y-87551434D01*
X60383896Y-87558079D01*
X60375475Y-87555034D01*
X60371675Y-87546960D01*
X60368265Y-87476980D01*
X60314694Y-86377527D01*
X60317714Y-86369098D01*
X60321911Y-86366146D01*
X61103838Y-86043238D01*
X61112791Y-86043247D01*
G37*
G04 #@! TD.AperFunction*
G04 #@! TA.AperFunction,Conductor*
G36*
X37160731Y-81775042D02*
G01*
X37161538Y-81775414D01*
X37486219Y-81940176D01*
X37486888Y-81940574D01*
X37717192Y-82099230D01*
X37917143Y-82231311D01*
X38161415Y-82321574D01*
X38514372Y-82354023D01*
X38522296Y-82358192D01*
X38525000Y-82365673D01*
X38525000Y-82744326D01*
X38521573Y-82752599D01*
X38514371Y-82755977D01*
X38161416Y-82788424D01*
X37917143Y-82878688D01*
X37917141Y-82878689D01*
X37717192Y-83010768D01*
X37486888Y-83169424D01*
X37486215Y-83169824D01*
X37161537Y-83334585D01*
X37152608Y-83335273D01*
X37145809Y-83329447D01*
X37145443Y-83328655D01*
X36825864Y-82559488D01*
X36825856Y-82550534D01*
X36825865Y-82550511D01*
X36907097Y-82355000D01*
X37145438Y-81781356D01*
X37151776Y-81775033D01*
X37160731Y-81775042D01*
G37*
G04 #@! TD.AperFunction*
G04 #@! TA.AperFunction,Conductor*
G36*
X143898938Y-63025877D02*
G01*
X144034190Y-63102746D01*
X144178142Y-63166559D01*
X144322095Y-63212373D01*
X144466042Y-63240185D01*
X144466047Y-63240186D01*
X144599097Y-63249256D01*
X144607117Y-63253238D01*
X144610000Y-63260929D01*
X144610000Y-63740577D01*
X144606573Y-63748850D01*
X144600794Y-63752008D01*
X144499998Y-63773999D01*
X144390007Y-63815996D01*
X144389995Y-63816001D01*
X144280001Y-63875998D01*
X144169998Y-63954000D01*
X144068229Y-64042818D01*
X144059743Y-64045676D01*
X144052270Y-64042284D01*
X143885682Y-63875998D01*
X143516397Y-63507384D01*
X143512964Y-63499115D01*
X143515507Y-63491822D01*
X143884006Y-63028763D01*
X143891837Y-63024425D01*
X143898938Y-63025877D01*
G37*
G04 #@! TD.AperFunction*
G04 #@! TA.AperFunction,Conductor*
G36*
X55497918Y-111023158D02*
G01*
X55765021Y-111251061D01*
X55765021Y-111251062D01*
X55925902Y-111333939D01*
X55994158Y-111369102D01*
X56220689Y-111429038D01*
X56220689Y-111429039D01*
X56487899Y-111489580D01*
X56488495Y-111489748D01*
X56828486Y-111605680D01*
X56835211Y-111611594D01*
X56835784Y-111620530D01*
X56835524Y-111621220D01*
X56517562Y-112391214D01*
X56511237Y-112397553D01*
X56511214Y-112397562D01*
X55741220Y-112715524D01*
X55732265Y-112715515D01*
X55725940Y-112709176D01*
X55725680Y-112708486D01*
X55609748Y-112368495D01*
X55609580Y-112367899D01*
X55549039Y-112100689D01*
X55549039Y-112100688D01*
X55489102Y-111874158D01*
X55371061Y-111645021D01*
X55143157Y-111377917D01*
X55140395Y-111369400D01*
X55143784Y-111362052D01*
X55482052Y-111023784D01*
X55490324Y-111020358D01*
X55497918Y-111023158D01*
G37*
G04 #@! TD.AperFunction*
G04 #@! TA.AperFunction,Conductor*
G36*
X142489652Y-60383427D02*
G01*
X142492554Y-60388234D01*
X142545813Y-60559952D01*
X142601626Y-60721904D01*
X142657442Y-60865862D01*
X142713250Y-60991803D01*
X142713253Y-60991809D01*
X142744448Y-61052146D01*
X142766422Y-61094647D01*
X142767178Y-61103569D01*
X142766627Y-61104977D01*
X142250598Y-62208339D01*
X142243989Y-62214381D01*
X142235043Y-62213980D01*
X142229402Y-62208339D01*
X141713372Y-61104977D01*
X141712971Y-61096031D01*
X141713574Y-61094653D01*
X141766746Y-60991809D01*
X141766749Y-60991803D01*
X141822557Y-60865862D01*
X141878373Y-60721904D01*
X141934186Y-60559952D01*
X141987446Y-60388234D01*
X141993170Y-60381347D01*
X141998621Y-60380000D01*
X142481379Y-60380000D01*
X142489652Y-60383427D01*
G37*
G04 #@! TD.AperFunction*
G04 #@! TA.AperFunction,Conductor*
G36*
X41584190Y-84320552D02*
G01*
X41584562Y-84321358D01*
X41904134Y-85090511D01*
X41904143Y-85099466D01*
X41904134Y-85099489D01*
X41584562Y-85868641D01*
X41578223Y-85874966D01*
X41569268Y-85874957D01*
X41568462Y-85874585D01*
X41243783Y-85709824D01*
X41243110Y-85709424D01*
X41012806Y-85550768D01*
X41012805Y-85550768D01*
X40812855Y-85418688D01*
X40669687Y-85365784D01*
X40568582Y-85328424D01*
X40215629Y-85295977D01*
X40207704Y-85291807D01*
X40205000Y-85284326D01*
X40205000Y-84905673D01*
X40208427Y-84897400D01*
X40215626Y-84894023D01*
X40568584Y-84861574D01*
X40812855Y-84771311D01*
X41012806Y-84639230D01*
X41243121Y-84480566D01*
X41243766Y-84480183D01*
X41568463Y-84315413D01*
X41577391Y-84314726D01*
X41584190Y-84320552D01*
G37*
G04 #@! TD.AperFunction*
G04 #@! TA.AperFunction,Conductor*
G36*
X86180923Y-64232293D02*
G01*
X86187248Y-64238632D01*
X86187508Y-64239322D01*
X86303439Y-64579311D01*
X86303607Y-64579907D01*
X86364148Y-64847118D01*
X86424085Y-65073649D01*
X86424087Y-65073654D01*
X86542126Y-65302786D01*
X86770030Y-65569890D01*
X86772793Y-65578408D01*
X86769403Y-65585757D01*
X86431137Y-65924023D01*
X86422864Y-65927450D01*
X86415270Y-65924650D01*
X86148166Y-65696746D01*
X86148166Y-65696745D01*
X85919034Y-65578707D01*
X85919033Y-65578706D01*
X85919030Y-65578705D01*
X85692498Y-65518768D01*
X85692497Y-65518768D01*
X85425287Y-65458227D01*
X85424691Y-65458059D01*
X85084702Y-65342128D01*
X85077978Y-65336214D01*
X85077404Y-65327278D01*
X85077656Y-65326606D01*
X85395627Y-64556592D01*
X85401948Y-64550257D01*
X86171969Y-64232284D01*
X86180923Y-64232293D01*
G37*
G04 #@! TD.AperFunction*
G04 #@! TA.AperFunction,Conductor*
G36*
X87976974Y-58844140D02*
G01*
X87983299Y-58850479D01*
X87983559Y-58851169D01*
X88099490Y-59191158D01*
X88099658Y-59191754D01*
X88160199Y-59458965D01*
X88220136Y-59685496D01*
X88220138Y-59685501D01*
X88338177Y-59914633D01*
X88566081Y-60181737D01*
X88568844Y-60190255D01*
X88565454Y-60197604D01*
X88227188Y-60535870D01*
X88218915Y-60539297D01*
X88211321Y-60536497D01*
X87944217Y-60308593D01*
X87944217Y-60308592D01*
X87715085Y-60190554D01*
X87715084Y-60190553D01*
X87715081Y-60190552D01*
X87488549Y-60130615D01*
X87488548Y-60130615D01*
X87221338Y-60070074D01*
X87220742Y-60069906D01*
X86880753Y-59953975D01*
X86874029Y-59948061D01*
X86873455Y-59939125D01*
X86873707Y-59938453D01*
X87191678Y-59168439D01*
X87197999Y-59162104D01*
X87968020Y-58844131D01*
X87976974Y-58844140D01*
G37*
G04 #@! TD.AperFunction*
G04 #@! TA.AperFunction,Conductor*
G36*
X87973209Y-59588865D02*
G01*
X88240312Y-59816768D01*
X88240312Y-59816769D01*
X88401193Y-59899646D01*
X88469449Y-59934809D01*
X88695980Y-59994746D01*
X88963190Y-60055287D01*
X88963786Y-60055455D01*
X89303777Y-60171387D01*
X89310502Y-60177301D01*
X89311075Y-60186237D01*
X89310815Y-60186927D01*
X88992853Y-60956921D01*
X88986528Y-60963260D01*
X88986505Y-60963269D01*
X88216511Y-61281231D01*
X88207556Y-61281222D01*
X88201231Y-61274883D01*
X88200971Y-61274193D01*
X88085039Y-60934202D01*
X88084871Y-60933606D01*
X88024330Y-60666396D01*
X88024330Y-60666395D01*
X87964393Y-60439865D01*
X87846352Y-60210728D01*
X87618448Y-59943624D01*
X87615686Y-59935107D01*
X87619075Y-59927759D01*
X87957343Y-59589491D01*
X87965615Y-59586065D01*
X87973209Y-59588865D01*
G37*
G04 #@! TD.AperFunction*
G04 #@! TA.AperFunction,Conductor*
G36*
X70392365Y-86058588D02*
G01*
X71116212Y-86357437D01*
X71122551Y-86363762D01*
X71122562Y-86363787D01*
X71421411Y-87087633D01*
X71421400Y-87096588D01*
X71415061Y-87102913D01*
X71414417Y-87103156D01*
X71096885Y-87212875D01*
X71096341Y-87213034D01*
X70847178Y-87272899D01*
X70636432Y-87332801D01*
X70422975Y-87446582D01*
X70173635Y-87661069D01*
X70165128Y-87663866D01*
X70157732Y-87660472D01*
X69819527Y-87322267D01*
X69816100Y-87313994D01*
X69818928Y-87306367D01*
X70033416Y-87057025D01*
X70147196Y-86843568D01*
X70207099Y-86632820D01*
X70266970Y-86383633D01*
X70267115Y-86383136D01*
X70376843Y-86065579D01*
X70382782Y-86058882D01*
X70391721Y-86058345D01*
X70392365Y-86058588D01*
G37*
G04 #@! TD.AperFunction*
G04 #@! TA.AperFunction,Conductor*
G36*
X37160731Y-69075042D02*
G01*
X37161538Y-69075414D01*
X37486219Y-69240176D01*
X37486888Y-69240574D01*
X37717192Y-69399230D01*
X37917143Y-69531311D01*
X38161415Y-69621574D01*
X38514372Y-69654023D01*
X38522296Y-69658192D01*
X38525000Y-69665673D01*
X38525000Y-70044326D01*
X38521573Y-70052599D01*
X38514371Y-70055977D01*
X38161416Y-70088424D01*
X37917143Y-70178688D01*
X37917141Y-70178689D01*
X37717192Y-70310768D01*
X37486888Y-70469424D01*
X37486215Y-70469824D01*
X37161537Y-70634585D01*
X37152608Y-70635273D01*
X37145809Y-70629447D01*
X37145443Y-70628655D01*
X36825864Y-69859488D01*
X36825856Y-69850534D01*
X36825865Y-69850511D01*
X36907097Y-69655000D01*
X37145438Y-69081356D01*
X37151776Y-69075033D01*
X37160731Y-69075042D01*
G37*
G04 #@! TD.AperFunction*
G04 #@! TA.AperFunction,Conductor*
G36*
X37160793Y-97014894D02*
G01*
X37161464Y-97015198D01*
X37483847Y-97173630D01*
X37484388Y-97173932D01*
X37716144Y-97320071D01*
X37918709Y-97437871D01*
X38164201Y-97516427D01*
X38514225Y-97544146D01*
X38522200Y-97548215D01*
X38525000Y-97555809D01*
X38525000Y-98034190D01*
X38521573Y-98042463D01*
X38514224Y-98045853D01*
X38164202Y-98073571D01*
X37918715Y-98152125D01*
X37918706Y-98152129D01*
X37716144Y-98269928D01*
X37484381Y-98416070D01*
X37483840Y-98416372D01*
X37161464Y-98574801D01*
X37152528Y-98575375D01*
X37145804Y-98569461D01*
X37145505Y-98568804D01*
X36825864Y-97799488D01*
X36825856Y-97790534D01*
X36825865Y-97790511D01*
X37145499Y-97021209D01*
X37151838Y-97014885D01*
X37160793Y-97014894D01*
G37*
G04 #@! TD.AperFunction*
G04 #@! TA.AperFunction,Conductor*
G36*
X62234484Y-64135863D02*
G01*
X63003790Y-64455499D01*
X63010115Y-64461838D01*
X63010106Y-64470793D01*
X63009801Y-64471464D01*
X62851372Y-64793840D01*
X62851070Y-64794381D01*
X62704928Y-65026144D01*
X62587129Y-65228706D01*
X62587125Y-65228715D01*
X62508571Y-65474202D01*
X62480853Y-65824224D01*
X62476784Y-65832200D01*
X62469190Y-65835000D01*
X61990810Y-65835000D01*
X61982537Y-65831573D01*
X61979147Y-65824224D01*
X61951427Y-65474202D01*
X61872873Y-65228715D01*
X61872872Y-65228714D01*
X61872871Y-65228709D01*
X61755071Y-65026144D01*
X61608928Y-64794381D01*
X61608630Y-64793847D01*
X61450198Y-64471464D01*
X61449625Y-64462528D01*
X61455539Y-64455803D01*
X61456194Y-64455505D01*
X62225511Y-64135864D01*
X62234466Y-64135856D01*
X62234484Y-64135863D01*
G37*
G04 #@! TD.AperFunction*
G04 #@! TA.AperFunction,Conductor*
G36*
X145338227Y-96612180D02*
G01*
X145439999Y-96701000D01*
X145549999Y-96779000D01*
X145550001Y-96779001D01*
X145659995Y-96838998D01*
X145660007Y-96839003D01*
X145769999Y-96881000D01*
X145769998Y-96881000D01*
X145821468Y-96892229D01*
X145870794Y-96902991D01*
X145878146Y-96908102D01*
X145880000Y-96914422D01*
X145880000Y-97394694D01*
X145876573Y-97402967D01*
X145869777Y-97406300D01*
X145770012Y-97418996D01*
X145769996Y-97418999D01*
X145660002Y-97450997D01*
X145660001Y-97450998D01*
X145550007Y-97500996D01*
X145550003Y-97500997D01*
X145549999Y-97501000D01*
X145549990Y-97501005D01*
X145549991Y-97501005D01*
X145440011Y-97568991D01*
X145439989Y-97569007D01*
X145337766Y-97648927D01*
X145329138Y-97651323D01*
X145322698Y-97648374D01*
X144788102Y-97163260D01*
X144784279Y-97155164D01*
X144787301Y-97146735D01*
X144787684Y-97146331D01*
X145322271Y-96612714D01*
X145330547Y-96609296D01*
X145338227Y-96612180D01*
G37*
G04 #@! TD.AperFunction*
G04 #@! TA.AperFunction,Conductor*
G36*
X120442485Y-93917358D02*
G01*
X120442791Y-93917678D01*
X120518628Y-94000133D01*
X120518996Y-94000576D01*
X120572058Y-94071087D01*
X120572237Y-94071339D01*
X120603786Y-94118235D01*
X120615175Y-94135164D01*
X120668505Y-94206031D01*
X120668510Y-94206036D01*
X120745168Y-94289385D01*
X120748246Y-94297794D01*
X120744829Y-94305578D01*
X120477855Y-94572552D01*
X120469582Y-94575979D01*
X120461662Y-94572891D01*
X120378313Y-94496233D01*
X120378308Y-94496228D01*
X120307441Y-94442898D01*
X120290512Y-94431509D01*
X120243616Y-94399960D01*
X120243364Y-94399781D01*
X120172853Y-94346719D01*
X120172410Y-94346351D01*
X120089955Y-94270514D01*
X120086185Y-94262391D01*
X120089263Y-94253982D01*
X120089535Y-94253697D01*
X120257082Y-94084805D01*
X120425941Y-93917291D01*
X120434226Y-93913898D01*
X120442485Y-93917358D01*
G37*
G04 #@! TD.AperFunction*
G04 #@! TA.AperFunction,Conductor*
G36*
X37160731Y-79235042D02*
G01*
X37161538Y-79235414D01*
X37486219Y-79400176D01*
X37486888Y-79400574D01*
X37717192Y-79559230D01*
X37917143Y-79691311D01*
X38161415Y-79781574D01*
X38514372Y-79814023D01*
X38522296Y-79818192D01*
X38525000Y-79825673D01*
X38525000Y-80204326D01*
X38521573Y-80212599D01*
X38514371Y-80215977D01*
X38161416Y-80248424D01*
X37917143Y-80338688D01*
X37917141Y-80338689D01*
X37717192Y-80470768D01*
X37486888Y-80629424D01*
X37486215Y-80629824D01*
X37161537Y-80794585D01*
X37152608Y-80795273D01*
X37145809Y-80789447D01*
X37145443Y-80788655D01*
X36825864Y-80019488D01*
X36825856Y-80010534D01*
X36825865Y-80010511D01*
X36907097Y-79815000D01*
X37145438Y-79241356D01*
X37151776Y-79235033D01*
X37160731Y-79235042D01*
G37*
G04 #@! TD.AperFunction*
G04 #@! TA.AperFunction,Conductor*
G36*
X41584190Y-71620552D02*
G01*
X41584562Y-71621358D01*
X41904134Y-72390511D01*
X41904143Y-72399466D01*
X41904134Y-72399489D01*
X41584562Y-73168641D01*
X41578223Y-73174966D01*
X41569268Y-73174957D01*
X41568462Y-73174585D01*
X41243783Y-73009824D01*
X41243110Y-73009424D01*
X41012806Y-72850768D01*
X41012805Y-72850768D01*
X40812855Y-72718688D01*
X40669687Y-72665784D01*
X40568582Y-72628424D01*
X40215629Y-72595977D01*
X40207704Y-72591807D01*
X40205000Y-72584326D01*
X40205000Y-72205673D01*
X40208427Y-72197400D01*
X40215626Y-72194023D01*
X40568584Y-72161574D01*
X40812855Y-72071311D01*
X41012806Y-71939230D01*
X41243121Y-71780566D01*
X41243766Y-71780183D01*
X41568463Y-71615413D01*
X41577391Y-71614726D01*
X41584190Y-71620552D01*
G37*
G04 #@! TD.AperFunction*
G04 #@! TA.AperFunction,Conductor*
G36*
X88237254Y-103793500D02*
G01*
X89007263Y-104111469D01*
X89013600Y-104117792D01*
X89013610Y-104117816D01*
X89331571Y-104887808D01*
X89331562Y-104896763D01*
X89325223Y-104903088D01*
X89324531Y-104903349D01*
X88984477Y-105019225D01*
X88983878Y-105019394D01*
X88716584Y-105079777D01*
X88489950Y-105139526D01*
X88489947Y-105139527D01*
X88260720Y-105257417D01*
X87993564Y-105485276D01*
X87985046Y-105488037D01*
X87977699Y-105484647D01*
X87639434Y-105146382D01*
X87636007Y-105138109D01*
X87638808Y-105130513D01*
X87866704Y-104863507D01*
X87984852Y-104634491D01*
X88044939Y-104408091D01*
X88105605Y-104140991D01*
X88105761Y-104140440D01*
X88221727Y-103800540D01*
X88227641Y-103793818D01*
X88236578Y-103793246D01*
X88237254Y-103793500D01*
G37*
G04 #@! TD.AperFunction*
G04 #@! TA.AperFunction,Conductor*
G36*
X55243087Y-86376738D02*
G01*
X55967877Y-87070189D01*
X55971486Y-87078385D01*
X55970262Y-87083859D01*
X55970228Y-87083928D01*
X55878283Y-87268519D01*
X55852256Y-87329733D01*
X55782465Y-87493884D01*
X55686641Y-87752265D01*
X55590820Y-88043638D01*
X55497477Y-88359626D01*
X55491846Y-88366589D01*
X55486256Y-88368011D01*
X55003640Y-88368011D01*
X54995367Y-88364584D01*
X54992458Y-88359752D01*
X54992419Y-88359626D01*
X54895179Y-88043638D01*
X54795358Y-87752265D01*
X54695537Y-87493892D01*
X54595716Y-87268519D01*
X54499932Y-87083926D01*
X54499164Y-87075006D01*
X54502227Y-87070089D01*
X55226913Y-86376737D01*
X55235257Y-86373495D01*
X55243087Y-86376738D01*
G37*
G04 #@! TD.AperFunction*
G04 #@! TA.AperFunction,Conductor*
G36*
X35353207Y-76139044D02*
G01*
X35620955Y-76406792D01*
X35624382Y-76415065D01*
X35621678Y-76422546D01*
X35395043Y-76695070D01*
X35286144Y-76931618D01*
X35286144Y-76931619D01*
X35238152Y-77166400D01*
X35187489Y-77441442D01*
X35187299Y-77442190D01*
X35074218Y-77788283D01*
X35068392Y-77795082D01*
X35059463Y-77795770D01*
X35058631Y-77795463D01*
X34288785Y-77477562D01*
X34282447Y-77471238D01*
X33964536Y-76701367D01*
X33964545Y-76692413D01*
X33970884Y-76686088D01*
X33971689Y-76685790D01*
X34317819Y-76572696D01*
X34318549Y-76572510D01*
X34593598Y-76521846D01*
X34828379Y-76473854D01*
X35064931Y-76364954D01*
X35337454Y-76138320D01*
X35346005Y-76135666D01*
X35353207Y-76139044D01*
G37*
G04 #@! TD.AperFunction*
G04 #@! TA.AperFunction,Conductor*
G36*
X58172386Y-72389968D02*
G01*
X58180650Y-72393416D01*
X58184056Y-72401697D01*
X58184021Y-72402576D01*
X58169483Y-72589338D01*
X58169125Y-72591439D01*
X58132268Y-72729942D01*
X58132099Y-72730474D01*
X58087803Y-72849783D01*
X58087803Y-72849784D01*
X58050601Y-72989589D01*
X58050600Y-72989591D01*
X58035840Y-73179208D01*
X58031781Y-73187190D01*
X58024175Y-73190000D01*
X57545825Y-73190000D01*
X57537552Y-73186573D01*
X57534160Y-73179208D01*
X57533226Y-73167213D01*
X57519400Y-72989592D01*
X57482200Y-72849795D01*
X57437894Y-72730456D01*
X57437731Y-72729942D01*
X57422138Y-72671348D01*
X57400872Y-72591432D01*
X57400517Y-72589346D01*
X57385978Y-72402573D01*
X57388753Y-72394062D01*
X57396735Y-72390003D01*
X57397601Y-72389968D01*
X57785000Y-72389000D01*
X58172386Y-72389968D01*
G37*
G04 #@! TD.AperFunction*
G04 #@! TA.AperFunction,Conductor*
G36*
X35353207Y-83759044D02*
G01*
X35620955Y-84026792D01*
X35624382Y-84035065D01*
X35621678Y-84042546D01*
X35395043Y-84315070D01*
X35286144Y-84551618D01*
X35286144Y-84551619D01*
X35238152Y-84786400D01*
X35187489Y-85061442D01*
X35187299Y-85062190D01*
X35074218Y-85408283D01*
X35068392Y-85415082D01*
X35059463Y-85415770D01*
X35058631Y-85415463D01*
X34288785Y-85097562D01*
X34282447Y-85091238D01*
X33964536Y-84321367D01*
X33964545Y-84312413D01*
X33970884Y-84306088D01*
X33971689Y-84305790D01*
X34317819Y-84192696D01*
X34318549Y-84192510D01*
X34593598Y-84141846D01*
X34828379Y-84093854D01*
X35064931Y-83984954D01*
X35337454Y-83758320D01*
X35346005Y-83755666D01*
X35353207Y-83759044D01*
G37*
G04 #@! TD.AperFunction*
G04 #@! TA.AperFunction,Conductor*
G36*
X43392545Y-83758320D02*
G01*
X43665068Y-83984954D01*
X43901619Y-84093854D01*
X44136400Y-84141846D01*
X44411445Y-84192510D01*
X44412183Y-84192698D01*
X44758284Y-84305782D01*
X44765082Y-84311607D01*
X44765770Y-84320536D01*
X44765463Y-84321368D01*
X44447562Y-85091214D01*
X44441237Y-85097553D01*
X44441214Y-85097562D01*
X43671368Y-85415463D01*
X43662413Y-85415454D01*
X43656088Y-85409115D01*
X43655788Y-85408301D01*
X43542698Y-85062183D01*
X43542510Y-85061445D01*
X43491846Y-84786400D01*
X43443854Y-84551619D01*
X43334954Y-84315068D01*
X43108320Y-84042545D01*
X43105666Y-84033994D01*
X43109043Y-84026793D01*
X43376793Y-83759043D01*
X43385065Y-83755617D01*
X43392545Y-83758320D01*
G37*
G04 #@! TD.AperFunction*
G04 #@! TA.AperFunction,Conductor*
G36*
X72078696Y-77437144D02*
G01*
X72416901Y-77775349D01*
X72420328Y-77783622D01*
X72417507Y-77791241D01*
X72203293Y-78040892D01*
X72203293Y-78040893D01*
X72090411Y-78254897D01*
X72031625Y-78466266D01*
X71972691Y-78715980D01*
X71972529Y-78716540D01*
X71863147Y-79034397D01*
X71857215Y-79041105D01*
X71848277Y-79041653D01*
X71847619Y-79041405D01*
X71123787Y-78742562D01*
X71117448Y-78736237D01*
X71117437Y-78736212D01*
X70918719Y-78254895D01*
X70818583Y-78012352D01*
X70818594Y-78003398D01*
X70824933Y-77997073D01*
X70825539Y-77996843D01*
X71142439Y-77886956D01*
X71142946Y-77886808D01*
X71391338Y-77826214D01*
X71391337Y-77826213D01*
X71601293Y-77765424D01*
X71814025Y-77651005D01*
X72062784Y-77436554D01*
X72071287Y-77433749D01*
X72078696Y-77437144D01*
G37*
G04 #@! TD.AperFunction*
G04 #@! TA.AperFunction,Conductor*
G36*
X79698633Y-94583929D02*
G01*
X79947974Y-94798416D01*
X79947976Y-94798417D01*
X80161430Y-94912196D01*
X80372177Y-94972099D01*
X80372178Y-94972099D01*
X80621358Y-95031969D01*
X80621867Y-95032117D01*
X80897706Y-95127430D01*
X80939417Y-95141843D01*
X80946117Y-95147783D01*
X80946654Y-95156722D01*
X80946411Y-95157366D01*
X80647562Y-95881212D01*
X80641237Y-95887551D01*
X80641212Y-95887562D01*
X79917366Y-96186411D01*
X79908411Y-96186400D01*
X79902086Y-96180061D01*
X79901843Y-96179417D01*
X79887430Y-96137706D01*
X79792117Y-95861867D01*
X79791969Y-95861358D01*
X79732099Y-95612178D01*
X79672196Y-95401431D01*
X79672196Y-95401430D01*
X79558417Y-95187976D01*
X79558416Y-95187974D01*
X79343929Y-94938633D01*
X79341133Y-94930128D01*
X79344526Y-94922733D01*
X79682733Y-94584526D01*
X79691005Y-94581100D01*
X79698633Y-94583929D01*
G37*
G04 #@! TD.AperFunction*
G04 #@! TA.AperFunction,Conductor*
G36*
X35353207Y-68519044D02*
G01*
X35620955Y-68786792D01*
X35624382Y-68795065D01*
X35621678Y-68802546D01*
X35395043Y-69075070D01*
X35286144Y-69311618D01*
X35286144Y-69311619D01*
X35238152Y-69546400D01*
X35187489Y-69821442D01*
X35187299Y-69822190D01*
X35074218Y-70168283D01*
X35068392Y-70175082D01*
X35059463Y-70175770D01*
X35058631Y-70175463D01*
X34288785Y-69857562D01*
X34282447Y-69851238D01*
X33964536Y-69081367D01*
X33964545Y-69072413D01*
X33970884Y-69066088D01*
X33971689Y-69065790D01*
X34317819Y-68952696D01*
X34318549Y-68952510D01*
X34593598Y-68901846D01*
X34828379Y-68853854D01*
X35064931Y-68744954D01*
X35337454Y-68518320D01*
X35346005Y-68515666D01*
X35353207Y-68519044D01*
G37*
G04 #@! TD.AperFunction*
G04 #@! TA.AperFunction,Conductor*
G36*
X41584190Y-89400552D02*
G01*
X41584562Y-89401358D01*
X41904134Y-90170511D01*
X41904143Y-90179466D01*
X41904134Y-90179489D01*
X41584562Y-90948641D01*
X41578223Y-90954966D01*
X41569268Y-90954957D01*
X41568462Y-90954585D01*
X41243783Y-90789824D01*
X41243110Y-90789424D01*
X41012806Y-90630768D01*
X41012805Y-90630768D01*
X40812855Y-90498688D01*
X40669687Y-90445784D01*
X40568582Y-90408424D01*
X40215629Y-90375977D01*
X40207704Y-90371807D01*
X40205000Y-90364326D01*
X40205000Y-89985673D01*
X40208427Y-89977400D01*
X40215626Y-89974023D01*
X40568584Y-89941574D01*
X40812855Y-89851311D01*
X41012806Y-89719230D01*
X41243121Y-89560566D01*
X41243766Y-89560183D01*
X41568463Y-89395413D01*
X41577391Y-89394726D01*
X41584190Y-89400552D01*
G37*
G04 #@! TD.AperFunction*
G04 #@! TA.AperFunction,Conductor*
G36*
X45462268Y-98813585D02*
G01*
X45466038Y-98821708D01*
X45466048Y-98822150D01*
X45467000Y-99060000D01*
X45466048Y-99297849D01*
X45462588Y-99306108D01*
X45454301Y-99309502D01*
X45453859Y-99309492D01*
X45341925Y-99304811D01*
X45341351Y-99304758D01*
X45253970Y-99292420D01*
X45253664Y-99292369D01*
X45178189Y-99277602D01*
X45178179Y-99277600D01*
X45115591Y-99268762D01*
X45090353Y-99265199D01*
X44977211Y-99260468D01*
X44969088Y-99256698D01*
X44966000Y-99248778D01*
X44966000Y-98871221D01*
X44969427Y-98862948D01*
X44977210Y-98859531D01*
X45090358Y-98854800D01*
X45178179Y-98842400D01*
X45253682Y-98827626D01*
X45253970Y-98827579D01*
X45341351Y-98815241D01*
X45341923Y-98815188D01*
X45453860Y-98810507D01*
X45462268Y-98813585D01*
G37*
G04 #@! TD.AperFunction*
G04 #@! TA.AperFunction,Conductor*
G36*
X128885535Y-80547816D02*
G01*
X129578323Y-81271912D01*
X129581566Y-81280258D01*
X129578323Y-81288088D01*
X128885535Y-82012183D01*
X128877339Y-82015792D01*
X128870823Y-82013981D01*
X128620147Y-81855285D01*
X128620144Y-81855283D01*
X128361373Y-81724462D01*
X128361364Y-81724458D01*
X128361361Y-81724457D01*
X128102607Y-81626642D01*
X128102594Y-81626638D01*
X127843837Y-81561820D01*
X127595334Y-81531263D01*
X127587541Y-81526852D01*
X127585062Y-81519650D01*
X127585062Y-81040349D01*
X127588489Y-81032076D01*
X127595331Y-81028737D01*
X127843832Y-80998179D01*
X127843835Y-80998178D01*
X127843837Y-80998178D01*
X127972709Y-80965895D01*
X128102603Y-80933358D01*
X128361373Y-80835537D01*
X128620144Y-80704716D01*
X128870824Y-80546017D01*
X128879646Y-80544489D01*
X128885535Y-80547816D01*
G37*
G04 #@! TD.AperFunction*
G04 #@! TA.AperFunction,Conductor*
G36*
X129835710Y-72063427D02*
G01*
X129838141Y-72066976D01*
X129945061Y-72309219D01*
X129945062Y-72309220D01*
X130055058Y-72526184D01*
X130165064Y-72710913D01*
X130275048Y-72863366D01*
X130275060Y-72863381D01*
X130376854Y-72974636D01*
X130379910Y-72983053D01*
X130376120Y-72991166D01*
X130375783Y-72991463D01*
X129592623Y-73654597D01*
X129584094Y-73657328D01*
X129577501Y-73654597D01*
X128794340Y-72991463D01*
X128790241Y-72983502D01*
X128792972Y-72974973D01*
X128793242Y-72974666D01*
X128895061Y-72863383D01*
X128895066Y-72863375D01*
X128895074Y-72863366D01*
X129005059Y-72710913D01*
X129115065Y-72526184D01*
X129225061Y-72309220D01*
X129225062Y-72309219D01*
X129331982Y-72066976D01*
X129338459Y-72060791D01*
X129342687Y-72060000D01*
X129827437Y-72060000D01*
X129835710Y-72063427D01*
G37*
G04 #@! TD.AperFunction*
G04 #@! TA.AperFunction,Conductor*
G36*
X42687734Y-100014484D02*
G01*
X42694059Y-100020823D01*
X42694319Y-100021513D01*
X42810250Y-100361502D01*
X42810418Y-100362098D01*
X42870959Y-100629309D01*
X42930896Y-100855840D01*
X42930898Y-100855845D01*
X43048937Y-101084977D01*
X43276841Y-101352081D01*
X43279604Y-101360599D01*
X43276214Y-101367948D01*
X42937948Y-101706214D01*
X42929675Y-101709641D01*
X42922081Y-101706841D01*
X42654977Y-101478937D01*
X42654977Y-101478936D01*
X42425845Y-101360898D01*
X42425844Y-101360897D01*
X42425841Y-101360896D01*
X42199309Y-101300959D01*
X42199309Y-101300958D01*
X41932098Y-101240418D01*
X41931502Y-101240250D01*
X41591513Y-101124319D01*
X41584789Y-101118405D01*
X41584215Y-101109469D01*
X41584467Y-101108797D01*
X41902438Y-100338783D01*
X41908759Y-100332448D01*
X42678780Y-100014475D01*
X42687734Y-100014484D01*
G37*
G04 #@! TD.AperFunction*
G04 #@! TA.AperFunction,Conductor*
G36*
X58579177Y-86045915D02*
G01*
X58579307Y-86046242D01*
X58710275Y-86388549D01*
X58845550Y-86709116D01*
X58980830Y-86996695D01*
X59116102Y-87251257D01*
X59116103Y-87251258D01*
X59246577Y-87464963D01*
X59247963Y-87473810D01*
X59244864Y-87479333D01*
X58904106Y-87820091D01*
X58895833Y-87823518D01*
X58890083Y-87822008D01*
X58772182Y-87755477D01*
X58686321Y-87707026D01*
X58686316Y-87707024D01*
X58686311Y-87707021D01*
X58686306Y-87707019D01*
X58474826Y-87620416D01*
X58474823Y-87620415D01*
X58474820Y-87620414D01*
X58263320Y-87566540D01*
X58198275Y-87560040D01*
X58051818Y-87545404D01*
X57851993Y-87556366D01*
X57843544Y-87553398D01*
X57839670Y-87545333D01*
X57774752Y-86377552D01*
X57777714Y-86369102D01*
X57781926Y-86366106D01*
X58563874Y-86039625D01*
X58572827Y-86039601D01*
X58579177Y-86045915D01*
G37*
G04 #@! TD.AperFunction*
G04 #@! TA.AperFunction,Conductor*
G36*
X35353207Y-71059044D02*
G01*
X35620955Y-71326792D01*
X35624382Y-71335065D01*
X35621678Y-71342546D01*
X35395043Y-71615070D01*
X35286144Y-71851619D01*
X35238152Y-72086400D01*
X35187489Y-72361442D01*
X35187299Y-72362190D01*
X35074218Y-72708283D01*
X35068392Y-72715082D01*
X35059463Y-72715770D01*
X35058631Y-72715463D01*
X34288785Y-72397562D01*
X34282447Y-72391238D01*
X33964536Y-71621367D01*
X33964545Y-71612413D01*
X33970884Y-71606088D01*
X33971689Y-71605790D01*
X34317819Y-71492696D01*
X34318549Y-71492510D01*
X34593598Y-71441846D01*
X34828379Y-71393854D01*
X35064931Y-71284954D01*
X35337454Y-71058320D01*
X35346005Y-71055666D01*
X35353207Y-71059044D01*
G37*
G04 #@! TD.AperFunction*
G04 #@! TA.AperFunction,Conductor*
G36*
X55492448Y-92548427D02*
G01*
X55495840Y-92555792D01*
X55510600Y-92745407D01*
X55510601Y-92745409D01*
X55547803Y-92885213D01*
X55547803Y-92885214D01*
X55592099Y-93004523D01*
X55592268Y-93005055D01*
X55629125Y-93143559D01*
X55629483Y-93145660D01*
X55644021Y-93332423D01*
X55641246Y-93340937D01*
X55633264Y-93344996D01*
X55632385Y-93345031D01*
X55245000Y-93346000D01*
X54857614Y-93345031D01*
X54849349Y-93341583D01*
X54845943Y-93333302D01*
X54845976Y-93332449D01*
X54860517Y-93145650D01*
X54860872Y-93143568D01*
X54897731Y-93005055D01*
X54897892Y-93004546D01*
X54942200Y-92885203D01*
X54979400Y-92745407D01*
X54994159Y-92555792D01*
X54998219Y-92547810D01*
X55005825Y-92545000D01*
X55484175Y-92545000D01*
X55492448Y-92548427D01*
G37*
G04 #@! TD.AperFunction*
G04 #@! TA.AperFunction,Conductor*
G36*
X62989428Y-70254724D02*
G01*
X63238769Y-70469211D01*
X63238771Y-70469212D01*
X63452225Y-70582991D01*
X63662973Y-70642893D01*
X63662973Y-70642894D01*
X63912153Y-70702764D01*
X63912662Y-70702912D01*
X64188501Y-70798225D01*
X64230212Y-70812638D01*
X64236912Y-70818578D01*
X64237449Y-70827517D01*
X64237206Y-70828161D01*
X63938357Y-71552007D01*
X63932032Y-71558346D01*
X63932007Y-71558357D01*
X63208161Y-71857206D01*
X63199206Y-71857195D01*
X63192881Y-71850856D01*
X63192638Y-71850212D01*
X63178225Y-71808501D01*
X63082912Y-71532662D01*
X63082764Y-71532153D01*
X63022894Y-71282973D01*
X62962991Y-71072226D01*
X62962991Y-71072225D01*
X62849212Y-70858771D01*
X62849211Y-70858769D01*
X62634724Y-70609428D01*
X62631928Y-70600923D01*
X62635321Y-70593528D01*
X62973528Y-70255321D01*
X62981800Y-70251895D01*
X62989428Y-70254724D01*
G37*
G04 #@! TD.AperFunction*
G04 #@! TA.AperFunction,Conductor*
G36*
X86441203Y-105589551D02*
G01*
X87211212Y-105907520D01*
X87217549Y-105913843D01*
X87217559Y-105913867D01*
X87535520Y-106683859D01*
X87535511Y-106692814D01*
X87529172Y-106699139D01*
X87528480Y-106699400D01*
X87188426Y-106815276D01*
X87187827Y-106815445D01*
X86920533Y-106875828D01*
X86693899Y-106935577D01*
X86693896Y-106935578D01*
X86464669Y-107053468D01*
X86197513Y-107281327D01*
X86188995Y-107284088D01*
X86181648Y-107280698D01*
X85843383Y-106942433D01*
X85839956Y-106934160D01*
X85842757Y-106926564D01*
X86070653Y-106659558D01*
X86188801Y-106430542D01*
X86248888Y-106204142D01*
X86309554Y-105937042D01*
X86309710Y-105936491D01*
X86425676Y-105596591D01*
X86431590Y-105589869D01*
X86440527Y-105589297D01*
X86441203Y-105589551D01*
G37*
G04 #@! TD.AperFunction*
G04 #@! TA.AperFunction,Conductor*
G36*
X59942918Y-111023157D02*
G01*
X60210021Y-111251060D01*
X60210021Y-111251061D01*
X60370902Y-111333938D01*
X60439158Y-111369101D01*
X60665689Y-111429038D01*
X60932899Y-111489579D01*
X60933495Y-111489747D01*
X61273486Y-111605679D01*
X61280211Y-111611593D01*
X61280784Y-111620529D01*
X61280524Y-111621219D01*
X60962562Y-112391213D01*
X60956237Y-112397552D01*
X60956214Y-112397561D01*
X60186220Y-112715523D01*
X60177265Y-112715514D01*
X60170940Y-112709175D01*
X60170680Y-112708485D01*
X60054748Y-112368494D01*
X60054580Y-112367898D01*
X59994039Y-112100688D01*
X59994038Y-112100688D01*
X59934102Y-111874157D01*
X59816061Y-111645020D01*
X59588157Y-111377916D01*
X59585395Y-111369399D01*
X59588784Y-111362051D01*
X59927052Y-111023783D01*
X59935324Y-111020357D01*
X59942918Y-111023157D01*
G37*
G04 #@! TD.AperFunction*
G04 #@! TA.AperFunction,Conductor*
G36*
X143514957Y-85106019D02*
G01*
X143520598Y-85111660D01*
X144036627Y-86215022D01*
X144037028Y-86223968D01*
X144036422Y-86225352D01*
X144004521Y-86287054D01*
X143983253Y-86328190D01*
X143983250Y-86328197D01*
X143983250Y-86328196D01*
X143927442Y-86454137D01*
X143871626Y-86598095D01*
X143815813Y-86760047D01*
X143762554Y-86931766D01*
X143756830Y-86938653D01*
X143751379Y-86940000D01*
X143268621Y-86940000D01*
X143260348Y-86936573D01*
X143257446Y-86931766D01*
X143204186Y-86760047D01*
X143148373Y-86598095D01*
X143092557Y-86454137D01*
X143036749Y-86328196D01*
X143036749Y-86328197D01*
X143036746Y-86328190D01*
X142983576Y-86225351D01*
X142982821Y-86216430D01*
X142983372Y-86215022D01*
X143499402Y-85111660D01*
X143506011Y-85105618D01*
X143514957Y-85106019D01*
G37*
G04 #@! TD.AperFunction*
G04 #@! TA.AperFunction,Conductor*
G36*
X121599402Y-95143619D02*
G01*
X121682756Y-95220283D01*
X121753623Y-95273613D01*
X121773226Y-95286800D01*
X121817447Y-95316550D01*
X121817699Y-95316729D01*
X121888210Y-95369791D01*
X121888653Y-95370159D01*
X121971110Y-95445997D01*
X121974880Y-95454120D01*
X121971802Y-95462529D01*
X121971496Y-95462849D01*
X121803984Y-95631707D01*
X121635126Y-95799219D01*
X121626839Y-95802613D01*
X121618580Y-95799153D01*
X121618274Y-95798833D01*
X121542436Y-95716376D01*
X121542068Y-95715933D01*
X121489006Y-95645422D01*
X121488827Y-95645170D01*
X121459077Y-95600949D01*
X121445890Y-95581346D01*
X121392560Y-95510479D01*
X121315896Y-95427125D01*
X121312819Y-95418717D01*
X121316235Y-95410934D01*
X121583211Y-95143958D01*
X121591483Y-95140532D01*
X121599402Y-95143619D01*
G37*
G04 #@! TD.AperFunction*
G04 #@! TA.AperFunction,Conductor*
G36*
X141697729Y-83277715D02*
G01*
X141990545Y-83570000D01*
X142233601Y-83812614D01*
X142237035Y-83820884D01*
X142234490Y-83828180D01*
X141865995Y-84291233D01*
X141858162Y-84295573D01*
X141851059Y-84294120D01*
X141715819Y-84217258D01*
X141715812Y-84217254D01*
X141715809Y-84217253D01*
X141681538Y-84202061D01*
X141571860Y-84153441D01*
X141427916Y-84107629D01*
X141427907Y-84107627D01*
X141427904Y-84107626D01*
X141283952Y-84079813D01*
X141283957Y-84079813D01*
X141150904Y-84070743D01*
X141142883Y-84066761D01*
X141140000Y-84059070D01*
X141140000Y-83579422D01*
X141143427Y-83571149D01*
X141149204Y-83567991D01*
X141214420Y-83553762D01*
X141250000Y-83546000D01*
X141359991Y-83504003D01*
X141359989Y-83504003D01*
X141359999Y-83504000D01*
X141470000Y-83444000D01*
X141580000Y-83366000D01*
X141681772Y-83277180D01*
X141690256Y-83274323D01*
X141697729Y-83277715D01*
G37*
G04 #@! TD.AperFunction*
G04 #@! TA.AperFunction,Conductor*
G36*
X67599114Y-102081787D02*
G01*
X67600402Y-102087123D01*
X67600402Y-102564240D01*
X67598233Y-102571026D01*
X67521864Y-102678290D01*
X67458321Y-102767541D01*
X67316241Y-103003102D01*
X67174160Y-103274661D01*
X67174160Y-103274662D01*
X67032080Y-103582223D01*
X66894781Y-103914222D01*
X66888452Y-103920558D01*
X66879498Y-103920563D01*
X66878791Y-103920242D01*
X66043349Y-103507150D01*
X66037454Y-103500413D01*
X65757170Y-102668598D01*
X65757775Y-102659665D01*
X65764521Y-102653776D01*
X65766827Y-102653250D01*
X66122150Y-102609596D01*
X66491713Y-102528192D01*
X66656741Y-102475764D01*
X66861272Y-102410789D01*
X66861272Y-102410788D01*
X66861276Y-102410787D01*
X67230839Y-102257383D01*
X67583366Y-102076710D01*
X67592291Y-102075987D01*
X67599114Y-102081787D01*
G37*
G04 #@! TD.AperFunction*
G04 #@! TA.AperFunction,Conductor*
G36*
X60564578Y-76753427D02*
G01*
X60567507Y-76758325D01*
X60662820Y-77074770D01*
X60760641Y-77366541D01*
X60858462Y-77625311D01*
X60956283Y-77851082D01*
X60956285Y-77851085D01*
X60956285Y-77851086D01*
X61050174Y-78036109D01*
X61050861Y-78045037D01*
X61047828Y-78049857D01*
X60323088Y-78743261D01*
X60314742Y-78746504D01*
X60306912Y-78743261D01*
X59582171Y-78049857D01*
X59578562Y-78041661D01*
X59579824Y-78036111D01*
X59673716Y-77851082D01*
X59771537Y-77625311D01*
X59869358Y-77366541D01*
X59967179Y-77074770D01*
X60062492Y-76758325D01*
X60068159Y-76751392D01*
X60073695Y-76750000D01*
X60556305Y-76750000D01*
X60564578Y-76753427D01*
G37*
G04 #@! TD.AperFunction*
G04 #@! TA.AperFunction,Conductor*
G36*
X41584190Y-81780552D02*
G01*
X41584562Y-81781358D01*
X41904134Y-82550511D01*
X41904143Y-82559466D01*
X41904134Y-82559489D01*
X41584562Y-83328641D01*
X41578223Y-83334966D01*
X41569268Y-83334957D01*
X41568462Y-83334585D01*
X41243783Y-83169824D01*
X41243110Y-83169424D01*
X41012806Y-83010768D01*
X41012805Y-83010768D01*
X40812855Y-82878688D01*
X40669687Y-82825784D01*
X40568582Y-82788424D01*
X40215629Y-82755977D01*
X40207704Y-82751807D01*
X40205000Y-82744326D01*
X40205000Y-82365673D01*
X40208427Y-82357400D01*
X40215626Y-82354023D01*
X40568584Y-82321574D01*
X40812855Y-82231311D01*
X41012806Y-82099230D01*
X41243121Y-81940566D01*
X41243766Y-81940183D01*
X41568463Y-81775413D01*
X41577391Y-81774726D01*
X41584190Y-81780552D01*
G37*
G04 #@! TD.AperFunction*
G04 #@! TA.AperFunction,Conductor*
G36*
X41584196Y-99560539D02*
G01*
X41584500Y-99561210D01*
X41904134Y-100330511D01*
X41904143Y-100339466D01*
X41904134Y-100339489D01*
X41584500Y-101108790D01*
X41578161Y-101115115D01*
X41569206Y-101115106D01*
X41568535Y-101114801D01*
X41246158Y-100956372D01*
X41245617Y-100956070D01*
X41013854Y-100809928D01*
X40811292Y-100692129D01*
X40811283Y-100692125D01*
X40565795Y-100613571D01*
X40565797Y-100613571D01*
X40215776Y-100585853D01*
X40207800Y-100581784D01*
X40205000Y-100574190D01*
X40205000Y-100095809D01*
X40208427Y-100087536D01*
X40215774Y-100084146D01*
X40565798Y-100056427D01*
X40811290Y-99977871D01*
X41013854Y-99860071D01*
X41245618Y-99713927D01*
X41246145Y-99713633D01*
X41568535Y-99555197D01*
X41577471Y-99554625D01*
X41584196Y-99560539D01*
G37*
G04 #@! TD.AperFunction*
G04 #@! TA.AperFunction,Conductor*
G36*
X73566857Y-75258124D02*
G01*
X74290704Y-75556973D01*
X74297043Y-75563298D01*
X74297054Y-75563323D01*
X74595903Y-76287169D01*
X74595892Y-76296124D01*
X74589553Y-76302449D01*
X74588909Y-76302692D01*
X74271377Y-76412411D01*
X74270833Y-76412570D01*
X74021670Y-76472435D01*
X73810924Y-76532337D01*
X73597467Y-76646118D01*
X73348127Y-76860605D01*
X73339620Y-76863402D01*
X73332224Y-76860008D01*
X72994019Y-76521803D01*
X72990592Y-76513530D01*
X72993420Y-76505903D01*
X73207908Y-76256561D01*
X73321688Y-76043104D01*
X73381591Y-75832356D01*
X73441462Y-75583169D01*
X73441607Y-75582672D01*
X73551335Y-75265115D01*
X73557274Y-75258418D01*
X73566213Y-75257881D01*
X73566857Y-75258124D01*
G37*
G04 #@! TD.AperFunction*
G04 #@! TA.AperFunction,Conductor*
G36*
X37160731Y-74155042D02*
G01*
X37161538Y-74155414D01*
X37486219Y-74320176D01*
X37486888Y-74320574D01*
X37717192Y-74479230D01*
X37917143Y-74611311D01*
X38161415Y-74701574D01*
X38514372Y-74734023D01*
X38522296Y-74738192D01*
X38525000Y-74745673D01*
X38525000Y-75124326D01*
X38521573Y-75132599D01*
X38514371Y-75135977D01*
X38161416Y-75168424D01*
X37917143Y-75258688D01*
X37917141Y-75258689D01*
X37717192Y-75390768D01*
X37486888Y-75549424D01*
X37486215Y-75549824D01*
X37161537Y-75714585D01*
X37152608Y-75715273D01*
X37145809Y-75709447D01*
X37145443Y-75708655D01*
X36825864Y-74939488D01*
X36825856Y-74930534D01*
X36825865Y-74930511D01*
X36907097Y-74735000D01*
X37145438Y-74161356D01*
X37151776Y-74155033D01*
X37160731Y-74155042D01*
G37*
G04 #@! TD.AperFunction*
G04 #@! TA.AperFunction,Conductor*
G36*
X76807798Y-98692261D02*
G01*
X76808081Y-98692889D01*
X77108600Y-99416044D01*
X77108610Y-99424997D01*
X77108601Y-99425019D01*
X77108600Y-99425024D01*
X76808081Y-100148178D01*
X76801742Y-100154503D01*
X76792787Y-100154492D01*
X76792159Y-100154209D01*
X76490045Y-100007262D01*
X76489548Y-100006990D01*
X76271033Y-99873137D01*
X76079653Y-99766473D01*
X76079648Y-99766471D01*
X75848267Y-99695992D01*
X75848261Y-99695991D01*
X75520289Y-99671347D01*
X75512296Y-99667310D01*
X75509466Y-99659680D01*
X75509466Y-99181387D01*
X75512893Y-99173114D01*
X75520287Y-99169720D01*
X75848263Y-99145075D01*
X75848265Y-99145074D01*
X75848267Y-99145074D01*
X76079648Y-99074595D01*
X76079649Y-99074594D01*
X76079654Y-99074593D01*
X76271033Y-98967930D01*
X76489560Y-98834068D01*
X76490046Y-98833804D01*
X76792159Y-98686858D01*
X76801098Y-98686321D01*
X76807798Y-98692261D01*
G37*
G04 #@! TD.AperFunction*
G04 #@! TA.AperFunction,Conductor*
G36*
X43392545Y-96458320D02*
G01*
X43665068Y-96684954D01*
X43901619Y-96793854D01*
X44136400Y-96841846D01*
X44411445Y-96892510D01*
X44412183Y-96892698D01*
X44758284Y-97005782D01*
X44765082Y-97011607D01*
X44765770Y-97020536D01*
X44765463Y-97021368D01*
X44447562Y-97791214D01*
X44441237Y-97797553D01*
X44441214Y-97797562D01*
X43671368Y-98115463D01*
X43662413Y-98115454D01*
X43656088Y-98109115D01*
X43655788Y-98108301D01*
X43542698Y-97762183D01*
X43542510Y-97761445D01*
X43491846Y-97486400D01*
X43443854Y-97251619D01*
X43334954Y-97015068D01*
X43108320Y-96742545D01*
X43105666Y-96733994D01*
X43109043Y-96726793D01*
X43376793Y-96459043D01*
X43385065Y-96455617D01*
X43392545Y-96458320D01*
G37*
G04 #@! TD.AperFunction*
G04 #@! TA.AperFunction,Conductor*
G36*
X63208160Y-93242793D02*
G01*
X63932007Y-93541642D01*
X63938346Y-93547967D01*
X63938357Y-93547992D01*
X64237206Y-94271838D01*
X64237195Y-94280793D01*
X64230856Y-94287118D01*
X64230212Y-94287361D01*
X63912680Y-94397080D01*
X63912136Y-94397239D01*
X63662973Y-94457104D01*
X63452227Y-94517006D01*
X63238770Y-94630787D01*
X62989430Y-94845274D01*
X62980923Y-94848071D01*
X62973527Y-94844677D01*
X62635322Y-94506472D01*
X62631895Y-94498199D01*
X62634723Y-94490572D01*
X62849211Y-94241230D01*
X62962991Y-94027773D01*
X63022894Y-93817025D01*
X63082765Y-93567838D01*
X63082910Y-93567341D01*
X63192638Y-93249784D01*
X63198577Y-93243087D01*
X63207516Y-93242550D01*
X63208160Y-93242793D01*
G37*
G04 #@! TD.AperFunction*
G04 #@! TA.AperFunction,Conductor*
G36*
X45477948Y-65943785D02*
G01*
X45816214Y-66282051D01*
X45819641Y-66290324D01*
X45816841Y-66297918D01*
X45588937Y-66565021D01*
X45588936Y-66565021D01*
X45470898Y-66794153D01*
X45470896Y-66794158D01*
X45410959Y-67020689D01*
X45350418Y-67287899D01*
X45350250Y-67288495D01*
X45234319Y-67628486D01*
X45228405Y-67635210D01*
X45219469Y-67635784D01*
X45218779Y-67635524D01*
X44448785Y-67317562D01*
X44442447Y-67311238D01*
X44124475Y-66541219D01*
X44124484Y-66532265D01*
X44130823Y-66525940D01*
X44131502Y-66525684D01*
X44471506Y-66409746D01*
X44472098Y-66409580D01*
X44739309Y-66349039D01*
X44739309Y-66349038D01*
X44965841Y-66289102D01*
X45116974Y-66211244D01*
X45194977Y-66171062D01*
X45194977Y-66171061D01*
X45194978Y-66171061D01*
X45462082Y-65943157D01*
X45470599Y-65940395D01*
X45477948Y-65943785D01*
G37*
G04 #@! TD.AperFunction*
G04 #@! TA.AperFunction,Conductor*
G36*
X43179984Y-99415042D02*
G01*
X43416218Y-99590089D01*
X43631158Y-99630571D01*
X43631158Y-99630570D01*
X43631160Y-99630571D01*
X43631161Y-99630571D01*
X43851233Y-99588126D01*
X43851232Y-99588126D01*
X43851242Y-99588124D01*
X44110159Y-99520608D01*
X44111874Y-99520295D01*
X44432077Y-99486369D01*
X44440665Y-99488905D01*
X44444945Y-99496771D01*
X44445010Y-99497994D01*
X44445702Y-100330846D01*
X44442282Y-100339122D01*
X44442265Y-100339139D01*
X43852698Y-100927322D01*
X43844421Y-100930739D01*
X43836152Y-100927302D01*
X43835721Y-100926846D01*
X43585201Y-100647231D01*
X43584734Y-100646637D01*
X43428094Y-100418418D01*
X43427877Y-100418078D01*
X43305021Y-100209678D01*
X43148051Y-99980975D01*
X43148044Y-99980967D01*
X42896428Y-99700129D01*
X42893460Y-99691681D01*
X42896868Y-99684050D01*
X43164748Y-99416170D01*
X43173020Y-99412744D01*
X43179984Y-99415042D01*
G37*
G04 #@! TD.AperFunction*
G04 #@! TA.AperFunction,Conductor*
G36*
X128885535Y-83087816D02*
G01*
X129578323Y-83811912D01*
X129581566Y-83820258D01*
X129578323Y-83828088D01*
X128885535Y-84552183D01*
X128877339Y-84555792D01*
X128870823Y-84553981D01*
X128620147Y-84395285D01*
X128620144Y-84395283D01*
X128361373Y-84264462D01*
X128361364Y-84264458D01*
X128361361Y-84264457D01*
X128102607Y-84166642D01*
X128102594Y-84166638D01*
X127843837Y-84101820D01*
X127595334Y-84071263D01*
X127587541Y-84066852D01*
X127585062Y-84059650D01*
X127585062Y-83580349D01*
X127588489Y-83572076D01*
X127595331Y-83568737D01*
X127843832Y-83538179D01*
X127843835Y-83538178D01*
X127843837Y-83538178D01*
X127972709Y-83505895D01*
X128102603Y-83473358D01*
X128361373Y-83375537D01*
X128620144Y-83244716D01*
X128870824Y-83086017D01*
X128879646Y-83084489D01*
X128885535Y-83087816D01*
G37*
G04 #@! TD.AperFunction*
G04 #@! TA.AperFunction,Conductor*
G36*
X75900793Y-108439894D02*
G01*
X75901464Y-108440198D01*
X76223847Y-108598630D01*
X76224388Y-108598932D01*
X76456144Y-108745071D01*
X76658709Y-108862871D01*
X76904201Y-108941427D01*
X77254225Y-108969146D01*
X77262200Y-108973215D01*
X77265000Y-108980809D01*
X77265000Y-109459190D01*
X77261573Y-109467463D01*
X77254224Y-109470853D01*
X76904202Y-109498571D01*
X76658715Y-109577125D01*
X76658706Y-109577129D01*
X76456144Y-109694928D01*
X76224381Y-109841070D01*
X76223840Y-109841372D01*
X75901464Y-109999801D01*
X75892528Y-110000375D01*
X75885804Y-109994461D01*
X75885505Y-109993804D01*
X75565864Y-109224488D01*
X75565856Y-109215534D01*
X75565865Y-109215511D01*
X75885499Y-108446209D01*
X75891838Y-108439885D01*
X75900793Y-108439894D01*
G37*
G04 #@! TD.AperFunction*
G04 #@! TA.AperFunction,Conductor*
G36*
X35353207Y-96459044D02*
G01*
X35620955Y-96726792D01*
X35624382Y-96735065D01*
X35621678Y-96742546D01*
X35395043Y-97015070D01*
X35286144Y-97251618D01*
X35286144Y-97251619D01*
X35238152Y-97486400D01*
X35187489Y-97761442D01*
X35187299Y-97762190D01*
X35074218Y-98108283D01*
X35068392Y-98115082D01*
X35059463Y-98115770D01*
X35058631Y-98115463D01*
X34288785Y-97797562D01*
X34282447Y-97791238D01*
X33964536Y-97021367D01*
X33964545Y-97012413D01*
X33970884Y-97006088D01*
X33971689Y-97005790D01*
X34317819Y-96892696D01*
X34318549Y-96892510D01*
X34593598Y-96841846D01*
X34828379Y-96793854D01*
X35064931Y-96684954D01*
X35337454Y-96458320D01*
X35346005Y-96455666D01*
X35353207Y-96459044D01*
G37*
G04 #@! TD.AperFunction*
G04 #@! TA.AperFunction,Conductor*
G36*
X148288332Y-96426727D02*
G01*
X148288615Y-96427355D01*
X148589134Y-97150510D01*
X148589144Y-97159463D01*
X148589135Y-97159485D01*
X148589134Y-97159490D01*
X148288615Y-97882644D01*
X148282276Y-97888969D01*
X148273321Y-97888958D01*
X148272693Y-97888675D01*
X147970579Y-97741728D01*
X147970082Y-97741456D01*
X147751567Y-97607603D01*
X147560187Y-97500939D01*
X147560182Y-97500937D01*
X147328801Y-97430458D01*
X147328795Y-97430457D01*
X147000823Y-97405813D01*
X146992830Y-97401776D01*
X146990000Y-97394146D01*
X146990000Y-96915853D01*
X146993427Y-96907580D01*
X147000821Y-96904186D01*
X147328797Y-96879541D01*
X147328799Y-96879540D01*
X147328801Y-96879540D01*
X147560182Y-96809061D01*
X147560183Y-96809060D01*
X147560188Y-96809059D01*
X147751567Y-96702396D01*
X147970094Y-96568534D01*
X147970580Y-96568270D01*
X148272693Y-96421324D01*
X148281632Y-96420787D01*
X148288332Y-96426727D01*
G37*
G04 #@! TD.AperFunction*
G04 #@! TA.AperFunction,Conductor*
G36*
X35353207Y-78679044D02*
G01*
X35620955Y-78946792D01*
X35624382Y-78955065D01*
X35621678Y-78962546D01*
X35395043Y-79235070D01*
X35286144Y-79471619D01*
X35238152Y-79706400D01*
X35187489Y-79981442D01*
X35187299Y-79982190D01*
X35074218Y-80328283D01*
X35068392Y-80335082D01*
X35059463Y-80335770D01*
X35058631Y-80335463D01*
X34288785Y-80017562D01*
X34282447Y-80011238D01*
X33964536Y-79241367D01*
X33964545Y-79232413D01*
X33970884Y-79226088D01*
X33971689Y-79225790D01*
X34317819Y-79112696D01*
X34318549Y-79112510D01*
X34593598Y-79061846D01*
X34828379Y-79013854D01*
X35064931Y-78904954D01*
X35337454Y-78678320D01*
X35346005Y-78675666D01*
X35353207Y-78679044D01*
G37*
G04 #@! TD.AperFunction*
G04 #@! TA.AperFunction,Conductor*
G36*
X35353207Y-73599044D02*
G01*
X35620955Y-73866792D01*
X35624382Y-73875065D01*
X35621678Y-73882546D01*
X35395043Y-74155070D01*
X35286144Y-74391618D01*
X35286144Y-74391619D01*
X35238152Y-74626400D01*
X35187489Y-74901442D01*
X35187299Y-74902190D01*
X35074218Y-75248283D01*
X35068392Y-75255082D01*
X35059463Y-75255770D01*
X35058631Y-75255463D01*
X34288785Y-74937562D01*
X34282447Y-74931238D01*
X33964536Y-74161367D01*
X33964545Y-74152413D01*
X33970884Y-74146088D01*
X33971689Y-74145790D01*
X34317819Y-74032696D01*
X34318549Y-74032510D01*
X34593598Y-73981846D01*
X34828379Y-73933854D01*
X35064931Y-73824954D01*
X35337454Y-73598320D01*
X35346005Y-73595666D01*
X35353207Y-73599044D01*
G37*
G04 #@! TD.AperFunction*
G04 #@! TA.AperFunction,Conductor*
G36*
X84381107Y-63180967D02*
G01*
X84648210Y-63408870D01*
X84648210Y-63408871D01*
X84809091Y-63491748D01*
X84877347Y-63526911D01*
X85103878Y-63586848D01*
X85371088Y-63647389D01*
X85371684Y-63647557D01*
X85711675Y-63763489D01*
X85718400Y-63769403D01*
X85718973Y-63778339D01*
X85718713Y-63779029D01*
X85400751Y-64549023D01*
X85394426Y-64555362D01*
X85394403Y-64555371D01*
X84624409Y-64873333D01*
X84615454Y-64873324D01*
X84609129Y-64866985D01*
X84608869Y-64866295D01*
X84492937Y-64526304D01*
X84492769Y-64525708D01*
X84432228Y-64258498D01*
X84432227Y-64258498D01*
X84372291Y-64031967D01*
X84254250Y-63802830D01*
X84026346Y-63535726D01*
X84023584Y-63527209D01*
X84026973Y-63519861D01*
X84365241Y-63181593D01*
X84373513Y-63178167D01*
X84381107Y-63180967D01*
G37*
G04 #@! TD.AperFunction*
M02*
