G04 #@! TF.GenerationSoftware,KiCad,Pcbnew,7.0.6*
G04 #@! TF.CreationDate,2024-05-07T04:30:38+03:00*
G04 #@! TF.ProjectId,board-main,626f6172-642d-46d6-9169-6e2e6b696361,rev?*
G04 #@! TF.SameCoordinates,Original*
G04 #@! TF.FileFunction,Soldermask,Bot*
G04 #@! TF.FilePolarity,Negative*
%FSLAX46Y46*%
G04 Gerber Fmt 4.6, Leading zero omitted, Abs format (unit mm)*
G04 Created by KiCad (PCBNEW 7.0.6) date 2024-05-07 04:30:38*
%MOMM*%
%LPD*%
G01*
G04 APERTURE LIST*
G04 Aperture macros list*
%AMRoundRect*
0 Rectangle with rounded corners*
0 $1 Rounding radius*
0 $2 $3 $4 $5 $6 $7 $8 $9 X,Y pos of 4 corners*
0 Add a 4 corners polygon primitive as box body*
4,1,4,$2,$3,$4,$5,$6,$7,$8,$9,$2,$3,0*
0 Add four circle primitives for the rounded corners*
1,1,$1+$1,$2,$3*
1,1,$1+$1,$4,$5*
1,1,$1+$1,$6,$7*
1,1,$1+$1,$8,$9*
0 Add four rect primitives between the rounded corners*
20,1,$1+$1,$2,$3,$4,$5,0*
20,1,$1+$1,$4,$5,$6,$7,0*
20,1,$1+$1,$6,$7,$8,$9,0*
20,1,$1+$1,$8,$9,$2,$3,0*%
%AMHorizOval*
0 Thick line with rounded ends*
0 $1 width*
0 $2 $3 position (X,Y) of the first rounded end (center of the circle)*
0 $4 $5 position (X,Y) of the second rounded end (center of the circle)*
0 Add line between two ends*
20,1,$1,$2,$3,$4,$5,0*
0 Add two circle primitives to create the rounded ends*
1,1,$1,$2,$3*
1,1,$1,$4,$5*%
G04 Aperture macros list end*
%ADD10C,1.600000*%
%ADD11R,1.600000X1.600000*%
%ADD12R,1.600000X2.400000*%
%ADD13O,1.600000X2.400000*%
%ADD14HorizOval,1.600000X0.000000X0.000000X0.000000X0.000000X0*%
%ADD15R,1.700000X1.700000*%
%ADD16O,1.700000X1.700000*%
%ADD17C,1.700000*%
%ADD18C,4.000000*%
%ADD19R,2.400000X1.600000*%
%ADD20O,2.400000X1.600000*%
%ADD21O,1.600000X1.600000*%
%ADD22R,1.100000X1.800000*%
%ADD23RoundRect,0.275000X0.275000X0.625000X-0.275000X0.625000X-0.275000X-0.625000X0.275000X-0.625000X0*%
%ADD24HorizOval,1.600000X0.000000X0.000000X0.000000X0.000000X0*%
%ADD25R,1.500000X5.080000*%
G04 APERTURE END LIST*
D10*
X77109466Y-99420534D03*
X80645000Y-95885000D03*
D11*
X45766974Y-108321974D03*
D10*
X49266974Y-108321974D03*
D12*
X62855000Y-78750000D03*
D13*
X60315000Y-78750000D03*
X57775000Y-78750000D03*
X55235000Y-78750000D03*
X55235000Y-86370000D03*
X57775000Y-86370000D03*
X60315000Y-86370000D03*
X62855000Y-86370000D03*
D10*
X149225000Y-63500000D03*
X149225000Y-58500000D03*
X63935795Y-71555795D03*
D14*
X71120000Y-78740000D03*
D15*
X65840795Y-61595000D03*
D16*
X65840795Y-64135000D03*
D10*
X70282855Y-65188434D03*
D14*
X77467060Y-72372639D03*
D11*
X123444000Y-65024000D03*
D10*
X123444000Y-61524000D03*
D15*
X36825000Y-64775000D03*
D16*
X34285000Y-64775000D03*
X36825000Y-67315000D03*
X34285000Y-67315000D03*
X36825000Y-69855000D03*
X34285000Y-69855000D03*
X36825000Y-72395000D03*
X34285000Y-72395000D03*
X36825000Y-74935000D03*
X34285000Y-74935000D03*
X36825000Y-77475000D03*
X34285000Y-77475000D03*
X36825000Y-80015000D03*
X34285000Y-80015000D03*
X36825000Y-82555000D03*
X34285000Y-82555000D03*
X36825000Y-85095000D03*
X34285000Y-85095000D03*
X36825000Y-87635000D03*
X34285000Y-87635000D03*
X36825000Y-90175000D03*
X34285000Y-90175000D03*
X36825000Y-92715000D03*
X34285000Y-92715000D03*
X36825000Y-95255000D03*
X34285000Y-95255000D03*
X36825000Y-97795000D03*
X34285000Y-97795000D03*
X36825000Y-100335000D03*
X34285000Y-100335000D03*
D10*
X136471680Y-69850000D03*
X131471680Y-69850000D03*
D15*
X66040000Y-103505000D03*
D16*
X66040000Y-100965000D03*
D10*
X51435000Y-85050000D03*
X51435000Y-80050000D03*
D17*
X85418946Y-100521929D03*
X83622895Y-102317980D03*
X87214997Y-102317980D03*
X85418946Y-104114031D03*
X89011048Y-104114031D03*
X87214997Y-105910082D03*
D15*
X41905000Y-64775000D03*
D16*
X44445000Y-64775000D03*
X41905000Y-67315000D03*
X44445000Y-67315000D03*
X41905000Y-69855000D03*
X44445000Y-69855000D03*
X41905000Y-72395000D03*
X44445000Y-72395000D03*
X41905000Y-74935000D03*
X44445000Y-74935000D03*
X41905000Y-77475000D03*
X44445000Y-77475000D03*
X41905000Y-80015000D03*
X44445000Y-80015000D03*
X41905000Y-82555000D03*
X44445000Y-82555000D03*
X41905000Y-85095000D03*
X44445000Y-85095000D03*
X41905000Y-87635000D03*
X44445000Y-87635000D03*
X41905000Y-90175000D03*
X44445000Y-90175000D03*
X41905000Y-92715000D03*
X44445000Y-92715000D03*
X41905000Y-95255000D03*
X44445000Y-95255000D03*
X41905000Y-97795000D03*
X44445000Y-97795000D03*
X41905000Y-100335000D03*
X44445000Y-100335000D03*
D18*
X146050000Y-52070000D03*
D19*
X137205062Y-91440000D03*
D20*
X137205062Y-88900000D03*
X137205062Y-86360000D03*
X137205062Y-83820000D03*
X137205062Y-81280000D03*
X137205062Y-78740000D03*
X137205062Y-76200000D03*
X137205062Y-73660000D03*
X129585062Y-73660000D03*
X129585062Y-76200000D03*
X129585062Y-78740000D03*
X129585062Y-81280000D03*
X129585062Y-83820000D03*
X129585062Y-86360000D03*
X129585062Y-88900000D03*
X129585062Y-91440000D03*
D10*
X148590000Y-83820000D03*
D21*
X148590000Y-93980000D03*
D22*
X144780000Y-96755000D03*
D23*
X143510000Y-98825000D03*
X142240000Y-96755000D03*
D17*
X122118533Y-71011052D03*
X120322482Y-72807103D03*
X118526430Y-71011052D03*
X116730379Y-69215000D03*
X120322482Y-69215000D03*
X118526430Y-67418949D03*
D18*
X99060000Y-104611732D03*
X76998268Y-82550000D03*
X99060000Y-60488268D03*
X121121732Y-82550000D03*
D10*
X139065000Y-65405001D03*
D21*
X139065000Y-55245001D03*
D10*
X130810000Y-52070000D03*
D21*
X140970000Y-52070000D03*
D15*
X60960000Y-114934999D03*
D16*
X60960000Y-112394999D03*
X60960000Y-109854999D03*
D22*
X144780000Y-83420000D03*
D23*
X143510000Y-85490000D03*
X142240000Y-83420000D03*
D10*
X70759466Y-93070534D03*
X74295000Y-89535000D03*
D17*
X88990291Y-60960707D03*
X87194240Y-59164656D03*
X87194240Y-62756758D03*
X85398189Y-60960707D03*
X85398189Y-64552809D03*
X83602138Y-62756758D03*
D10*
X70285795Y-99894205D03*
D24*
X77470000Y-92710000D03*
D22*
X144780000Y-69450000D03*
D23*
X143510000Y-71520000D03*
X142240000Y-69450000D03*
D22*
X144780000Y-61830000D03*
D23*
X143510000Y-63900000D03*
X142240000Y-61830000D03*
D15*
X75565000Y-111760000D03*
D16*
X75565000Y-109220000D03*
X75565000Y-106680000D03*
D10*
X63935795Y-93544205D03*
D24*
X71120000Y-86360000D03*
D17*
X118490022Y-97677615D03*
X116693971Y-95881564D03*
X118490022Y-94085512D03*
X120286074Y-92289461D03*
X120286074Y-95881564D03*
X122082125Y-94085512D03*
D15*
X62230000Y-103505000D03*
D16*
X62230000Y-100965000D03*
D11*
X36957000Y-108458000D03*
D10*
X40457000Y-108458000D03*
X66675000Y-85050000D03*
X66675000Y-80050000D03*
X148590000Y-69850001D03*
D21*
X148590000Y-80010001D03*
D10*
X148590000Y-97155000D03*
D21*
X148590000Y-107315000D03*
D15*
X62230000Y-61595000D03*
D16*
X62230000Y-64135000D03*
D10*
X70758958Y-72024002D03*
X74294492Y-75559536D03*
D11*
X122555000Y-101600000D03*
D10*
X126055000Y-101600000D03*
D15*
X56515000Y-114935000D03*
D16*
X56515000Y-112395000D03*
X56515000Y-109855000D03*
D15*
X139065000Y-109855000D03*
D16*
X139065000Y-107315000D03*
X139065000Y-104775000D03*
D18*
X146050000Y-113030000D03*
D10*
X77115869Y-65665869D03*
X80651403Y-69201403D03*
X131471680Y-94996000D03*
X136471680Y-94996000D03*
D25*
X54610000Y-49177500D03*
X50360000Y-49177500D03*
X58860000Y-49177500D03*
X93980000Y-49177500D03*
X89730000Y-49177500D03*
X98230000Y-49177500D03*
X74295000Y-49177500D03*
X70045000Y-49177500D03*
X78545000Y-49177500D03*
M02*
