G04 #@! TF.GenerationSoftware,KiCad,Pcbnew,7.0.6*
G04 #@! TF.CreationDate,2024-05-07T04:30:38+03:00*
G04 #@! TF.ProjectId,board-main,626f6172-642d-46d6-9169-6e2e6b696361,rev?*
G04 #@! TF.SameCoordinates,Original*
G04 #@! TF.FileFunction,Copper,L4,Bot*
G04 #@! TF.FilePolarity,Positive*
%FSLAX46Y46*%
G04 Gerber Fmt 4.6, Leading zero omitted, Abs format (unit mm)*
G04 Created by KiCad (PCBNEW 7.0.6) date 2024-05-07 04:30:38*
%MOMM*%
%LPD*%
G01*
G04 APERTURE LIST*
G04 Aperture macros list*
%AMRoundRect*
0 Rectangle with rounded corners*
0 $1 Rounding radius*
0 $2 $3 $4 $5 $6 $7 $8 $9 X,Y pos of 4 corners*
0 Add a 4 corners polygon primitive as box body*
4,1,4,$2,$3,$4,$5,$6,$7,$8,$9,$2,$3,0*
0 Add four circle primitives for the rounded corners*
1,1,$1+$1,$2,$3*
1,1,$1+$1,$4,$5*
1,1,$1+$1,$6,$7*
1,1,$1+$1,$8,$9*
0 Add four rect primitives between the rounded corners*
20,1,$1+$1,$2,$3,$4,$5,0*
20,1,$1+$1,$4,$5,$6,$7,0*
20,1,$1+$1,$6,$7,$8,$9,0*
20,1,$1+$1,$8,$9,$2,$3,0*%
%AMHorizOval*
0 Thick line with rounded ends*
0 $1 width*
0 $2 $3 position (X,Y) of the first rounded end (center of the circle)*
0 $4 $5 position (X,Y) of the second rounded end (center of the circle)*
0 Add line between two ends*
20,1,$1,$2,$3,$4,$5,0*
0 Add two circle primitives to create the rounded ends*
1,1,$1,$2,$3*
1,1,$1,$4,$5*%
G04 Aperture macros list end*
G04 #@! TA.AperFunction,ComponentPad*
%ADD10C,1.600000*%
G04 #@! TD*
G04 #@! TA.AperFunction,ComponentPad*
%ADD11R,1.600000X1.600000*%
G04 #@! TD*
G04 #@! TA.AperFunction,ComponentPad*
%ADD12R,1.600000X2.400000*%
G04 #@! TD*
G04 #@! TA.AperFunction,ComponentPad*
%ADD13O,1.600000X2.400000*%
G04 #@! TD*
G04 #@! TA.AperFunction,ComponentPad*
%ADD14HorizOval,1.600000X0.000000X0.000000X0.000000X0.000000X0*%
G04 #@! TD*
G04 #@! TA.AperFunction,ComponentPad*
%ADD15R,1.700000X1.700000*%
G04 #@! TD*
G04 #@! TA.AperFunction,ComponentPad*
%ADD16O,1.700000X1.700000*%
G04 #@! TD*
G04 #@! TA.AperFunction,ComponentPad*
%ADD17C,1.700000*%
G04 #@! TD*
G04 #@! TA.AperFunction,ComponentPad*
%ADD18C,4.000000*%
G04 #@! TD*
G04 #@! TA.AperFunction,ComponentPad*
%ADD19R,2.400000X1.600000*%
G04 #@! TD*
G04 #@! TA.AperFunction,ComponentPad*
%ADD20O,2.400000X1.600000*%
G04 #@! TD*
G04 #@! TA.AperFunction,ComponentPad*
%ADD21O,1.600000X1.600000*%
G04 #@! TD*
G04 #@! TA.AperFunction,ComponentPad*
%ADD22R,1.100000X1.800000*%
G04 #@! TD*
G04 #@! TA.AperFunction,ComponentPad*
%ADD23RoundRect,0.275000X0.275000X0.625000X-0.275000X0.625000X-0.275000X-0.625000X0.275000X-0.625000X0*%
G04 #@! TD*
G04 #@! TA.AperFunction,ComponentPad*
%ADD24HorizOval,1.600000X0.000000X0.000000X0.000000X0.000000X0*%
G04 #@! TD*
G04 #@! TA.AperFunction,SMDPad,CuDef*
%ADD25R,1.500000X5.080000*%
G04 #@! TD*
G04 #@! TA.AperFunction,ViaPad*
%ADD26C,1.000000*%
G04 #@! TD*
G04 #@! TA.AperFunction,ViaPad*
%ADD27C,0.800000*%
G04 #@! TD*
G04 #@! TA.AperFunction,Conductor*
%ADD28C,0.500000*%
G04 #@! TD*
G04 #@! TA.AperFunction,Conductor*
%ADD29C,1.000000*%
G04 #@! TD*
G04 #@! TA.AperFunction,Conductor*
%ADD30C,0.400000*%
G04 #@! TD*
G04 APERTURE END LIST*
D10*
X77109466Y-99420534D03*
X80645000Y-95885000D03*
D11*
X45766974Y-108321974D03*
D10*
X49266974Y-108321974D03*
D12*
X62855000Y-78750000D03*
D13*
X60315000Y-78750000D03*
X57775000Y-78750000D03*
X55235000Y-78750000D03*
X55235000Y-86370000D03*
X57775000Y-86370000D03*
X60315000Y-86370000D03*
X62855000Y-86370000D03*
D10*
X149225000Y-63500000D03*
X149225000Y-58500000D03*
X63935795Y-71555795D03*
D14*
X71120000Y-78740000D03*
D15*
X65840795Y-61595000D03*
D16*
X65840795Y-64135000D03*
D10*
X70282855Y-65188434D03*
D14*
X77467060Y-72372639D03*
D11*
X123444000Y-65024000D03*
D10*
X123444000Y-61524000D03*
D15*
X36825000Y-64775000D03*
D16*
X34285000Y-64775000D03*
X36825000Y-67315000D03*
X34285000Y-67315000D03*
X36825000Y-69855000D03*
X34285000Y-69855000D03*
X36825000Y-72395000D03*
X34285000Y-72395000D03*
X36825000Y-74935000D03*
X34285000Y-74935000D03*
X36825000Y-77475000D03*
X34285000Y-77475000D03*
X36825000Y-80015000D03*
X34285000Y-80015000D03*
X36825000Y-82555000D03*
X34285000Y-82555000D03*
X36825000Y-85095000D03*
X34285000Y-85095000D03*
X36825000Y-87635000D03*
X34285000Y-87635000D03*
X36825000Y-90175000D03*
X34285000Y-90175000D03*
X36825000Y-92715000D03*
X34285000Y-92715000D03*
X36825000Y-95255000D03*
X34285000Y-95255000D03*
X36825000Y-97795000D03*
X34285000Y-97795000D03*
X36825000Y-100335000D03*
X34285000Y-100335000D03*
D10*
X136471680Y-69850000D03*
X131471680Y-69850000D03*
D15*
X66040000Y-103505000D03*
D16*
X66040000Y-100965000D03*
D10*
X51435000Y-85050000D03*
X51435000Y-80050000D03*
D17*
X85418946Y-100521929D03*
X83622895Y-102317980D03*
X87214997Y-102317980D03*
X85418946Y-104114031D03*
X89011048Y-104114031D03*
X87214997Y-105910082D03*
D15*
X41905000Y-64775000D03*
D16*
X44445000Y-64775000D03*
X41905000Y-67315000D03*
X44445000Y-67315000D03*
X41905000Y-69855000D03*
X44445000Y-69855000D03*
X41905000Y-72395000D03*
X44445000Y-72395000D03*
X41905000Y-74935000D03*
X44445000Y-74935000D03*
X41905000Y-77475000D03*
X44445000Y-77475000D03*
X41905000Y-80015000D03*
X44445000Y-80015000D03*
X41905000Y-82555000D03*
X44445000Y-82555000D03*
X41905000Y-85095000D03*
X44445000Y-85095000D03*
X41905000Y-87635000D03*
X44445000Y-87635000D03*
X41905000Y-90175000D03*
X44445000Y-90175000D03*
X41905000Y-92715000D03*
X44445000Y-92715000D03*
X41905000Y-95255000D03*
X44445000Y-95255000D03*
X41905000Y-97795000D03*
X44445000Y-97795000D03*
X41905000Y-100335000D03*
X44445000Y-100335000D03*
D18*
X146050000Y-52070000D03*
D19*
X137205062Y-91440000D03*
D20*
X137205062Y-88900000D03*
X137205062Y-86360000D03*
X137205062Y-83820000D03*
X137205062Y-81280000D03*
X137205062Y-78740000D03*
X137205062Y-76200000D03*
X137205062Y-73660000D03*
X129585062Y-73660000D03*
X129585062Y-76200000D03*
X129585062Y-78740000D03*
X129585062Y-81280000D03*
X129585062Y-83820000D03*
X129585062Y-86360000D03*
X129585062Y-88900000D03*
X129585062Y-91440000D03*
D10*
X148590000Y-83820000D03*
D21*
X148590000Y-93980000D03*
D22*
X144780000Y-96755000D03*
D23*
X143510000Y-98825000D03*
X142240000Y-96755000D03*
D17*
X122118533Y-71011052D03*
X120322482Y-72807103D03*
X118526430Y-71011052D03*
X116730379Y-69215000D03*
X120322482Y-69215000D03*
X118526430Y-67418949D03*
D18*
X99060000Y-104611732D03*
X76998268Y-82550000D03*
X99060000Y-60488268D03*
X121121732Y-82550000D03*
D10*
X139065000Y-65405001D03*
D21*
X139065000Y-55245001D03*
D10*
X130810000Y-52070000D03*
D21*
X140970000Y-52070000D03*
D15*
X60960000Y-114934999D03*
D16*
X60960000Y-112394999D03*
X60960000Y-109854999D03*
D22*
X144780000Y-83420000D03*
D23*
X143510000Y-85490000D03*
X142240000Y-83420000D03*
D10*
X70759466Y-93070534D03*
X74295000Y-89535000D03*
D17*
X88990291Y-60960707D03*
X87194240Y-59164656D03*
X87194240Y-62756758D03*
X85398189Y-60960707D03*
X85398189Y-64552809D03*
X83602138Y-62756758D03*
D10*
X70285795Y-99894205D03*
D24*
X77470000Y-92710000D03*
D22*
X144780000Y-69450000D03*
D23*
X143510000Y-71520000D03*
X142240000Y-69450000D03*
D22*
X144780000Y-61830000D03*
D23*
X143510000Y-63900000D03*
X142240000Y-61830000D03*
D15*
X75565000Y-111760000D03*
D16*
X75565000Y-109220000D03*
X75565000Y-106680000D03*
D10*
X63935795Y-93544205D03*
D24*
X71120000Y-86360000D03*
D17*
X118490022Y-97677615D03*
X116693971Y-95881564D03*
X118490022Y-94085512D03*
X120286074Y-92289461D03*
X120286074Y-95881564D03*
X122082125Y-94085512D03*
D15*
X62230000Y-103505000D03*
D16*
X62230000Y-100965000D03*
D11*
X36957000Y-108458000D03*
D10*
X40457000Y-108458000D03*
X66675000Y-85050000D03*
X66675000Y-80050000D03*
X148590000Y-69850001D03*
D21*
X148590000Y-80010001D03*
D10*
X148590000Y-97155000D03*
D21*
X148590000Y-107315000D03*
D15*
X62230000Y-61595000D03*
D16*
X62230000Y-64135000D03*
D10*
X70758958Y-72024002D03*
X74294492Y-75559536D03*
D11*
X122555000Y-101600000D03*
D10*
X126055000Y-101600000D03*
D15*
X56515000Y-114935000D03*
D16*
X56515000Y-112395000D03*
X56515000Y-109855000D03*
D15*
X139065000Y-109855000D03*
D16*
X139065000Y-107315000D03*
X139065000Y-104775000D03*
D18*
X146050000Y-113030000D03*
D10*
X77115869Y-65665869D03*
X80651403Y-69201403D03*
X131471680Y-94996000D03*
X136471680Y-94996000D03*
D25*
X54610000Y-49177500D03*
X50360000Y-49177500D03*
X58860000Y-49177500D03*
X93980000Y-49177500D03*
X89730000Y-49177500D03*
X98230000Y-49177500D03*
X74295000Y-49177500D03*
X70045000Y-49177500D03*
X78545000Y-49177500D03*
D26*
X51308000Y-89408000D03*
D27*
X59055000Y-51435000D03*
X55245000Y-93345000D03*
X54610000Y-97790000D03*
X132000000Y-59000000D03*
X49800000Y-66000000D03*
X69850000Y-51435000D03*
X149900000Y-99800000D03*
X82900000Y-58100000D03*
X83300000Y-97400000D03*
X71800000Y-104500000D03*
X57500000Y-94200000D03*
X34300000Y-102800000D03*
X145000000Y-77300000D03*
X53400000Y-77800000D03*
X54610000Y-100330000D03*
X66300000Y-97000000D03*
X58800000Y-115500000D03*
X34300000Y-62200000D03*
X138100000Y-67700000D03*
X42900000Y-117500000D03*
X143400000Y-103200000D03*
X127200000Y-90700000D03*
X98425000Y-51435000D03*
X91200000Y-112100000D03*
X66000000Y-68400000D03*
X131400000Y-101700000D03*
X127800000Y-53800000D03*
X64300000Y-58100000D03*
X59350000Y-94100000D03*
X89535000Y-51435000D03*
X57785000Y-72390000D03*
X113300000Y-117700000D03*
X150000000Y-66800000D03*
X50165000Y-51435000D03*
X140900000Y-87900000D03*
X93900000Y-82600000D03*
X59100000Y-84200000D03*
X78740000Y-51435000D03*
X121900000Y-59200000D03*
X78800000Y-63300000D03*
D28*
X74295000Y-64205000D02*
X74295000Y-48542500D01*
X62855000Y-78750000D02*
X67400000Y-74205000D01*
X67400000Y-71100000D02*
X74295000Y-64205000D01*
X56515000Y-85090000D02*
X62855000Y-78750000D01*
X56515000Y-109220001D02*
X56515000Y-85090000D01*
X67400000Y-74205000D02*
X67400000Y-71100000D01*
D29*
X123698000Y-52070000D02*
X130810000Y-52070000D01*
X120396000Y-61976000D02*
X123444000Y-65024000D01*
X120396000Y-55372000D02*
X123698000Y-52070000D01*
X46355000Y-91440000D02*
X49276000Y-91440000D01*
X49276000Y-91440000D02*
X51308000Y-89408000D01*
X120396000Y-61976000D02*
X120396000Y-55372000D01*
D30*
X41905000Y-92715000D02*
X43180000Y-91440000D01*
X46355000Y-91440000D02*
X43180000Y-91440000D01*
D28*
X127000000Y-82550000D02*
X118526430Y-74076430D01*
X130855062Y-82550000D02*
X127000000Y-82550000D01*
X118526430Y-74076430D02*
X118526430Y-71011052D01*
X137205062Y-88900000D02*
X130855062Y-82550000D01*
X54610000Y-48542500D02*
X54610000Y-52070000D01*
X41905000Y-67315000D02*
X41905000Y-64775000D01*
X54610000Y-52070000D02*
X41905000Y-64775000D01*
X41905000Y-69855000D02*
X41905000Y-67315000D01*
X41905000Y-72395000D02*
X41905000Y-69855000D01*
X93980000Y-60960000D02*
X72390000Y-82550000D01*
X64135000Y-82550000D02*
X72390000Y-82550000D01*
X58500000Y-105490000D02*
X58500000Y-88800000D01*
X60960000Y-107950000D02*
X58500000Y-105490000D01*
X60960000Y-109854999D02*
X60960000Y-107950000D01*
X60315000Y-86370000D02*
X64135000Y-82550000D01*
X58500000Y-88800000D02*
X60315000Y-86985000D01*
X93980000Y-48542500D02*
X93980000Y-60960000D01*
X40005000Y-101600000D02*
X44450000Y-106045000D01*
D30*
X41905000Y-90175000D02*
X40005000Y-92075000D01*
D28*
X53975000Y-109855000D02*
X53975000Y-112395000D01*
X50165000Y-106045000D02*
X53975000Y-109855000D01*
X53975000Y-112395000D02*
X56515000Y-114935000D01*
X40005000Y-92075000D02*
X40005000Y-101600000D01*
X44450000Y-106045000D02*
X50165000Y-106045000D01*
D30*
X35560000Y-91450000D02*
X37729000Y-91450000D01*
X34285000Y-90175000D02*
X35560000Y-91450000D01*
D28*
X51943000Y-117348000D02*
X58546999Y-117348000D01*
X38735000Y-104140000D02*
X51943000Y-117348000D01*
X58546999Y-117348000D02*
X60960000Y-114934999D01*
D30*
X37729000Y-91450000D02*
X38735000Y-92456000D01*
D28*
X38735000Y-92456000D02*
X38735000Y-104140000D01*
D29*
X139065000Y-55245001D02*
X126110999Y-55245001D01*
X123444000Y-57912000D02*
X123444000Y-61524000D01*
X140715999Y-56896000D02*
X139065000Y-55245001D01*
X149225000Y-58500000D02*
X147621000Y-56896000D01*
X147621000Y-56896000D02*
X140715999Y-56896000D01*
X126110999Y-55245001D02*
X123444000Y-57912000D01*
G04 #@! TA.AperFunction,Conductor*
G36*
X41913267Y-64782277D02*
G01*
X42746273Y-65616263D01*
X42749695Y-65624537D01*
X42746263Y-65632808D01*
X42745805Y-65633242D01*
X42634998Y-65732574D01*
X42634989Y-65732583D01*
X42515007Y-65871350D01*
X42515006Y-65871352D01*
X42515000Y-65871361D01*
X42395000Y-66041361D01*
X42275000Y-66242574D01*
X42158270Y-66468667D01*
X42151430Y-66474447D01*
X42147874Y-66475000D01*
X41662126Y-66475000D01*
X41653853Y-66471573D01*
X41651730Y-66468667D01*
X41535000Y-66242574D01*
X41415000Y-66041361D01*
X41295000Y-65871361D01*
X41294996Y-65871356D01*
X41294993Y-65871352D01*
X41294992Y-65871350D01*
X41175010Y-65732583D01*
X41175001Y-65732574D01*
X41064194Y-65633242D01*
X41060321Y-65625168D01*
X41063292Y-65616720D01*
X41063693Y-65616295D01*
X41896723Y-64782285D01*
X41904992Y-64778855D01*
X41913267Y-64782277D01*
G37*
G04 #@! TD.AperFunction*
G04 #@! TA.AperFunction,Conductor*
G36*
X46168151Y-90988873D02*
G01*
X46168331Y-90989284D01*
X46354127Y-91435503D01*
X46354144Y-91444457D01*
X46354127Y-91444497D01*
X46168331Y-91890715D01*
X46161987Y-91897036D01*
X46153033Y-91897019D01*
X46152622Y-91896839D01*
X45969718Y-91812307D01*
X45969440Y-91812169D01*
X45831784Y-91739474D01*
X45710164Y-91685359D01*
X45564610Y-91651627D01*
X45366052Y-91640613D01*
X45357981Y-91636733D01*
X45355000Y-91628931D01*
X45355000Y-91251068D01*
X45358427Y-91242795D01*
X45366049Y-91239387D01*
X45564609Y-91228372D01*
X45710166Y-91194638D01*
X45831784Y-91140525D01*
X45969451Y-91067823D01*
X45969693Y-91067703D01*
X46152623Y-90983159D01*
X46161569Y-90982800D01*
X46168151Y-90988873D01*
G37*
G04 #@! TD.AperFunction*
G04 #@! TA.AperFunction,Conductor*
G36*
X55248776Y-113312808D02*
G01*
X55566000Y-113534743D01*
X55566004Y-113534745D01*
X55566005Y-113534746D01*
X55891274Y-113726309D01*
X56216543Y-113881873D01*
X56541812Y-114001436D01*
X56541821Y-114001438D01*
X56541823Y-114001439D01*
X56607457Y-114018300D01*
X56854038Y-114081648D01*
X56861198Y-114087026D01*
X56862458Y-114095891D01*
X56861940Y-114097447D01*
X56517562Y-114931215D01*
X56511236Y-114937553D01*
X56511215Y-114937562D01*
X55676016Y-115282531D01*
X55667061Y-115282522D01*
X55660735Y-115276184D01*
X55660654Y-115275983D01*
X55509436Y-114889812D01*
X55353873Y-114528543D01*
X55198306Y-114203267D01*
X55042750Y-113914013D01*
X55042746Y-113914005D01*
X54927459Y-113726309D01*
X54892015Y-113668602D01*
X54890605Y-113659759D01*
X54893710Y-113654208D01*
X55233797Y-113314121D01*
X55242069Y-113310695D01*
X55248776Y-113312808D01*
G37*
G04 #@! TD.AperFunction*
G04 #@! TA.AperFunction,Conductor*
G36*
X61436147Y-84907971D02*
G01*
X61776911Y-85248735D01*
X61780338Y-85257008D01*
X61778676Y-85263019D01*
X61649686Y-85478434D01*
X61516013Y-85734671D01*
X61382345Y-86023897D01*
X61248672Y-86346133D01*
X61119252Y-86690067D01*
X61113131Y-86696603D01*
X61104181Y-86696896D01*
X61103836Y-86696760D01*
X60321914Y-86373854D01*
X60315575Y-86367529D01*
X60314694Y-86362471D01*
X60345285Y-85734661D01*
X60371675Y-85193037D01*
X60375500Y-85184941D01*
X60383894Y-85181919D01*
X60583756Y-85191072D01*
X60795270Y-85167939D01*
X61006783Y-85111989D01*
X61218297Y-85023221D01*
X61422043Y-84906099D01*
X61430924Y-84904948D01*
X61436147Y-84907971D01*
G37*
G04 #@! TD.AperFunction*
G04 #@! TA.AperFunction,Conductor*
G36*
X54619000Y-49219207D02*
G01*
X54620178Y-49222419D01*
X55136664Y-51710504D01*
X55134990Y-51719301D01*
X55132556Y-51721987D01*
X55011635Y-51819569D01*
X54885152Y-51951638D01*
X54758669Y-52113709D01*
X54632181Y-52305786D01*
X54513294Y-52514521D01*
X54506221Y-52520013D01*
X54497336Y-52518897D01*
X54494854Y-52517003D01*
X54153589Y-52175738D01*
X54151280Y-52172456D01*
X54093712Y-52050390D01*
X54071789Y-52010011D01*
X54035289Y-51942778D01*
X53976859Y-51851419D01*
X53976854Y-51851413D01*
X53976851Y-51851408D01*
X53918430Y-51776327D01*
X53864882Y-51722415D01*
X53861483Y-51714130D01*
X53861963Y-51710855D01*
X53862067Y-51710504D01*
X54597503Y-49221480D01*
X54603132Y-49214519D01*
X54612037Y-49213577D01*
X54619000Y-49219207D01*
G37*
G04 #@! TD.AperFunction*
G04 #@! TA.AperFunction,Conductor*
G36*
X42152463Y-70698427D02*
G01*
X42155853Y-70705776D01*
X42183571Y-71055796D01*
X42262125Y-71301283D01*
X42262129Y-71301292D01*
X42379928Y-71503854D01*
X42526070Y-71735617D01*
X42526372Y-71736158D01*
X42684801Y-72058535D01*
X42685375Y-72067471D01*
X42679461Y-72074195D01*
X42678790Y-72074500D01*
X41909488Y-72394134D01*
X41900533Y-72394143D01*
X41900510Y-72394134D01*
X41131210Y-72074500D01*
X41124885Y-72068161D01*
X41124894Y-72059206D01*
X41125198Y-72058535D01*
X41283630Y-71736151D01*
X41283928Y-71735617D01*
X41430071Y-71503854D01*
X41547871Y-71301290D01*
X41626427Y-71055798D01*
X41654146Y-70705776D01*
X41658216Y-70697800D01*
X41665810Y-70695000D01*
X42144190Y-70695000D01*
X42152463Y-70698427D01*
G37*
G04 #@! TD.AperFunction*
G04 #@! TA.AperFunction,Conductor*
G36*
X61207463Y-108158426D02*
G01*
X61210853Y-108165775D01*
X61238571Y-108515795D01*
X61317125Y-108761282D01*
X61317129Y-108761291D01*
X61434928Y-108963853D01*
X61581070Y-109195616D01*
X61581372Y-109196157D01*
X61739801Y-109518534D01*
X61740375Y-109527470D01*
X61734461Y-109534194D01*
X61733790Y-109534499D01*
X60964488Y-109854133D01*
X60955533Y-109854142D01*
X60955510Y-109854133D01*
X60186210Y-109534499D01*
X60179885Y-109528160D01*
X60179894Y-109519205D01*
X60180198Y-109518534D01*
X60338630Y-109196150D01*
X60338928Y-109195616D01*
X60485071Y-108963853D01*
X60602871Y-108761289D01*
X60681427Y-108515797D01*
X60709146Y-108165775D01*
X60713216Y-108157799D01*
X60720810Y-108154999D01*
X61199190Y-108154999D01*
X61207463Y-108158426D01*
G37*
G04 #@! TD.AperFunction*
G04 #@! TA.AperFunction,Conductor*
G36*
X118530914Y-71011915D02*
G01*
X119300220Y-71331551D01*
X119306545Y-71337890D01*
X119306536Y-71346845D01*
X119306231Y-71347516D01*
X119147802Y-71669892D01*
X119147500Y-71670433D01*
X119001358Y-71902196D01*
X118883559Y-72104758D01*
X118883555Y-72104767D01*
X118805001Y-72350254D01*
X118777283Y-72700276D01*
X118773214Y-72708252D01*
X118765620Y-72711052D01*
X118287240Y-72711052D01*
X118278967Y-72707625D01*
X118275577Y-72700276D01*
X118247857Y-72350254D01*
X118169303Y-72104767D01*
X118169302Y-72104766D01*
X118169301Y-72104761D01*
X118051501Y-71902196D01*
X117905358Y-71670433D01*
X117905060Y-71669899D01*
X117746628Y-71347516D01*
X117746055Y-71338580D01*
X117751969Y-71331855D01*
X117752624Y-71331557D01*
X118521941Y-71011916D01*
X118530896Y-71011908D01*
X118530914Y-71011915D01*
G37*
G04 #@! TD.AperFunction*
G04 #@! TA.AperFunction,Conductor*
G36*
X42152463Y-65618427D02*
G01*
X42155853Y-65625776D01*
X42183571Y-65975796D01*
X42262125Y-66221283D01*
X42262129Y-66221292D01*
X42379928Y-66423854D01*
X42526070Y-66655617D01*
X42526372Y-66656158D01*
X42684801Y-66978535D01*
X42685375Y-66987471D01*
X42679461Y-66994195D01*
X42678790Y-66994500D01*
X41909488Y-67314134D01*
X41900533Y-67314143D01*
X41900510Y-67314134D01*
X41131210Y-66994500D01*
X41124885Y-66988161D01*
X41124894Y-66979206D01*
X41125198Y-66978535D01*
X41283630Y-66656151D01*
X41283928Y-66655617D01*
X41430071Y-66423854D01*
X41547871Y-66221290D01*
X41626427Y-65975798D01*
X41654146Y-65625776D01*
X41658216Y-65617800D01*
X41665810Y-65615000D01*
X42144190Y-65615000D01*
X42152463Y-65618427D01*
G37*
G04 #@! TD.AperFunction*
G04 #@! TA.AperFunction,Conductor*
G36*
X59527289Y-86146052D02*
G01*
X60308783Y-86367332D01*
X60315809Y-86372883D01*
X60317080Y-86376357D01*
X60538355Y-87514714D01*
X60536570Y-87523489D01*
X60530171Y-87528171D01*
X60330168Y-87586985D01*
X60330159Y-87586989D01*
X60119952Y-87681802D01*
X59909731Y-87809622D01*
X59909730Y-87809623D01*
X59909728Y-87809625D01*
X59720892Y-87954085D01*
X59699505Y-87970447D01*
X59497549Y-88156648D01*
X59489143Y-88159736D01*
X59481345Y-88156319D01*
X59140592Y-87815566D01*
X59137165Y-87807293D01*
X59137607Y-87804106D01*
X59211588Y-87543082D01*
X59287441Y-87242455D01*
X59363294Y-86908827D01*
X59439147Y-86542200D01*
X59512616Y-86155128D01*
X59517526Y-86147641D01*
X59526293Y-86145817D01*
X59527289Y-86146052D01*
G37*
G04 #@! TD.AperFunction*
G04 #@! TA.AperFunction,Conductor*
G36*
X35067586Y-89854545D02*
G01*
X35073911Y-89860884D01*
X35074216Y-89861712D01*
X35187300Y-90207815D01*
X35187488Y-90208553D01*
X35238152Y-90483597D01*
X35238152Y-90483598D01*
X35286143Y-90718375D01*
X35286144Y-90718378D01*
X35395043Y-90954928D01*
X35395044Y-90954929D01*
X35395045Y-90954931D01*
X35539098Y-91128152D01*
X35621678Y-91227453D01*
X35624333Y-91236005D01*
X35620955Y-91243207D01*
X35353207Y-91510955D01*
X35344934Y-91514382D01*
X35337453Y-91511678D01*
X35336584Y-91510955D01*
X35064931Y-91285045D01*
X35064929Y-91285044D01*
X35064928Y-91285043D01*
X34929280Y-91222595D01*
X34828379Y-91176144D01*
X34828376Y-91176143D01*
X34828375Y-91176143D01*
X34593598Y-91128152D01*
X34593597Y-91128151D01*
X34318553Y-91077488D01*
X34317815Y-91077300D01*
X33971715Y-90964217D01*
X33964917Y-90958392D01*
X33964229Y-90949463D01*
X33964529Y-90948648D01*
X34282438Y-90178783D01*
X34288759Y-90172448D01*
X35058632Y-89854536D01*
X35067586Y-89854545D01*
G37*
G04 #@! TD.AperFunction*
G04 #@! TA.AperFunction,Conductor*
G36*
X41131359Y-89854532D02*
G01*
X41901215Y-90172438D01*
X41907552Y-90178761D01*
X41907562Y-90178785D01*
X42225463Y-90948631D01*
X42225454Y-90957586D01*
X42219115Y-90963911D01*
X42218283Y-90964218D01*
X42070035Y-91012655D01*
X41872186Y-91077299D01*
X41871442Y-91077489D01*
X41596400Y-91128152D01*
X41361622Y-91176143D01*
X41361619Y-91176144D01*
X41125070Y-91285043D01*
X40852546Y-91511678D01*
X40843994Y-91514333D01*
X40836792Y-91510955D01*
X40569044Y-91243207D01*
X40565617Y-91234934D01*
X40568320Y-91227455D01*
X40794954Y-90954931D01*
X40903854Y-90718379D01*
X40951846Y-90483598D01*
X41002510Y-90208549D01*
X41002696Y-90207819D01*
X41115782Y-89861713D01*
X41121607Y-89854917D01*
X41130536Y-89854229D01*
X41131359Y-89854532D01*
G37*
G04 #@! TD.AperFunction*
G04 #@! TA.AperFunction,Conductor*
G36*
X42973207Y-91379044D02*
G01*
X43240955Y-91646792D01*
X43244382Y-91655065D01*
X43241678Y-91662546D01*
X43015043Y-91935070D01*
X42906144Y-92171618D01*
X42906144Y-92171619D01*
X42858152Y-92406400D01*
X42807489Y-92681442D01*
X42807299Y-92682190D01*
X42694218Y-93028283D01*
X42688392Y-93035082D01*
X42679463Y-93035770D01*
X42678631Y-93035463D01*
X41908785Y-92717562D01*
X41902447Y-92711238D01*
X41584536Y-91941367D01*
X41584545Y-91932413D01*
X41590884Y-91926088D01*
X41591689Y-91925790D01*
X41937819Y-91812696D01*
X41938549Y-91812510D01*
X42213598Y-91761846D01*
X42448379Y-91713854D01*
X42684931Y-91604954D01*
X42957454Y-91378320D01*
X42966005Y-91375666D01*
X42973207Y-91379044D01*
G37*
G04 #@! TD.AperFunction*
G04 #@! TA.AperFunction,Conductor*
G36*
X122440062Y-63311467D02*
G01*
X122700568Y-63524608D01*
X122700568Y-63524609D01*
X122969268Y-63726457D01*
X123237969Y-63910304D01*
X123506669Y-64076152D01*
X123735243Y-64201920D01*
X123766201Y-64218955D01*
X123771798Y-64225946D01*
X123771375Y-64233672D01*
X123446562Y-65020214D01*
X123440237Y-65026553D01*
X123440214Y-65026562D01*
X122653290Y-65351533D01*
X122644335Y-65351524D01*
X122638807Y-65346764D01*
X122460152Y-65050669D01*
X122276304Y-64763969D01*
X122092457Y-64495268D01*
X121908609Y-64244568D01*
X121731212Y-64020032D01*
X121728774Y-64011418D01*
X121732120Y-64004509D01*
X122424381Y-63312248D01*
X122432653Y-63308822D01*
X122440062Y-63311467D01*
G37*
G04 #@! TD.AperFunction*
G04 #@! TA.AperFunction,Conductor*
G36*
X130805921Y-51273755D02*
G01*
X130809980Y-51281737D01*
X130810015Y-51282630D01*
X130811000Y-52070000D01*
X130810015Y-52857369D01*
X130806578Y-52865637D01*
X130798300Y-52869054D01*
X130797407Y-52869019D01*
X130410252Y-52838883D01*
X130408151Y-52838525D01*
X130129852Y-52764468D01*
X130129320Y-52764299D01*
X129890417Y-52675603D01*
X129890410Y-52675601D01*
X129890407Y-52675600D01*
X129610815Y-52601200D01*
X129220792Y-52570840D01*
X129212810Y-52566781D01*
X129210000Y-52559175D01*
X129210000Y-51580824D01*
X129213427Y-51572551D01*
X129220789Y-51569160D01*
X129610815Y-51538800D01*
X129890407Y-51464400D01*
X130129343Y-51375692D01*
X130129852Y-51375531D01*
X130178369Y-51362620D01*
X130408160Y-51301472D01*
X130410242Y-51301117D01*
X130797407Y-51270980D01*
X130805921Y-51273755D01*
G37*
G04 #@! TD.AperFunction*
G04 #@! TA.AperFunction,Conductor*
G36*
X148455406Y-57022112D02*
G01*
X148752663Y-57276433D01*
X149002973Y-57421526D01*
X149234648Y-57527751D01*
X149235135Y-57528004D01*
X149484276Y-57672419D01*
X149486015Y-57673651D01*
X149781088Y-57926104D01*
X149785147Y-57934086D01*
X149782372Y-57942600D01*
X149781765Y-57943257D01*
X149225707Y-58500707D01*
X148668257Y-59056765D01*
X148659979Y-59060182D01*
X148651711Y-59056745D01*
X148651104Y-59056088D01*
X148398651Y-58761015D01*
X148397419Y-58759276D01*
X148253004Y-58510135D01*
X148252751Y-58509648D01*
X148146526Y-58277973D01*
X148001433Y-58027663D01*
X147747112Y-57730406D01*
X147744338Y-57721894D01*
X147747729Y-57714530D01*
X148439530Y-57022729D01*
X148447802Y-57019303D01*
X148455406Y-57022112D01*
G37*
G04 #@! TD.AperFunction*
G04 #@! TA.AperFunction,Conductor*
G36*
X74305277Y-49212235D02*
G01*
X74306221Y-49214516D01*
X75042984Y-51710671D01*
X75042040Y-51719576D01*
X75039862Y-51722427D01*
X74945004Y-51813410D01*
X74944999Y-51813416D01*
X74844999Y-51936374D01*
X74778334Y-52036372D01*
X74745002Y-52086373D01*
X74745001Y-52086374D01*
X74745001Y-52086373D01*
X74745000Y-52086375D01*
X74645000Y-52263416D01*
X74644998Y-52263421D01*
X74548209Y-52460948D01*
X74541492Y-52466870D01*
X74537703Y-52467500D01*
X74052296Y-52467500D01*
X74044023Y-52464073D01*
X74041790Y-52460948D01*
X73945001Y-52263421D01*
X73944999Y-52263416D01*
X73844999Y-52086375D01*
X73844998Y-52086373D01*
X73844998Y-52086374D01*
X73745000Y-51936375D01*
X73645000Y-51813416D01*
X73550137Y-51722427D01*
X73546539Y-51714227D01*
X73547014Y-51710674D01*
X74283779Y-49214515D01*
X74289407Y-49207551D01*
X74298312Y-49206607D01*
X74305277Y-49212235D01*
G37*
G04 #@! TD.AperFunction*
G04 #@! TA.AperFunction,Conductor*
G36*
X123941448Y-59927427D02*
G01*
X123944840Y-59934792D01*
X123975200Y-60324815D01*
X123975201Y-60324817D01*
X124049603Y-60604417D01*
X124049603Y-60604418D01*
X124138299Y-60843320D01*
X124138468Y-60843852D01*
X124212525Y-61122151D01*
X124212883Y-61124252D01*
X124243019Y-61511407D01*
X124240244Y-61519921D01*
X124232262Y-61523980D01*
X124231369Y-61524015D01*
X123444000Y-61525000D01*
X122656630Y-61524015D01*
X122648362Y-61520578D01*
X122644945Y-61512300D01*
X122644980Y-61511407D01*
X122675117Y-61124242D01*
X122675472Y-61122160D01*
X122749531Y-60843852D01*
X122749692Y-60843343D01*
X122838400Y-60604407D01*
X122912800Y-60324815D01*
X122943159Y-59934792D01*
X122947219Y-59926810D01*
X122954825Y-59924000D01*
X123933175Y-59924000D01*
X123941448Y-59927427D01*
G37*
G04 #@! TD.AperFunction*
G04 #@! TA.AperFunction,Conductor*
G36*
X42152463Y-68158427D02*
G01*
X42155853Y-68165776D01*
X42183571Y-68515796D01*
X42262125Y-68761283D01*
X42262129Y-68761292D01*
X42379928Y-68963854D01*
X42526070Y-69195617D01*
X42526372Y-69196158D01*
X42684801Y-69518535D01*
X42685375Y-69527471D01*
X42679461Y-69534195D01*
X42678790Y-69534500D01*
X41909488Y-69854134D01*
X41900533Y-69854143D01*
X41900510Y-69854134D01*
X41131210Y-69534500D01*
X41124885Y-69528161D01*
X41124894Y-69519206D01*
X41125198Y-69518535D01*
X41283630Y-69196151D01*
X41283928Y-69195617D01*
X41430071Y-68963854D01*
X41547871Y-68761290D01*
X41626427Y-68515798D01*
X41654146Y-68165776D01*
X41658216Y-68157800D01*
X41665810Y-68155000D01*
X42144190Y-68155000D01*
X42152463Y-68158427D01*
G37*
G04 #@! TD.AperFunction*
G04 #@! TA.AperFunction,Conductor*
G36*
X41909488Y-67315865D02*
G01*
X42169664Y-67423964D01*
X42678790Y-67635499D01*
X42685115Y-67641838D01*
X42685106Y-67650793D01*
X42684801Y-67651464D01*
X42526372Y-67973840D01*
X42526070Y-67974381D01*
X42379928Y-68206144D01*
X42262129Y-68408706D01*
X42262125Y-68408715D01*
X42183571Y-68654202D01*
X42155853Y-69004224D01*
X42151784Y-69012200D01*
X42144190Y-69015000D01*
X41665810Y-69015000D01*
X41657537Y-69011573D01*
X41654147Y-69004224D01*
X41626427Y-68654202D01*
X41547873Y-68408715D01*
X41547872Y-68408714D01*
X41547871Y-68408709D01*
X41430071Y-68206144D01*
X41283928Y-67974381D01*
X41283630Y-67973847D01*
X41125198Y-67651464D01*
X41124625Y-67642528D01*
X41130539Y-67635803D01*
X41131194Y-67635505D01*
X41900511Y-67315864D01*
X41909465Y-67315856D01*
X41909488Y-67315865D01*
G37*
G04 #@! TD.AperFunction*
G04 #@! TA.AperFunction,Conductor*
G36*
X56762463Y-108158427D02*
G01*
X56765853Y-108165776D01*
X56793571Y-108515796D01*
X56872125Y-108761283D01*
X56872129Y-108761292D01*
X56989928Y-108963854D01*
X57136070Y-109195617D01*
X57136372Y-109196158D01*
X57294801Y-109518535D01*
X57295375Y-109527471D01*
X57289461Y-109534195D01*
X57288790Y-109534500D01*
X56519489Y-109854134D01*
X56510534Y-109854143D01*
X56510511Y-109854134D01*
X55741210Y-109534500D01*
X55734885Y-109528161D01*
X55734894Y-109519206D01*
X55735198Y-109518535D01*
X55893630Y-109196151D01*
X55893928Y-109195617D01*
X56040071Y-108963854D01*
X56157871Y-108761290D01*
X56236427Y-108515798D01*
X56264146Y-108165776D01*
X56268216Y-108157800D01*
X56275810Y-108155000D01*
X56754190Y-108155000D01*
X56762463Y-108158427D01*
G37*
G04 #@! TD.AperFunction*
G04 #@! TA.AperFunction,Conductor*
G36*
X43186203Y-63154122D02*
G01*
X43526287Y-63494206D01*
X43529714Y-63502479D01*
X43527984Y-63508602D01*
X43492540Y-63566309D01*
X43377253Y-63754005D01*
X43377249Y-63754013D01*
X43221693Y-64043267D01*
X43066126Y-64368543D01*
X42910563Y-64729812D01*
X42759345Y-65115983D01*
X42753137Y-65122437D01*
X42744184Y-65122612D01*
X42743983Y-65122531D01*
X41908784Y-64777562D01*
X41902446Y-64771236D01*
X41558059Y-63937446D01*
X41558068Y-63928492D01*
X41564406Y-63922166D01*
X41565950Y-63921651D01*
X41878187Y-63841436D01*
X42203456Y-63721873D01*
X42528725Y-63566309D01*
X42853994Y-63374746D01*
X42853994Y-63374745D01*
X42853999Y-63374743D01*
X42999858Y-63272697D01*
X43171224Y-63152807D01*
X43179966Y-63150874D01*
X43186203Y-63154122D01*
G37*
G04 #@! TD.AperFunction*
G04 #@! TA.AperFunction,Conductor*
G36*
X139638288Y-54688255D02*
G01*
X139638895Y-54688912D01*
X139891346Y-54983984D01*
X139892578Y-54985723D01*
X140036993Y-55234863D01*
X140037250Y-55235359D01*
X140143467Y-55467016D01*
X140143475Y-55467032D01*
X140288561Y-55717331D01*
X140288562Y-55717333D01*
X140288564Y-55717335D01*
X140288565Y-55717337D01*
X140542886Y-56014593D01*
X140545661Y-56023106D01*
X140542269Y-56030471D01*
X139850470Y-56722270D01*
X139842197Y-56725697D01*
X139834592Y-56722887D01*
X139537336Y-56468566D01*
X139537334Y-56468565D01*
X139537332Y-56468563D01*
X139537330Y-56468562D01*
X139287031Y-56323476D01*
X139287015Y-56323468D01*
X139055358Y-56217251D01*
X139054862Y-56216994D01*
X138805722Y-56072579D01*
X138803983Y-56071347D01*
X138508911Y-55818896D01*
X138504852Y-55810914D01*
X138507627Y-55802400D01*
X138508212Y-55801765D01*
X139064293Y-55244294D01*
X139621744Y-54688233D01*
X139630020Y-54684818D01*
X139638288Y-54688255D01*
G37*
G04 #@! TD.AperFunction*
G04 #@! TA.AperFunction,Conductor*
G36*
X41909488Y-69855865D02*
G01*
X42169664Y-69963964D01*
X42678790Y-70175499D01*
X42685115Y-70181838D01*
X42685106Y-70190793D01*
X42684801Y-70191464D01*
X42526372Y-70513840D01*
X42526070Y-70514381D01*
X42379928Y-70746144D01*
X42262129Y-70948706D01*
X42262125Y-70948715D01*
X42183571Y-71194202D01*
X42155853Y-71544224D01*
X42151784Y-71552200D01*
X42144190Y-71555000D01*
X41665810Y-71555000D01*
X41657537Y-71551573D01*
X41654147Y-71544224D01*
X41626427Y-71194202D01*
X41547873Y-70948715D01*
X41547872Y-70948714D01*
X41547871Y-70948709D01*
X41430071Y-70746144D01*
X41283928Y-70514381D01*
X41283630Y-70513847D01*
X41125198Y-70191464D01*
X41124625Y-70182528D01*
X41130539Y-70175803D01*
X41131194Y-70175505D01*
X41900511Y-69855864D01*
X41909465Y-69855856D01*
X41909488Y-69855865D01*
G37*
G04 #@! TD.AperFunction*
G04 #@! TA.AperFunction,Conductor*
G36*
X60121012Y-114587465D02*
G01*
X60956216Y-114932437D01*
X60962553Y-114938762D01*
X60962562Y-114938783D01*
X61306940Y-115772551D01*
X61306931Y-115781506D01*
X61300593Y-115787832D01*
X61299037Y-115788350D01*
X60986823Y-115868558D01*
X60986812Y-115868561D01*
X60986812Y-115868562D01*
X60661543Y-115988125D01*
X60336274Y-116143689D01*
X60011005Y-116335252D01*
X60011000Y-116335255D01*
X59693776Y-116557190D01*
X59685033Y-116559124D01*
X59678796Y-116555876D01*
X59338712Y-116215792D01*
X59335285Y-116207519D01*
X59337015Y-116201396D01*
X59487746Y-115955993D01*
X59581582Y-115781506D01*
X59643306Y-115666731D01*
X59798873Y-115341455D01*
X59954436Y-114980186D01*
X60105654Y-114594015D01*
X60111862Y-114587561D01*
X60120815Y-114587386D01*
X60121012Y-114587465D01*
G37*
G04 #@! TD.AperFunction*
G04 #@! TA.AperFunction,Conductor*
G36*
X139060921Y-54448756D02*
G01*
X139064980Y-54456738D01*
X139065015Y-54457631D01*
X139066000Y-55245001D01*
X139065015Y-56032370D01*
X139061578Y-56040638D01*
X139053300Y-56044055D01*
X139052407Y-56044020D01*
X138665252Y-56013884D01*
X138663151Y-56013526D01*
X138384852Y-55939469D01*
X138384320Y-55939300D01*
X138145417Y-55850604D01*
X138145410Y-55850602D01*
X138145407Y-55850601D01*
X137865815Y-55776201D01*
X137475792Y-55745841D01*
X137467810Y-55741782D01*
X137465000Y-55734176D01*
X137465000Y-54755825D01*
X137468427Y-54747552D01*
X137475789Y-54744161D01*
X137865815Y-54713801D01*
X138145407Y-54639401D01*
X138384343Y-54550693D01*
X138384852Y-54550532D01*
X138433369Y-54537621D01*
X138663160Y-54476473D01*
X138665242Y-54476118D01*
X139052407Y-54445981D01*
X139060921Y-54448756D01*
G37*
G04 #@! TD.AperFunction*
G04 #@! TA.AperFunction,Conductor*
G36*
X40225066Y-91587959D02*
G01*
X40492040Y-91854933D01*
X40495467Y-91863206D01*
X40492379Y-91871126D01*
X40415721Y-91954473D01*
X40415718Y-91954476D01*
X40415716Y-91954479D01*
X40362386Y-92025346D01*
X40353492Y-92038565D01*
X40319448Y-92089170D01*
X40319269Y-92089422D01*
X40266207Y-92159933D01*
X40265839Y-92160376D01*
X40190002Y-92242833D01*
X40181879Y-92246603D01*
X40173470Y-92243525D01*
X40173150Y-92243219D01*
X40004293Y-92075707D01*
X39836779Y-91906848D01*
X39833385Y-91898561D01*
X39836845Y-91890302D01*
X39837093Y-91890064D01*
X39919630Y-91814150D01*
X39920058Y-91813796D01*
X39990575Y-91760729D01*
X39990827Y-91760550D01*
X40025618Y-91737144D01*
X40054652Y-91717613D01*
X40125519Y-91664283D01*
X40208874Y-91587619D01*
X40217282Y-91584542D01*
X40225066Y-91587959D01*
G37*
G04 #@! TD.AperFunction*
G04 #@! TA.AperFunction,Conductor*
G36*
X64050369Y-77213999D02*
G01*
X64390886Y-77554516D01*
X64394313Y-77562789D01*
X64392540Y-77568981D01*
X64248971Y-77799142D01*
X64248971Y-77799143D01*
X64100475Y-78070206D01*
X63951984Y-78374258D01*
X63803492Y-78711314D01*
X63659401Y-79070402D01*
X63653140Y-79076804D01*
X63644186Y-79076903D01*
X63644077Y-79076859D01*
X62861987Y-78753884D01*
X62855648Y-78747559D01*
X62854772Y-78742399D01*
X62923000Y-77560900D01*
X62926899Y-77552841D01*
X62934549Y-77549878D01*
X63147685Y-77547507D01*
X63371741Y-77512015D01*
X63595796Y-77443522D01*
X63819852Y-77342030D01*
X64036074Y-77212239D01*
X64044932Y-77210921D01*
X64050369Y-77213999D01*
G37*
G04 #@! TD.AperFunction*
G04 #@! TA.AperFunction,Conductor*
G36*
X62065879Y-78423123D02*
G01*
X62848012Y-78746115D01*
X62854351Y-78752440D01*
X62855227Y-78757604D01*
X62786999Y-79939097D01*
X62783100Y-79947158D01*
X62775448Y-79950121D01*
X62562318Y-79952491D01*
X62338258Y-79987984D01*
X62114205Y-80056476D01*
X62114202Y-80056477D01*
X62114203Y-80056477D01*
X61890147Y-80157969D01*
X61890145Y-80157970D01*
X61890141Y-80157972D01*
X61673926Y-80287759D01*
X61665069Y-80289079D01*
X61659631Y-80286001D01*
X61319113Y-79945483D01*
X61315686Y-79937210D01*
X61317458Y-79931019D01*
X61364134Y-79856191D01*
X61461028Y-79700857D01*
X61461028Y-79700856D01*
X61609524Y-79429793D01*
X61758015Y-79125741D01*
X61906507Y-78788685D01*
X61923589Y-78746115D01*
X62050600Y-78429594D01*
X62056859Y-78423195D01*
X62065813Y-78423096D01*
X62065879Y-78423123D01*
G37*
G04 #@! TD.AperFunction*
G04 #@! TA.AperFunction,Conductor*
G36*
X38531125Y-91968619D02*
G01*
X38614479Y-92045283D01*
X38685346Y-92098613D01*
X38704949Y-92111800D01*
X38749170Y-92141550D01*
X38749422Y-92141729D01*
X38819933Y-92194791D01*
X38820376Y-92195159D01*
X38902833Y-92270997D01*
X38906603Y-92279120D01*
X38903525Y-92287529D01*
X38903219Y-92287849D01*
X38735707Y-92456707D01*
X38566849Y-92624219D01*
X38558562Y-92627613D01*
X38550303Y-92624153D01*
X38549997Y-92623833D01*
X38474159Y-92541376D01*
X38473791Y-92540933D01*
X38420729Y-92470422D01*
X38420550Y-92470170D01*
X38390800Y-92425949D01*
X38377613Y-92406346D01*
X38324283Y-92335479D01*
X38247619Y-92252125D01*
X38244542Y-92243717D01*
X38247958Y-92235934D01*
X38514934Y-91968958D01*
X38523206Y-91965532D01*
X38531125Y-91968619D01*
G37*
G04 #@! TD.AperFunction*
G04 #@! TA.AperFunction,Conductor*
G36*
X93990277Y-49212235D02*
G01*
X93991221Y-49214516D01*
X94727984Y-51710671D01*
X94727040Y-51719576D01*
X94724862Y-51722427D01*
X94630004Y-51813410D01*
X94629999Y-51813416D01*
X94529999Y-51936374D01*
X94463334Y-52036372D01*
X94430002Y-52086373D01*
X94430001Y-52086374D01*
X94430001Y-52086373D01*
X94430000Y-52086375D01*
X94330000Y-52263416D01*
X94329998Y-52263421D01*
X94233209Y-52460948D01*
X94226492Y-52466870D01*
X94222703Y-52467500D01*
X93737296Y-52467500D01*
X93729023Y-52464073D01*
X93726790Y-52460948D01*
X93630001Y-52263421D01*
X93629999Y-52263416D01*
X93529999Y-52086375D01*
X93529998Y-52086373D01*
X93529998Y-52086374D01*
X93430000Y-51936375D01*
X93330000Y-51813416D01*
X93235137Y-51722427D01*
X93231539Y-51714227D01*
X93232014Y-51710674D01*
X93968779Y-49214515D01*
X93974407Y-49207551D01*
X93983312Y-49206607D01*
X93990277Y-49212235D01*
G37*
G04 #@! TD.AperFunction*
G04 #@! TA.AperFunction,Conductor*
G36*
X136098275Y-87437175D02*
G01*
X136254878Y-87545284D01*
X136379487Y-87631307D01*
X136594784Y-87755372D01*
X136668714Y-87797975D01*
X136668715Y-87797976D01*
X136668720Y-87797978D01*
X136668723Y-87797980D01*
X136957960Y-87931654D01*
X137247196Y-88032327D01*
X137247199Y-88032327D01*
X137247200Y-88032328D01*
X137523030Y-88096864D01*
X137530305Y-88102085D01*
X137531757Y-88110921D01*
X137531179Y-88112722D01*
X137208916Y-88893085D01*
X137202591Y-88899424D01*
X137197533Y-88900305D01*
X136025545Y-88843199D01*
X136017448Y-88839374D01*
X136014646Y-88833830D01*
X135960497Y-88565606D01*
X135904547Y-88321275D01*
X135848597Y-88109761D01*
X135848593Y-88109745D01*
X135848593Y-88109746D01*
X135792649Y-87931070D01*
X135739417Y-87792280D01*
X135739654Y-87783328D01*
X135742065Y-87779820D01*
X136083356Y-87438529D01*
X136091628Y-87435103D01*
X136098275Y-87437175D01*
G37*
G04 #@! TD.AperFunction*
M02*
