M48
; DRILL file {KiCad 7.0.6} date Tue May  7 04:30:42 2024
; FORMAT={-:-/ absolute / metric / decimal}
; #@! TF.CreationDate,2024-05-07T04:30:42+03:00
; #@! TF.GenerationSoftware,Kicad,Pcbnew,7.0.6
; #@! TF.FileFunction,Plated,1,4,PTH
FMAT,2
METRIC
; #@! TA.AperFunction,Plated,PTH,ViaDrill
T1C0.400
; #@! TA.AperFunction,Plated,PTH,ViaDrill
T2C0.500
; #@! TA.AperFunction,Plated,PTH,ComponentDrill
T3C0.750
; #@! TA.AperFunction,Plated,PTH,ComponentDrill
T4C0.800
; #@! TA.AperFunction,Plated,PTH,ComponentDrill
T5C1.000
; #@! TA.AperFunction,Plated,PTH,ComponentDrill
T6C2.500
%
G90
G05
T1
X34.3Y-62.2
X34.3Y-102.8
X42.9Y-117.5
X49.8Y-66.0
X50.165Y-51.435
X53.4Y-77.8
X54.61Y-97.79
X54.61Y-100.33
X55.245Y-93.345
X57.5Y-94.2
X57.785Y-72.39
X58.8Y-115.5
X59.055Y-51.435
X59.1Y-84.2
X59.35Y-94.1
X64.3Y-58.1
X66.0Y-68.4
X66.3Y-97.0
X69.85Y-51.435
X71.8Y-104.5
X78.74Y-51.435
X78.8Y-63.3
X82.9Y-58.1
X83.3Y-97.4
X89.535Y-51.435
X91.2Y-112.1
X93.9Y-82.6
X98.425Y-51.435
X113.3Y-117.7
X121.9Y-59.2
X127.2Y-90.7
X127.8Y-53.8
X131.4Y-101.7
X132.0Y-59.0
X138.1Y-67.7
X140.9Y-87.9
X143.4Y-103.2
X145.0Y-77.3
X149.9Y-99.8
X150.0Y-66.8
T2
X51.308Y-89.408
T3
X142.24Y-62.23
X142.24Y-69.85
X142.24Y-83.82
X142.24Y-97.155
X143.51Y-63.5
X143.51Y-71.12
X143.51Y-85.09
X143.51Y-98.425
X144.78Y-62.23
X144.78Y-69.85
X144.78Y-83.82
X144.78Y-97.155
T4
X36.957Y-108.458
X40.457Y-108.458
X45.767Y-108.322
X49.267Y-108.322
X51.435Y-80.05
X51.435Y-85.05
X55.235Y-78.75
X55.235Y-86.37
X57.775Y-78.75
X57.775Y-86.37
X60.315Y-78.75
X60.315Y-86.37
X62.855Y-78.75
X62.855Y-86.37
X63.936Y-71.556
X63.936Y-93.544
X66.675Y-80.05
X66.675Y-85.05
X70.283Y-65.188
X70.286Y-99.894
X70.759Y-72.024
X70.759Y-93.071
X71.12Y-78.74
X71.12Y-86.36
X74.294Y-75.56
X74.295Y-89.535
X77.109Y-99.421
X77.116Y-65.666
X77.467Y-72.373
X77.47Y-92.71
X80.645Y-95.885
X80.651Y-69.201
X122.555Y-101.6
X123.444Y-61.524
X123.444Y-65.024
X126.055Y-101.6
X129.585Y-73.66
X129.585Y-76.2
X129.585Y-78.74
X129.585Y-81.28
X129.585Y-83.82
X129.585Y-86.36
X129.585Y-88.9
X129.585Y-91.44
X130.81Y-52.07
X131.472Y-69.85
X131.472Y-94.996
X136.472Y-69.85
X136.472Y-94.996
X137.205Y-73.66
X137.205Y-76.2
X137.205Y-78.74
X137.205Y-81.28
X137.205Y-83.82
X137.205Y-86.36
X137.205Y-88.9
X137.205Y-91.44
X139.065Y-55.245
X139.065Y-65.405
X140.97Y-52.07
X148.59Y-69.85
X148.59Y-80.01
X148.59Y-83.82
X148.59Y-93.98
X148.59Y-97.155
X148.59Y-107.315
X149.225Y-58.5
X149.225Y-63.5
T5
X34.285Y-64.775
X34.285Y-67.315
X34.285Y-69.855
X34.285Y-72.395
X34.285Y-74.935
X34.285Y-77.475
X34.285Y-80.015
X34.285Y-82.555
X34.285Y-85.095
X34.285Y-87.635
X34.285Y-90.175
X34.285Y-92.715
X34.285Y-95.255
X34.285Y-97.795
X34.285Y-100.335
X36.825Y-64.775
X36.825Y-67.315
X36.825Y-69.855
X36.825Y-72.395
X36.825Y-74.935
X36.825Y-77.475
X36.825Y-80.015
X36.825Y-82.555
X36.825Y-85.095
X36.825Y-87.635
X36.825Y-90.175
X36.825Y-92.715
X36.825Y-95.255
X36.825Y-97.795
X36.825Y-100.335
X41.905Y-64.775
X41.905Y-67.315
X41.905Y-69.855
X41.905Y-72.395
X41.905Y-74.935
X41.905Y-77.475
X41.905Y-80.015
X41.905Y-82.555
X41.905Y-85.095
X41.905Y-87.635
X41.905Y-90.175
X41.905Y-92.715
X41.905Y-95.255
X41.905Y-97.795
X41.905Y-100.335
X44.445Y-64.775
X44.445Y-67.315
X44.445Y-69.855
X44.445Y-72.395
X44.445Y-74.935
X44.445Y-77.475
X44.445Y-80.015
X44.445Y-82.555
X44.445Y-85.095
X44.445Y-87.635
X44.445Y-90.175
X44.445Y-92.715
X44.445Y-95.255
X44.445Y-97.795
X44.445Y-100.335
X56.515Y-109.855
X56.515Y-112.395
X56.515Y-114.935
X60.96Y-109.855
X60.96Y-112.395
X60.96Y-114.935
X62.23Y-61.595
X62.23Y-64.135
X62.23Y-100.965
X62.23Y-103.505
X65.841Y-61.595
X65.841Y-64.135
X66.04Y-100.965
X66.04Y-103.505
X75.565Y-106.68
X75.565Y-109.22
X75.565Y-111.76
X83.602Y-62.757
X83.623Y-102.318
X85.398Y-60.961
X85.398Y-64.553
X85.419Y-100.522
X85.419Y-104.114
X87.194Y-59.165
X87.194Y-62.757
X87.215Y-102.318
X87.215Y-105.91
X88.99Y-60.961
X89.011Y-104.114
X116.694Y-95.882
X116.73Y-69.215
X118.49Y-94.086
X118.49Y-97.678
X118.526Y-67.419
X118.526Y-71.011
X120.286Y-92.289
X120.286Y-95.882
X120.322Y-69.215
X120.322Y-72.807
X122.082Y-94.086
X122.119Y-71.011
X139.065Y-104.775
X139.065Y-107.315
X139.065Y-109.855
T6
X76.998Y-82.55
X99.06Y-60.488
X99.06Y-104.612
X121.122Y-82.55
X146.05Y-52.07
X146.05Y-113.03
T0
M30
