%TF.GenerationSoftware,KiCad,Pcbnew,8.0.4*%
%TF.CreationDate,2025-02-12T17:53:24-08:00*%
%TF.ProjectId,wien_bridge_oscillator,7769656e-5f62-4726-9964-67655f6f7363,rev?*%
%TF.SameCoordinates,Original*%
%TF.FileFunction,Copper,L1,Top*%
%TF.FilePolarity,Positive*%
%FSLAX46Y46*%
G04 Gerber Fmt 4.6, Leading zero omitted, Abs format (unit mm)*
G04 Created by KiCad (PCBNEW 8.0.4) date 2025-02-12 17:53:24*
%MOMM*%
%LPD*%
G01*
G04 APERTURE LIST*
G04 Aperture macros list*
%AMRoundRect*
0 Rectangle with rounded corners*
0 $1 Rounding radius*
0 $2 $3 $4 $5 $6 $7 $8 $9 X,Y pos of 4 corners*
0 Add a 4 corners polygon primitive as box body*
4,1,4,$2,$3,$4,$5,$6,$7,$8,$9,$2,$3,0*
0 Add four circle primitives for the rounded corners*
1,1,$1+$1,$2,$3*
1,1,$1+$1,$4,$5*
1,1,$1+$1,$6,$7*
1,1,$1+$1,$8,$9*
0 Add four rect primitives between the rounded corners*
20,1,$1+$1,$2,$3,$4,$5,0*
20,1,$1+$1,$4,$5,$6,$7,0*
20,1,$1+$1,$6,$7,$8,$9,0*
20,1,$1+$1,$8,$9,$2,$3,0*%
G04 Aperture macros list end*
%TA.AperFunction,ComponentPad*%
%ADD10C,1.600000*%
%TD*%
%TA.AperFunction,ComponentPad*%
%ADD11O,1.600000X1.600000*%
%TD*%
%TA.AperFunction,ComponentPad*%
%ADD12C,2.800000*%
%TD*%
%TA.AperFunction,ComponentPad*%
%ADD13R,1.600000X1.600000*%
%TD*%
%TA.AperFunction,ComponentPad*%
%ADD14R,1.700000X1.700000*%
%TD*%
%TA.AperFunction,ComponentPad*%
%ADD15O,1.700000X1.700000*%
%TD*%
%TA.AperFunction,ComponentPad*%
%ADD16C,1.440000*%
%TD*%
%TA.AperFunction,ComponentPad*%
%ADD17RoundRect,0.750000X0.750000X0.750000X-0.750000X0.750000X-0.750000X-0.750000X0.750000X-0.750000X0*%
%TD*%
%TA.AperFunction,ComponentPad*%
%ADD18C,1.200000*%
%TD*%
%TA.AperFunction,ViaPad*%
%ADD19C,0.800000*%
%TD*%
%TA.AperFunction,Conductor*%
%ADD20C,0.600000*%
%TD*%
G04 APERTURE END LIST*
D10*
%TO.P,R4,1*%
%TO.N,Net-(D1-A)*%
X170307000Y-89789000D03*
D11*
%TO.P,R4,2*%
%TO.N,Net-(J1-Pin_1)*%
X160147000Y-89789000D03*
%TD*%
D10*
%TO.P,C7,1*%
%TO.N,/IN-*%
X140614400Y-83210400D03*
X141864400Y-83210400D03*
%TO.P,C7,2*%
%TO.N,Net-(J1-Pin_2)*%
X144364400Y-83210400D03*
X145614400Y-83210400D03*
%TD*%
D12*
%TO.P,TP1,1,1*%
%TO.N,VCC*%
X136391000Y-58699400D03*
%TD*%
%TO.P,TP5,1,1*%
%TO.N,GND*%
X186309000Y-98171000D03*
%TD*%
D13*
%TO.P,U1,1,NULL*%
%TO.N,/NN*%
X140614400Y-95173800D03*
D11*
%TO.P,U1,2,-*%
%TO.N,/IN-*%
X143154400Y-95173800D03*
%TO.P,U1,3,+*%
%TO.N,Net-(J10-Pin_2)*%
X145694400Y-95173800D03*
%TO.P,U1,4,V-*%
%TO.N,VSS*%
X148234400Y-95173800D03*
%TO.P,U1,5,NULL*%
%TO.N,/NP1*%
X148234400Y-87553800D03*
%TO.P,U1,6*%
%TO.N,Net-(J1-Pin_2)*%
X145694400Y-87553800D03*
%TO.P,U1,7,V+*%
%TO.N,VCC*%
X143154400Y-87553800D03*
%TO.P,U1,8,ALT*%
%TO.N,unconnected-(U1-ALT-Pad8)*%
X140614400Y-87553800D03*
%TD*%
D14*
%TO.P,J9,1,Pin_1*%
%TO.N,Net-(D1-K)*%
X157175200Y-98501200D03*
D15*
%TO.P,J9,2,Pin_2*%
%TO.N,/IN-*%
X157175200Y-101041200D03*
%TO.P,J9,3,Pin_3*%
%TO.N,/FB_BULB*%
X157175200Y-103581200D03*
%TD*%
D13*
%TO.P,D2,1,K*%
%TO.N,Net-(D1-A)*%
X169037000Y-79324200D03*
D11*
%TO.P,D2,2,A*%
%TO.N,Net-(D1-K)*%
X161417000Y-79324200D03*
%TD*%
D10*
%TO.P,C6,1*%
%TO.N,VCC*%
X130516000Y-64871600D03*
X129266000Y-64871600D03*
%TO.P,C6,2*%
%TO.N,GND*%
X126766000Y-64871600D03*
X125516000Y-64871600D03*
%TD*%
D14*
%TO.P,J10,1,Pin_1*%
%TO.N,Net-(J10-Pin_1)*%
X126492000Y-99796600D03*
D15*
%TO.P,J10,2,Pin_2*%
%TO.N,Net-(J10-Pin_2)*%
X126492000Y-97256600D03*
%TO.P,J10,3,Pin_3*%
%TO.N,Net-(J10-Pin_3)*%
X129032000Y-99796600D03*
%TO.P,J10,4,Pin_4*%
%TO.N,Net-(J10-Pin_2)*%
X129032000Y-97256600D03*
%TO.P,J10,5,Pin_5*%
%TO.N,Net-(J10-Pin_5)*%
X131572000Y-99796600D03*
%TO.P,J10,6,Pin_6*%
%TO.N,Net-(J10-Pin_2)*%
X131572000Y-97256600D03*
%TD*%
D14*
%TO.P,J1,1,Pin_1*%
%TO.N,Net-(J1-Pin_1)*%
X162001200Y-98425000D03*
D15*
%TO.P,J1,2,Pin_2*%
%TO.N,Net-(J1-Pin_2)*%
X162001200Y-100965000D03*
%TO.P,J1,3,Pin_3*%
%TO.N,/OUT_BULB*%
X162001200Y-103505000D03*
%TD*%
D10*
%TO.P,C4,1*%
%TO.N,GND*%
X152196800Y-87597600D03*
X152196800Y-88847600D03*
%TO.P,C4,2*%
%TO.N,VSS*%
X152196800Y-91347600D03*
X152196800Y-92597600D03*
%TD*%
D12*
%TO.P,TP4,1,1*%
%TO.N,Net-(J2-Pin_1)*%
X186436000Y-78486000D03*
%TD*%
D10*
%TO.P,C5,1*%
%TO.N,Net-(J7-Pin_2)*%
X122148800Y-78465600D03*
X122148800Y-77215600D03*
%TO.P,C5,2*%
%TO.N,Net-(C2-Pad2)*%
X122148800Y-74715600D03*
X122148800Y-73465600D03*
%TD*%
%TO.P,C1,1*%
%TO.N,GND*%
X132994400Y-111205000D03*
X132994400Y-109955000D03*
%TO.P,C1,2*%
%TO.N,Net-(J10-Pin_5)*%
X132994400Y-107455000D03*
X132994400Y-106205000D03*
%TD*%
%TO.P,C9,1*%
%TO.N,GND*%
X164348800Y-64871600D03*
X163098800Y-64871600D03*
%TO.P,C9,2*%
%TO.N,VSS*%
X160598800Y-64871600D03*
X159348800Y-64871600D03*
%TD*%
D14*
%TO.P,J2,1,Pin_1*%
%TO.N,Net-(J2-Pin_1)*%
X186309000Y-84963000D03*
D15*
%TO.P,J2,2,Pin_2*%
X186309000Y-87503000D03*
%TO.P,J2,3,Pin_3*%
%TO.N,GND*%
X186309000Y-90043000D03*
%TO.P,J2,4,Pin_4*%
X186309000Y-92583000D03*
%TD*%
D16*
%TO.P,RV1,1,1*%
%TO.N,Net-(R18-Pad1)*%
X138557000Y-116662200D03*
%TO.P,RV1,2,2*%
X141097000Y-121742200D03*
%TO.P,RV1,3,3*%
%TO.N,GND*%
X143637000Y-116662200D03*
%TD*%
D10*
%TO.P,C8,1*%
%TO.N,Net-(J7-Pin_4)*%
X128346200Y-78541800D03*
X128346200Y-77291800D03*
%TO.P,C8,2*%
%TO.N,Net-(C2-Pad2)*%
X128346200Y-74791800D03*
X128346200Y-73541800D03*
%TD*%
%TO.P,R1,1*%
%TO.N,Net-(J6-Pin_1)*%
X167259000Y-104800400D03*
D11*
%TO.P,R1,2*%
%TO.N,/FB_BULB*%
X177419000Y-104800400D03*
%TD*%
D10*
%TO.P,C10,1*%
%TO.N,GND*%
X122123200Y-111288200D03*
X122123200Y-110038200D03*
%TO.P,C10,2*%
%TO.N,Net-(J10-Pin_1)*%
X122123200Y-107538200D03*
X122123200Y-106288200D03*
%TD*%
D17*
%TO.P,RV5,*%
%TO.N,*%
X108409600Y-91734000D03*
X121409600Y-91734000D03*
D18*
%TO.P,RV5,1,1*%
%TO.N,Net-(R14-Pad2)*%
X111909600Y-102734000D03*
%TO.P,RV5,2,2*%
X109909600Y-102734000D03*
%TO.P,RV5,3,3*%
%TO.N,Net-(J10-Pin_2)*%
X119909600Y-102734000D03*
%TO.P,RV5,4,4*%
%TO.N,Net-(C2-Pad2)*%
X113909600Y-102734000D03*
%TO.P,RV5,5,5*%
X115909600Y-102734000D03*
%TO.P,RV5,6,6*%
%TO.N,Net-(R9-Pad2)*%
X117909600Y-102734000D03*
%TD*%
D14*
%TO.P,J6,1,Pin_1*%
%TO.N,Net-(J6-Pin_1)*%
X161620200Y-110794800D03*
D15*
%TO.P,J6,2,Pin_2*%
X161620200Y-113334800D03*
%TO.P,J6,3,Pin_3*%
%TO.N,GND*%
X161620200Y-115874800D03*
%TO.P,J6,4,Pin_4*%
X161620200Y-118414800D03*
%TD*%
D10*
%TO.P,R3,1*%
%TO.N,Net-(J1-Pin_2)*%
X179908200Y-94107000D03*
D11*
%TO.P,R3,2*%
%TO.N,Net-(J2-Pin_1)*%
X179908200Y-83947000D03*
%TD*%
D10*
%TO.P,R14,1*%
%TO.N,GND*%
X114935000Y-115951000D03*
D11*
%TO.P,R14,2*%
%TO.N,Net-(R14-Pad2)*%
X114935000Y-105791000D03*
%TD*%
D14*
%TO.P,J7,1,Pin_1*%
%TO.N,Net-(J10-Pin_2)*%
X126502400Y-85877400D03*
D15*
%TO.P,J7,2,Pin_2*%
%TO.N,Net-(J7-Pin_2)*%
X126502400Y-83337400D03*
%TO.P,J7,3,Pin_3*%
%TO.N,Net-(J10-Pin_2)*%
X129042400Y-85877400D03*
%TO.P,J7,4,Pin_4*%
%TO.N,Net-(J7-Pin_4)*%
X129042400Y-83337400D03*
%TO.P,J7,5,Pin_5*%
%TO.N,Net-(J10-Pin_2)*%
X131582400Y-85877400D03*
%TO.P,J7,6,Pin_6*%
%TO.N,Net-(J7-Pin_6)*%
X131582400Y-83337400D03*
%TD*%
D10*
%TO.P,R6,1*%
%TO.N,Net-(D1-K)*%
X160147000Y-84759800D03*
D11*
%TO.P,R6,2*%
%TO.N,Net-(D1-A)*%
X170307000Y-84759800D03*
%TD*%
D10*
%TO.P,C11,1*%
%TO.N,GND*%
X128651000Y-111288200D03*
X128651000Y-110038200D03*
%TO.P,C11,2*%
%TO.N,Net-(J10-Pin_3)*%
X128651000Y-107538200D03*
X128651000Y-106288200D03*
%TD*%
%TO.P,C2,1*%
%TO.N,Net-(J7-Pin_6)*%
X132765800Y-78587600D03*
X132765800Y-77337600D03*
%TO.P,C2,2*%
%TO.N,Net-(C2-Pad2)*%
X132765800Y-74837600D03*
X132765800Y-73587600D03*
%TD*%
D16*
%TO.P,RV3,1,1*%
%TO.N,Net-(R2-Pad1)*%
X169722800Y-116662200D03*
%TO.P,RV3,2,2*%
%TO.N,/OUT_BULB*%
X172262800Y-121742200D03*
%TO.P,RV3,3,3*%
X174802800Y-116662200D03*
%TD*%
D10*
%TO.P,R9,1*%
%TO.N,Net-(J1-Pin_2)*%
X114935000Y-66802000D03*
D11*
%TO.P,R9,2*%
%TO.N,Net-(R9-Pad2)*%
X114935000Y-76962000D03*
%TD*%
D12*
%TO.P,TP2,1,1*%
%TO.N,GND*%
X144981000Y-58699400D03*
%TD*%
D10*
%TO.P,C3,1*%
%TO.N,VCC*%
X136575800Y-87352800D03*
X136575800Y-88602800D03*
%TO.P,C3,2*%
%TO.N,GND*%
X136575800Y-91102800D03*
X136575800Y-92352800D03*
%TD*%
D16*
%TO.P,RV2,1,1*%
%TO.N,Net-(R14-Pad2)*%
X117449600Y-93268800D03*
%TO.P,RV2,2,2*%
X114909600Y-93268800D03*
%TO.P,RV2,3,3*%
%TO.N,Net-(J10-Pin_2)*%
X112369600Y-93268800D03*
%TO.P,RV2,4,4*%
%TO.N,Net-(C2-Pad2)*%
X117449600Y-85648800D03*
%TO.P,RV2,5,5*%
X114909600Y-85648800D03*
%TO.P,RV2,6,6*%
%TO.N,Net-(R9-Pad2)*%
X112369600Y-85648800D03*
%TD*%
D10*
%TO.P,R18,1*%
%TO.N,Net-(R18-Pad1)*%
X149352000Y-111480600D03*
D11*
%TO.P,R18,2*%
%TO.N,Net-(D1-K)*%
X149352000Y-101320600D03*
%TD*%
D12*
%TO.P,TP3,1,1*%
%TO.N,VSS*%
X153536000Y-58699400D03*
%TD*%
D14*
%TO.P,J5,1,Pin_1*%
%TO.N,VCC*%
X141090000Y-63398400D03*
D15*
%TO.P,J5,2,Pin_2*%
%TO.N,GND*%
X143630000Y-63398400D03*
%TO.P,J5,3,Pin_3*%
X146170000Y-63398400D03*
%TO.P,J5,4,Pin_4*%
%TO.N,VSS*%
X148710000Y-63398400D03*
%TD*%
D13*
%TO.P,D1,1,K*%
%TO.N,Net-(D1-K)*%
X161417000Y-76383800D03*
D11*
%TO.P,D1,2,A*%
%TO.N,Net-(D1-A)*%
X169037000Y-76383800D03*
%TD*%
D10*
%TO.P,R2,1*%
%TO.N,Net-(R2-Pad1)*%
X167346000Y-108508000D03*
D11*
%TO.P,R2,2*%
%TO.N,/FB_BULB*%
X177506000Y-108508000D03*
%TD*%
D19*
%TO.N,Net-(J1-Pin_2)*%
X137845800Y-69519800D03*
X161645600Y-87198200D03*
X148082000Y-83185000D03*
X134594600Y-69519800D03*
%TO.N,Net-(J10-Pin_2)*%
X143154400Y-99593400D03*
%TD*%
D20*
%TO.N,VSS*%
X159348800Y-64871600D02*
X153536000Y-59058800D01*
X152196800Y-95097600D02*
X154025600Y-93268800D01*
X152196800Y-95097600D02*
X148354400Y-95097600D01*
X154025600Y-93268800D02*
X154025600Y-68714000D01*
X153536000Y-59058800D02*
X153536000Y-58699400D01*
X154025600Y-68714000D02*
X148710000Y-63398400D01*
X148837000Y-63398400D02*
X148710000Y-63398400D01*
X153536000Y-58699400D02*
X148837000Y-63398400D01*
X152196800Y-92597600D02*
X150810600Y-92597600D01*
X150810600Y-92597600D02*
X148209000Y-95199200D01*
X148354400Y-95097600D02*
X148218200Y-95233800D01*
%TO.N,VCC*%
X136391000Y-58699400D02*
X141090000Y-63398400D01*
X130516000Y-64871600D02*
X136391000Y-58996600D01*
X136575800Y-67881500D02*
X141058900Y-63398400D01*
X136391000Y-58996600D02*
X136391000Y-58699400D01*
X141058900Y-63398400D02*
X141090000Y-63398400D01*
X136575800Y-87352800D02*
X136575800Y-67881500D01*
%TO.N,/IN-*%
X157175200Y-101041200D02*
X153085800Y-101041200D01*
X148132800Y-103479600D02*
X147116800Y-102463600D01*
X145389600Y-98196400D02*
X144551400Y-98196400D01*
X147116800Y-102463600D02*
X147116800Y-99923600D01*
X147116800Y-99923600D02*
X145389600Y-98196400D01*
X140614400Y-83210400D02*
X138760200Y-85064600D01*
X144551400Y-98196400D02*
X143138200Y-96783200D01*
X150647400Y-103479600D02*
X148132800Y-103479600D01*
X143138200Y-93354200D02*
X143138200Y-95233800D01*
X138760200Y-88976200D02*
X143138200Y-93354200D01*
X138760200Y-85064600D02*
X138760200Y-88976200D01*
X153085800Y-101041200D02*
X150647400Y-103479600D01*
X143138200Y-96783200D02*
X143138200Y-95233800D01*
%TO.N,Net-(J2-Pin_1)*%
X186309000Y-87503000D02*
X186309000Y-84963000D01*
X186436000Y-78486000D02*
X186436000Y-84836000D01*
X186309000Y-84963000D02*
X184226200Y-84963000D01*
X186436000Y-84836000D02*
X186309000Y-84963000D01*
X183210200Y-83947000D02*
X179908200Y-83947000D01*
X184226200Y-84963000D02*
X183210200Y-83947000D01*
%TO.N,Net-(D1-A)*%
X169037000Y-80543400D02*
X170307000Y-81813400D01*
X169037000Y-79324200D02*
X169037000Y-80543400D01*
X169037000Y-76383800D02*
X169037000Y-79324200D01*
X170307000Y-81813400D02*
X170307000Y-84759800D01*
%TO.N,Net-(D1-K)*%
X159371229Y-84759800D02*
X160147000Y-84759800D01*
X157175200Y-98501200D02*
X152171400Y-98501200D01*
X152171400Y-98501200D02*
X149352000Y-101320600D01*
X161417000Y-81254600D02*
X160147000Y-82524600D01*
X157175200Y-86955829D02*
X159371229Y-84759800D01*
X161417000Y-76383800D02*
X161417000Y-79324200D01*
X161417000Y-79324200D02*
X161417000Y-81254600D01*
X160147000Y-82524600D02*
X160147000Y-84759800D01*
X157175200Y-98501200D02*
X157175200Y-86955829D01*
%TO.N,Net-(J1-Pin_2)*%
X145678200Y-85646600D02*
X148114400Y-83210400D01*
X117602000Y-66802000D02*
X114935000Y-66802000D01*
X137845800Y-69519800D02*
X148082000Y-79756000D01*
X148082000Y-83185000D02*
X148114400Y-83210400D01*
X172999400Y-87198200D02*
X176758600Y-90957400D01*
X134594600Y-69519800D02*
X120319800Y-69519800D01*
X161645600Y-87198200D02*
X172999400Y-87198200D01*
X120319800Y-69519800D02*
X117602000Y-66802000D01*
X145678200Y-85646600D02*
X145614400Y-85582800D01*
X162001200Y-100965000D02*
X173050200Y-100965000D01*
X148082000Y-79756000D02*
X148082000Y-83185000D01*
X176758600Y-90957400D02*
X179908200Y-94107000D01*
X145678200Y-87613800D02*
X145678200Y-85646600D01*
X173050200Y-100965000D02*
X179908200Y-94107000D01*
X145614400Y-85582800D02*
X145614400Y-83210400D01*
%TO.N,/OUT_BULB*%
X178714400Y-116662200D02*
X179705000Y-117652800D01*
X174802800Y-116662200D02*
X178714400Y-116662200D01*
X162001200Y-103505000D02*
X163906200Y-103505000D01*
X179705000Y-117652800D02*
X179705000Y-120675400D01*
X179527200Y-102565200D02*
X180213000Y-103251000D01*
X180213000Y-103251000D02*
X180213000Y-115163600D01*
X163906200Y-103505000D02*
X164846000Y-102565200D01*
X180213000Y-115163600D02*
X178714400Y-116662200D01*
X178638200Y-121742200D02*
X172262800Y-121742200D01*
X179705000Y-120675400D02*
X178638200Y-121742200D01*
X164846000Y-102565200D02*
X179527200Y-102565200D01*
%TO.N,/FB_BULB*%
X175590200Y-106629200D02*
X177419000Y-104800400D01*
X177506000Y-108508000D02*
X177506000Y-104887400D01*
X177506000Y-104887400D02*
X177419000Y-104800400D01*
X157175200Y-103581200D02*
X160223200Y-106629200D01*
X160223200Y-106629200D02*
X175590200Y-106629200D01*
%TO.N,Net-(R18-Pad1)*%
X149352000Y-116001800D02*
X147421600Y-117932200D01*
X143611600Y-121742200D02*
X147421600Y-117932200D01*
X149352000Y-111480600D02*
X149352000Y-116001800D01*
X134391400Y-117996400D02*
X134391400Y-120231600D01*
X135725600Y-116662200D02*
X134391400Y-117996400D01*
X134391400Y-120231600D02*
X135902000Y-121742200D01*
X138557000Y-116662200D02*
X135725600Y-116662200D01*
X135902000Y-121742200D02*
X141097000Y-121742200D01*
X141097000Y-121742200D02*
X143611600Y-121742200D01*
%TO.N,Net-(R9-Pad2)*%
X108534200Y-108102400D02*
X116230400Y-108102400D01*
X114960400Y-81991200D02*
X112395000Y-84556600D01*
X114935000Y-81965800D02*
X114960400Y-81991200D01*
X112395000Y-84556600D02*
X112369600Y-84556600D01*
X107619800Y-107188000D02*
X108534200Y-108102400D01*
X112369600Y-91440000D02*
X107619800Y-96189800D01*
X107619800Y-96189800D02*
X107619800Y-107188000D01*
X116230400Y-108102400D02*
X117909600Y-106423200D01*
X114935000Y-76962000D02*
X114935000Y-81965800D01*
X117909600Y-106423200D02*
X117909600Y-102734000D01*
X112369600Y-84556600D02*
X112369600Y-91440000D01*
%TO.N,Net-(R14-Pad2)*%
X114909600Y-99263200D02*
X114985800Y-99339400D01*
X111909600Y-104142800D02*
X111909600Y-102734000D01*
X112344200Y-105791000D02*
X111302800Y-104749600D01*
X111909600Y-102734000D02*
X111909600Y-101577400D01*
X114985800Y-99339400D02*
X116103400Y-99339400D01*
X114935000Y-105791000D02*
X112344200Y-105791000D01*
X114909600Y-93268800D02*
X114909600Y-99263200D01*
X110490000Y-104749600D02*
X111302800Y-104749600D01*
X116103400Y-99339400D02*
X117449600Y-97993200D01*
X109909600Y-104169200D02*
X110490000Y-104749600D01*
X117449600Y-97993200D02*
X117449600Y-93268800D01*
X114147600Y-99339400D02*
X114985800Y-99339400D01*
X111302800Y-104749600D02*
X111909600Y-104142800D01*
X109909600Y-102734000D02*
X109909600Y-104169200D01*
X111909600Y-101577400D02*
X114147600Y-99339400D01*
%TO.N,Net-(J10-Pin_5)*%
X131572000Y-101752400D02*
X132994400Y-103174800D01*
X131572000Y-99796600D02*
X131572000Y-101752400D01*
X132994400Y-103174800D02*
X132994400Y-106205000D01*
%TO.N,Net-(J7-Pin_6)*%
X131582400Y-81828400D02*
X132765800Y-80645000D01*
X131582400Y-83337400D02*
X131582400Y-81828400D01*
X132765800Y-80645000D02*
X132765800Y-78587600D01*
%TO.N,Net-(C2-Pad2)*%
X114909600Y-84150200D02*
X115570000Y-83489800D01*
X117640100Y-82791300D02*
X118262400Y-82169000D01*
X115570000Y-83489800D02*
X116941600Y-83489800D01*
X114909600Y-88747600D02*
X119380000Y-93218000D01*
X118262400Y-82169000D02*
X118262400Y-75311000D01*
X128270000Y-73465600D02*
X128346200Y-73541800D01*
X119380000Y-97764600D02*
X115909600Y-101235000D01*
X116941600Y-83489800D02*
X117640100Y-82791300D01*
X114909600Y-88747600D02*
X114909600Y-85648800D01*
X117449600Y-85648800D02*
X117449600Y-82981800D01*
X115909600Y-102734000D02*
X113909600Y-102734000D01*
X128392000Y-74837600D02*
X128346200Y-74791800D01*
X117449600Y-82981800D02*
X117640100Y-82791300D01*
X122148800Y-73465600D02*
X128270000Y-73465600D01*
X114909600Y-85648800D02*
X114909600Y-84150200D01*
X132765800Y-74837600D02*
X128392000Y-74837600D01*
X119380000Y-93218000D02*
X119380000Y-97764600D01*
X118262400Y-75311000D02*
X118857800Y-74715600D01*
X118857800Y-74715600D02*
X122148800Y-74715600D01*
X115909600Y-101235000D02*
X115909600Y-102734000D01*
%TO.N,Net-(J7-Pin_2)*%
X122148800Y-78465600D02*
X122148800Y-81381800D01*
X124104400Y-83337400D02*
X126502400Y-83337400D01*
X122148800Y-81381800D02*
X124104400Y-83337400D01*
%TO.N,Net-(J7-Pin_4)*%
X128346200Y-78541800D02*
X128346200Y-80721200D01*
X128346200Y-80721200D02*
X129042400Y-81417400D01*
X129042400Y-81417400D02*
X129042400Y-83337400D01*
%TO.N,Net-(J10-Pin_1)*%
X122123200Y-102108000D02*
X122123200Y-106288200D01*
X124434600Y-99796600D02*
X122123200Y-102108000D01*
X126492000Y-99796600D02*
X124434600Y-99796600D01*
%TO.N,Net-(J10-Pin_3)*%
X129032000Y-102743000D02*
X128651000Y-103124000D01*
X129032000Y-99796600D02*
X129032000Y-102743000D01*
X128651000Y-103124000D02*
X128651000Y-106288200D01*
%TO.N,Net-(J10-Pin_2)*%
X129042400Y-85877400D02*
X131582400Y-85877400D01*
X131572000Y-97256600D02*
X133553200Y-95275400D01*
X133553200Y-87848200D02*
X133553200Y-95275400D01*
X119909600Y-101045000D02*
X119909600Y-102734000D01*
X126492000Y-97256600D02*
X123698000Y-97256600D01*
X126492000Y-97256600D02*
X129032000Y-97256600D01*
X123698000Y-97256600D02*
X119909600Y-101045000D01*
X133908800Y-99593400D02*
X131572000Y-97256600D01*
X129032000Y-97256600D02*
X131572000Y-97256600D01*
X143154400Y-99593400D02*
X133908800Y-99593400D01*
X131582400Y-85877400D02*
X133553200Y-87848200D01*
X126502400Y-85877400D02*
X129042400Y-85877400D01*
%TO.N,Net-(J6-Pin_1)*%
X161620200Y-110794800D02*
X161620200Y-113334800D01*
%TO.N,Net-(R2-Pad1)*%
X169722800Y-112928400D02*
X169722800Y-116662200D01*
X169748200Y-112903000D02*
X169722800Y-112928400D01*
X167346000Y-110500800D02*
X169748200Y-112903000D01*
X167346000Y-108508000D02*
X167346000Y-110500800D01*
%TO.N,Net-(J1-Pin_1)*%
X160147000Y-89789000D02*
X160147000Y-92532200D01*
X160147000Y-92532200D02*
X162001200Y-94386400D01*
X162001200Y-94386400D02*
X162001200Y-98425000D01*
%TD*%
M02*
