%TF.GenerationSoftware,KiCad,Pcbnew,8.0.4*%
%TF.CreationDate,2025-02-12T17:53:25-08:00*%
%TF.ProjectId,wien_bridge_oscillator,7769656e-5f62-4726-9964-67655f6f7363,rev?*%
%TF.SameCoordinates,Original*%
%TF.FileFunction,Soldermask,Bot*%
%TF.FilePolarity,Negative*%
%FSLAX46Y46*%
G04 Gerber Fmt 4.6, Leading zero omitted, Abs format (unit mm)*
G04 Created by KiCad (PCBNEW 8.0.4) date 2025-02-12 17:53:25*
%MOMM*%
%LPD*%
G01*
G04 APERTURE LIST*
G04 Aperture macros list*
%AMRoundRect*
0 Rectangle with rounded corners*
0 $1 Rounding radius*
0 $2 $3 $4 $5 $6 $7 $8 $9 X,Y pos of 4 corners*
0 Add a 4 corners polygon primitive as box body*
4,1,4,$2,$3,$4,$5,$6,$7,$8,$9,$2,$3,0*
0 Add four circle primitives for the rounded corners*
1,1,$1+$1,$2,$3*
1,1,$1+$1,$4,$5*
1,1,$1+$1,$6,$7*
1,1,$1+$1,$8,$9*
0 Add four rect primitives between the rounded corners*
20,1,$1+$1,$2,$3,$4,$5,0*
20,1,$1+$1,$4,$5,$6,$7,0*
20,1,$1+$1,$6,$7,$8,$9,0*
20,1,$1+$1,$8,$9,$2,$3,0*%
G04 Aperture macros list end*
%ADD10C,3.200000*%
%ADD11C,1.600000*%
%ADD12O,1.600000X1.600000*%
%ADD13C,2.800000*%
%ADD14R,1.600000X1.600000*%
%ADD15R,1.700000X1.700000*%
%ADD16O,1.700000X1.700000*%
%ADD17C,1.440000*%
%ADD18RoundRect,0.750000X0.750000X0.750000X-0.750000X0.750000X-0.750000X-0.750000X0.750000X-0.750000X0*%
%ADD19C,1.200000*%
G04 APERTURE END LIST*
D10*
%TO.C,H1*%
X187071000Y-59309000D03*
%TD*%
D11*
%TO.C,R4*%
X170307000Y-89789000D03*
D12*
X160147000Y-89789000D03*
%TD*%
D11*
%TO.C,C7*%
X140614400Y-83210400D03*
X141864400Y-83210400D03*
X144364400Y-83210400D03*
X145614400Y-83210400D03*
%TD*%
D13*
%TO.C,TP1*%
X136391000Y-58699400D03*
%TD*%
%TO.C,TP5*%
X186309000Y-98171000D03*
%TD*%
D14*
%TO.C,U1*%
X140614400Y-95173800D03*
D12*
X143154400Y-95173800D03*
X145694400Y-95173800D03*
X148234400Y-95173800D03*
X148234400Y-87553800D03*
X145694400Y-87553800D03*
X143154400Y-87553800D03*
X140614400Y-87553800D03*
%TD*%
D15*
%TO.C,J9*%
X157175200Y-98501200D03*
D16*
X157175200Y-101041200D03*
X157175200Y-103581200D03*
%TD*%
D14*
%TO.C,D2*%
X169037000Y-79324200D03*
D12*
X161417000Y-79324200D03*
%TD*%
D11*
%TO.C,C6*%
X130516000Y-64871600D03*
X129266000Y-64871600D03*
X126766000Y-64871600D03*
X125516000Y-64871600D03*
%TD*%
D15*
%TO.C,J10*%
X126492000Y-99796600D03*
D16*
X126492000Y-97256600D03*
X129032000Y-99796600D03*
X129032000Y-97256600D03*
X131572000Y-99796600D03*
X131572000Y-97256600D03*
%TD*%
D15*
%TO.C,J1*%
X162001200Y-98425000D03*
D16*
X162001200Y-100965000D03*
X162001200Y-103505000D03*
%TD*%
D11*
%TO.C,C4*%
X152196800Y-87597600D03*
X152196800Y-88847600D03*
X152196800Y-91347600D03*
X152196800Y-92597600D03*
%TD*%
D13*
%TO.C,TP4*%
X186436000Y-78486000D03*
%TD*%
D10*
%TO.C,H2*%
X109601000Y-59309000D03*
%TD*%
D11*
%TO.C,C5*%
X122148800Y-78465600D03*
X122148800Y-77215600D03*
X122148800Y-74715600D03*
X122148800Y-73465600D03*
%TD*%
D10*
%TO.C,H3*%
X187325000Y-124587000D03*
%TD*%
D11*
%TO.C,C1*%
X132994400Y-111205000D03*
X132994400Y-109955000D03*
X132994400Y-107455000D03*
X132994400Y-106205000D03*
%TD*%
%TO.C,C9*%
X164348800Y-64871600D03*
X163098800Y-64871600D03*
X160598800Y-64871600D03*
X159348800Y-64871600D03*
%TD*%
D15*
%TO.C,J2*%
X186309000Y-84963000D03*
D16*
X186309000Y-87503000D03*
X186309000Y-90043000D03*
X186309000Y-92583000D03*
%TD*%
D17*
%TO.C,RV1*%
X138557000Y-116662200D03*
X141097000Y-121742200D03*
X143637000Y-116662200D03*
%TD*%
D11*
%TO.C,C8*%
X128346200Y-78541800D03*
X128346200Y-77291800D03*
X128346200Y-74791800D03*
X128346200Y-73541800D03*
%TD*%
%TO.C,R1*%
X167259000Y-104800400D03*
D12*
X177419000Y-104800400D03*
%TD*%
D11*
%TO.C,C10*%
X122123200Y-111288200D03*
X122123200Y-110038200D03*
X122123200Y-107538200D03*
X122123200Y-106288200D03*
%TD*%
D18*
%TO.C,RV5*%
X108409600Y-91734000D03*
X121409600Y-91734000D03*
D19*
X111909600Y-102734000D03*
X109909600Y-102734000D03*
X119909600Y-102734000D03*
X113909600Y-102734000D03*
X115909600Y-102734000D03*
X117909600Y-102734000D03*
%TD*%
D15*
%TO.C,J6*%
X161620200Y-110794800D03*
D16*
X161620200Y-113334800D03*
X161620200Y-115874800D03*
X161620200Y-118414800D03*
%TD*%
D11*
%TO.C,R3*%
X179908200Y-94107000D03*
D12*
X179908200Y-83947000D03*
%TD*%
D11*
%TO.C,R14*%
X114935000Y-115951000D03*
D12*
X114935000Y-105791000D03*
%TD*%
D15*
%TO.C,J7*%
X126502400Y-85877400D03*
D16*
X126502400Y-83337400D03*
X129042400Y-85877400D03*
X129042400Y-83337400D03*
X131582400Y-85877400D03*
X131582400Y-83337400D03*
%TD*%
D11*
%TO.C,R6*%
X160147000Y-84759800D03*
D12*
X170307000Y-84759800D03*
%TD*%
D11*
%TO.C,C11*%
X128651000Y-111288200D03*
X128651000Y-110038200D03*
X128651000Y-107538200D03*
X128651000Y-106288200D03*
%TD*%
%TO.C,C2*%
X132765800Y-78587600D03*
X132765800Y-77337600D03*
X132765800Y-74837600D03*
X132765800Y-73587600D03*
%TD*%
D17*
%TO.C,RV3*%
X169722800Y-116662200D03*
X172262800Y-121742200D03*
X174802800Y-116662200D03*
%TD*%
D11*
%TO.C,R9*%
X114935000Y-66802000D03*
D12*
X114935000Y-76962000D03*
%TD*%
D13*
%TO.C,TP2*%
X144981000Y-58699400D03*
%TD*%
D11*
%TO.C,C3*%
X136575800Y-87352800D03*
X136575800Y-88602800D03*
X136575800Y-91102800D03*
X136575800Y-92352800D03*
%TD*%
D17*
%TO.C,RV2*%
X117449600Y-93268800D03*
X114909600Y-93268800D03*
X112369600Y-93268800D03*
X117449600Y-85648800D03*
X114909600Y-85648800D03*
X112369600Y-85648800D03*
%TD*%
D11*
%TO.C,R18*%
X149352000Y-111480600D03*
D12*
X149352000Y-101320600D03*
%TD*%
D13*
%TO.C,TP3*%
X153536000Y-58699400D03*
%TD*%
D15*
%TO.C,J5*%
X141090000Y-63398400D03*
D16*
X143630000Y-63398400D03*
X146170000Y-63398400D03*
X148710000Y-63398400D03*
%TD*%
D14*
%TO.C,D1*%
X161417000Y-76383800D03*
D12*
X169037000Y-76383800D03*
%TD*%
D10*
%TO.C,H4*%
X109601000Y-124333000D03*
%TD*%
D11*
%TO.C,R2*%
X167346000Y-108508000D03*
D12*
X177506000Y-108508000D03*
%TD*%
M02*
