M48
; DRILL file {KiCad 8.0.4} date 2025-02-12T17:53:16-0800
; FORMAT={-:-/ absolute / inch / decimal}
; #@! TF.CreationDate,2025-02-12T17:53:16-08:00
; #@! TF.GenerationSoftware,Kicad,Pcbnew,8.0.4
; #@! TF.FileFunction,Plated,1,2,PTH
FMAT,2
INCH
; #@! TA.AperFunction,Plated,PTH,ViaDrill
T1C0.0157
; #@! TA.AperFunction,Plated,PTH,ComponentDrill
T2C0.0315
; #@! TA.AperFunction,Plated,PTH,ComponentDrill
T3C0.0394
; #@! TA.AperFunction,Plated,PTH,ComponentDrill
T4C0.0630
; #@! TA.AperFunction,Plated,PTH,ComponentDrill
T5C0.0787
%
G90
G05
T1
X5.299Y-2.737
X5.427Y-2.737
X5.636Y-3.921
X5.83Y-3.275
X6.364Y-3.433
T2
X4.3271Y-4.0446
X4.4059Y-4.0446
X4.424Y-3.372
X4.424Y-3.672
X4.4846Y-4.0446
X4.524Y-3.372
X4.524Y-3.672
X4.525Y-2.63
X4.525Y-3.03
X4.525Y-4.165
X4.525Y-4.565
X4.5634Y-4.0446
X4.624Y-3.372
X4.624Y-3.672
X4.6421Y-4.0446
X4.7209Y-4.0446
X4.808Y-4.1846
X4.808Y-4.2338
X4.808Y-4.3322
X4.808Y-4.3814
X4.809Y-2.8923
X4.809Y-2.9416
X4.809Y-3.04
X4.809Y-3.0892
X4.9416Y-2.554
X4.9908Y-2.554
X5.053Y-2.8953
X5.053Y-2.9446
X5.053Y-3.043
X5.053Y-3.0922
X5.065Y-4.1846
X5.065Y-4.2338
X5.065Y-4.3322
X5.065Y-4.3814
X5.0892Y-2.554
X5.1384Y-2.554
X5.227Y-2.8971
X5.227Y-2.9464
X5.227Y-3.0448
X5.227Y-3.094
X5.236Y-4.1813
X5.236Y-4.2305
X5.236Y-4.3289
X5.236Y-4.3781
X5.377Y-3.4391
X5.377Y-3.4883
X5.377Y-3.5867
X5.377Y-3.6359
X5.455Y-4.593
X5.536Y-3.276
X5.536Y-3.447
X5.536Y-3.747
X5.555Y-4.793
X5.5852Y-3.276
X5.636Y-3.447
X5.636Y-3.747
X5.655Y-4.593
X5.6836Y-3.276
X5.7329Y-3.276
X5.736Y-3.447
X5.736Y-3.747
X5.836Y-3.447
X5.836Y-3.747
X5.88Y-3.989
X5.88Y-4.389
X5.992Y-3.4487
X5.992Y-3.4979
X5.992Y-3.5964
X5.992Y-3.6456
X6.2736Y-2.554
X6.305Y-3.337
X6.305Y-3.535
X6.3228Y-2.554
X6.355Y-3.0072
X6.355Y-3.123
X6.4212Y-2.554
X6.4704Y-2.554
X6.585Y-4.126
X6.5884Y-4.272
X6.655Y-3.0072
X6.655Y-3.123
X6.682Y-4.593
X6.705Y-3.337
X6.705Y-3.535
X6.782Y-4.793
X6.882Y-4.593
X6.985Y-4.126
X6.9884Y-4.272
X7.083Y-3.305
X7.083Y-3.705
T3
X4.98Y-3.829
X4.98Y-3.929
X4.9804Y-3.281
X4.9804Y-3.381
X5.08Y-3.829
X5.08Y-3.929
X5.0804Y-3.281
X5.0804Y-3.381
X5.18Y-3.829
X5.18Y-3.929
X5.1804Y-3.281
X5.1804Y-3.381
X5.5547Y-2.496
X5.6547Y-2.496
X5.7547Y-2.496
X5.8547Y-2.496
X6.188Y-3.878
X6.188Y-3.978
X6.188Y-4.078
X6.363Y-4.362
X6.363Y-4.462
X6.363Y-4.562
X6.363Y-4.662
X6.378Y-3.875
X6.378Y-3.975
X6.378Y-4.075
X7.335Y-3.345
X7.335Y-3.445
X7.335Y-3.545
X7.335Y-3.645
T4
X5.3697Y-2.311
X5.7079Y-2.311
X6.0447Y-2.311
X7.335Y-3.865
X7.34Y-3.09
T5
G00X4.2681Y-3.6135
M15
G01X4.2681Y-3.6096
M16
G05
G00X4.7799Y-3.6135
M15
G01X4.7799Y-3.6096
M16
G05
M30
